<svg xmlns="http://www.w3.org/2000/svg" width="31.5" height="31.5" viewBox="0 0 31.5 31.5"><defs><style>.a{opacity:0.6;}.b{fill:#9091a3;}</style></defs><g class="a" transform="translate(-2.25 -2.25)"><path class="b" d="M18,2.25A15.653,15.653,0,0,0,2.25,18,15.653,15.653,0,0,0,18,33.75,15.653,15.653,0,0,0,33.75,18,15.653,15.653,0,0,0,18,2.25ZM18,31.5A13.5,13.5,0,1,1,31.5,18,13.54,13.54,0,0,1,18,31.5Z"/><path class="b" d="M24.075,25.875,18,19.8l-6.075,6.075-1.8-1.8L16.2,18l-6.075-6.075,1.8-1.8L18,16.2l6.075-6.075,1.8,1.8L19.8,18l6.075,6.075Z"/></g></svg>