<svg xmlns="http://www.w3.org/2000/svg" width="59.941" height="47.455" viewBox="0 0 59.941 47.455"><defs><style>.a{fill:#bb914a;}</style></defs><g transform="translate(-4.5 -6.75)"><path class="a" d="M24.481,29.229H9.771a22.479,22.479,0,0,1,9.715-15.337l4.471-3L21.209,6.75l-4.469,3A27.474,27.474,0,0,0,4.5,32.6V49.21a5,5,0,0,0,5,5H24.481a5,5,0,0,0,5-5V34.224A5,5,0,0,0,24.481,29.229Z" transform="translate(0 0)"/><path class="a" d="M40.232,29.229H25.522a22.479,22.479,0,0,1,9.715-15.337l4.471-3L36.984,6.75l-4.5,3A27.474,27.474,0,0,0,20.249,32.6V49.21a5,5,0,0,0,5,5H40.23a5,5,0,0,0,5-5V34.224a5,5,0,0,0-5-5Z" transform="translate(19.216 0)"/></g></svg>