<svg id="ico-news" xmlns="http://www.w3.org/2000/svg" width="57.361" height="70" viewBox="0 0 57.361 70">
  <path id="Path_3224" data-name="Path 3224" d="M1399.793,1834.423a1.134,1.134,0,0,0-1.134,1.134v1.933H1354.75v-2.917c0-.006,0-.012,0-.019s0-.012,0-.019V1776.79h43.909v22.6a1.134,1.134,0,1,0,2.268,0v-23.734a1.135,1.135,0,0,0-1.134-1.135h-6.1v-3.629a1.134,1.134,0,0,0-1.135-1.134H1348.1a1.134,1.134,0,0,0-1.134,1.134v63.661a1.134,1.134,0,0,0,1.134,1.134h4.383v2.936a1.134,1.134,0,0,0,1.134,1.134h46.177a1.134,1.134,0,0,0,1.134-1.134v-3.068A1.134,1.134,0,0,0,1399.793,1834.423Zm-50.56-1v-61.393h42.189v2.495h-37.806a1.134,1.134,0,0,0-1.134,1.135v57.764Z" transform="translate(-1346.965 -1769.759)" fill="#bb914a"/>
  <path id="Path_3225" data-name="Path 3225" d="M1419.38,1809.354a1.134,1.134,0,0,0-1.134-1.134H1388.91a1.134,1.134,0,0,0,0,2.268h29.336A1.134,1.134,0,0,0,1419.38,1809.354Z" transform="translate(-1373.335 -1794.61)" fill="#bb914a"/>
  <path id="Path_3226" data-name="Path 3226" d="M1404.259,1824.738a1.134,1.134,0,0,0-1.134-1.134H1388.91a1.134,1.134,0,0,0,0,2.268h14.214A1.134,1.134,0,0,0,1404.259,1824.738Z" transform="translate(-1373.335 -1804.551)" fill="#bb914a"/>
  <path id="Path_3227" data-name="Path 3227" d="M1388.91,1839.844a1.134,1.134,0,0,0,0,2.268h7.712a1.134,1.134,0,0,0,0-2.268Z" transform="translate(-1373.335 -1815.044)" fill="#bb914a"/>
  <path id="Path_3228" data-name="Path 3228" d="M1439.108,1869.269a1.154,1.154,0,0,0-1.621.182l-11.06,13.855-5.377-7.458a1.154,1.154,0,0,0-1.954.132l-7.033,13.188-3.87-6.86a1.153,1.153,0,0,0-1.93-.123l-4.568,6.129a1.154,1.154,0,1,0,1.85,1.379l3.51-4.708,4.032,7.148a1.154,1.154,0,0,0,1.005.587h.014a1.154,1.154,0,0,0,1-.611l7.152-13.41,5.183,7.19a1.154,1.154,0,0,0,.907.479,1.169,1.169,0,0,0,.93-.434l12.009-15.043A1.154,1.154,0,0,0,1439.108,1869.269Z" transform="translate(-1382.181 -1833.895)" fill="#bb914a"/>
</svg>
