<svg id="ico-compare-platforms" xmlns="http://www.w3.org/2000/svg" width="65.781" height="70" viewBox="0 0 65.781 70">
  <path id="Path_3208" data-name="Path 3208" d="M4549.292,3506.1h-4.112a.964.964,0,1,0,0,1.928h4.112a.964.964,0,1,0,0-1.928Z" transform="translate(-4499.032 -3442.967)" fill="#bb914a"/>
  <path id="Path_3209" data-name="Path 3209" d="M4542.66,3395.214h-17.5l5.883-7.523a.959.959,0,0,0-1.511-1.181l-7.036,9a.956.956,0,0,0,0,1.181l7.036,9a.959.959,0,0,0,1.51-1.181l-5.768-7.376h17.382a.958.958,0,0,0,0-1.917Z" transform="translate(-4483.584 -3358.431)" fill="#bb914a"/>
  <path id="Path_3210" data-name="Path 3210" d="M4450.857,3300.871h-22.8a6.1,6.1,0,0,0-1.779.265v-2.695a6.142,6.142,0,0,0-6.135-6.135h-22.8a6.142,6.142,0,0,0-6.135,6.135v49.167a6.142,6.142,0,0,0,6.135,6.135h22.8a6.124,6.124,0,0,0,1.779-.265v2.694a6.142,6.142,0,0,0,6.134,6.135h22.8a6.142,6.142,0,0,0,6.135-6.135v-49.166A6.142,6.142,0,0,0,4450.857,3300.871Zm-57.719-2.43a4.212,4.212,0,0,1,4.207-4.207h22.8a4.212,4.212,0,0,1,4.207,4.207v.766h-31.213Zm31.213,11.258v31.913h-31.213v-40.477h31.213v8.564Zm-2.428,41.716a4.175,4.175,0,0,1-1.779.4h-22.8a4.212,4.212,0,0,1-4.207-4.207v-4.068h31.213v4.068a4.18,4.18,0,0,1-.5,1.987A3.825,3.825,0,0,1,4421.924,3351.415Zm33.141,4.757a4.212,4.212,0,0,1-4.207,4.208h-22.8a4.212,4.212,0,0,1-4.207-4.208v-3.687q.237-.18.454-.381h30.76Zm0-6h-29.356a6.08,6.08,0,0,0,.571-2.568V3309.7h28.785Zm0-42.4h-28.785V3303.2a4.173,4.173,0,0,1,1.779-.4h22.8a4.212,4.212,0,0,1,4.207,4.207Z" transform="translate(-4391.211 -3292.307)" fill="#bb914a"/>
  <path id="Path_3211" data-name="Path 3211" d="M4445.292,3477.1h-4.112a.964.964,0,1,0,0,1.927h4.112a.964.964,0,1,0,0-1.927Z" transform="translate(-4425.744 -3422.531)" fill="#bb914a"/>
  <path id="Path_3212" data-name="Path 3212" d="M4435.417,3358.506l-7.037-9a.958.958,0,0,0-1.51,1.181l5.768,7.376h-17.381a.958.958,0,0,0,0,1.917h17.5l-5.883,7.523a.959.959,0,0,0,.753,1.549,1.057,1.057,0,0,0,.118-.007.949.949,0,0,0,.639-.361l7.038-9A.958.958,0,0,0,4435.417,3358.506Z" transform="translate(-4407.48 -3332.355)" fill="#bb914a"/>
</svg>
