<svg id="ico-account-funding" xmlns="http://www.w3.org/2000/svg" width="76.315" height="70" viewBox="0 0 76.315 70">
  <path id="Path_3084" data-name="Path 3084" d="M309.783,364.7a6.805,6.805,0,0,1-3.674-1.094l-.706-.472-1.131,3.154.408.293A8.574,8.574,0,0,0,308.7,367.9v2.871h3.1v-3.044a5.474,5.474,0,0,0,4.437-5.316c0-3.374-2.547-4.845-4.763-5.751-2.629-1.088-3.072-1.677-3.072-2.586,0-.846.61-1.753,2.313-1.753a6.131,6.131,0,0,1,3.208.868l.675.386,1.176-3.105-.484-.283a7.9,7.9,0,0,0-3.321-1.032v-2.765h-3.07v2.957a5.157,5.157,0,0,0-4.238,5.063c0,3.07,2.43,4.445,5.047,5.471,1.96.794,2.758,1.584,2.758,2.725C312.462,363.858,311.386,364.7,309.783,364.7Zm.413-6.046c-3.031-1.188-4.211-2.377-4.211-4.238,0-2.015,1.41-3.5,3.682-3.865l.558-.092v-2.736h.413v2.7l.64.021a7.173,7.173,0,0,1,2.844.632l-.23.6a7.555,7.555,0,0,0-3.181-.681c-2.514,0-3.641,1.545-3.641,3.078,0,2.04,1.687,2.9,3.9,3.815,2.8,1.139,3.938,2.452,3.938,4.521a4.222,4.222,0,0,1-3.879,4.121l-.558.092v2.818h-.439v-2.826l-.653-.01a8.141,8.141,0,0,1-3.5-.852l.224-.626a8.188,8.188,0,0,0,3.686.895c2.323,0,4.006-1.435,4.006-3.415C313.789,360.392,311.875,359.329,310.2,358.649Z" transform="translate(-270.998 -341.638)" fill="#bb914a"/>
  <path id="Path_3085" data-name="Path 3085" d="M341.769,368.764a16.53,16.53,0,1,0-28.734,0h-19.9L288.06,382.57l2.389,31.505H362.3l2.079-31.577-6.438-13.734Zm-29-8.158a14.622,14.622,0,0,1,23.24-11.823c.185.135.365.273.544.417a14.748,14.748,0,0,1,3.454,3.986,14.556,14.556,0,0,1,2.028,7.421c0,.5-.027,1-.076,1.492a14.468,14.468,0,0,1-1.075,4.2,14.726,14.726,0,0,1-5.305,6.442,14.628,14.628,0,0,1-22.809-12.131Zm18.173,16.143h19.772v3.39h-49v-3.39h22.144c.068.016.137.029.205.041a16.559,16.559,0,0,0,3.259.345l.076,0A16.388,16.388,0,0,0,330.943,376.75Zm28.689,34.479H293.086l-1.913-25.256h70.121Zm1.818-27.638-.025.376H291.019l-.027-.374-.047-.622,4.174-11.36h19.963c.234.265.488.507.739.753a16.551,16.551,0,0,0,4.263,3.06H300.39v6.044h51.652v-6.044H334.721a16.628,16.628,0,0,0,5-3.813h16.406l5.359,11.433Z" transform="translate(-288.06 -344.075)" fill="#bb914a"/>
</svg>
