<svg id="ico-products" xmlns="http://www.w3.org/2000/svg" width="67.911" height="70" viewBox="0 0 67.911 70">
  <rect id="Rectangle_4434" data-name="Rectangle 4434" width="6.269" height="5.224" transform="translate(1.306 64.776)" fill="#bb914a"/>
  <rect id="Rectangle_4435" data-name="Rectangle 4435" width="6.269" height="9.403" transform="translate(15.933 60.597)" fill="#bb914a"/>
  <rect id="Rectangle_4436" data-name="Rectangle 4436" width="6.269" height="8.358" transform="translate(30.56 61.642)" fill="#bb914a"/>
  <rect id="Rectangle_4437" data-name="Rectangle 4437" width="6.269" height="11.493" transform="translate(45.187 58.507)" fill="#bb914a"/>
  <rect id="Rectangle_4438" data-name="Rectangle 4438" width="6.269" height="13.582" transform="translate(59.814 56.418)" fill="#bb914a"/>
  <path id="Path_3235" data-name="Path 3235" d="M575.548,546.157a1.309,1.309,0,0,0-.849-.727L563.206,542.3a1.306,1.306,0,1,0-.687,2.52l8.115,2.213L543.8,557.206l-7.769-6.8a1.3,1.3,0,0,0-1.425-.2l-26.119,12.537a1.306,1.306,0,0,0,1.13,2.355l25.342-12.165,7.71,6.746a1.306,1.306,0,0,0,1.323.239L571.491,549.5l-3.528,7.056a1.306,1.306,0,1,0,2.336,1.168l5.224-10.448A1.311,1.311,0,0,0,575.548,546.157Z" transform="translate(-507.75 -504.377)" fill="#bb914a"/>
  <path id="Path_3236" data-name="Path 3236" d="M554.436,506a18.218,18.218,0,0,0-13.444,5.922h0a18.284,18.284,0,1,0,0,24.721h0A18.275,18.275,0,1,0,554.436,506Zm-26.887,33.955a15.672,15.672,0,1,1,15.672-15.672A15.689,15.689,0,0,1,527.549,539.955Zm26.887,0a15.624,15.624,0,0,1-11.783-5.373c-.252.369-.52.724-.8,1.069a18.224,18.224,0,0,0,0-22.734c.28.345.549.7.8,1.069a15.662,15.662,0,1,1,11.783,25.97Z" transform="translate(-507.682 -506)" fill="#bb914a"/>
  <g id="Group_3939" data-name="Group 3939" transform="translate(14.317 7.795)">
    <path id="Path_3237" data-name="Path 3237" d="M531.886,527.547a5.139,5.139,0,0,1-.194,1.391,3.854,3.854,0,0,1-.649,1.293,4.162,4.162,0,0,1-1.2,1.044,5.783,5.783,0,0,1-1.826.663v1.978a.416.416,0,0,1-.132.3.424.424,0,0,1-.307.131h-1.992a.448.448,0,0,1-.438-.435v-1.848q-.848-.044-1.533-.141t-1.293-.228a.675.675,0,0,1-.294-.153.365.365,0,0,1-.119-.283V529.7a.409.409,0,0,1,.413-.413h.044q.326.044.858.076t1.1.065c.377.022.736.041,1.076.054s.612.022.815.022a2.953,2.953,0,0,0,1.989-.5,1.905,1.905,0,0,0,.532-1.456,1.73,1.73,0,0,0-.087-.576,1.5,1.5,0,0,0-.294-.49,3.118,3.118,0,0,0-.564-.489c-.239-.166-.541-.358-.9-.576l-2.869-1.718a7.44,7.44,0,0,1-1.251-.912,4.459,4.459,0,0,1-.783-.947,3.462,3.462,0,0,1-.413-1.021,5.021,5.021,0,0,1-.119-1.1,4.89,4.89,0,0,1,.2-1.413,3.287,3.287,0,0,1,.631-1.173,3.657,3.657,0,0,1,1.141-.891,5.434,5.434,0,0,1,1.728-.522V513.9a.415.415,0,0,1,.132-.3.42.42,0,0,1,.306-.131h1.992a.424.424,0,0,1,.307.131.416.416,0,0,1,.132.3v1.74q.912.044,1.772.141a10.977,10.977,0,0,1,1.292.207.663.663,0,0,1,.283.141.347.347,0,0,1,.109.272V518a.4.4,0,0,1-.1.282.344.344,0,0,1-.272.109h-.044q-1.086-.108-2.152-.163t-2.138-.054a2.981,2.981,0,0,0-1.76.4,1.345,1.345,0,0,0-.535,1.141,1.548,1.548,0,0,0,.075.489,1.315,1.315,0,0,0,.283.457,2.874,2.874,0,0,0,.555.457q.346.229.869.533l2.608,1.456a8.858,8.858,0,0,1,1.478,1.01,4.966,4.966,0,0,1,.934,1.054,3.487,3.487,0,0,1,.479,1.13A5.714,5.714,0,0,1,531.886,527.547Z" transform="translate(-521.453 -513.461)" fill="#bb914a"/>
  </g>
  <g id="Group_3940" data-name="Group 3940" transform="translate(41.028 9.047)">
    <path id="Path_3238" data-name="Path 3238" d="M558.823,531.618a1.159,1.159,0,0,1-.368.173q-.254.069-1.142.219a13.81,13.81,0,0,1-2.225.149,8.7,8.7,0,0,1-2.086-.277,6.488,6.488,0,0,1-2.1-.946,5.743,5.743,0,0,1-1.684-1.833,6.837,6.837,0,0,1-.858-2.917h-.875a.469.469,0,0,1-.461-.462V524.62a.469.469,0,0,1,.461-.461h.83v-1.568h-.83a.469.469,0,0,1-.461-.461v-1.107a.469.469,0,0,1,.461-.461h.875a6.838,6.838,0,0,1,.892-2.94,5.865,5.865,0,0,1,1.685-1.8,6.146,6.146,0,0,1,2.093-.91,9.435,9.435,0,0,1,2.086-.254,13.449,13.449,0,0,1,2.213.15q.876.149,1.13.218a1.16,1.16,0,0,1,.368.173.417.417,0,0,1,.139.357V517.1a.612.612,0,0,1-.092.346.388.388,0,0,1-.346.138h-.069q-.809-.069-1.592-.126t-1.705-.057a4.358,4.358,0,0,0-1.234.172,3.052,3.052,0,0,0-1.867,1.51,4.454,4.454,0,0,0-.473,1.476h5.672a.36.36,0,0,1,.265.1.335.335,0,0,1,.1.242.093.093,0,0,1-.011.057c-.008.008-.011.027-.011.057l-.3,1.107a.817.817,0,0,1-.161.323.374.374,0,0,1-.3.138h-5.327v1.568h4.751a.36.36,0,0,1,.265.1.333.333,0,0,1,.1.242c0,.03,0,.05-.011.057s-.012.027-.012.057l-.3,1.106a.8.8,0,0,1-.161.324.374.374,0,0,1-.3.138h-4.289a4.726,4.726,0,0,0,.462,1.487,3.166,3.166,0,0,0,.807,1,3.053,3.053,0,0,0,1.071.564,4.337,4.337,0,0,0,1.235.173q.921,0,1.648-.057t1.673-.128h.069a.386.386,0,0,1,.346.139.607.607,0,0,1,.092.346v1.544A.417.417,0,0,1,558.823,531.618Z" transform="translate(-547.019 -514.659)" fill="#bb914a"/>
  </g>
</svg>
