<svg id="ico-partnerships" xmlns="http://www.w3.org/2000/svg" width="66.994" height="70" viewBox="0 0 66.994 70">
  <path id="Path_3231" data-name="Path 3231" d="M3056,2304.107a1.045,1.045,0,0,0,1.394-.489,29.676,29.676,0,0,1,4.205-6.437,39.3,39.3,0,0,0,8.272,3.093,49.56,49.56,0,0,0-1.216,4.911,1.044,1.044,0,0,0,.825,1.225,1.067,1.067,0,0,0,.2.02,1.044,1.044,0,0,0,1.024-.845,46.871,46.871,0,0,1,1.207-4.834,58.344,58.344,0,0,0,11.163,1.25v.823a1.045,1.045,0,0,0,2.089,0V2302a58.352,58.352,0,0,0,11.164-1.25q.432,1.4.792,2.915a1.044,1.044,0,0,0,2.033-.481q-.355-1.5-.786-2.91a39.3,39.3,0,0,0,8.274-3.094,29.647,29.647,0,0,1,4.326,6.694,1.045,1.045,0,0,0,1.891-.887,31.75,31.75,0,0,0-5.178-7.788l-.022-.024a31.706,31.706,0,0,0-47.081,0l-.017.019a31.777,31.777,0,0,0-5.05,7.516A1.044,1.044,0,0,0,3056,2304.107Zm16.583-5.346c2.495-6.791,6.336-11.229,10.492-11.871v13.022A56.346,56.346,0,0,1,3072.583,2298.76Zm12.582,1.151v-13.023c4.147.638,7.988,5.045,10.492,11.872A56.367,56.367,0,0,1,3085.165,2299.911Zm15.058-8.353a29.814,29.814,0,0,1,4.953,4.028,38.031,38.031,0,0,1-7.467,2.7,30.019,30.019,0,0,0-4.357-8.252,17.805,17.805,0,0,0-2.225-2.393A29.462,29.462,0,0,1,3100.223,2291.559Zm-32.086-.076a29.455,29.455,0,0,1,8.968-3.834c-2.64,2.337-4.911,5.988-6.578,10.641a38.027,38.027,0,0,1-7.46-2.7A29.822,29.822,0,0,1,3068.137,2291.482Z" transform="translate(-3050.618 -2284.718)" fill="#bb914a"/>
  <path id="Path_3232" data-name="Path 3232" d="M3113.314,2438.708a1.045,1.045,0,0,0-1.427.382,29.672,29.672,0,0,1-3.156,4.451,40.128,40.128,0,0,0-9.616-3.642c-.014,0-.028,0-.042-.006a1.072,1.072,0,0,0-.11-.014c-.033,0-.065,0-.1,0a1.035,1.035,0,0,0-.107.008c-.032,0-.063.008-.094.014s-.069.018-.1.029-.059.019-.087.031-.065.031-.1.048-.052.03-.078.046a.989.989,0,0,0-.087.066c-.023.02-.047.039-.068.061a.963.963,0,0,0-.071.08c-.021.025-.041.051-.06.079s-.035.057-.051.088a1.022,1.022,0,0,0-.047.1c-.006.013-.013.025-.018.038-2.741,7.566-6.741,12.5-10.648,13.256v-7.647a1.045,1.045,0,0,0-2.089,0v7.647c-3.894-.761-7.882-5.692-10.615-13.255-.005-.014-.013-.024-.018-.038-.014-.034-.03-.067-.047-.1s-.032-.058-.05-.086a.848.848,0,0,0-.062-.082c-.021-.026-.043-.052-.066-.076s-.049-.045-.074-.065a.951.951,0,0,0-.081-.062c-.027-.018-.056-.034-.084-.05s-.06-.032-.091-.045-.061-.023-.093-.033-.064-.02-.1-.027a.942.942,0,0,0-.1-.015c-.035,0-.069-.007-.1-.008a.946.946,0,0,0-.1,0,1.045,1.045,0,0,0-.109.014c-.014,0-.028,0-.042.005a39.906,39.906,0,0,0-9.646,3.647,29.706,29.706,0,0,1-3.159-4.455,1.045,1.045,0,0,0-1.809,1.045,31.8,31.8,0,0,0,3.964,5.43c.013.014.024.029.037.042a31.689,31.689,0,0,0,46.977,0c.013-.012.024-.027.037-.041a31.771,31.771,0,0,0,3.965-5.43A1.044,1.044,0,0,0,3113.314,2438.708Zm-42.143,11.124a29.76,29.76,0,0,1-6.029-4.7,38.036,38.036,0,0,1,7.768-2.977c1.889,4.925,4.291,8.712,6.931,11.073A29.491,29.491,0,0,1,3071.171,2449.831Zm30.069,0a29.5,29.5,0,0,1-8.671,3.4,17.529,17.529,0,0,0,1.659-1.7,32.7,32.7,0,0,0,5.3-9.373,38.262,38.262,0,0,1,7.737,2.981A29.765,29.765,0,0,1,3101.24,2449.831Z" transform="translate(-3052.704 -2386.011)" fill="#bb914a"/>
  <path id="Path_3233" data-name="Path 3233" d="M3106.04,2391.506a3.5,3.5,0,0,1-3.471-3.471,3.5,3.5,0,0,1-3.472-3.471,3.5,3.5,0,0,1-3.471-3.472,3.51,3.51,0,0,0-4.963,0l-1.473,1.473a42.7,42.7,0,0,1,6.943,11.906,3.5,3.5,0,0,1,3.471,3.471,3.509,3.509,0,0,0,4.963,0l1-1a3.51,3.51,0,0,0,5.9-1.812,3.538,3.538,0,0,0,.774.088,3.5,3.5,0,0,0,3.42-2.733,3.54,3.54,0,0,0,.914.124,7.935,7.935,0,0,1,4.346-6.105,3.514,3.514,0,0,0,0-4.963l-8.455-8.454a1.045,1.045,0,0,0-1.478,1.477l8.455,8.454a1.417,1.417,0,0,1-1.849,2.139l-.011-.011a1.03,1.03,0,0,0-.16-.13l-4.716-4.716a1.045,1.045,0,0,0-1.477,1.477l4.727,4.726a3.493,3.493,0,0,0,.28.25l1.342,1.343a1.42,1.42,0,0,1-2.008,2.009l-.6-.6a3.525,3.525,0,0,0-.249-.279L3109.49,2384a1.045,1.045,0,0,0-1.477,1.478l4.473,4.472a1.046,1.046,0,0,0,.13.16l.76.76a1.418,1.418,0,0,1-2.144,1.844l-.48-.48a3.525,3.525,0,0,0-.25-.279l-4.63-4.631a1.045,1.045,0,0,0-1.477,1.478l3.756,3.756a1.039,1.039,0,0,0,.131.159l.878.879a1.418,1.418,0,0,1-2.144,1.845l-.187-.187a3.5,3.5,0,0,0-.79-3.751Zm-15.789-6.459a1.412,1.412,0,0,1,.416-1l1.473-1.473a1.416,1.416,0,0,1,2.1,1.9c-.035.032-.071.062-.1.1l-1.473,1.473c-.034.033-.063.07-.095.1a1.415,1.415,0,0,1-2.316-1.094Zm3.471,3.471a1.4,1.4,0,0,1,.326-.895c.035-.032.071-.062.1-.1l1.473-1.473h0c.033-.033.063-.07.095-.1a1.413,1.413,0,0,1,1.986,1.992c-.034.031-.069.059-.1.092l-1.473,1.473c-.033.033-.062.069-.094.1a1.415,1.415,0,0,1-2.316-1.094Zm3.8,2.575c.034-.032.069-.06.1-.093l1.473-1.473h0c.033-.034.062-.069.093-.1a1.413,1.413,0,0,1,1.989,1.99c-.034.031-.07.061-.1.093l-1.473,1.473c-.033.033-.061.068-.092.1a1.412,1.412,0,0,1-1.99-1.988Zm4.563,5.789a1.415,1.415,0,0,1-1.091-2.319c.033-.031.069-.059.1-.092l1.473-1.473c.033-.033.063-.07.094-.1a1.417,1.417,0,0,1,1.9,2.1h0l-1.473,1.473A1.412,1.412,0,0,1,3102.085,2396.882Z" transform="translate(-3072.182 -2342.699)" fill="#bb914a"/>
  <path id="Path_3234" data-name="Path 3234" d="M3107.334,2372.786h-4.711v-19.129h4.711a1.044,1.044,0,1,0,0-2.089h-11.208a1.044,1.044,0,0,0-1.044,1.044v1.555h-4.151l-3.222-4.716a3.54,3.54,0,0,0-2.924-1.544h-7.418a3.52,3.52,0,0,0-2.5,1.038l-1.535,1.535h-6.16a7.959,7.959,0,0,0-5.665,2.346l-1.131,1.131h-5.689v-1.344a1.044,1.044,0,0,0-1.044-1.044H3042.43a1.044,1.044,0,0,0,0,2.089h4.711v19.129h-4.711a1.045,1.045,0,0,0,0,2.089h11.208a1.045,1.045,0,0,0,1.044-1.045v-1.1h1.975a1.044,1.044,0,1,0,0-2.089h-1.975v-14.6h6.122a1.045,1.045,0,0,0,.739-.306l1.437-1.437a5.882,5.882,0,0,1,4.187-1.735h4.071l-1.166,1.167a3.96,3.96,0,1,0,5.6,5.6l3.722-3.722h4.23a1.045,1.045,0,1,0,0-2.089h-4.663a1.046,1.046,0,0,0-.739.306l-4.028,4.028a1.871,1.871,0,0,1-2.646-2.646l2.949-2.949h0l1.841-1.841a1.443,1.443,0,0,1,1.027-.426h7.418a1.454,1.454,0,0,1,1.2.633l3.533,5.172a1.043,1.043,0,0,0,.862.455h4.7v14.387h-4.093a1.044,1.044,0,1,0,0,2.089h4.093v1.1a1.044,1.044,0,0,0,1.044,1.045h11.208a1.045,1.045,0,0,0,0-2.089Zm-54.741,0h-3.363v-19.129h3.363Zm44.578-19.129h3.363v19.129h-3.363Z" transform="translate(-3041.385 -2326.321)" fill="#bb914a"/>
</svg>
