<svg id="ico-promotions" xmlns="http://www.w3.org/2000/svg" width="67.034" height="70" viewBox="0 0 67.034 70">
  <path id="Path_3244" data-name="Path 3244" d="M2060.976,850.465H2013.2a5.014,5.014,0,0,1-5.008-5.008V814.733a6.561,6.561,0,0,1-4.623-6.26v-6.164a6.557,6.557,0,0,1,6.549-6.549h7.436l-1.935-1.934a6.558,6.558,0,0,1,0-9.262l2.18-2.179a6.548,6.548,0,0,1,9.262,0l9.262,9.262a.775.775,0,1,0,1.526,0l9.262-9.262a6.548,6.548,0,0,1,9.262,0l2.18,2.179a6.558,6.558,0,0,1,0,9.262l-1.935,1.935h7.436a6.557,6.557,0,0,1,6.549,6.549v6.164a6.561,6.561,0,0,1-4.623,6.26v30.724A5.014,5.014,0,0,1,2060.976,850.465Zm-17.336-2.312h17.336a2.7,2.7,0,0,0,2.7-2.7V815.022h-20.033Zm-10.787,0h8.476V815.022h-8.476Zm-22.345-33.132v30.435a2.7,2.7,0,0,0,2.7,2.7h17.336V815.022Zm35.443-2.312h18.107a4.243,4.243,0,0,0,4.238-4.238v-6.164a4.243,4.243,0,0,0-4.238-4.238h-10.112a1.176,1.176,0,0,1-.253,0h-7.742Zm-3.467,0h1.156v-14.64h-13.1v14.64Zm-32.361-14.64a4.243,4.243,0,0,0-4.238,4.238v6.164a4.242,4.242,0,0,0,4.238,4.238h18.107v-14.64Zm34.673-2.311h8.558l3.569-3.569a4.243,4.243,0,0,0,0-5.993l-2.18-2.179a4.237,4.237,0,0,0-5.993,0l-9.262,9.262a4.218,4.218,0,0,0-1.211,2.479Zm-15.41,0h6.519a4.218,4.218,0,0,0-1.211-2.479l-9.262-9.262a4.237,4.237,0,0,0-5.993,0l-2.18,2.179a4.243,4.243,0,0,0,0,5.993l3.57,3.569Z" transform="translate(-2003.573 -780.465)" fill="#bb914a"/>
</svg>
