<svg xmlns="http://www.w3.org/2000/svg" xmlns:xlink="http://www.w3.org/1999/xlink" width="394.35" height="37.029" viewBox="0 0 394.35 37.029">
  <defs>
    <linearGradient id="linear-gradient" x2="1.115" y2="1.074" gradientUnits="objectBoundingBox">
      <stop offset="0" stop-color="#a0762f"/>
      <stop offset="0.158" stop-color="#fdc778"/>
      <stop offset="0.505" stop-color="#ebcb88"/>
      <stop offset="0.854" stop-color="#bb914a"/>
      <stop offset="1" stop-color="#a0762f"/>
    </linearGradient>
    <clipPath id="clip-path">
      <path id="Path_721" data-name="Path 721" d="M1784.791-3066.465v8.864a1.565,1.565,0,0,0,1.578,1.548,1.566,1.566,0,0,0,1.58-1.548v-8.864a1.567,1.567,0,0,0-1.58-1.553,1.567,1.567,0,0,0-1.578,1.553" transform="translate(-1784.791 3068.018)" fill="#fff"/>
    </clipPath>
    <clipPath id="clip-path-2">
      <path id="Path_723" data-name="Path 723" d="M1765.351-3051.948v8.86a1.566,1.566,0,0,0,1.577,1.553,1.567,1.567,0,0,0,1.581-1.553v-8.86a1.566,1.566,0,0,0-1.581-1.552,1.565,1.565,0,0,0-1.577,1.552" transform="translate(-1765.351 3053.5)" fill="#fff"/>
    </clipPath>
    <clipPath id="clip-path-3">
      <path id="Path_725" data-name="Path 725" d="M1746.283-3066.465v8.864a1.567,1.567,0,0,0,1.583,1.548,1.568,1.568,0,0,0,1.581-1.548v-8.864a1.57,1.57,0,0,0-1.581-1.553,1.568,1.568,0,0,0-1.583,1.553" transform="translate(-1746.283 3068.018)" fill="#fff"/>
    </clipPath>
    <clipPath id="clip-path-4">
      <path id="Path_727" data-name="Path 727" d="M1727.63-3045.075v5.665a1.563,1.563,0,0,0,1.578,1.551,1.563,1.563,0,0,0,1.58-1.551v-5.665a1.565,1.565,0,0,0-1.58-1.552,1.565,1.565,0,0,0-1.578,1.552" transform="translate(-1727.63 3046.627)" fill="#fff"/>
    </clipPath>
    <clipPath id="clip-path-5">
      <path id="Path_747" data-name="Path 747" d="M1267.451-3050.791c-3.679,0-6.35.735-8.208,2.207-2.6,2.09-4.029,5.884-4.029,10.8,0,4.994,1.433,8.75,4.068,10.8,1.9,1.511,3.949,2.014,7.938,2.014h11.539V-3040.3h-12.7v4.6h7.2v6.118H1268.3c-2.517,0-4.18-.5-5.187-1.548-1.162-1.24-1.859-3.948-1.859-7.163,0-5.652,1.938-7.9,6.854-7.9h10.648v-4.608Z" transform="translate(-1255.214 3050.791)" fill="#fff"/>
    </clipPath>
    <clipPath id="clip-path-6">
      <path id="Path_749" data-name="Path 749" d="M1370.379-3021.646v18.856h5.19v-14.83h1.509c2.555,0,3.331.814,3.331,3.486v1.008h4.992v-1.86c0-2.864-.386-4.182-1.548-5.227-1.2-1.085-2.631-1.433-5.807-1.433Z" transform="translate(-1370.379 3021.646)" fill="#fff"/>
    </clipPath>
    <clipPath id="clip-path-7">
      <path id="Path_751" data-name="Path 751" d="M1445.329-3012.982c0-3.873,1.509-5.807,4.605-5.807,3.137,0,4.725,1.9,4.725,5.652,0,3.871-1.548,5.77-4.609,5.77-3.1,0-4.721-1.937-4.721-5.615m-5.307-.155c0,6.156,3.678,9.757,9.872,9.757s10.066-3.638,10.066-9.486a10.359,10.359,0,0,0-2.165-6.738c-1.628-2.09-4.3-3.175-7.707-3.175-6.158,0-10.067,3.718-10.067,9.641" transform="translate(-1440.023 3022.779)" fill="#fff"/>
    </clipPath>
    <clipPath id="clip-path-8">
      <path id="Path_753" data-name="Path 753" d="M1548.615-3021.646v14.83h-4.876a2.39,2.39,0,0,1-2.479-2.711v-12.119h-5.187v11.615c0,2.633.656,4.493,1.974,5.73,1.314,1.162,2.556,1.51,5.573,1.51h10.187v-18.856Z" transform="translate(-1536.072 3021.646)" fill="#fff"/>
    </clipPath>
    <clipPath id="clip-path-9">
      <path id="Path_755" data-name="Path 755" d="M1634.547-3017.62h3.562c3.177,0,4.956,1.9,4.956,5.307,0,3.678-1.779,5.5-5.342,5.5h-3.175Zm-5.187-4.026v25.942h5.187v-7.085h4.569c3.137,0,5.111-.737,6.775-2.44a9.334,9.334,0,0,0,2.48-6.7c0-3.6-1.162-6.389-3.368-8.093-1.588-1.278-3.061-1.626-6.584-1.626Z" transform="translate(-1629.36 3021.646)" fill="#fff"/>
    </clipPath>
    <clipPath id="clip-path-10">
      <path id="Path_729" data-name="Path 729" d="M1151.2-3051.339v25.29a1.328,1.328,0,0,0,1.337,1.322l4.01.016v-6.185l2.308-2.486,4.712,8.67h5.333l-6.858-12.261,6.4-7.035h-6.078l-5.817,6.807v-14.137Z" transform="translate(-1151.197 3051.339)" fill="url(#linear-gradient)"/>
    </clipPath>
    <clipPath id="clip-path-11">
      <path id="Path_731" data-name="Path 731" d="M627.329-3021.289v15.283h-2.28v.01l-2.783-.01H621.04a1.328,1.328,0,0,1-1.336-1.323v-1.272a.933.933,0,0,1-.015-.2v-12.485h-5.348v18.089a1.332,1.332,0,0,0,1.337,1.338h1.592v.016h15.406v-19.443Z" transform="translate(-614.341 3021.289)" fill="url(#linear-gradient)"/>
    </clipPath>
    <clipPath id="clip-path-12">
      <path id="Path_733" data-name="Path 733" d="M705.45-3051.339v25.273a1.332,1.332,0,0,0,1.337,1.338l4.01.016v-26.627Z" transform="translate(-705.45 3051.339)" fill="url(#linear-gradient)"/>
    </clipPath>
    <clipPath id="clip-path-13">
      <path id="Path_735" data-name="Path 735" d="M813.988-3021.289v18.089a1.331,1.331,0,0,0,1.334,1.338l4.01.016h.015v-19.443Z" transform="translate(-813.988 3021.289)" fill="url(#linear-gradient)"/>
    </clipPath>
    <clipPath id="clip-path-14">
      <rect id="Rectangle_130" data-name="Rectangle 130" width="5.359" height="5.2" fill="url(#linear-gradient)"/>
    </clipPath>
    <clipPath id="clip-path-15">
      <path id="Path_737" data-name="Path 737" d="M856.18-3035.663h7.861a5.391,5.391,0,0,1,2.8.551,2.612,2.612,0,0,1,1.16,2.38,3.1,3.1,0,0,1-1.241,2.63,2.558,2.558,0,0,1-1.052.515,9,9,0,0,1-1.787.135H856.18Zm0-10.938h7.861a5.352,5.352,0,0,1,2.8.554,2.606,2.606,0,0,1,1.16,2.376,3.1,3.1,0,0,1-1.241,2.632,2.746,2.746,0,0,1-1.067.515,8.942,8.942,0,0,1-1.771.134H856.18Zm-5.344-4.738v25.273a1.332,1.332,0,0,0,1.337,1.338l4.008.016h9.087a16.609,16.609,0,0,0,5.011-.582,5.447,5.447,0,0,0,2.741-2.1,7.421,7.421,0,0,0,1.226-4.373,6.316,6.316,0,0,0-3.86-6.254,5.816,5.816,0,0,0,2.781-2.481,7.239,7.239,0,0,0,1.109-3.861,7.245,7.245,0,0,0-.688-3.076,6.049,6.049,0,0,0-2.838-3.094,12.146,12.146,0,0,0-5.156-.811Z" transform="translate(-850.836 3051.339)" fill="url(#linear-gradient)"/>
    </clipPath>
    <clipPath id="clip-path-16">
      <path id="Path_739" data-name="Path 739" d="M969.411-3006.373a1.439,1.439,0,0,1-.652-1.346,1.675,1.675,0,0,1,.537-1.306,2.075,2.075,0,0,1,1.456-.49l.9.019h6.194v3.512h-6.194a4.669,4.669,0,0,1-2.236-.39m-4.712-14.893v4.151h9.059a5.256,5.256,0,0,1,3.25.709,3.561,3.561,0,0,1,.833,2.759h-6.562a14.981,14.981,0,0,0-4.553.489,4.749,4.749,0,0,0-2.488,2.075,6.515,6.515,0,0,0-.949,3.5,5.409,5.409,0,0,0,2.384,4.815,5.02,5.02,0,0,0,2.039.762,33.671,33.671,0,0,0,4.19.176h11.289v-10.959q.213-6.335-4.219-8.012a9.22,9.22,0,0,0-1.864-.382c-.621-.058-1.734-.084-3.35-.084Z" transform="translate(-963.29 3021.266)" fill="url(#linear-gradient)"/>
    </clipPath>
    <clipPath id="clip-path-17">
      <path id="Path_741" data-name="Path 741" d="M745.639-3051.339v7.185h-3.4v4.143h3.4v13.945a1.332,1.332,0,0,0,1.34,1.338h1.928v.016h7.038v-4.175h-3.622a1.326,1.326,0,0,1-1.336-1.321v-2.3c-.014-.147,0-.281,0-.445v-7.06h4.958v-4.143h-4.958v-7.185Z" transform="translate(-742.238 3051.339)" fill="url(#linear-gradient)"/>
    </clipPath>
    <clipPath id="clip-path-18">
      <path id="Path_743" data-name="Path 743" d="M1060.987-3021.289v18.089a1.332,1.332,0,0,0,1.337,1.338l4.01.016v-15.3h4.671a2.959,2.959,0,0,1,2.108.634,2.857,2.857,0,0,1,.647,2.081v11.23a1.34,1.34,0,0,0,1.337,1.338l4.01.016v-11.977c0-2.7-.676-4.674-2.053-5.915a5.3,5.3,0,0,0-2.2-1.228,14.723,14.723,0,0,0-3.535-.323Z" transform="translate(-1060.987 3021.289)" fill="url(#linear-gradient)"/>
    </clipPath>
    <clipPath id="clip-path-19">
      <path id="Path_745" data-name="Path 745" d="M498.688-3049.639l-6.89,20.462-6.539-20.462H477.6v25.934a1.334,1.334,0,0,0,.813.271l4,.016v-19.688l6.481,19.688h5.75l6.87-19.688v18.521a1.326,1.326,0,0,0,1.323,1.151l4.013.016v-26.221Z" transform="translate(-477.603 3049.639)" fill="url(#linear-gradient)"/>
    </clipPath>
  </defs>
  <g id="logo-gold" transform="translate(0 0)">
    <g id="Group_3760" data-name="Group 3760" transform="translate(-28.003 -67.159)">
      <g id="Group_365" data-name="Group 365" transform="translate(340.535 67.159)">
        <path id="Path_720" data-name="Path 720" d="M1784.791-3066.465v8.864a1.565,1.565,0,0,0,1.578,1.548,1.566,1.566,0,0,0,1.58-1.548v-8.864a1.567,1.567,0,0,0-1.58-1.553,1.567,1.567,0,0,0-1.578,1.553" transform="translate(-1784.791 3068.018)" fill="#fff"/>
        <g id="Group_364" data-name="Group 364" clip-path="url(#clip-path)">
          <rect id="Rectangle_120" data-name="Rectangle 120" width="3.158" height="11.965" transform="translate(0 0)" fill="#fff"/>
        </g>
      </g>
      <g id="Group_367" data-name="Group 367" transform="translate(335.887 70.63)">
        <path id="Path_722" data-name="Path 722" d="M1765.351-3051.948v8.86a1.566,1.566,0,0,0,1.577,1.553,1.567,1.567,0,0,0,1.581-1.553v-8.86a1.566,1.566,0,0,0-1.581-1.552,1.565,1.565,0,0,0-1.577,1.552" transform="translate(-1765.351 3053.5)" fill="#fff"/>
        <g id="Group_366" data-name="Group 366" clip-path="url(#clip-path-2)">
          <rect id="Rectangle_121" data-name="Rectangle 121" width="3.158" height="11.965" fill="#fff"/>
        </g>
      </g>
      <g id="Group_369" data-name="Group 369" transform="translate(331.328 67.159)">
        <path id="Path_724" data-name="Path 724" d="M1746.283-3066.465v8.864a1.567,1.567,0,0,0,1.583,1.548,1.568,1.568,0,0,0,1.581-1.548v-8.864a1.57,1.57,0,0,0-1.581-1.553,1.568,1.568,0,0,0-1.583,1.553" transform="translate(-1746.283 3068.018)" fill="#fff"/>
        <g id="Group_368" data-name="Group 368" clip-path="url(#clip-path-3)">
          <rect id="Rectangle_122" data-name="Rectangle 122" width="3.164" height="11.965" transform="translate(0 0)" fill="#fff"/>
        </g>
      </g>
      <g id="Group_371" data-name="Group 371" transform="translate(326.869 72.273)">
        <path id="Path_726" data-name="Path 726" d="M1727.63-3045.075v5.665a1.563,1.563,0,0,0,1.578,1.551,1.563,1.563,0,0,0,1.58-1.551v-5.665a1.565,1.565,0,0,0-1.58-1.552,1.565,1.565,0,0,0-1.578,1.552" transform="translate(-1727.63 3046.627)" fill="#fff"/>
        <g id="Group_370" data-name="Group 370" clip-path="url(#clip-path-4)">
          <rect id="Rectangle_123" data-name="Rectangle 123" width="3.158" height="8.769" transform="translate(0 0)" fill="#fff"/>
        </g>
      </g>
      <g id="Group_393" data-name="Group 393" transform="translate(213.92 71.278)">
        <path id="Path_746" data-name="Path 746" d="M1267.451-3050.791c-3.679,0-6.35.735-8.208,2.207-2.6,2.09-4.029,5.884-4.029,10.8,0,4.994,1.433,8.75,4.068,10.8,1.9,1.511,3.949,2.014,7.938,2.014h11.539V-3040.3h-12.7v4.6h7.2v6.118H1268.3c-2.517,0-4.18-.5-5.187-1.548-1.162-1.24-1.859-3.948-1.859-7.163,0-5.652,1.938-7.9,6.854-7.9h10.648v-4.608Z" transform="translate(-1255.214 3050.791)" fill="#fff"/>
        <g id="Group_392" data-name="Group 392" clip-path="url(#clip-path-5)">
          <rect id="Rectangle_136" data-name="Rectangle 136" width="23.546" height="25.825" transform="translate(0 0)" fill="#fff"/>
        </g>
      </g>
      <g id="Group_395" data-name="Group 395" transform="translate(241.455 78.246)">
        <path id="Path_748" data-name="Path 748" d="M1370.379-3021.646v18.856h5.19v-14.83h1.509c2.555,0,3.331.814,3.331,3.486v1.008h4.992v-1.86c0-2.864-.386-4.182-1.548-5.227-1.2-1.085-2.631-1.433-5.807-1.433Z" transform="translate(-1370.379 3021.646)" fill="#fff"/>
        <g id="Group_394" data-name="Group 394" clip-path="url(#clip-path-6)">
          <rect id="Rectangle_137" data-name="Rectangle 137" width="15.022" height="18.856" transform="translate(0 0)" fill="#fff"/>
        </g>
      </g>
      <g id="Group_397" data-name="Group 397" transform="translate(258.105 77.975)">
        <path id="Path_750" data-name="Path 750" d="M1445.329-3012.982c0-3.873,1.509-5.807,4.605-5.807,3.137,0,4.725,1.9,4.725,5.652,0,3.871-1.548,5.77-4.609,5.77-3.1,0-4.721-1.937-4.721-5.615m-5.307-.155c0,6.156,3.678,9.757,9.872,9.757s10.066-3.638,10.066-9.486a10.359,10.359,0,0,0-2.165-6.738c-1.628-2.09-4.3-3.175-7.707-3.175-6.158,0-10.067,3.718-10.067,9.641" transform="translate(-1440.023 3022.779)" fill="#fff"/>
        <g id="Group_396" data-name="Group 396" clip-path="url(#clip-path-7)">
          <rect id="Rectangle_138" data-name="Rectangle 138" width="19.939" height="19.399" transform="translate(0 0)" fill="#fff"/>
        </g>
      </g>
      <g id="Group_399" data-name="Group 399" transform="translate(281.07 78.246)">
        <path id="Path_752" data-name="Path 752" d="M1548.615-3021.646v14.83h-4.876a2.39,2.39,0,0,1-2.479-2.711v-12.119h-5.187v11.615c0,2.633.656,4.493,1.974,5.73,1.314,1.162,2.556,1.51,5.573,1.51h10.187v-18.856Z" transform="translate(-1536.072 3021.646)" fill="#fff"/>
        <g id="Group_398" data-name="Group 398" clip-path="url(#clip-path-8)">
          <rect id="Rectangle_139" data-name="Rectangle 139" width="17.734" height="18.856" transform="translate(0 0)" fill="#fff"/>
        </g>
      </g>
      <g id="Group_401" data-name="Group 401" transform="translate(303.374 78.246)">
        <path id="Path_754" data-name="Path 754" d="M1634.547-3017.62h3.562c3.177,0,4.956,1.9,4.956,5.307,0,3.678-1.779,5.5-5.342,5.5h-3.175Zm-5.187-4.026v25.942h5.187v-7.085h4.569c3.137,0,5.111-.737,6.775-2.44a9.334,9.334,0,0,0,2.48-6.7c0-3.6-1.162-6.389-3.368-8.093-1.588-1.278-3.061-1.626-6.584-1.626Z" transform="translate(-1629.36 3021.646)" fill="#fff"/>
        <g id="Group_400" data-name="Group 400" clip-path="url(#clip-path-9)">
          <rect id="Rectangle_140" data-name="Rectangle 140" width="19.011" height="25.942" transform="translate(0 0)" fill="#fff"/>
        </g>
      </g>
      <g id="Group_402" data-name="Group 402" transform="translate(349.252 87.601)">
        <path id="Path_756" data-name="Path 756" d="M1821.249-2972.6v-9.582h6.123v1.305h-4.67v2.8h3.983v1.292H1822.7v2.88h4.67v1.305Z" transform="translate(-1821.249 2982.26)" fill="#fff"/>
        <path id="Path_757" data-name="Path 757" d="M1857.513-2973.515a3.894,3.894,0,0,1-2.476.741,4.554,4.554,0,0,1-3.391-1.265l.969-.955a3.309,3.309,0,0,0,2.449.915q1.978,0,1.979-1.467a1.266,1.266,0,0,0-.377-1,1.975,1.975,0,0,0-1.05-.4l-1.131-.161a3.234,3.234,0,0,1-1.817-.767,2.392,2.392,0,0,1-.7-1.831,2.588,2.588,0,0,1,.861-2.032,3.356,3.356,0,0,1,2.341-.781,4.192,4.192,0,0,1,2.974,1.09l-.929.915a2.907,2.907,0,0,0-2.086-.74q-1.749,0-1.749,1.494a1.127,1.127,0,0,0,.363.888,2.05,2.05,0,0,0,1.076.444l1.09.162a3.481,3.481,0,0,1,1.79.713,2.479,2.479,0,0,1,.78,1.965A2.5,2.5,0,0,1,1857.513-2973.515Z" transform="translate(-1844.378 2982.518)" fill="#fff"/>
        <path id="Path_758" data-name="Path 758" d="M1888.945-2980.875v8.277h-1.454v-8.277h-2.638v-1.305h6.729v1.305Z" transform="translate(-1869.647 2982.26)" fill="#fff"/>
        <path id="Path_759" data-name="Path 759" d="M1914.574-2947.328v-1.642h1.642v1.642Z" transform="translate(-1892.261 2956.991)" fill="#fff"/>
        <path id="Path_760" data-name="Path 760" d="M1944.576-2972.6v-9.582h1.453v9.582Z" transform="translate(-1915.09 2982.26)" fill="#fff"/>
        <path id="Path_761" data-name="Path 761" d="M1967.005-2972.6l-4.428-6.742v6.742h-1.453v-9.582h1.333l4.427,6.729v-6.729h1.454v9.582Z" transform="translate(-1927.682 2982.26)" fill="#fff"/>
        <path id="Path_762" data-name="Path 762" d="M2013.584-2972.855v-1.225l3.687-4.482a1.99,1.99,0,0,0,.511-1.279q0-1.453-1.4-1.453a1.419,1.419,0,0,0-.982.337,1.465,1.465,0,0,0-.431,1.144H2013.6a2.608,2.608,0,0,1,.781-1.965,2.8,2.8,0,0,1,2.005-.74,2.8,2.8,0,0,1,2.005.727,2.6,2.6,0,0,1,.767,1.965,2.487,2.487,0,0,1-.229,1.077,5.68,5.68,0,0,1-.672,1l-3,3.674h3.9v1.225Z" transform="translate(-1967.599 2982.518)" fill="#fff"/>
        <path id="Path_763" data-name="Path 763" d="M2049-2975.52a2.636,2.636,0,0,1-.82,2.019,2.727,2.727,0,0,1-1.952.727,2.753,2.753,0,0,1-1.951-.727,2.657,2.657,0,0,1-.807-2.019v-4.252a2.655,2.655,0,0,1,.807-2.019,2.753,2.753,0,0,1,1.951-.727,2.726,2.726,0,0,1,1.952.727,2.634,2.634,0,0,1,.82,2.019Zm-1.373-4.212q0-1.561-1.4-1.561t-1.386,1.561v4.172q0,1.56,1.386,1.561t1.4-1.561Z" transform="translate(-1990.341 2982.518)" fill="#fff"/>
        <path id="Path_764" data-name="Path 764" d="M2079-2975.52a2.635,2.635,0,0,1-.821,2.019,2.724,2.724,0,0,1-1.952.727,2.754,2.754,0,0,1-1.951-.727,2.656,2.656,0,0,1-.807-2.019v-4.252a2.654,2.654,0,0,1,.807-2.019,2.753,2.753,0,0,1,1.951-.727,2.724,2.724,0,0,1,1.952.727,2.634,2.634,0,0,1,.821,2.019Zm-1.373-4.212q0-1.561-1.4-1.561t-1.385,1.561v4.172q0,1.56,1.385,1.561t1.4-1.561Z" transform="translate(-2013.169 2982.518)" fill="#fff"/>
        <path id="Path_765" data-name="Path 765" d="M2109.049-2974.415a2.6,2.6,0,0,1-.673,1.158,2.728,2.728,0,0,1-2.019.754,2.763,2.763,0,0,1-2.046-.74,2.27,2.27,0,0,1-.538-.848,3.6,3.6,0,0,1-.188-.982h1.373a1.315,1.315,0,0,0,1.4,1.333,1.348,1.348,0,0,0,1-.376,1.507,1.507,0,0,0,.377-.754,4.3,4.3,0,0,0,.081-.928,2.88,2.88,0,0,0-.283-1.426,1.189,1.189,0,0,0-1.117-.579,1.252,1.252,0,0,0-1.359.862H2103.8v-5.235h5.168v1.224h-3.93v2.53a2.1,2.1,0,0,1,1.588-.552,2.329,2.329,0,0,1,1.723.619,2.631,2.631,0,0,1,.686,1.211,5.165,5.165,0,0,1,.148,1.345A5.66,5.66,0,0,1,2109.049-2974.415Z" transform="translate(-2036.082 2982.26)" fill="#fff"/>
      </g>
    </g>
    <g id="Group_3771" data-name="Group 3771" transform="translate(-28.003 -67.159)">
      <g id="Group_373" data-name="Group 373" transform="translate(189.051 71.147)">
        <path id="Path_728" data-name="Path 728" d="M1151.2-3051.339v25.29a1.328,1.328,0,0,0,1.337,1.322l4.01.016v-6.185l2.308-2.486,4.712,8.67h5.333l-6.858-12.261,6.4-7.035h-6.078l-5.817,6.807v-14.137Z" transform="translate(-1151.197 3051.339)" fill="url(#linear-gradient)"/>
        <g id="Group_372" data-name="Group 372" clip-path="url(#clip-path-10)">
          <rect id="Rectangle_124" data-name="Rectangle 124" width="17.7" height="26.627" transform="translate(0 0)" fill="url(#linear-gradient)"/>
        </g>
      </g>
      <g id="Group_375" data-name="Group 375" transform="translate(60.695 78.331)">
        <path id="Path_730" data-name="Path 730" d="M627.329-3021.289v15.283h-2.28v.01l-2.783-.01H621.04a1.328,1.328,0,0,1-1.336-1.323v-1.272a.933.933,0,0,1-.015-.2v-12.485h-5.348v18.089a1.332,1.332,0,0,0,1.337,1.338h1.592v.016h15.406v-19.443Z" transform="translate(-614.341 3021.289)" fill="url(#linear-gradient)"/>
        <g id="Group_374" data-name="Group 374" clip-path="url(#clip-path-11)">
          <rect id="Rectangle_125" data-name="Rectangle 125" width="18.336" height="19.443" transform="translate(0 0)" fill="url(#linear-gradient)"/>
        </g>
      </g>
      <g id="Group_377" data-name="Group 377" transform="translate(82.478 71.147)">
        <path id="Path_732" data-name="Path 732" d="M705.45-3051.339v25.273a1.332,1.332,0,0,0,1.337,1.338l4.01.016v-26.627Z" transform="translate(-705.45 3051.339)" fill="url(#linear-gradient)"/>
        <g id="Group_376" data-name="Group 376" clip-path="url(#clip-path-12)">
          <rect id="Rectangle_126" data-name="Rectangle 126" width="5.348" height="26.627" transform="translate(0 0)" fill="url(#linear-gradient)"/>
        </g>
      </g>
      <g id="Group_379" data-name="Group 379" transform="translate(108.428 78.331)">
        <path id="Path_734" data-name="Path 734" d="M813.988-3021.289v18.089a1.331,1.331,0,0,0,1.334,1.338l4.01.016h.015v-19.443Z" transform="translate(-813.988 3021.289)" fill="url(#linear-gradient)"/>
        <g id="Group_378" data-name="Group 378" clip-path="url(#clip-path-13)">
          <rect id="Rectangle_127" data-name="Rectangle 127" width="5.359" height="19.443" transform="translate(0 0)" fill="url(#linear-gradient)"/>
        </g>
      </g>
      <g id="Group_381" data-name="Group 381" transform="translate(108.428 71.147)">
        <rect id="Rectangle_128" data-name="Rectangle 128" width="5.359" height="5.2" fill="url(#linear-gradient)"/>
        <g id="Group_380" data-name="Group 380" clip-path="url(#clip-path-14)">
          <rect id="Rectangle_129" data-name="Rectangle 129" width="5.359" height="5.2" transform="translate(0)" fill="url(#linear-gradient)"/>
        </g>
      </g>
      <g id="Group_383" data-name="Group 383" transform="translate(117.238 71.147)">
        <path id="Path_736" data-name="Path 736" d="M856.18-3035.663h7.861a5.391,5.391,0,0,1,2.8.551,2.612,2.612,0,0,1,1.16,2.38,3.1,3.1,0,0,1-1.241,2.63,2.558,2.558,0,0,1-1.052.515,9,9,0,0,1-1.787.135H856.18Zm0-10.938h7.861a5.352,5.352,0,0,1,2.8.554,2.606,2.606,0,0,1,1.16,2.376,3.1,3.1,0,0,1-1.241,2.632,2.746,2.746,0,0,1-1.067.515,8.942,8.942,0,0,1-1.771.134H856.18Zm-5.344-4.738v25.273a1.332,1.332,0,0,0,1.337,1.338l4.008.016h9.087a16.609,16.609,0,0,0,5.011-.582,5.447,5.447,0,0,0,2.741-2.1,7.421,7.421,0,0,0,1.226-4.373,6.316,6.316,0,0,0-3.86-6.254,5.816,5.816,0,0,0,2.781-2.481,7.239,7.239,0,0,0,1.109-3.861,7.245,7.245,0,0,0-.688-3.076,6.049,6.049,0,0,0-2.838-3.094,12.146,12.146,0,0,0-5.156-.811Z" transform="translate(-850.836 3051.339)" fill="url(#linear-gradient)"/>
        <g id="Group_382" data-name="Group 382" clip-path="url(#clip-path-15)">
          <rect id="Rectangle_131" data-name="Rectangle 131" width="23.439" height="26.627" transform="translate(0 0)" fill="url(#linear-gradient)"/>
        </g>
      </g>
      <g id="Group_385" data-name="Group 385" transform="translate(144.125 78.337)">
        <path id="Path_738" data-name="Path 738" d="M969.411-3006.373a1.439,1.439,0,0,1-.652-1.346,1.675,1.675,0,0,1,.537-1.306,2.075,2.075,0,0,1,1.456-.49l.9.019h6.194v3.512h-6.194a4.669,4.669,0,0,1-2.236-.39m-4.712-14.893v4.151h9.059a5.256,5.256,0,0,1,3.25.709,3.561,3.561,0,0,1,.833,2.759h-6.562a14.981,14.981,0,0,0-4.553.489,4.749,4.749,0,0,0-2.488,2.075,6.515,6.515,0,0,0-.949,3.5,5.409,5.409,0,0,0,2.384,4.815,5.02,5.02,0,0,0,2.039.762,33.671,33.671,0,0,0,4.19.176h11.289v-10.959q.213-6.335-4.219-8.012a9.22,9.22,0,0,0-1.864-.382c-.621-.058-1.734-.084-3.35-.084Z" transform="translate(-963.29 3021.266)" fill="url(#linear-gradient)"/>
        <g id="Group_384" data-name="Group 384" clip-path="url(#clip-path-16)">
          <rect id="Rectangle_132" data-name="Rectangle 132" width="20.043" height="19.437" transform="translate(0 0)" fill="url(#linear-gradient)"/>
        </g>
      </g>
      <g id="Group_387" data-name="Group 387" transform="translate(91.274 71.147)">
        <path id="Path_740" data-name="Path 740" d="M745.639-3051.339v7.185h-3.4v4.143h3.4v13.945a1.332,1.332,0,0,0,1.34,1.338h1.928v.016h7.038v-4.175h-3.622a1.326,1.326,0,0,1-1.336-1.321v-2.3c-.014-.147,0-.281,0-.445v-7.06h4.958v-4.143h-4.958v-7.185Z" transform="translate(-742.238 3051.339)" fill="url(#linear-gradient)"/>
        <g id="Group_386" data-name="Group 386" clip-path="url(#clip-path-17)">
          <rect id="Rectangle_133" data-name="Rectangle 133" width="13.707" height="26.627" transform="translate(0 0)" fill="url(#linear-gradient)"/>
        </g>
      </g>
      <g id="Group_389" data-name="Group 389" transform="translate(167.483 78.331)">
        <path id="Path_742" data-name="Path 742" d="M1060.987-3021.289v18.089a1.332,1.332,0,0,0,1.337,1.338l4.01.016v-15.3h4.671a2.959,2.959,0,0,1,2.108.634,2.857,2.857,0,0,1,.647,2.081v11.23a1.34,1.34,0,0,0,1.337,1.338l4.01.016v-11.977c0-2.7-.676-4.674-2.053-5.915a5.3,5.3,0,0,0-2.2-1.228,14.723,14.723,0,0,0-3.535-.323Z" transform="translate(-1060.987 3021.289)" fill="url(#linear-gradient)"/>
        <g id="Group_388" data-name="Group 388" clip-path="url(#clip-path-18)">
          <rect id="Rectangle_134" data-name="Rectangle 134" width="18.121" height="19.443" transform="translate(0 0)" fill="url(#linear-gradient)"/>
        </g>
      </g>
      <g id="Group_391" data-name="Group 391" transform="translate(28.003 71.553)">
        <path id="Path_744" data-name="Path 744" d="M498.688-3049.639l-6.89,20.462-6.539-20.462H477.6v25.934a1.334,1.334,0,0,0,.813.271l4,.016v-19.688l6.481,19.688h5.75l6.87-19.688v18.521a1.326,1.326,0,0,0,1.323,1.151l4.013.016v-26.221Z" transform="translate(-477.603 3049.639)" fill="url(#linear-gradient)"/>
        <g id="Group_390" data-name="Group 390" clip-path="url(#clip-path-19)">
          <rect id="Rectangle_135" data-name="Rectangle 135" width="29.245" height="26.221" transform="translate(0 0)" fill="url(#linear-gradient)"/>
        </g>
      </g>
    </g>
  </g>
</svg>
