<svg xmlns="http://www.w3.org/2000/svg" width="24.018" height="28.514" viewBox="0 0 24.018 28.514"><defs><style>.a{fill:#9091a3;}</style></defs><path class="a" d="M23.514,22.221a15.5,15.5,0,0,1-1.533,2.756,14,14,0,0,1-1.975,2.387,3.831,3.831,0,0,1-2.538,1.118,6.361,6.361,0,0,1-2.344-.56,6.727,6.727,0,0,0-2.524-.558,6.955,6.955,0,0,0-2.6.558,6.983,6.983,0,0,1-2.243.59,3.607,3.607,0,0,1-2.6-1.148A14.7,14.7,0,0,1,3.1,24.893,17.09,17.09,0,0,1,.917,20.554,15.886,15.886,0,0,1,0,15.383a9.443,9.443,0,0,1,1.24-4.94,7.274,7.274,0,0,1,2.6-2.627,6.986,6.986,0,0,1,3.511-.991,8.267,8.267,0,0,1,2.716.632,8.73,8.73,0,0,0,2.154.633,12.889,12.889,0,0,0,2.388-.746,7.9,7.9,0,0,1,3.246-.576,6.893,6.893,0,0,1,5.4,2.843,6.006,6.006,0,0,0-3.186,5.457A6.019,6.019,0,0,0,22.043,19.6a6.5,6.5,0,0,0,1.975,1.3q-.238.689-.5,1.322ZM18.012.57a6.083,6.083,0,0,1-1.559,3.99A5.313,5.313,0,0,1,12.04,6.738a4.439,4.439,0,0,1-.033-.54,6.25,6.25,0,0,1,1.654-4.032A6.369,6.369,0,0,1,15.677.653,6.009,6.009,0,0,1,17.982,0a5.182,5.182,0,0,1,.03.57Z" transform="translate(0 0)"/></svg>