<svg xmlns="http://www.w3.org/2000/svg" width="23.786" height="28.514" viewBox="0 0 23.786 28.514"><defs><style>.a{fill:#9091a3;}</style></defs><path class="a" d="M8.892,21.378a1.124,1.124,0,0,0,1.189,1.189h1.189V26.73a1.784,1.784,0,1,0,3.568,0V22.567h2.379V26.73a1.784,1.784,0,1,0,3.568,0V22.567h1.189a1.124,1.124,0,0,0,1.189-1.189V9.485H8.892ZM5.919,9.485a1.829,1.829,0,0,0-1.784,1.784v8.325a1.829,1.829,0,0,0,1.784,1.784A1.829,1.829,0,0,0,7.7,19.594V11.269A1.829,1.829,0,0,0,5.919,9.485Zm20.218,0a1.829,1.829,0,0,0-1.784,1.784v8.325a1.784,1.784,0,0,0,3.568,0V11.269A1.829,1.829,0,0,0,26.137,9.485Zm-5.947-6.9,1.546-1.546a.575.575,0,0,0,0-.833.575.575,0,0,0-.833,0L19.12,1.992a5.241,5.241,0,0,0-3.092-.833,7.082,7.082,0,0,0-3.211.714L11.152.089a1.313,1.313,0,0,0-.951,0,1.313,1.313,0,0,0,0,.951l1.546,1.546A7.265,7.265,0,0,0,8.892,8.3H23.164A6.874,6.874,0,0,0,20.191,2.587Zm-6.541,3.33H12.46V4.727h1.189Zm5.947,0H18.407V4.727H19.6Z" transform="translate(-4.135 0)"/></svg>