<?xml version="1.0" encoding="utf-8"?>
<!-- Generator: Adobe Illustrator 25.2.3, SVG Export Plug-In . SVG Version: 6.00 Build 0)  -->
<svg version="1.1" id="Layer_1" xmlns="http://www.w3.org/2000/svg" xmlns:xlink="http://www.w3.org/1999/xlink" x="0px" y="0px"
	 viewBox="0 0 816.2 235" style="enable-background:new 0 0 816.2 235;" xml:space="preserve">
<style type="text/css">
	.st0{fill:#F70317;}
	.st1{clip-path:url(#SVGID_2_);}
</style>
<g id="surface1">
	<path class="st0" d="M371.1,142.7h-35.4L355,94L371.1,142.7z M424.6,188.7c-3.5-0.3-7-0.6-9.3-1c-2.2-0.4-4-1.3-5.5-2.5
		c-1.4-1.2-2.7-2.1-3.8-4.3c-1.1-2.3-1.2-1.6-2.5-5.5l-30.4-88.2c-1-3-2.1-6.3-3.2-9.9c-1.1-3.6-2.2-7.6-3.2-11.9l-3.8,0.5
		c0-0.1-0.1-0.3-0.1-0.4l-8.5,1.1c-0.9,2.3-2,4.5-3.2,6.6c-1.2,2-2.4,4.4-3.4,7.1l-37.5,91.5c-2,4.6-1.8,3.7-3.2,6.5
		s-3.1,4.9-4.7,6.5c-1.7,1.6-3.6,2.7-5.9,3.2s-6.7,0.9-10.2,1.1l-0.1,9.3c3.3,0,6.8,0,10.3-0.1s7-0.1,10.3-0.1c4.1,0,8.2,0,12.3,0.1
		c4.2,0.1,7.9,0.1,11.2,0.1l0-0.1c1.3,0,2.7,0,3.9,0l-0.1-9.4c-5.7-0.3-7.1-0.9-9.3-1.8c-2.2-0.9-3.3-2.5-3.3-4.9
		c0-1.3-1.1,0,0.7-5.2l10.4-26.6h41.1l8.5,25c0.5,1.6,1,3.1,1.4,4.4c0.4,1.3,0.5,1.6,0.5,2.6c0,2.3-1.1,3.9-3.2,4.8
		c-2.2,0.9-4.4,1-9.4,1.4l0.1,8.8c3.8,0,7.6,0,11.5-0.1c3.9-0.1,7.7-0.1,11.5-0.1c4.6,0,9.2,0,13.7,0.1c4.6,0.1,8.7,0.1,12.5,0.1
		l0-0.1c1.3,0,2.7,0,3.9,0L424.6,188.7"/>
	<g>
		<defs>
			<rect id="SVGID_1_" x="723" y="109" width="93.1" height="126"/>
		</defs>
		<clipPath id="SVGID_2_">
			<use xlink:href="#SVGID_1_"  style="overflow:visible;"/>
		</clipPath>
		<g class="st1">
			<path class="st0" d="M815.9,109.9c-2.1,0-4.3,0-6.6,0.1c-0.1,0-0.3,0-0.5,0c-1.1,0-2.1,0-3.2,0.1c-0.4,0-0.8,0-1.2,0
				c-1,0-2,0-3,0c-3.9,0-7.1,0-9.6-0.1c-2.5-0.1-5.1-0.1-7.7-0.1l0,0.1c-1.2,0-2.4-0.1-3.7-0.1l-0.2,4.3c3.8,0.2,6.4,0.6,7.8,1.3
				c1.4,0.7,2.2,1.9,2.2,3.5c0,0.4-0.5,2.1-1.4,5.1l-16.6,39.6l-15.1-39.4c-0.4-1.2-0.8-2.3-1.1-3.2s-0.4-1.8-0.4-2.5
				c0-1.4,0.7-2.5,2-3.1c1.3-0.6,3.7-1.1,7.1-1.5l-0.3-4.2c-2.1,0-4.3,0-6.6,0.1c-1.6,0-3.2,0-4.9,0.1c-0.3,0-0.7,0-1.1,0
				c-1.4,0-2.8,0-4.3,0c-3.8,0-7.4,0-10.9-0.1c-3.5-0.1-6.6-0.1-9.4-0.1l0,0.1c-1.3,0-2.5,0-3.7,0l-0.3,4.7c2.5,0.2,4.5,0.4,6,0.8
				c1.6,0.3,2.9,0.9,4.1,1.8c1.1,0.8,2.1,2,3,3.6c0.9,1.5,1.9,3.6,3,6.1c1.8,4.1,3.6,8.6,5.6,13.5c2,4.8,4,9.8,5.9,14.9
				c2,5.1,3.9,10.2,5.9,15.2c1.9,5.1,3.8,9.9,5.4,14.5l0.4,1.8l-0.3,1c-2.9,7.7-3.5,8.8-6.4,14.7c-2.9,5.8-5.9,10.4-8.9,13.6
				c-1.3,1.4-2.9,2.3-4.6,2.9c-1,0.3-2,0.5-3,0.6c-0.3,0-0.6,0-1-0.1c-0.8-0.1-1.6-0.3-2.5-0.4c-0.3,0.2-0.5,0.4-0.8,0.5
				c-0.1,0-0.2,0-0.3,0c-0.8-0.1-1.6-0.3-2.5-0.4c-1.7,0.9-3.1,2.1-4.1,3.5c-1.1,1.4-1.6,3-1.6,4.9c0,2.4,0.8,4.2,2.5,5.6
				c1.7,1.4,3.6,2,5.8,2c0.7,0,1.4-0.1,2.1-0.2c0.5,0.1,1.1,0.1,1.6,0.1c4.3,0,8.6-1.8,12.8-5.3c2-1.6,4-4,6.1-7
				c2-3.1,4-6.6,5.9-10.5c1.9-3.9,3.8-8,5.6-12.4c1.8-4.4,3.6-8.6,5.2-12.8c2.3-5.9,2.2-6.3,4.7-12.4c2.4-6.1,4.9-12.1,7.3-17.8
				c2.4-5.8,4.7-11.2,7-16.3c2.3-5.1,4.4-9.6,6.3-13.5c1.3-2.5,2.4-4.6,3.3-6.1c0.9-1.5,2-2.7,3.1-3.6c1.1-0.9,2.5-1.5,4-2
				c1.5-0.4,3.5-0.8,6.1-1.1L815.9,109.9"/>
		</g>
	</g>
	<path class="st0" d="M697.8,142.4c-0.4,0.5-1.2,0.9-2.4,1h-33.9c0.6-3.8,1.6-7.2,3.1-10.2c1.5-3,3.2-5.5,5.2-7.6
		c2-2.1,4.1-3.6,6.4-4.7c1.6-0.7,3.1-1.1,4.7-1.4c2.2,0.2,4.3,0.5,6.2,1.3c2.5,1,4.6,2.4,6.3,4.1c1.7,1.8,3,3.8,3.9,6.2
		c0.9,2.4,1.4,4.9,1.4,7.5C698.7,140.4,698.4,141.6,697.8,142.4z M717.5,129.4c-1.8-3.7-4.2-6.9-7.1-9.6c-3-2.7-6.4-4.7-10.4-6.1
		c-4-1.4-8.2-2.1-12.5-2.1c-0.9,0-1.8,0.1-2.7,0.1c-0.5,0-1-0.1-1.5-0.1c-5.4,0-10.7,1.2-15.7,3.5c-5,2.4-9.5,5.6-13.4,9.7
		c-3.9,4.1-7,9-9.4,14.5c-2.4,5.5-3.6,11.6-3.6,18c0,6,1,11.7,3,17s4.8,10,8.4,14c3.6,4,7.9,7.1,13,9.5c5.1,2.4,10.6,3.5,16.8,3.5
		c0.7,0,1.5-0.1,2.4-0.2c0.6,0,1.2,0.1,1.8,0.1c1.5,0,3.4-0.2,6-0.7c2.5-0.5,5.3-1.4,8.3-2.8c3-1.4,6.2-3.3,9.5-5.8
		c3.3-2.5,6.5-5.8,9.6-9.9l-4.1-4.3l-4.2,0.1c-4,4-7.8,6.7-11.4,8.1c-2.7,1-5.4,1.7-8.3,1.9c-3.3-0.1-6.7-0.8-10-2.1
		c-3.8-1.4-7.2-3.7-10.3-6.7c-3.1-3-5.6-7-7.5-11.8c-1.9-4.8-2.9-10.6-3.1-17.3h50.8c0.2,0,0.3-0.1,0.5-0.1h3.7c2.2,0,3.6-1.3,4.1-4
		c0.1-0.1,0.1-0.8,0.1-2.1v-2.1C720.2,137.3,719.3,133.1,717.5,129.4"/>
	<path class="st0" d="M605.8,170.7c-1.1,3.8-2.9,7.1-5.2,10.1c-2.3,3-5.3,5.3-8.9,7.1c-2.8,1.4-6,2.2-9.6,2.5
		c-2.3-0.1-4.6-0.3-6.8-0.9c-2.5-0.6-4.7-1.5-6.6-2.6c-1.9-1.1-3.4-2.3-4.5-3.8c-1.1-1.4-1.7-2.9-1.7-4.5v-51.1
		c5.6-3,28.6-13.8,41.2,7.5c0.4,0.8,0.8,1.5,1.1,2.3l1.2,3.4c1,5,1.6,14.6,1.6,18.2C607.6,163,607,166.9,605.8,170.7z M629.2,147.8
		c-1.1-27-24.9-34.7-24.9-34.7c-20-6.9-35.9,2.3-41.8,6.7v-35c0-1.5,0.1-3.4,0.2-5.9s0.2-5,0.4-7.8c0.1-2.7,0.3-5.5,0.6-8.3
		c0.2-2.8,0.5-5.2,0.8-7.2l-1.6-1l-4.3,0.1c-2.1,0.7-4.5,1.5-7.2,2.2c-2.7,0.7-5.4,1.4-8.3,2.1c-2.8,0.7-5.6,1.3-8.4,1.8
		c-2.8,0.6-5.3,1-7.6,1.3l0.6,3.6c3.3,0.4,5.9,0.8,7.8,1.2s3.4,1,4.4,1.8c1,0.8,1.7,1.9,2,3.4c0.3,1.4,0.4,3.3,0.4,5.7v99.7
		c0,3-0.1,7.6-0.3,13.8c5.1,2.1,10.4,3.7,16,4.6c5.6,0.9,11,1.4,16,1.4c1.1,0,2.2-0.1,3.4-0.1c0.3,0,0.7,0,1,0c7.3,0,14-1,20.3-2.9
		s11.7-4.7,16.3-8.2c4.6-3.5,8.3-7.7,11-12.6c2.7-4.9,4-10.3,4-16.3C629.8,155.1,629.6,151.5,629.2,147.8"/>
	<path class="st0" d="M503.1,170.7c-1.1,3.8-2.9,7.1-5.2,10.1c-2.3,3-5.3,5.3-8.9,7.1c-2.8,1.4-6,2.2-9.6,2.5
		c-2.3-0.1-4.6-0.3-6.8-0.9c-2.5-0.6-4.7-1.5-6.6-2.6c-1.9-1.1-3.4-2.3-4.5-3.8c-1.1-1.4-1.7-2.9-1.7-4.5v-51.1
		c5.6-3,28.6-13.8,41.2,7.5c0.4,0.8,0.8,1.5,1.1,2.3l1.2,3.4c1,5,1.6,14.6,1.6,18.2C504.8,163,504.3,166.9,503.1,170.7z
		 M526.4,147.8c-1.1-27-24.9-34.7-24.9-34.7c-20-6.9-35.9,2.3-41.8,6.7v-35c0-1.5,0.1-3.4,0.2-5.9c0.1-2.4,0.2-5,0.4-7.8
		c0.1-2.7,0.3-5.5,0.6-8.3c0.2-2.8,0.5-5.2,0.8-7.2l-1.6-1l-4.3,0.1c-2.1,0.7-4.5,1.5-7.1,2.2c-2.7,0.7-5.4,1.4-8.3,2.1
		c-2.8,0.7-5.6,1.3-8.4,1.8c-2.8,0.6-5.3,1-7.6,1.3l0.6,3.6c3.3,0.4,5.9,0.8,7.8,1.2c1.9,0.4,3.3,1,4.4,1.8c1,0.8,1.7,1.9,2,3.4
		c0.3,1.4,0.4,3.3,0.4,5.7v99.7c0,3-0.1,7.6-0.3,13.8c5.1,2.1,10.4,3.7,16,4.6c5.6,0.9,11,1.4,16,1.4c1.1,0,2.2-0.1,3.4-0.1
		c0.3,0,0.7,0,1,0c7.2,0,14-1,20.3-2.9s11.7-4.7,16.3-8.2c4.6-3.5,8.3-7.7,10.9-12.6c2.7-4.9,4-10.3,4-16.3
		C527,155.1,526.8,151.5,526.4,147.8"/>
	<path class="st0" d="M158.2,98.1c1.8-10.5,0.4-22.8-8.7-34.8l-16.1-21.1c0,0-18.1-16.1-16.1-42.2c0,0-29.1,30.1-1,61.2l21.1,27.1
		c0,0,2.3,2.5,4.6,6.9c0,0,0,0-0.1,0l0.4,0.3c9.2,13.2-5.7,36-5.7,36c2.8-15.2-19.8-38.2-19.8-38.2l-8.4-11.1
		c0,0-18.1-16.1-16.1-42.2c0,0-25.2,26.1-6,54.8l21.5,26.8c0,0,20.7,19.3,6.4,46.2c0,0,1-9.5-19-34.7L67,98.2
		C27.5,107,0,126.6,0,149.5c0,31,50.6,56.2,112.9,56.2c62.3,0,112.9-25.2,112.9-56.2C225.8,126.5,198,106.7,158.2,98.1"/>
</g>
<image style="overflow:visible;" width="154" height="45" xlink:href="4A4D8548.jpg"  transform="matrix(1 0 0 1 126 328)">
</image>
<rect x="-353" y="-166" class="st0" width="117" height="92"/>
</svg>
