<svg xmlns="http://www.w3.org/2000/svg" viewBox="0 0 272.31 81.39"><defs><style>.cls-1{fill:#bc2026;}.cls-2{fill:#d12f13;}.cls-3{fill:#3e4952;}</style></defs><g id="Layer_2" data-name="Layer 2"><g id="Layer_1-2" data-name="Layer 1"><path class="cls-1" d="M272.31,42.51c0-4.81-3.47-7.17-8.7-11.08s-13.8-9.44-19-12.52-13.59-7.83-19.4-10.61S214.7,3.64,211.87,3.64s-4.79.89-6.19,2.74-2.21,4.56-2.76,8a97.93,97.93,0,0,0-1,12.3c-.14,4.74-.16,15.84-.16,15.84s0,11.1.16,15.84a97.93,97.93,0,0,0,1,12.3c.55,3.43,1.37,6.14,2.76,8s3.36,2.75,6.19,2.75,7.51-1.86,13.37-4.67,14.23-7.53,19.4-10.61,13.85-8.7,19-12.52,8.7-6.27,8.7-11.08"/><path class="cls-2" d="M264.57,36.64h-1.09a.93.93,0,0,0-.92.93v9.89a.93.93,0,0,0,.92.93h1.09a.93.93,0,0,0,.92-.93V37.57a.93.93,0,0,0-.92-.93"/><path class="cls-2" d="M231.19,33.71h1.09a.93.93,0,0,0,.93-.93V17a.93.93,0,0,0-.93-.93h-1.09a.92.92,0,0,0-.92.93V32.78a.93.93,0,0,0,.92.93"/><path class="cls-2" d="M241.08,60.13H240a.92.92,0,0,0-.94.92v1.09a.92.92,0,0,0,.94.92h1.07a.93.93,0,0,0,.94-.92V61.05a.93.93,0,0,0-.94-.92"/><path class="cls-2" d="M218.53,19h-2.95l0-5.87h2.93Zm-10.83,8.8h12.84a.92.92,0,0,0,.92-.92V22h4.94a.92.92,0,0,0,.93-.92v-7a.93.93,0,0,0-.93-.93h-1.09a.94.94,0,0,0-.92.93v5h-2.93V11.14a.92.92,0,0,0-.92-.92h-7a.92.92,0,0,0-.92.92V21a.93.93,0,0,0,.93.92h4.95V24.9h-8.81V14.08a.92.92,0,0,0-.92-.92h-1.1a.92.92,0,0,0-.92.92V26.91A.92.92,0,0,0,207.7,27.83Z"/><path class="cls-2" d="M258.71,33.71h-1.09a.93.93,0,0,0-.93.92V48.39h-4.95a.92.92,0,0,0-.92.92v4.95h-2.94V49.31a.93.93,0,0,0-.92-.93h-9.9a.93.93,0,0,0-.92.93V50.4a.92.92,0,0,0,.92.92H245v2.94H233.21V45.45h7.87a.94.94,0,0,0,.94-.92V43.44a.94.94,0,0,0-.94-.93h-9.89a.93.93,0,0,0-.92.93V56.27a.92.92,0,0,0,.92.92H245v2a.93.93,0,0,0,.92.93H247a.93.93,0,0,0,.92-.93v-2h5a.93.93,0,0,0,.92-.93V51.32h5a.92.92,0,0,0,.92-.92V34.63a.92.92,0,0,0-.92-.92"/><path class="cls-2" d="M235.22,60.13h-7a.92.92,0,0,0-.92.92v5H209.72V63.06h13.75a.92.92,0,0,0,.92-.92V61.06a.92.92,0,0,0-.92-.93H207.7a.92.92,0,0,0-.92.92v7a.94.94,0,0,0,.92.92h21.64a.93.93,0,0,0,.93-.92V63.07h2.93v2a.92.92,0,0,0,.91.92h1.11a.92.92,0,0,0,.92-.92v-4a.92.92,0,0,0-.92-.92"/><path class="cls-2" d="M211.7,71.87h-1a1,1,0,0,0-.95.95v1a1,1,0,0,0,.95,1h1a1,1,0,0,0,1-1v-1a1,1,0,0,0-1-.95"/><path class="cls-2" d="M217.58,71.87h-1.05a1,1,0,0,0-.95.95v1a1,1,0,0,0,.95,1h1.05a1,1,0,0,0,.95-1v-1a1,1,0,0,0-.95-.95"/><rect class="cls-2" x="206.78" y="54.26" width="2.93" height="2.93" rx="0.95"/><rect class="cls-2" x="212.65" y="54.26" width="2.93" height="2.93" rx="0.95"/><path class="cls-2" d="M218.53,55.21v1a.94.94,0,0,0,.95.95h6.92a.92.92,0,0,0,.93-.92V43.44a.93.93,0,0,0-.93-.93h-1.09a.94.94,0,0,0-.92.93V54.26h-4.91a.94.94,0,0,0-.95,1"/><path class="cls-2" d="M245.9,42.51a1,1,0,0,0-1,1v1a1,1,0,0,0,1,1h1a1,1,0,0,0,.95-1v-1a1,1,0,0,0-.95-1Z"/><path class="cls-2" d="M243,24.9H244A1,1,0,0,0,245,24v-1A1,1,0,0,0,244,22H243a1,1,0,0,0-.93.95v1a1,1,0,0,0,.93.95"/><path class="cls-2" d="M226.38,24.9h-1a1,1,0,0,0-1,1v1a1,1,0,0,0,1,.94h1a1,1,0,0,0,1-.94v-1a1,1,0,0,0-1-1"/><path class="cls-2" d="M220.51,36.64h-1a1,1,0,0,0-.95,1v1a1,1,0,0,0,.95.95h1a1,1,0,0,0,1-.95v-1a1,1,0,0,0-1-1"/><path class="cls-2" d="M252.8,42.51h-1a1,1,0,0,0-.94,1v1a1,1,0,0,0,.94,1h1a.94.94,0,0,0,.95-1v-1a.94.94,0,0,0-.95-1"/><path class="cls-2" d="M239.07,33.71h8.81V30.77h2.94v5.87H239.07ZM207.7,51.32h12.84a.92.92,0,0,0,.92-.92v-7a.92.92,0,0,0-.92-.92H215.6V33.71h8.79v4.92a1,1,0,0,0,1,.95h27.49a.93.93,0,0,0,.92-.93v-9.9a.92.92,0,0,0-.92-.92h-7a.94.94,0,0,0-.93.92v2h-5.88V20a.92.92,0,0,0-.92-.92h-1.09a.92.92,0,0,0-.92.92V36.64h-8.81V31.69a.93.93,0,0,0-.93-.92H213.58a.93.93,0,0,0-.93.92V44.53a.93.93,0,0,0,.93.92h4.95v2.93h-8.81V31.7a.93.93,0,0,0-.92-.93h-1.1a.92.92,0,0,0-.92.92V50.4A.92.92,0,0,0,207.7,51.32Z"/><path class="cls-3" d="M93.66,22.63h0a.52.52,0,0,1,.52-.52H96a.55.55,0,0,1,.57.52v1.84A.55.55,0,0,1,96,25H94.18a.52.52,0,0,1-.52-.48ZM14.15,61.32h0L19,47.79,22.53,39l3.41,8.81,4.75,13.53ZM27.64,34.51h0c-.69-1.47-1-2.29-3.12-2.29H20.46c-1.86,0-2.5.82-3.05,2.29C17,35.68,0,79.3,0,79.3a1.48,1.48,0,0,0,1.63,1.44H6a1.71,1.71,0,0,0,1.41-1l4.7-12.91H33l4.65,12.91a1.68,1.68,0,0,0,1.43,1h4.12C45,80.74,45,79.3,45,79.3Zm145,40.29H161.79V58.22h10.82c5.12,0,8.18,3.51,8.18,8.4C180.79,71.68,177.73,74.8,172.61,74.8ZM161.79,38.13h10c4.5,0,7.36,3.1,7.36,7.43,0,4.06-2.86,7.09-7.36,7.09h-10Zm18,17h0c3.93-1.58,6.36-5.48,6.36-10.36,0-8.05-5.93-12.52-14.31-12.52H157c-1.79,0-2.2,1.88-2.2,2.29V78.68c0,.62,0,2.06,2.2,2.06h15.16c8.6,0,15.55-4.52,15.55-13.94A12.13,12.13,0,0,0,179.75,55.1ZM143.33,70.24h0c-.55-1-1.43-.58-2,0a20.9,20.9,0,0,1-13.53,4.93c-10.66,0-18-8.55-18-19,0-10,7-18.33,17.6-18.33a21.48,21.48,0,0,1,12.2,3.83c1.75,1.06,2.14,1.06,3.18,0,.55-1,1.4-2.45,1.4-2.45s1-1.38,0-2.09a29.24,29.24,0,0,0-16.78-5.48c-14.12,0-24.55,10.62-24.55,24.52,0,14.1,10,25.15,24.55,25.15a27.07,27.07,0,0,0,17.78-6.49c1-.66.61-1.28.2-2.11A20.7,20.7,0,0,0,143.33,70.24ZM68.5,74.8H59.88V38.13H68.5c11.08,0,18,6.61,18,18.47C86.52,68.2,79.58,74.8,68.5,74.8Zm.85-42.58H55c-.44,0-1.66.41-1.66,2.29V78.68c0,2.06,1.66,2.06,1.66,2.06H69.35c14.49,0,24.51-9.06,24.51-24.14C93.86,41.23,83.84,32.22,69.35,32.22ZM9,24.61H9a.5.5,0,0,1,.52-.49h1.56a.49.49,0,0,1,.51.49v1.63a.5.5,0,0,1-.51.45H9.56A.5.5,0,0,1,9,26.24Zm-4.24,0h0a.49.49,0,0,1,.53-.49H6.84a.49.49,0,0,1,.53.49v1.63a.51.51,0,0,1-.53.45H5.33a.49.49,0,0,1-.53-.45ZM1.08,15.29h0a20.76,20.76,0,0,1,.32-3c.07-.35.14-.46.48-.46H3.65c.26,0,.39.14.39.44-.07.66-.13,1.42-.13,1.85,0,3.19.52,5.58,4.63,5.58a14.91,14.91,0,0,0,2.13-.14c.07-1.54.07-2.25.07-3.49V14c0-3.51,2.08-5.1,6-5.1a17.83,17.83,0,0,1,3.26.3c.24.07.39.16.39.46v9.93a.46.46,0,0,1-.46.48h-2a.45.45,0,0,1-.44-.48V11.72a7.93,7.93,0,0,0-1.21-.09c-1.74,0-2.63.66-2.63,2.68V18.1c0,1.09,0,2.52-.1,3.6,0,.27-.16.43-.51.5a31,31,0,0,1-4.58.34C3.22,22.54,1.08,20,1.08,15.29Zm20.18,8.08h0c0-.23.15-.35.39-.35h.48c1.73,0,2.34-.16,2.34-2V9.77a.43.43,0,0,1,.46-.44h2a.43.43,0,0,1,.43.44V20.64a6.73,6.73,0,0,1-.53,3.14C26.12,25.09,25,25.57,23,25.57a10.78,10.78,0,0,1-1.43-.07.4.4,0,0,1-.33-.44ZM30.73,3.12h0a.47.47,0,0,1,.48-.46h2a.44.44,0,0,1,.47.46V16c0,1,.42,1.17,1.29,1.17h.75v2.93H34.14c-2.08,0-3.41-.55-3.41-3.23Zm9.84,19.51h0a.52.52,0,0,1,.53-.52h1.77a.55.55,0,0,1,.57.52v1.84a.55.55,0,0,1-.57.48H41.1a.52.52,0,0,1-.53-.48Zm-4.81-2.52h0c-.37,0-.75-.16-.75-.27V17.45c0-.16.39-.27.75-.27h10l-1.08-2.39c-.89-1.95-2.45-3.19-5.37-3.19l-1.23.05c-.32,0-.48-.09-.48-.37V9.59c0-.23.16-.37.45-.44a10.56,10.56,0,0,1,2.26-.21c3.34,0,5.75,1.33,7.58,5.48.48,1.1.92,2.2,1.09,2.43a.51.51,0,0,0,.52.33h.23v2.93ZM55.29,5.41h0a.56.56,0,0,1,.56-.53h1.6a.52.52,0,0,1,.52.53V7.2a.5.5,0,0,1-.52.5h-1.6a.54.54,0,0,1-.56-.5ZM51,5.41h0a.55.55,0,0,1,.56-.53h1.58a.56.56,0,0,1,.57.53V7.2a.57.57,0,0,1-.57.5H51.6A.54.54,0,0,1,51,7.2Zm-2.15,12h0c0-.16.41-.27.77-.27h2.12c.52,0,1.33-.07,1.33-.78V9.77a.44.44,0,0,1,.47-.44h2a.43.43,0,0,1,.44.44v7c.19.32,1.08.39,1.49.39H58v2.93h-.27a5.41,5.41,0,0,1-3.26-.78,5.86,5.86,0,0,1-3.15.78h-1.7c-.36,0-.77-.09-.77-.27Zm8.4,0h0c0-.16.41-.27.75-.27h2c.72,0,.89,0,.89-.76V3.14a.46.46,0,0,1,.45-.48H63.5a.45.45,0,0,1,.44.48V16.47c0,.82,0,1.9-.12,2.72a.8.8,0,0,1-.52.67,21.87,21.87,0,0,1-3.78.25H58c-.34,0-.75-.09-.75-.27ZM66.87,3.12h0a.45.45,0,0,1,.47-.46h2a.45.45,0,0,1,.47.46V19.63a.47.47,0,0,1-.47.48h-2a.47.47,0,0,1-.47-.48ZM85,24.61h0a.48.48,0,0,1,.49-.49H87a.49.49,0,0,1,.51.49v1.63a.5.5,0,0,1-.51.45H85.44a.48.48,0,0,1-.49-.45Zm-4.27,0h0a.49.49,0,0,1,.53-.49h1.53a.49.49,0,0,1,.52.49v1.63a.51.51,0,0,1-.52.45H81.21a.5.5,0,0,1-.53-.45ZM77,15.29h0a20.7,20.7,0,0,1,.3-3c0-.3.21-.46.46-.46h1.77c.29,0,.41.14.39.44-.07.66-.13,1.42-.13,1.85,0,3.19.54,5.58,4.64,5.58a15,15,0,0,0,2.14-.14c.07-1.54.07-2.25.07-3.49V14c0-3.49,2.11-5.1,5.89-5.1a18.52,18.52,0,0,1,3.3.3c.26.07.38.16.38.46v6.67c0,.67.26.81,1.07.81h1v2.93H96.49c-2.11,0-3.2-.5-3.2-2.89v-5.5a6.22,6.22,0,0,0-1.13-.09c-1.73,0-2.64.66-2.64,2.68V18.1c0,1.09,0,2.52-.08,3.6,0,.27-.17.43-.51.5a30.72,30.72,0,0,1-4.58.34C79.1,22.54,77,20,77,15.29Zm35.38,1.95h0c.4,0,.47-.25.47-1.51v-.34c0-2.8-1.31-3.7-4.31-3.7a8.19,8.19,0,0,0-4.29,1V17.2c.71,0,1.58,0,2.75,0Zm-14.55.35h0a.42.42,0,0,1,.45-.41h3v-14a.45.45,0,0,1,.47-.48h2.08a.45.45,0,0,1,.44.48v7a9.6,9.6,0,0,1,5-1.24c3.92,0,6.45,1.6,6.45,6.14V16a18.15,18.15,0,0,1-.3,3.35.81.81,0,0,1-.74.67c-.85.11-4.26.11-5.57.11H98.26a.42.42,0,0,1-.45-.41Zm9.79-13.3h0a.53.53,0,0,1,.55-.53H110a.52.52,0,0,1,.51.53V6.08a.51.51,0,0,1-.52.5h-1.79a.5.5,0,0,1-.55-.5Zm15,10.41h0c0,1.74.71,2.57,2.42,2.57h1.73v-5.6c-.44,0-.92-.07-1.4-.07a2.53,2.53,0,0,0-2.75,2.8Zm-2,8.65h0A.36.36,0,0,1,121,23h2.08c2.39,0,3.66-.41,3.66-2.15v-.69H125c-3.32,0-5.31-1.72-5.31-5v-.46c0-3.6,2.19-5.67,6.14-5.67a13.83,13.83,0,0,1,3.38.39c.29.12.38.19.38.44v7.41h2v2.93h-2.07v.78c-.3,3.76-2.75,4.68-5.9,4.68a19.6,19.6,0,0,1-2.74-.12c-.3-.06-.37-.18-.37-.43Zm12.56-.72h0a.54.54,0,0,1,.53-.52h1.77a.55.55,0,0,1,.56.52v1.84a.54.54,0,0,1-.56.48h-1.77a.53.53,0,0,1-.53-.48Zm-1.56-2.52h0c-.35,0-.75-.09-.75-.27V17.45c0-.16.4-.27.75-.27H134c.72,0,.91,0,.91-.76V12.84c0-.94,0-2-.05-3.07a.44.44,0,0,1,.47-.44h1.91a.44.44,0,0,1,.51.44c0,1,.05,1.7.05,2.36v3c0,1.95,0,3.26-.09,4.08a.84.84,0,0,1-.52.67,20.73,20.73,0,0,1-3.7.25Zm10.21-13.8h0a.44.44,0,0,1,.45-.46h2.07a.44.44,0,0,1,.46.46V19.63a.46.46,0,0,1-.46.48h-2.07a.46.46,0,0,1-.45-.48Zm-.42-1.91h0c-.25,0-.36-.09-.36-.27V3.46c0-.16.11-.23.36-.23h.44a2.32,2.32,0,0,1-.37-1.3c0-1.29.76-1.93,2.3-1.93a4.26,4.26,0,0,1,1.08.14c.15,0,.25.11.25.23V1c0,.16-.1.23-.3.23H144c-.81,0-1.15.25-1.15.91a1.23,1.23,0,0,0,.48,1.08h1.6c.26,0,.37.07.37.23v.69c0,.18-.11.27-.37.27ZM157.57,11h0c0-.19.12-.28.41-.28h.34a2.72,2.72,0,0,1-.3-1.28c0-1.49.94-2.3,2.59-2.3a5,5,0,0,1,1.15.14.37.37,0,0,1,.3.39v.83a.26.26,0,0,1-.3.3l-.92-.05a.9.9,0,0,0-1,1,1.25,1.25,0,0,0,.36.95h1.73c.27,0,.41.11.41.31v.94c0,.21-.14.33-.41.33H158c-.29,0-.41-.12-.41-.33Zm-3.29,1.86h0c.26,0,.4.13.4.43s0,.87,0,1c0,2.2,1.1,2.85,4.15,2.85h5.55c.56,0,1.31-.07,1.31-.78V3.14a.47.47,0,0,1,.46-.48h2.06a.48.48,0,0,1,.47.48V16.79c.18.32,1,.39,1.43.39h.61v2.93h-.29a6.74,6.74,0,0,1-3.16-.64,6.32,6.32,0,0,1-3.17.64h-5.78c-4.9,0-6.35-1.81-6.35-5a11.1,11.1,0,0,1,.14-1.79c.09-.34.19-.45.49-.45Zm19.89-7.43h0a.53.53,0,0,1,.54-.53h1.81a.51.51,0,0,1,.51.53V7.23a.51.51,0,0,1-.52.5h-1.8a.5.5,0,0,1-.54-.5ZM170.7,20.11h0c-.34,0-.75-.09-.75-.27V17.45c0-.16.41-.27.75-.27h2.15c.53,0,1.34-.07,1.34-.78V9.77a.43.43,0,0,1,.46-.44h2a.43.43,0,0,1,.44.44v7c.18.32,1.07.39,1.48.39h.56v2.93h-.27a5.39,5.39,0,0,1-3.26-.78,5.87,5.87,0,0,1-3.16.78Zm9.75,2.52h0a.53.53,0,0,1,.52-.52h1.77a.55.55,0,0,1,.57.52v1.84a.55.55,0,0,1-.57.48H181a.52.52,0,0,1-.52-.48Zm-1.33-2.52c-.35,0-.76-.09-.76-.27V17.45c0-.16.41-.27.76-.27h2.13c.73,0,.91,0,.91-.76V12.77c0-.94,0-2,0-3.07a.43.43,0,0,1,.47-.43h1.92c.34,0,.49.18.5.43,0,1,0,1.7,0,2.36v3c0,1.95,0,3.26-.08,4.08a.83.83,0,0,1-.53.67,20.58,20.58,0,0,1-3.7.25Z"/></g></g></svg>