<svg xmlns="http://www.w3.org/2000/svg" viewBox="0 0 377.36 132.69"><defs><style>.cls-1{fill:#ee3524;}</style></defs><g id="Layer_2" data-name="Layer 2"><g id="Layer_1-2" data-name="Layer 1"><path class="cls-1" d="M42.59,0c9,0,11.88,6.47,14.25,12.94,1,2.75,24.48,67,25.17,68.94a1.34,1.34,0,0,1-.76,1.73c-.83.32-13,5.06-13.7,5.31a1.32,1.32,0,0,1-1.68-.79c-.25-.66-5.3-14.67-5.87-16.24H25.23L19.32,88.13a1.29,1.29,0,0,1-1.68.79L4,83.61a1.35,1.35,0,0,1-.77-1.73c.86-2.41,24-65.64,25.15-68.94C30.62,6.57,33.56,0,42.59,0ZM1.32,115A1.33,1.33,0,0,0,0,116.33v15a1.33,1.33,0,0,0,1.32,1.35H83.87a1.33,1.33,0,0,0,1.31-1.35v-15A1.33,1.33,0,0,0,83.87,115H1.32m41.2-94L30.77,56.28h23.7L42.67,21Zm176.4,57.88a11.88,11.88,0,0,1-4.24.73c-2.81,0-4.37-1.11-4.37-4s2-4,5.88-4a8.48,8.48,0,0,1,2.32.29V74A18.89,18.89,0,0,0,218.92,78.86Zm10,3.45c-2.08-3.16-2.62-5-2.62-9v-8c0-4.36-.5-5.92-1.66-7.51-1.59-2.24-4.25-3.21-9.15-3.21a40.69,40.69,0,0,0-10.09,1.2l1.17,5.74a49.5,49.5,0,0,1,6.14-.58c5.21,0,5.81.76,5.81,4.66V67a15.14,15.14,0,0,0-4-.53c-7.84,0-12,3.83-12,10.17,0,6,4.41,9.19,9.8,9.19a16,16,0,0,0,5.78-1,16.32,16.32,0,0,0,2.74-1.55,8.08,8.08,0,0,0,3,2.52Zm77.47-3.45a11.88,11.88,0,0,1-4.24.73c-2.81,0-4.4-1.11-4.4-4s2-4,5.91-4a8.34,8.34,0,0,1,2.31.29V74A18.78,18.78,0,0,0,306.38,78.86Zm10,3.45c-2.08-3.16-2.62-5-2.62-9v-8c0-4.36-.5-5.92-1.66-7.51-1.59-2.24-4.25-3.21-9.16-3.21a40.85,40.85,0,0,0-10.11,1.2L294,61.48a49.87,49.87,0,0,1,6.19-.58c5.19,0,5.79.76,5.79,4.66V67a15,15,0,0,0-4-.53c-7.86,0-12,3.83-12,10.17,0,6,4.41,9.19,9.83,9.19a13.47,13.47,0,0,0,8.51-2.59,8.18,8.18,0,0,0,3,2.52Zm61,2.87S373.07,76,372,74c-1.18-2.35-2.27-4-4.7-4.54v-.14c1.62-.31,2.92-1.29,4.3-4.29s1.75-3.55,2.53-4.24A2.17,2.17,0,0,1,376,60.3l.41-5.4a20.13,20.13,0,0,0-3.67-.08,5.83,5.83,0,0,0-4.28,1.79,13,13,0,0,0-2.05,3.4c-.74,1.51-1.32,2.73-2.07,4.28s-1.12,2.28-3.16,2.28h-1.32V42.67H352V85.18h7.86V73l1.07,0c2.25,0,2.64.56,3.83,2.93,1.39,2.83,4.05,9.32,4.05,9.32Zm-220.91,0h9.05L151.81,43.39a16.16,16.16,0,0,0-5.13-.79,11.55,11.55,0,0,0-4.44.79L127.76,85.18h8.68S137.61,81.51,139,77h15C155.35,81.51,156.45,85.18,156.45,85.18ZM141.2,70l2.89-9.7c1-3.37,2.52-8.74,2.52-8.74h.25s1.39,5.56,2.31,8.69c.34,1.24,2.74,9.75,2.74,9.75Zm101.07-4.78a5,5,0,1,0,5,5A5,5,0,0,0,242.27,65.18Zm-66-22.51h-7.86V85.18h7.86ZM332.46,61.29c4.34.1,4.87,1,4.87,4.64V85.18h7.79V65.26c0-4.36-.51-5.92-1.66-7.51-1.59-2.24-4.75-3.21-10.06-3.21a40.72,40.72,0,0,0-12.91,1.84v28.8h7.87V61.66A21.41,21.41,0,0,1,332.46,61.29ZM195.69,41.92c-4.91,0-7.57,1-9.17,3.21-1.15,1.58-1.66,3.19-1.66,7.54v3.71H181v6.35h3.9V85.18h7.79l0-22.45h7.78V56.38h-7.78l0-3.41c0-3.89.6-4.65,5.81-4.65.56,0,1.19,0,1.87.08l1.23-6.1A44.06,44.06,0,0,0,195.69,41.92Zm62.56.39c2.67-.16,8.64-.38,12.41-.38.66,0,1.37,0,2.09,0,7.38,0,11.6,5.37,11.6,11.68,0,4.28-2,7.13-6.56,8.83,5.42,1.19,8.26,5.42,8.26,10.59,0,3.8-1.08,6.81-3.05,8.86h0c-2.54,2.52-6.4,3.92-11.52,3.92-4.59,0-10.31-.14-13.23-.31Zm12.41,7c-1.32,0-2.91,0-4.52.08v10.2h4.52a5.8,5.8,0,0,0,4.2-1.46,5,5,0,0,0,1.41-3.7c0-3.25-1.76-5.11-5-5.12Zm.15,29.25h.36c4.06,0,6.58-2.18,6.61-6.56a5.85,5.85,0,0,0-1.72-4.08,6.63,6.63,0,0,0-4.82-1.81h-5.1v12.4C267.58,78.51,269.16,78.52,270.81,78.53Z"/></g></g></svg>