<?xml version="1.0" encoding="utf-8"?>
<!-- Generator: Adobe Illustrator 25.2.3, SVG Export Plug-In . SVG Version: 6.00 Build 0)  -->
<svg version="1.1" id="Layer_1" xmlns="http://www.w3.org/2000/svg" xmlns:xlink="http://www.w3.org/1999/xlink" x="0px" y="0px"
	 viewBox="0 0 517.9 167.8" style="enable-background:new 0 0 517.9 167.8;" xml:space="preserve">
<style type="text/css">
	.st0{clip-path:url(#SVGID_2_);}
	.st1{fill:url(#SVGID_3_);}
	.st2{clip-path:url(#SVGID_5_);}
	.st3{clip-path:url(#SVGID_7_);}
	.st4{fill:#004167;}
	.st5{clip-path:url(#SVGID_9_);}
	.st6{clip-path:url(#SVGID_11_);}
	.st7{clip-path:url(#SVGID_13_);}
	.st8{clip-path:url(#SVGID_15_);}
	.st9{clip-path:url(#SVGID_17_);}
	.st10{fill:#FFFFFF;}
</style>
<g id="Layer_2_1_">
	<g id="layer">
		<g>
			<defs>
				<path id="SVGID_1_" d="M403.6,114.6c-5.4-7.4-12.7-13.2-21.1-16.8c-5.5-2.2-11.4-3.3-17.3-3.3c-2.1,0-4.2,0.1-6.2,0.5
					c-7,1-10.4,3.4-12.3,5c-3.1,2.6-5.4,7.2-2,12s35.6,42.5,44,52.2c1.8,2.1,4.5,3.1,7.2,2.6c4.2-0.9,9-5.8,10.8-9.4
					c1.4-2.7,2.5-5.5,3.2-8.4c0.8-3.3,1.1-6.8,1.1-10.2C411.1,130.2,408.5,121.7,403.6,114.6 M430.3,4.7C404.2,4.7,383,25.9,383,52
					c0,10.7,3.6,21.1,10.3,29.5c8.4,10.1,18.9,13.7,23.1,13.6c6.5-0.1,5.4-5.4,4.8-7.5c-0.7-2.5-1.9-4.8-3.3-7
					c-2.6-3.7-4.1-8.1-4.1-12.7c0-9.1,8.7-15.8,16.4-15.8s16.5,6.6,16.5,15.8c0,4.6-1.5,9-4.1,12.7c-1.5,2.1-2.6,4.5-3.3,7
					c-0.5,2.2-1.7,7.4,4.8,7.5c4.2,0.1,14.6-3.6,23-13.6C483.4,61,480,31.3,459.5,15C451.2,8.4,440.9,4.8,430.3,4.7 M513.9,100
					c-1.9-1.6-5.3-4-12.3-5c-2.1-0.3-4.1-0.5-6.2-0.5c-5.9,0-11.8,1.1-17.3,3.3c-6.8,2.7-15.2,8.8-21.1,16.8
					c-6.1,8.4-9.3,21.1-6.3,34.3c0.7,2.9,1.7,5.7,3.1,8.4c1.9,3.6,6.7,8.5,10.8,9.4c2.7,0.5,5.4-0.5,7.2-2.6
					c8.5-9.7,40.6-47.4,44-52.2c1.1-1.4,1.7-3.1,1.7-4.9C517.5,104.2,516.1,101.6,513.9,100"/>
			</defs>
			<clipPath id="SVGID_2_">
				<use xlink:href="#SVGID_1_"  style="overflow:visible;"/>
			</clipPath>
			<g class="st0">
				
					<radialGradient id="SVGID_3_" cx="-1365.7825" cy="282.7575" r="37.01" gradientTransform="matrix(1.000000e-02 5.36 -3.98 1.000000e-02 1570.86 7321.9902)" gradientUnits="userSpaceOnUse">
					<stop  offset="0" style="stop-color:#00ADE6"/>
					<stop  offset="0.17" style="stop-color:#009FE1"/>
					<stop  offset="0.65" style="stop-color:#0098DF"/>
					<stop  offset="1" style="stop-color:#004069"/>
				</radialGradient>
				<polygon class="st1" points="341,4.7 341.2,167.8 517.9,167.5 517.6,4.4 				"/>
			</g>
		</g>
		<g>
			<defs>
				<rect id="SVGID_4_" x="-5.8" y="49.9" width="337" height="116.9"/>
			</defs>
			<clipPath id="SVGID_5_">
				<use xlink:href="#SVGID_4_"  style="overflow:visible;"/>
			</clipPath>
			<g class="st2">
				<g>
					<defs>
						<rect id="SVGID_6_" x="-41.2" y="-45.9" width="600" height="263.5"/>
					</defs>
					<clipPath id="SVGID_7_">
						<use xlink:href="#SVGID_6_"  style="overflow:visible;"/>
					</clipPath>
					<g class="st3">
						<path class="st4" d="M243.3,82.3h37.6c0,0-7.7,10.1-16.2,21.2h43.9c7.8-10.2,14.9-19.5,16-20.9c4-4.9,6.2-11.1,6.1-17.4v-7.3
							c0-3.7-2.3-5.7-5.8-5.7h-81.6c-3.4,0-5.6,1.9-5.6,5.6v18.9C237.7,80.4,240,82.3,243.3,82.3"/>
					</g>
				</g>
				<g>
					<defs>
						<rect id="SVGID_8_" x="-41.2" y="-45.9" width="600" height="263.5"/>
					</defs>
					<clipPath id="SVGID_9_">
						<use xlink:href="#SVGID_8_"  style="overflow:visible;"/>
					</clipPath>
					<g class="st5">
						<path class="st4" d="M0.8,155.5c-0.9,1.4-1.1,3.2-0.4,4.7c0.8,1.4,2.4,2.3,4.1,2.2h26.7c3.3,0,6.4-1.7,8.1-4.5l29.5-46.8h-40
							C15,133,1.1,155,0.8,155.5"/>
					</g>
				</g>
				<g>
					<defs>
						<rect id="SVGID_10_" x="-41.2" y="-45.9" width="600" height="263.5"/>
					</defs>
					<clipPath id="SVGID_11_">
						<use xlink:href="#SVGID_10_"  style="overflow:visible;"/>
					</clipPath>
					<g class="st6">
						<path class="st4" d="M110.7,111.2H73.3c0.9,5.2,7.9,43.8,8.3,46.1c0.6,3.5,2.8,5.3,6,5.3h25.8c2.4,0,3.6-0.7,4.6-2.1
							c0.8-0.9,1.1-2.3,0.7-4.4L110.7,111.2z"/>
					</g>
				</g>
				<g>
					<defs>
						<rect id="SVGID_12_" x="-41.2" y="-45.9" width="600" height="263.5"/>
					</defs>
					<clipPath id="SVGID_13_">
						<use xlink:href="#SVGID_12_"  style="overflow:visible;"/>
					</clipPath>
					<g class="st7">
						<path class="st4" d="M226,57.8c0-3.8-2.3-5.6-5.6-5.6h-22.8c-3.4,0-5.6,1.9-5.6,5.6v42.8l-21.6-38.5c-4.3-7.1-11.5-9.7-20-9.9
							h-16.8c-3.4,0-5.6,1.9-5.6,5.6v45.7h28.3l4.3,7.7H128v45.7c0,3.8,2.3,5.6,5.6,5.6h22.8c3.4,0,5.6-1.9,5.6-5.6v-43l21.7,38.7
							c4.3,7.1,11.5,9.7,20,9.9h16.7c3.4,0,5.6-1.9,5.6-5.6v-45.7h-28.1l-4.3-7.7H226L226,57.8L226,57.8z"/>
					</g>
				</g>
				<g>
					<defs>
						<rect id="SVGID_14_" x="-41.2" y="-45.9" width="600" height="263.5"/>
					</defs>
					<clipPath id="SVGID_15_">
						<use xlink:href="#SVGID_14_"  style="overflow:visible;"/>
					</clipPath>
					<g class="st8">
						<path class="st4" d="M101.1,57.5c-0.7-3.6-3-5.3-6.2-5.3H83.7C72.5,52.2,62,58,56.1,67.5c0,0-10.7,16.9-22.6,36h75.8
							L101.1,57.5z"/>
					</g>
				</g>
				<g>
					<defs>
						<rect id="SVGID_16_" x="-41.2" y="-45.9" width="600" height="263.5"/>
					</defs>
					<clipPath id="SVGID_17_">
						<use xlink:href="#SVGID_16_"  style="overflow:visible;"/>
					</clipPath>
					<g class="st9">
						<path class="st4" d="M326.1,132.3h-39.5c0,0,7.7-10.1,16.2-21.2h-43.9c-8,10.4-15.2,19.8-15.6,20.4c-5.8,8.1-6.4,16.3-6.4,22
							v3.2c0,3.7,2.3,5.7,5.7,5.7h83.5c3.4,0,5.6-1.8,5.6-5.6V138C331.7,134.2,329.5,132.3,326.1,132.3"/>
						<rect x="280.2" y="-183" class="st10" width="0" height="9"/>
					</g>
				</g>
			</g>
		</g>
	</g>
</g>
</svg>
