<?xml version="1.0" encoding="utf-8"?>
<!-- Generator: Adobe Illustrator 25.2.3, SVG Export Plug-In . SVG Version: 6.00 Build 0)  -->
<svg version="1.1" id="Layer_1" xmlns="http://www.w3.org/2000/svg" xmlns:xlink="http://www.w3.org/1999/xlink" x="0px" y="0px"
	 viewBox="0 0 2500 423" style="enable-background:new 0 0 2500 423;" xml:space="preserve">
<style type="text/css">
	.st0{fill:#2360A5;}
</style>
<path class="st0" d="M117.8,326.1l33-22l33,22l-66.1,44.1V326.1z M435,96.9l-33,22l-33-22L435,52.9V96.9z M435,264.4L276.4,370.1
	L117.8,264.4l188.4-125.6l33,22l-152,101.3l92.5,61.7l43-28.6l-33-22l79.3-52.9L435,264.4L435,264.4z M117.8,158.6L276.4,52.9
	l158.6,105.7L246.7,284.2l-33-22l152-101.3l-92.5-61.7l-43,28.6l33,22l-79.3,52.9L117.8,158.6L117.8,158.6z M498.5,248.2v69H585
	c20.7,0,72.2-2.3,72.2-56c0-4.5-0.2-8.9-0.8-13l-53.7,0c0.3,2.1,0.4,4.3,0.4,6.6c0,29.6-24.5,29.9-35.4,29.9h-16.1v-36.4
	L498.5,248.2L498.5,248.2L498.5,248.2z M679.5,248.2l-21.1,69h43.5l10.9-38.3h46.7l10.6,38.3h46.1l-20.7-69h-43.9l1,4h-33.4l0.9-4
	H679.5L679.5,248.2z M826.4,248.2v69h37.3v-69H826.4z M883.2,248.2l28.8,69h51.9v-69h-37.4v7.8l-3.3-7.8H883.2L883.2,248.2z
	 M981.7,248.2c0.5,43.3,6,74,65.7,74c38.2,0,60.6-15.1,60.6-62.4h-43.5c-0.5,13.9-0.8,35.9-17.1,35.9c-16.3,0-20.3-8.7-21.1-47.7
	L981.7,248.2z M1121,248.2c0.9,39.6,8.3,74,67.2,74s66.3-34.5,67.2-74l-45.1,0c-0.9,33-5.1,47.6-22.1,47.6
	c-17,0-21.3-14.6-22.1-47.7L1121,248.2z M1303.4,248.2v69h65.8c55.5,0,63.4-39.6,64.3-68.9l-44.6,0c-1.3,30.5-6.9,42.5-24.9,42.5
	h-16.7v-42.5H1303.4z M1450.1,248.2c0.9,39.5,8.1,74,67.3,74c59.1,0,66.4-34.5,67.3-74.1l-45.2,0c-0.8,33.1-5,47.7-22.1,47.7
	c-17.1,0-21.3-14.6-22.1-47.7L1450.1,248.2L1450.1,248.2z M1630.3,248.2v69h86.5c20.7,0,72.2-2.3,72.2-56c0-4.6-0.2-8.9-0.7-13
	l-53,0c0.2,2.2,0.4,4.5,0.4,6.9c0,29.6-20,29.9-28.8,29.9h-23.3v-36.8L1630.3,248.2L1630.3,248.2z M1803.6,248.2v68.9h45.1v-68.9
	H1803.6z M1867.2,248.2l30,68.9h72.2l10.9-38.3h46.7l10.6,38.3l104.9,0c29,0,58.3-3.9,58.3-48.7c0.1-7-1.5-14-4.8-20.2l-65.3-0.1
	c13.4,6.3,23.8,12.8,23.8,23c0,11.7-6.3,19.7-19.2,19.7l-59.5,0l-12.8-42.7H2019l1,4.1h-33.4l0.9-4.1h-40.8l-16.5,53.4l-24.1-53.4
	L1867.2,248.2L1867.2,248.2z M2217,248.2v69h44v-69H2217z M2286.8,248.2v69h95.4V291h-51.4v-42.8L2286.8,248.2L2286.8,248.2z"/>
<path class="st0" d="M551.8,248.2V225l10.6-0.3h6.8c22.7,0,31.7,8.8,33.6,23.6h53.7c-2.7-22-13.8-36.9-43-40.6
	c26.6-5.3,39.9-22.8,39.9-47.1c0-45.1-30.8-54.8-68-54.8h-86.8v142.5L551.8,248.2L551.8,248.2L551.8,248.2z M720.1,248.2l15-66.8
	l16.5,66.8h43.9l-31.3-104.1h-52.8l-31.9,104.1H720.1z M863.8,248.2v-46.5l19.4,46.5h40l-43.6-104.1h-53.2v104.1L863.8,248.2
	L863.8,248.2L863.8,248.2z M963.8,248.2V144.1h-37.4v104.1H963.8L963.8,248.2z M1026.3,248.2c-0.1-5.7-0.1-11.4-0.1-17.2
	c0-55.4,4.2-64.8,20.4-64.8c11.6,0,16.8,8.8,16.8,32.3h43.2c1.6-37.9-19.4-58.7-61.1-58.7c-62.1,0-63.9,39.4-63.9,91.2
	c0,5.9,0,11.6,0,17.1L1026.3,248.2L1026.3,248.2z M1166.1,248.2c-0.1-5.2-0.2-11-0.2-17.2c0-45.2,2.6-64.8,22.3-64.8
	c19.7,0,22.3,19.6,22.3,64.8c0,6.2,0,11.9-0.2,17.1l45.1,0c0.1-5.6,0.1-11.4,0.1-17.2c0-46.7,0-91.2-67.3-91.2
	c-67.3,0-67.3,44.5-67.3,91.2c0,5.8,0,11.5,0.1,17.2L1166.1,248.2L1166.1,248.2z M1347.3,248.2v-77.7h17.9c24,0,24,28.1,24,60.1
	c0,6.4-0.1,12.2-0.3,17.5l44.6,0c0.3-7.1,0.1-13.6,0.1-18.8c0-54.1-9.9-85.8-62.8-85.8h-67.4v104.6L1347.3,248.2L1347.3,248.2
	L1347.3,248.2z M1495.3,248.2c-0.1-5.6-0.2-11.2-0.2-16.8c0-45,2.6-64.5,22.3-64.5c19.7,0,22.3,19.5,22.3,64.5
	c0,6.1,0,11.6-0.2,16.8h45.2c0.1-5.5,0.1-11.1,0.1-16.8c0-46.5,0-90.8-67.4-90.8c-67.4,0-67.4,44.3-67.4,90.8c0,5.6,0,11.2,0.1,16.8
	L1495.3,248.2L1495.3,248.2z M1683.6,248.2v-22.9l13.4-0.3h11c18.3,0,25.7,8.7,27.4,23.3l53,0c-2.7-21.9-13.8-36.9-43-40.6
	c26.6-5.3,39.9-22.8,39.9-47.1c0-45.1-30.8-54.8-68-54.8h-86.8v142.4H1683.6z M1848.7,248.2v-77.5h15c12.7,0,23.8,9.3,23.8,26.3
	c0,14.4-7.2,26.3-18.8,25.5l-12.6,0.2l11.1,25.5h38.8l-6.5-14.4c22.4-4.2,31.4-18.4,31.4-44.5c0.1-29.5-17.5-45.3-44.8-45.3h-82.6
	v104.1L1848.7,248.2L1848.7,248.2L1848.7,248.2z M1987.4,248.2l15-66.7l16.5,66.7h43.9l-31.2-104.1h-52.8l-32.3,104.1H1987.4z
	 M2195.8,248.2c-16.5-30.8-70.2-31.4-70.2-59.1c0-12,7.3-18.5,19.7-18.5h40.1V144H2129c-46.3,0-57.8,20.9-57.8,48
	c0,33.3,34.7,44.6,59.3,56.2L2195.8,248.2L2195.8,248.2z M2261,248.2V144.1h-44v104.1H2261z M2330.8,248.2V144.1h-44v104.1H2330.8z
	 M551.8,192.3v-54h19.1c17.4,0,29.6,11.4,29.6,26.9c0,20.5-15.7,26.9-26.9,26.9h-17.9L551.8,192.3z M1683.6,192.6v-54h25.8
	c14.1,0,24.1,11.4,24.1,26.9c0,20.5-12.7,26.9-21.9,26.9H1697L1683.6,192.6z"/>
</svg>
