<?xml version="1.0" encoding="utf-8"?>
<!-- Generator: Adobe Illustrator 25.2.3, SVG Export Plug-In . SVG Version: 6.00 Build 0)  -->
<svg version="1.1" id="Layer_1" xmlns="http://www.w3.org/2000/svg" xmlns:xlink="http://www.w3.org/1999/xlink" x="0px" y="0px"
	 viewBox="0 0 249.4 60.4" style="enable-background:new 0 0 249.4 60.4;" xml:space="preserve">
<style type="text/css">
	.st0{fill:url(#SVGID_1_);}
	.st1{fill:url(#SVGID_2_);}
	.st2{fill:url(#SVGID_3_);}
	.st3{fill:url(#SVGID_4_);}
	.st4{fill:url(#SVGID_5_);}
	.st5{fill:url(#SVGID_6_);}
	.st6{fill:url(#SVGID_7_);}
	.st7{fill:url(#SVGID_8_);}
	.st8{fill:url(#SVGID_9_);}
	.st9{fill:url(#SVGID_10_);}
	.st10{fill:url(#SVGID_11_);}
	.st11{fill:url(#SVGID_12_);}
	.st12{fill:url(#SVGID_13_);}
	.st13{fill:url(#SVGID_14_);}
	.st14{fill:#ED1C24;}
	.st15{fill:#FFFFFF;}
	.st16{fill:url(#SVGID_15_);}
	.st17{fill:url(#SVGID_16_);}
	.st18{fill:url(#SVGID_17_);}
	.st19{fill:url(#SVGID_18_);}
	.st20{fill:url(#SVGID_19_);}
</style>
<linearGradient id="SVGID_1_" gradientUnits="userSpaceOnUse" x1="97.433" y1="31.4265" x2="107.435" y2="31.4265">
	<stop  offset="0" style="stop-color:#000000"/>
	<stop  offset="1" style="stop-color:#000000"/>
</linearGradient>
<path class="st0" d="M102.6,31.3h-1.4v5h1.1c1.9,0,2.9-0.8,2.9-2.6C105.1,32.1,104.5,31.3,102.6,31.3 M102.5,26.6
	c-0.4,0-0.9,0-1.3,0v4.2h1.4c1.5,0,2.1-0.8,2.1-2.1C104.6,27.3,104.1,26.6,102.5,26.6z M103.2,36.8c-1.9,0-3.9-0.1-5.8,0v-0.5
	c0.4,0,1.6,0,1.6-0.6v-8.6c0-0.5-1.2-0.6-1.6-0.6l0-0.5c2,0.1,4,0,6,0c1.9,0,3.4,0.4,3.4,2.4c0,1.6-1.2,2.3-2.8,2.5V31
	c2,0.1,3.4,0.8,3.4,2.8C107.4,36.1,105.4,36.8,103.2,36.8z"/>
<linearGradient id="SVGID_2_" gradientUnits="userSpaceOnUse" x1="109.068" y1="33.1395" x2="117.219" y2="33.1395">
	<stop  offset="0" style="stop-color:#000000"/>
	<stop  offset="1" style="stop-color:#000000"/>
</linearGradient>
<path class="st1" d="M114,32.8c-1.6,0.1-2.9,0.2-2.9,2.1c0,0.7,0.3,1.5,1.2,1.5c1.3,0,1.7-1.1,1.7-2.1 M115.3,36.8
	c-0.6,0-1.2-0.1-1.2-0.8c-0.7,0.6-1.5,0.9-2.5,0.9c-1.6,0-2.5-0.8-2.5-2.2c0-2.5,3.1-2.4,5-2.5v-1.2c0-0.8-0.4-1.3-1.4-1.3
	c-1.1,0-1.4,0.5-1.4,1.4c0,0.4-0.3,0.5-0.7,0.5c-0.5,0-0.9,0-0.9-0.6c0-1.4,1.7-1.7,2.9-1.7c2,0,3.4,0.3,3.4,2.3v3.5
	c0,1,0.1,1.2,1.3,1.2v0.5C116.6,36.8,115.9,36.8,115.3,36.8z"/>
<linearGradient id="SVGID_3_" gradientUnits="userSpaceOnUse" x1="118.075" y1="33.062" x2="127.957" y2="33.062">
	<stop  offset="0" style="stop-color:#000000"/>
	<stop  offset="1" style="stop-color:#000000"/>
</linearGradient>
<path class="st2" d="M123.5,36.8v-0.5c0.4,0,1.2-0.1,1.2-0.6v-3.9c0-0.9-0.2-1.7-1.4-1.7c-1.4,0-1.9,1.1-1.9,2.2v3.5
	c0,0.5,0.8,0.6,1.2,0.6l0,0.5c-1.5-0.1-3.1,0-4.5,0v-0.5c0.4,0,1.3,0,1.3-0.6v-5.2c0-0.5-0.9-0.6-1.3-0.6v-0.5c1.1,0,2.2,0,3.2,0
	v1.1h0c0.8-0.8,1.5-1.2,2.8-1.2c1.8,0,2.5,0.8,2.5,2.4v4c0,0.5,0.9,0.6,1.3,0.6v0.5C126.5,36.8,124.9,36.8,123.5,36.8"/>
<linearGradient id="SVGID_4_" gradientUnits="userSpaceOnUse" x1="128.901" y1="31.213" x2="138.534" y2="31.213">
	<stop  offset="0" style="stop-color:#000000"/>
	<stop  offset="1" style="stop-color:#000000"/>
</linearGradient>
<path class="st3" d="M134.5,36.8v-0.5c0.1,0,0.6,0,0.6-0.2c-0.1-0.2-0.4-0.5-0.6-0.8c-0.5-0.6-0.9-1.2-1.4-1.7c0,0-0.2-0.3-0.2-0.3
	l-0.7,0.6v1.9c0,0.6,0.9,0.5,1.3,0.5v0.5c-1.5-0.1-3.1-0.1-4.6,0v-0.5c0.4,0,1.3-0.1,1.3-0.6v-9c0-0.6-0.9-0.6-1.3-0.6l0-0.5
	c1.1,0,2.2,0,3.3,0l0,7.6c0,0,2.7-2.9,2.7-3.1c0-0.1-0.6-0.2-0.7-0.2v-0.4h3.3v0.4h-0.2c-0.4,0-1.1,0-1.4,0.2
	c-0.7,0.6-1.8,1.9-1.8,1.9l3.1,3.7c0.3,0.4,0.9,0.6,1.4,0.6v0.5C137.2,36.7,135.8,36.8,134.5,36.8"/>
<linearGradient id="SVGID_5_" gradientUnits="userSpaceOnUse" x1="142.636" y1="33.139" x2="150.699" y2="33.139">
	<stop  offset="0" style="stop-color:#000000"/>
	<stop  offset="1" style="stop-color:#000000"/>
</linearGradient>
<path class="st4" d="M146.7,29.8c-2,0-1.9,2-1.9,3.3c0,1.3-0.1,3.4,1.9,3.4c2,0,1.9-2.1,1.9-3.4C148.6,31.8,148.7,29.8,146.7,29.8
	 M146.7,37c-2.7,0-4-1.4-4-3.8c0-2.4,1.4-3.9,4-3.9c2.7,0,4,1.5,4,3.9C150.7,35.5,149.3,37,146.7,37z"/>
<linearGradient id="SVGID_6_" gradientUnits="userSpaceOnUse" x1="151.742" y1="31.1805" x2="158.443" y2="31.1805">
	<stop  offset="0" style="stop-color:#000000"/>
	<stop  offset="1" style="stop-color:#000000"/>
</linearGradient>
<path class="st5" d="M157.5,27.7c-1.4,0-0.1-1.7-1.5-1.7c-0.9,0-0.9,0.8-0.9,1.4v2.1h1.7V30H155v5.7c0,0.6,1,0.6,1.5,0.6l0,0.5
	c-1.6,0-3.2-0.1-4.7,0v-0.5c0.4,0,1.3,0,1.3-0.6V30h-1.3v-0.5h1.3v-1.2c0-1.8,1-2.8,3-2.8c1.1,0,2.4,0.3,2.4,1.5
	C158.4,27.7,158.1,27.7,157.5,27.7"/>
<linearGradient id="SVGID_7_" gradientUnits="userSpaceOnUse" x1="162.294" y1="31.4785" x2="177.65" y2="31.4785">
	<stop  offset="0" style="stop-color:#000000"/>
	<stop  offset="1" style="stop-color:#000000"/>
</linearGradient>
<path class="st6" d="M172.2,36.8v-0.5c0.4,0,1.7,0,1.7-0.6v-8.2l-4.5,9.4H169l-4.4-9.4v8.2c0,0.6,1.3,0.6,1.7,0.6v0.5
	c-1.3,0-2.7-0.1-4,0v-0.5c0.4,0,1.6,0,1.6-0.6v-8.6c0-0.5-1.2-0.6-1.6-0.6l0-0.5c1.2,0.1,2.6,0.1,3.8,0l3.9,8.1l3.9-8.1
	c1.2,0.1,2.5,0.1,3.7,0v0.5c-0.4,0-1.6,0-1.6,0.6v8.6c0,0.6,1.2,0.6,1.6,0.6v0.5C176,36.8,173.9,36.8,172.2,36.8"/>
<linearGradient id="SVGID_8_" gradientUnits="userSpaceOnUse" x1="178.608" y1="33.139" x2="186.672" y2="33.139">
	<stop  offset="0" style="stop-color:#000000"/>
	<stop  offset="1" style="stop-color:#000000"/>
</linearGradient>
<path class="st7" d="M182.6,29.8c-2,0-1.9,2-1.9,3.3c0,1.3-0.1,3.4,1.9,3.4c2,0,1.9-2.1,1.9-3.4C184.6,31.8,184.6,29.8,182.6,29.8
	 M182.6,37c-2.7,0-4-1.4-4-3.8c0-2.4,1.4-3.9,4-3.9c2.7,0,4,1.5,4,3.9C186.7,35.5,185.3,37,182.6,37z"/>
<linearGradient id="SVGID_9_" gradientUnits="userSpaceOnUse" x1="187.668" y1="33.062" x2="197.551" y2="33.062">
	<stop  offset="0" style="stop-color:#000000"/>
	<stop  offset="1" style="stop-color:#000000"/>
</linearGradient>
<path class="st8" d="M193.1,36.8v-0.5c0.4,0,1.2-0.1,1.2-0.6v-3.9c0-0.9-0.2-1.7-1.4-1.7c-1.4,0-1.9,1.1-1.9,2.2v3.5
	c0,0.5,0.8,0.6,1.2,0.6l0,0.5c-1.5-0.1-3.1,0-4.5,0v-0.5c0.4,0,1.3,0,1.3-0.6v-5.2c0-0.5-0.9-0.6-1.3-0.6v-0.5c1.1,0,2.2,0,3.2,0
	v1.1h0c0.8-0.8,1.5-1.2,2.8-1.2c1.8,0,2.5,0.8,2.5,2.4v4c0,0.5,0.9,0.6,1.3,0.6v0.5C196.1,36.8,194.5,36.8,193.1,36.8"/>
<linearGradient id="SVGID_10_" gradientUnits="userSpaceOnUse" x1="197.886" y1="32.3515" x2="203.292" y2="32.3515">
	<stop  offset="0" style="stop-color:#000000"/>
	<stop  offset="1" style="stop-color:#000000"/>
</linearGradient>
<path class="st9" d="M201.1,37c-1.6,0-2-0.7-2-2V30h-1.2v-0.5h1.2v-1.6l1.9-0.2v1.7h1.8V30H201v5.2c0,0.6,0.1,1,0.9,1
	c0.3,0,0.8-0.3,1-0.4l0.4,0.5C202.6,36.6,201.9,37,201.1,37"/>
<linearGradient id="SVGID_11_" gradientUnits="userSpaceOnUse" x1="204.419" y1="33.063" x2="211.29" y2="33.063">
	<stop  offset="0" style="stop-color:#000000"/>
	<stop  offset="1" style="stop-color:#000000"/>
</linearGradient>
<path class="st10" d="M210.4,31.7c-1.5,0-0.3-1.6-1.3-1.6c-1.1,0-1.4,1.9-1.4,2.6v3.1c0,0.6,1,0.6,1.4,0.6v0.5c-1.6,0-3.1-0.1-4.7,0
	v-0.5c0.4,0,1.3,0,1.3-0.6v-5.2c0-0.5-0.9-0.6-1.3-0.6l0-0.5c1.1,0,2.2,0,3.2,0v1.2l0,0c0.4-0.7,1.1-1.3,2-1.3c1,0,1.6,0.5,1.6,1.4
	C211.3,31.3,211.1,31.7,210.4,31.7"/>
<linearGradient id="SVGID_12_" gradientUnits="userSpaceOnUse" x1="212.265" y1="33.1405" x2="219.774" y2="33.1405">
	<stop  offset="0" style="stop-color:#000000"/>
	<stop  offset="1" style="stop-color:#000000"/>
</linearGradient>
<path class="st11" d="M217.7,31.9c0-1-0.2-2.1-1.6-2.1c-1.5,0-1.6,1.6-1.7,2.6h3.2 M214.4,33v0.4c0,1.4,0.1,3.1,2.1,3.1
	c1.5,0,2.2-0.7,2.4-2h0.7c-0.4,1.9-1.3,2.6-3.4,2.6c-2.8,0-3.9-1.6-3.9-3.9c0-2.3,1.4-3.7,3.9-3.7c2.5,0,3.6,1.4,3.6,3.5V33
	L214.4,33L214.4,33z"/>
<linearGradient id="SVGID_13_" gradientUnits="userSpaceOnUse" x1="221.205" y1="33.1395" x2="229.357" y2="33.1395">
	<stop  offset="0" style="stop-color:#000000"/>
	<stop  offset="1" style="stop-color:#000000"/>
</linearGradient>
<path class="st12" d="M226.2,32.8c-1.6,0.1-2.9,0.2-2.9,2.1c0,0.7,0.3,1.5,1.2,1.5c1.3,0,1.7-1.1,1.7-2.1 M227.4,36.8
	c-0.6,0-1.2-0.1-1.2-0.8c-0.7,0.6-1.5,0.9-2.5,0.9c-1.6,0-2.5-0.8-2.5-2.2c0-2.5,3.1-2.4,4.9-2.5v-1.2c0-0.8-0.4-1.3-1.4-1.3
	c-1.1,0-1.4,0.5-1.4,1.4c0,0.4-0.3,0.5-0.7,0.5c-0.5,0-0.9,0-0.9-0.6c0-1.4,1.7-1.7,2.9-1.7c2,0,3.4,0.3,3.4,2.3v3.5
	c0,1,0.1,1.2,1.3,1.2v0.5C228.7,36.8,228,36.8,227.4,36.8z"/>
<linearGradient id="SVGID_14_" gradientUnits="userSpaceOnUse" x1="230.415" y1="31.2125" x2="235.047" y2="31.2125">
	<stop  offset="0" style="stop-color:#000000"/>
	<stop  offset="1" style="stop-color:#000000"/>
</linearGradient>
<path class="st13" d="M230.4,36.8v-0.5c0.4,0,1.3,0,1.3-0.6v-9.1c0-0.5-0.9-0.6-1.3-0.6l0-0.5c1.1,0,2.2,0,3.3,0v10.1
	c0,0.5,0.9,0.6,1.3,0.6v0.5C233.5,36.8,231.9,36.8,230.4,36.8"/>
<path class="st14" d="M75.7,15c-8.4,0-15.2,6.8-15.2,15.2c0,8.4,6.8,15.2,15.2,15.2c8.4,0,15.2-6.8,15.2-15.2
	C90.9,21.8,84.1,15,75.7,15"/>
<rect x="68.4" y="32.3" class="st15" width="14.4" height="4.5"/>
<path class="st15" d="M75.2,25.5c0.2,0.2,0.3,0.3,0.5,0.3c0.2,0,0.3-0.1,0.5-0.3c0,0,2.4-3.2,2.5-3.3c0.3-0.4,0.7-0.4,1,0l3.1,3.9
	v6.2l-3-3.9c-0.4-0.4-0.8-0.5-1.1,0c-0.1,0.2-2.5,3.3-2.5,3.3c-0.4,0.5-0.7,0.5-1.1,0c0,0-2.4-3.1-2.5-3.3c-0.3-0.4-0.7-0.5-1.1,0
	l-3.1,3.9l0-6.2c0,0,2.9-3.7,3.1-3.9c0.3-0.4,0.7-0.4,1.1,0C72.8,22.4,75.2,25.5,75.2,25.5"/>
<linearGradient id="SVGID_15_" gradientUnits="userSpaceOnUse" x1="14.397" y1="31.5405" x2="24.912" y2="31.5405">
	<stop  offset="0" style="stop-color:#000000"/>
	<stop  offset="1" style="stop-color:#000000"/>
</linearGradient>
<path class="st16" d="M22.2,33.7c0,1.7-0.6,2.5-2.6,2.5h-1.2v-4.8h1.3C21.6,31.4,22.2,32.1,22.2,33.7 M24.9,33.9
	c0-2-1.6-2.7-3.6-2.8v-0.1c1.7-0.1,3.1-0.8,3.1-2.5c0-1.9-1.6-2.2-3.3-2.2c-2.1,0-4.6,0.1-6.7,0v0.5c0.4,0,1.5,0,1.5,0.6v8.3
	c0,0.5-1.1,0.6-1.5,0.6v0.5c2-0.1,4.4,0,6.5,0C23,36.8,24.9,36.1,24.9,33.9z M21.8,28.8c0,1.3-0.6,2.1-2.1,2.1h-1.3v-4.1
	c0.2,0,0.7,0,0.9,0h0.4C21.3,26.8,21.8,27.5,21.8,28.8z"/>
<linearGradient id="SVGID_16_" gradientUnits="userSpaceOnUse" x1="25.979" y1="31.6105" x2="41.305" y2="31.6105">
	<stop  offset="0" style="stop-color:#000000"/>
	<stop  offset="1" style="stop-color:#000000"/>
</linearGradient>
<path class="st17" d="M38.5,36.8c-0.9,0-1.9,0-2.8,0v-0.5c0.4,0,1.6,0,1.6-0.6V28h0l-4.3,9h-0.4l-4.2-9h0v7.7c0,0.6,1.2,0.6,1.7,0.6
	l0,0.5c-1.2,0-2.8-0.1-3.9,0v-0.5c0.4,0,1.5,0,1.5-0.6v-8.3c0-0.6-1.1-0.6-1.5-0.6l0-0.5c1.3,0.1,2.8,0.1,4.1,0l3.6,7.5l3.7-7.5
	c1.3,0.1,2.7,0,4,0v0.5c-0.4,0-1.5,0-1.5,0.6v8.3c0,0.6,1.1,0.6,1.5,0.6v0.5C40.4,36.8,39.4,36.8,38.5,36.8"/>
<linearGradient id="SVGID_17_" gradientUnits="userSpaceOnUse" x1="42.041" y1="31.535" x2="54.003" y2="31.535">
	<stop  offset="0" style="stop-color:#000000"/>
	<stop  offset="1" style="stop-color:#000000"/>
</linearGradient>
<path class="st18" d="M54,31.5c0-3.5-2.1-5.4-6-5.4c-3.8,0-6,1.9-6,5.4s2.1,5.5,6,5.5C51.9,37,54,35,54,31.5 M51.2,31.5
	c0,2.1-0.2,4.9-3.2,4.9c-3,0-3.2-2.9-3.2-4.9c0-2.1,0.2-4.9,3.2-4.9C51,26.6,51.2,29.5,51.2,31.5z"/>
<linearGradient id="SVGID_18_" gradientUnits="userSpaceOnUse" x1="90.627" y1="21.4855" x2="94.251" y2="21.4855">
	<stop  offset="0" style="stop-color:#000000"/>
	<stop  offset="1" style="stop-color:#000000"/>
</linearGradient>
<path class="st19" d="M92.4,23c-0.8,0-1.5-0.7-1.5-1.6s0.7-1.6,1.5-1.6s1.5,0.7,1.5,1.6S93.3,23,92.4,23 M92.4,19.7
	c-1,0-1.8,0.8-1.8,1.8c0,1,0.8,1.8,1.8,1.8s1.8-0.8,1.8-1.8C94.3,20.5,93.4,19.7,92.4,19.7z"/>
<linearGradient id="SVGID_19_" gradientUnits="userSpaceOnUse" x1="91.785" y1="21.485" x2="93.363" y2="21.485">
	<stop  offset="0" style="stop-color:#000000"/>
	<stop  offset="1" style="stop-color:#000000"/>
</linearGradient>
<path class="st20" d="M92,21.4v-0.7h0.4c0.4,0,0.5,0.1,0.5,0.4s-0.2,0.4-0.5,0.4L92,21.4 M93.3,21c0-0.4-0.2-0.6-0.7-0.6h-0.8v2.1
	H92v-0.9h0.4l0.6,0.9h0.3l-0.6-0.9C93.1,21.5,93.3,21.3,93.3,21z"/>
</svg>
