<svg xmlns="http://www.w3.org/2000/svg" viewBox="0 0 370 25.69"><defs><style>.cls-1{fill:#1e357a;}</style></defs><g id="Layer_2" data-name="Layer 2"><g id="Layer_1-2" data-name="Layer 1"><path id="path423" class="cls-1" d="M106.13,1.07V17.5L93.27,1.07H89.64V24.69h4V7.47L107,24.69h3V1.07Z"/><g id="g429"><g id="g435"><path id="path437" class="cls-1" d="M248.24,20.93a8.06,8.06,0,0,1-8-8.38,8,8,0,1,1,16,0,8.06,8.06,0,0,1-8,8.38m0-20.45a12,12,0,0,0-12.06,12.07,12.07,12.07,0,1,0,24.13,0A12,12,0,0,0,248.24.48"/></g></g><g id="g441"><g id="g447"><path id="path449" class="cls-1" d="M155.2,20.93a8.06,8.06,0,0,1-8-8.38,8,8,0,1,1,16,0,8.06,8.06,0,0,1-8,8.38m0-20.45a12,12,0,0,0-12.07,12.07,12.07,12.07,0,1,0,24.14,0A12,12,0,0,0,155.2.48"/></g></g><g id="g453"><g id="g459"><path id="path461" class="cls-1" d="M128.07,1.07l-9.83,11.08V1.07h-4V24.69h4V13.41l10,11.28h5.34L122.73,12.62,133.08,1.07Z"/></g></g><g id="g465"><g id="g471"><path id="path473" class="cls-1" d="M201.33,2.2a5.85,5.85,0,0,0-2.51,4.94c0,4,3.1,5.74,6.27,6.73,2.83.92,5.14,1.65,5.14,4s-2.18,3.23-4.22,3.23a12.81,12.81,0,0,1-6.66-2l-.13-.06v4h.06a14.58,14.58,0,0,0,6.79,1.72c4.16,0,8.05-2.71,8.05-7,0-4-2.7-5.88-6.46-7.06s-5.08-2.05-5.08-3.57c0-2.17,2.24-2.83,4.29-2.83a13.55,13.55,0,0,1,5.6,1.32h.07V1.8A14.25,14.25,0,0,0,206.6.61a9.21,9.21,0,0,0-5.27,1.59"/></g></g><g id="g477"><g id="g483"><path id="path485" class="cls-1" d="M357.87,20.93h-3.5V4.9h3.5a7.73,7.73,0,0,1,8,8,7.79,7.79,0,0,1-8,8m0-19.86h-7.46V24.69h7.46a11.81,11.81,0,1,0,0-23.62"/></g></g><g id="g489"><g id="g495"><path id="path497" class="cls-1" d="M283.11,1.08V24.69H296.2L298,20.8H287.14V1.08Z"/></g></g><g id="g501"><g id="g507"><path id="path509" class="cls-1" d="M54.18,21.06H50.09V14.4h4.82c2.24,0,3.75,1.32,3.75,3.3s-1.58,3.36-4.48,3.36M50.09,4.7h4.22c1.92,0,3.63,1,3.63,3a3.15,3.15,0,0,1-3.43,3.16H50.09Zm9.17,7.39A5.37,5.37,0,0,0,61.9,7.41c0-4.16-3.24-6.33-7.26-6.33H46.13v23.6h8.25c4.62,0,8.37-2,8.37-6.85a6.49,6.49,0,0,0-3.49-5.74"/></g></g><g id="g513"><g id="g519"><path id="path521" class="cls-1" d="M342.12,1.07V17.5L329.26,1.07h-3.62V24.69h3.89V7.47L343,24.69h3V1.07Z"/></g></g><g id="g525"><g id="g531"><path id="path533" class="cls-1" d="M72,14.59l3.5-8.83,3.36,8.83ZM77.45,1h-4L63.93,24.69h4.22l2.51-6.47h9.63l2.57,6.47h4.29Z"/></g></g><g id="g537"><g id="g543"><path id="path545" class="cls-1" d="M307.48,14.59,311,5.76l3.37,8.83ZM312.89,1h-4l-9.56,23.68h4.22l2.5-6.47h9.63l2.57,6.47h4.29Z"/></g></g><g id="g549"><g id="g555"><path id="path557" class="cls-1" d="M228.79,4.14a17.7,17.7,0,0,1,5.28,1v-4a17.74,17.74,0,0,0-5.28-.85c-7.22,0-12.64,4.76-12.78,11.74v0c0,.08,0,.16,0,.24v.36c0,.09,0,.16,0,.24v0c.14,7,5.56,11.74,12.78,11.74a17.7,17.7,0,0,0,5.28-.86v-4a17.7,17.7,0,0,1-5.28,1c-5.21,0-8.77-3.63-8.7-8.18,0-.06,0-.12,0-.18s0-.12,0-.18c-.07-4.55,3.49-8.18,8.7-8.18"/></g></g><g id="g561"><g id="g567"><path id="path569" class="cls-1" d="M185.75,5V1.08h-14.9V24.69h4V14.45h9.93V10.56h-9.93V5Z"/></g></g><g id="g573"><g id="g579"><path id="path581" class="cls-1" d="M279.57,1.08H260.75V5h7.33V24.69h4.16V5h7.33Z"/></g></g><g id="g585"><g id="g591"><path id="path593" class="cls-1" d="M22,3.23a3.23,3.23,0,1,0-3.23,3.23A3.23,3.23,0,0,0,22,3.23"/></g></g><g id="g597"><g id="g603"><path id="path605" class="cls-1" d="M22,22.46a3.23,3.23,0,1,0-3.23,3.23A3.23,3.23,0,0,0,22,22.46"/></g></g><g id="g609"><g id="g615"><path id="path617" class="cls-1" d="M6.46,12.88a3.23,3.23,0,1,0-3.23,3.23,3.22,3.22,0,0,0,3.23-3.23"/></g></g><g id="g621"><g id="g627"><path id="path629" class="cls-1" d="M37.79,12.88a3.23,3.23,0,1,0-3.23,3.23,3.22,3.22,0,0,0,3.23-3.23"/></g></g><g id="g633"><g id="g639"><path id="path641" class="cls-1" d="M33.38,7.13v-6L18.85,9.87l-.08,0L4.18,1.07V7.12l9.59,5.76L4.18,18.63v6.05l14.59-8.83,14.61,8.83V18.63l-9.6-5.75Z"/></g></g></g></g></svg>