<svg xmlns="http://www.w3.org/2000/svg" viewBox="0 0 196.54 23.97"><defs><style>.cls-1{fill:#005581;}</style></defs><g id="Layer_2" data-name="Layer 2"><g id="Layer_1-2" data-name="Layer 1"><path class="cls-1" d="M152.8,12c0-6.61,9.8-12,21.87-12s21.87,5.37,21.87,12-9.79,12-21.87,12S152.8,18.6,152.8,12m21.87,11.15c10.75,0,19.45-5,19.45-11.15S185.42.84,174.67.84s-19.45,5-19.45,11.14S163.93,23.13,174.67,23.13Z"/><path class="cls-1" d="M156.06,12c0-5.69,8.34-10.3,18.61-10.3S193.28,6.29,193.28,12,185,22.29,174.67,22.29,156.06,17.67,156.06,12m18.61,9.57c9.76,0,17.66-4.28,17.66-9.57s-7.9-9.56-17.66-9.56S157,6.7,157,12,164.92,21.55,174.67,21.55Z"/><path class="cls-1" d="M174.67,9.22c.36-2,9.18-2.31,9.18-4.38a.09.09,0,0,1,.1-.1.09.09,0,0,1,.09.1V7c0,2.61-8.87,2.28-9.29,4.78,0,.06,0,.1-.08.1s-.06,0-.08-.1c-.42-2.5-9.29-2.17-9.29-4.78V4.84a.09.09,0,0,1,.1-.1.1.1,0,0,1,.1.1c0,2.07,8.81,2.35,9.17,4.38"/><path class="cls-1" d="M174.67,13.68c.36-2,9.18-2.31,9.18-4.38a.1.1,0,0,1,.1-.1.1.1,0,0,1,.09.1v2.19c0,2.62-8.87,2.28-9.29,4.78,0,.06,0,.1-.08.1s-.06,0-.08-.1c-.42-2.5-9.29-2.16-9.29-4.78V9.3a.1.1,0,0,1,.1-.1.11.11,0,0,1,.1.1c0,2.07,8.81,2.35,9.17,4.38"/><path class="cls-1" d="M174.67,18.25c.36-2,9.18-2.3,9.18-4.38a.1.1,0,0,1,.1-.1.1.1,0,0,1,.09.1v2.2c0,2.61-8.87,2.27-9.29,4.78,0,0,0,.1-.08.1s-.06-.05-.08-.1c-.42-2.51-9.29-2.17-9.29-4.78v-2.2a.1.1,0,0,1,.1-.1.11.11,0,0,1,.1.1c0,2.08,8.81,2.35,9.17,4.38"/><path class="cls-1" d="M63.63,8.54V19.3h3V11.13h2.1V9.41H66.6V8.06c0-1.12.61-1.95,1.65-1.94a4,4,0,0,1,2.18.68V4.89a6.21,6.21,0,0,0-2.59-.49c-3,0-4.21,1.82-4.21,4.14"/><path class="cls-1" d="M56.56,7.28c-2.91,0-5.49,1.71-5.48,6.22s2.66,6.15,5.48,6.15S62,18,62,13.5,59.6,7.26,56.56,7.28m0,10.63c-1.67,0-2.32-1.37-2.32-4.41S54.86,9,56.54,9s2.29,1.43,2.32,4.5S58.21,17.91,56.54,17.91Z"/><path class="cls-1" d="M37,19.3V6.92a5.82,5.82,0,0,0-.32-2.19H40V19.3H37"/><path class="cls-1" d="M43.78,7.58h3.14l-3.76,4.58,4.39,7.14H43.88l-3.76-6.57,2.7-3.28a4.57,4.57,0,0,0,1-1.87"/><path class="cls-1" d="M6.66,19.3H.29V7A7.51,7.51,0,0,0,0,4.73H7.3c2,0,3.85.94,3.85,3.24S9.56,11,8,11.31a3.89,3.89,0,0,1,3.86,3.78c0,2.86-2.4,4.22-5.24,4.21M3.51,6.36v4.3H5.39c1.55,0,2.52-.66,2.52-2.25s-1.14-2-2.51-2Zm0,5.94v5.36H5.66c1.94,0,2.83-1,2.82-2.79S7.29,12.3,5.66,12.3Z"/><path class="cls-1" d="M18.45,7.27c2.23,0,4.76.31,4.76,3.75v5.83a9.54,9.54,0,0,0,.26,2.45h-2.8c-.05-.17-.14-.55-.2-.82a6.2,6.2,0,0,1-3.64,1.16c-2.24,0-3.73-1.17-3.74-3.38s1.49-3.34,3.65-3.87c1-.23,3-.72,3.51-.85V10.8c0-1.5-.84-1.92-1.76-1.92a2,2,0,0,0-2.13,2H13.64c0-1.56,1-3.64,4.81-3.64m.29,6.28c-1.3.37-2.61,1-2.6,2.42a1.55,1.55,0,0,0,1.75,1.7,3.84,3.84,0,0,0,2.36-.86V13.15C19.86,13.25,19.27,13.39,18.74,13.55Z"/><path class="cls-1" d="M31.48,7.28a6.41,6.41,0,0,0-3.35,1.18V7.59H24.88a8.15,8.15,0,0,1,.3,2.24c0,.84,0,9.48,0,9.48h2.95v-9a3.84,3.84,0,0,1,2.25-1c1.46,0,1.8.86,1.8,2.57v7.45h3v-7.6c0-1.89-.32-4.43-3.65-4.43"/><path class="cls-1" d="M83,9.09V7.59H79.72A8,8,0,0,1,80,9.83V19.3h3V12.6c0-2,1.23-3,3.36-3V7.28A3.7,3.7,0,0,0,83,9.09"/><path class="cls-1" d="M135,4.73a6.56,6.56,0,0,1,.3,2.19V8.36a4.28,4.28,0,0,0-3-1.08c-1.79,0-4.77,1-4.78,6.13,0,4.86,2.37,6.25,4.6,6.23a5.14,5.14,0,0,0,3.15-1.23v.88h3V4.73H135m.3,11.79a3,3,0,0,1-2.16,1.28c-1.32,0-2.44-.74-2.44-4.4,0-3.5,1.2-4.29,2.42-4.29a2.75,2.75,0,0,1,2.18,1.25Z"/><path class="cls-1" d="M74.6,19.3s0-11.51,0-12.36a8.51,8.51,0,0,0-.27-2.21h3.48V19.3H74.6"/><path class="cls-1" d="M99.3,19.3V6.92A6,6,0,0,0,99,4.73h3.29V19.3h-3"/><path class="cls-1" d="M97.66,13.3c0,.17,0,.34,0,.51H90c0,2.53.51,4.1,2.31,4.11,1.43,0,2-1,2.17-2.57h3.09a4.92,4.92,0,0,1-5.26,4.3c-3,0-5.46-1.58-5.46-6.33,0-4.11,2.44-6,5.46-6s5.42,1.91,5.4,6M90,12.25H94.5C94.43,10.81,94,9,92.26,9S90.13,10.86,90,12.25Z"/><path class="cls-1" d="M109.25,7.27c2.23,0,4.76.31,4.76,3.75v5.83a9.54,9.54,0,0,0,.26,2.45h-2.8c0-.17-.14-.55-.2-.82a6.21,6.21,0,0,1-3.65,1.16c-2.23,0-3.73-1.17-3.73-3.38s1.49-3.34,3.65-3.87c.95-.23,3-.72,3.51-.85V10.8c0-1.5-.84-1.92-1.76-1.92a2,2,0,0,0-2.13,2h-2.73c0-1.56,1-3.64,4.82-3.64m.29,6.28c-1.31.37-2.6,1-2.6,2.42a1.55,1.55,0,0,0,1.75,1.7,3.84,3.84,0,0,0,2.36-.86V13.15C110.66,13.25,110.08,13.39,109.54,13.55Z"/><path class="cls-1" d="M122.28,7.28a6.38,6.38,0,0,0-3.35,1.18V7.59h-3.25a8.15,8.15,0,0,1,.3,2.24v9.48h3v-9a3.84,3.84,0,0,1,2.25-1c1.46,0,1.8.86,1.8,2.57v7.45h3v-7.6c0-1.89-.32-4.43-3.65-4.43"/></g></g></svg>