<svg xmlns="http://www.w3.org/2000/svg" xmlns:xlink="http://www.w3.org/1999/xlink" viewBox="0 0 1284.12 215.24"><defs><style>.cls-1{fill:url(#radial-gradient);}.cls-2{fill:#00aeef;}</style><radialGradient id="radial-gradient" cx="-442.93" cy="124.33" r="3.09" gradientTransform="translate(31634.4 -8839.67) scale(71.41 71.41)" gradientUnits="userSpaceOnUse"><stop offset="0" stop-color="#20c4f4"/><stop offset="0.3" stop-color="#09b4f0"/><stop offset="0.5" stop-color="#00aeef"/><stop offset="0.8" stop-color="#0092c8"/><stop offset="1" stop-color="#006e98"/></radialGradient></defs><g id="Layer_2" data-name="Layer 2"><g id="Layer_1-2" data-name="Layer 1"><path class="cls-1" d="M192.67,47A47.24,47.24,0,0,0,181.83,32.5a16.49,16.49,0,0,0-8.67-4.33,36.24,36.24,0,0,0-8.66-1.45h-.73c-3.61,0-10.83.73-15.16,6.5-2.17,2.17-2.89,5.78-2.17,9.39.72,2.89,2.17,5.06,5.06,5.78a5.57,5.57,0,0,1,2.16.72c-.72,0-1.44,1.45-1.44,1.45-1.45,2.17-5.06,5.78-15.17,5.78h-.72c-5.06,0-9.39-1.45-14.45-8-2.89-4.33-5-10.83-5-22.39,0-5.78-.73-10.83-2.17-14.44a11.49,11.49,0,0,0-5.06-6.5c-1.44-1.45-3.61-2.17-6.5-2.89C100.21,0,95.88,0,92.27,0c-4.33,0-6.5.72-7.94,2.89a.71.71,0,0,1-.73.72H80.71c-2.16,0-4.33.72-6.5.72-4.33.73-6.5,2.17-9.39,4.34a13.15,13.15,0,0,0-3.61,5.78,4.05,4.05,0,0,0,.72,4.33.71.71,0,0,0,.73.72c1.44-1.44,3.61-2.17,7.22-2.17,4.33,0,10.83,2.17,13,5.78,2.89,5.06,2.17,8.67,1.45,13.73-1.45,12.27-6.51,18.77-15.89,20.22H63.38c-7.22,0-12.28-2.17-14.45-6.5-1.44-1.45-1.44-2.17-1.44-2.17a2.23,2.23,0,0,0,1.44-.72c2.89-1.44,4.34-2.89,5.06-5.78a11.5,11.5,0,0,0-2.17-9.39c-3.61-3.61-8.66-5.78-15.16-5.78A26.92,26.92,0,0,0,28,28.17C19.32,30.34,12.82,36.11,7.76,47A76.46,76.46,0,0,0,.54,74.39a165.05,165.05,0,0,0,0,26.73C2,114.12,4.15,122.06,7,130c2.89,8.67,7.22,16.61,11.56,23.83,1.44,2.89,2.17,4.34,2.89,5.06A10,10,0,0,0,23.65,156a122.14,122.14,0,0,0,8-10.11c2.17-1.45,4.33-5.78,5.78-8.67l.72-1.44,1.44,1.44a6.55,6.55,0,0,1,2.17,5.06c0,2.16-.72,4.33-1.44,8.66-1.45,4.34-3.61,10.12-6.5,14.45a2.5,2.5,0,0,1-.73,1.44c-1.44,2.89-2.16,4.34-1.44,5.06.72,0,2.89-.72,5.06-2.89,2.16-1.44,7.22-5.78,13.72-15.17,5-6.5,8.67-13.72,12.28-21.66l.72-1.45,1.44.72a1.56,1.56,0,0,1,1.45,1.45c.72,1.44.72,2.89.72,5-.72,5.06-3.61,12.28-5.78,17.34-3.61,8.67-10.83,18.78-15.89,26,0,0-1.44,1.44-1.44,2.17a9.87,9.87,0,0,0,2.89,2.16l2.16,1.45c7.23,5.78,13.73,10.83,22.39,15.17,6.5,3.61,20.23,10.83,28.89,13,8.67-2.17,22.4-9.39,28.9-13a174.56,174.56,0,0,0,22.39-15.17l2.16-1.45c1.45-.72,2.17-2.16,2.89-2.16a2.56,2.56,0,0,1-.72-1.45l-.72-.72c-5.06-7.22-12.28-17.33-15.89-26-2.17-5.06-5.06-13-5.78-17.34,0-2.16,0-3.61.72-5,0-.72.72-.72,1.45-1.45a2.23,2.23,0,0,1,1.44-.72l.72,1.45c3.61,7.94,7.95,14.44,12.28,21.66,6.5,9.39,11.56,13.73,13.72,15.17s4.34,2.89,5.06,2.89h.72c.73-.72,0-2.17-1.44-5.06a2.51,2.51,0,0,0-.72-1.44,81.39,81.39,0,0,1-6.5-14.45c-1.45-4.33-2.17-6.5-2.17-8.66s.72-4.34,2.17-5.06l1.44-.72.72,1.44c1.45,2.89,4.34,7.23,5.06,8.67,1.44,2.17,6.5,7.95,7.94,10.11l2.17,2.17a44.53,44.53,0,0,0,2.89-4.33v-.73A184,184,0,0,0,192.67,130a123.84,123.84,0,0,0,6.5-28.89c.72-8,1.44-16.61,0-26.73C199.17,64.28,197,54.17,192.67,47Z"/><path class="cls-2" d="M363.22,96.57c16.94-4.24,36-16.24,36-36.72,0-30.37-29-30.37-43.78-30.37H294.71c2.83,1.41,4.24,9.18,4.24,19.77,0,12.72-.71,30.37-2.82,54.38l-.71,9.89c-2.83,41.67-4.24,65.68-11.3,71.33H338.5c41.66,0,67.09-21.19,67.09-48.73C406.29,110.69,387.93,99.4,363.22,96.57ZM327.2,81c.71-11.3,2.12-22.6,3.53-33.19a57.58,57.58,0,0,1,10.59-.7c18.36,0,26.84,7.76,26.84,18.36,0,18.36-18.36,25.42-38.14,25.42h-3.53Zm9.89,84c-10.6,0-14.83-2.82-14.83-4.23,0-9.89.7-17.66,1.41-28.25l1.41-22.6h11.3c20.48,0,36.72,6.35,36.72,26.83C373.1,155.19,359,165.07,337.09,165.07Zm912.43-70.62c-15.54-9.89-30.37-18.36-30.37-29.66,0-14.12,12-19.77,25.42-19.77a41.25,41.25,0,0,1,35.31,20.48l4.24-36.73c-10.59,0-21.19-2.82-38.14-2.82-29,0-57.2,11.3-57.2,44.49,0,22.6,16.24,34.6,41.67,50.14,12,7.06,21.89,14.83,21.89,26.13,0,14.13-12,21.89-28.25,21.89-21.18,0-35.31-12-43.08-28.24l-2.82,38.84a116.87,116.87,0,0,0,43.78,8.47c33.19,0,61.44-18.36,61.44-47.31C1283.41,117.76,1266.46,105,1249.52,94.45Zm-110.88,6.36c7.77-12.71,43.78-69.92,52.26-71.33h-41.67c1.42,1.41,2.12,5.65,2.12,9.18,0,4.94-2.12,9.18-4.24,13.42-9.88,15.54-16.95,27.54-28.24,43.78-4.24-12.71-12-29.66-21.9-53-6.35-14.13-9.18-15.54-19.77-15.54-5.65,0-18.36.71-27.54,1.41,5.65,2.83,14.12,16.25,21.89,30.37,12,22.6,19.77,41.67,25.42,61.44.71,13.42-2.82,57.2-9.88,64.27h42.37c-3.53-3.53-4.24-12.71-4.24-19.78,0-16.95,1.41-32.48,3.53-43.78C1130.16,114.93,1135.11,107.16,1138.64,100.81ZM681.72,158.72l-31.78-42.38c-2.12-2.82-5.65-7.76-7.77-9.18,20.48-6.35,37.43-19.77,37.43-44.49,0-30.37-26.13-33.19-44.49-33.19H577.2c2.82,1.41,4.24,8.47,4.24,19.77,0,12.72-.71,30.37-2.83,54.38l-.7,9.89c-3.54,48-5.65,66.38-12,71.33h42.37c-2.82-1.42-4.24-9.18-4.24-19.78,0-9.18.71-21.89,1.42-38.13l.7-11.3h.71c5.65,0,7.77,3.53,11.3,7.77l43.78,60.73c3.54,4.94,6.36,7.06,18.37,7.06,7.76,0,19.77-.7,28.24-1.41C703.61,186.26,701.49,184.85,681.72,158.72ZM616,95.86a24.22,24.22,0,0,1-7.06-.7l.7-10.6c1.42-18.36,2.12-30.36,3.54-36.72a69.05,69.05,0,0,1,12-.7c14.83,0,23.31,7.06,23.31,19.06C648.53,84.56,635.11,95.86,616,95.86Zm-86.86,19.07-6.36-24c-7.77-28.25-17-61.44-17-61.44H472c1.42,1.41,2.12,4.94,2.12,8.47S463.5,64.79,453.61,86L443,109.28c-19.07,40.26-32.49,65-43.08,75.57h37.43c-.71-1.42-.71-4.95-.71-7.07,0-8.47,7.77-23.3,10.6-30.36l3.53-6.36h18.36c18.36,0,29.66-2.12,36.72-4.94l3.53,13.42c10.6,36.72,12,37.43,25.43,37.43,4.23,0,14.83-.71,24-1.42C548.24,176.37,541.18,156.6,529.18,114.93Zm-69.92,4.24,25.42-54.38,15.54,54.38Zm274-7.77c0-31.07,13.42-67.09,46.61-67.09,17,0,29.66,9.18,36.73,23.31l4.23-39.55c-13.42,0-21.18-2.83-38.13-2.83-53.68,0-81.92,40.26-81.92,91.81,0,37.43,23.3,70.62,63.56,70.62,31.07,0,49.43-15.53,57.91-41.66-19.78,14.12-31.78,17.65-45.2,17.65C752.34,163.66,733.27,145.3,733.27,111.4Zm303,3.53-6.36-24c-2.82-10.59-17-61.44-17-61.44H979c1.42,1.41,2.12,4.94,2.12,8.47,0,4.24-9.88,26.13-20.48,48l-10.59,23.3a488.17,488.17,0,0,1-24,47.32c-12,7.77-18.36,8.47-43.79,8.47-7.06,0-9.88-1.41-9.88-8.47,0-15.54,2.12-31.07,2.82-46.61l.71-9.18c2.82-41.67,4.94-67.09,11.3-70.62H844.85c2.83,3.53,3.54,9.18,4.24,19.77,0,12.71-.7,30.37-2.82,54.38l-.71,9.89c-2.82,41.66-4.94,64.26-11.3,71.32H944.43c-.71-1.41-.71-4.94-.71-7.06,0-8.47,6.36-20.48,10.6-30.37l3.53-6.35h18.36c18.36,0,29.66-2.12,36.72-5l3.53,13.42c10.6,36.73,12,37.43,25.43,37.43,4.24,0,15.53-.7,24-1.41C1054.6,176.37,1047.54,156.6,1036.24,114.93Zm-69.92,4.24,25.43-54.38,15.53,54.38Z"/></g></g></svg>