<?xml version="1.0" encoding="UTF-8" standalone="no"?>
<!-- Created with Inkscape (http://www.inkscape.org/) -->
<svg
   xmlns:svg="http://www.w3.org/2000/svg"
   xmlns="http://www.w3.org/2000/svg"
   version="1.0"
   width="708.66144"
   height="153.25723"
   id="svg43504">
  <defs
     id="defs43506">
    <clipPath
       id="clp17">
<path
   d="M 1561.3,109.85 L 1706.1,109.85 L 1706.1,160.86 L 1561.3,160.86 L 1561.3,109.85 z "
   id="path17537" />

</clipPath>
  </defs>
  <g
     transform="translate(-259.68863,-398.63598)"
     id="layer1">
    <g
       transform="matrix(4.9042313,0,0,-4.9042313,-7397.2877,1186.4517)"
       style="font-size:32px;letter-spacing:0;word-spacing:0;fill:#002d6a;fill-rule:nonzero;stroke:none;font-family:fnt4"
       id="q24">
<clipPath
   id="clipPath43515">
<path
   d="M 1561.3,109.85 L 1706.1,109.85 L 1706.1,160.86 L 1561.3,160.86 L 1561.3,109.85 z "
   id="path43517" />

</clipPath>

<g
   clip-path="url(#clp17)"
   id="g17539">
<path
   d="M 1607.5,154.53 L 1607.5,135.5 L 1612.3,135.5 C 1616,135.5 1618.3,137.62 1618.3,141.17 C 1618.3,143.5 1617.1,145.26 1615.3,145.65 C 1615.2,145.66 1615.2,145.71 1615.2,145.77 C 1615.2,145.78 1615.2,145.78 1615.2,145.79 C 1615.2,145.84 1615.2,145.9 1615.3,145.92 C 1616.7,146.52 1617.4,147.92 1617.4,149.86 C 1617.4,152.91 1615.6,154.53 1612.1,154.53 L 1607.5,154.53 z M 1610.4,146.59 L 1610.4,152.21 C 1610.4,152.29 1610.5,152.35 1610.5,152.35 L 1611.9,152.35 C 1613.5,152.35 1614.4,151.31 1614.4,149.41 C 1614.4,147.47 1613.7,146.45 1612.2,146.45 L 1610.5,146.45 C 1610.5,146.45 1610.4,146.51 1610.4,146.59 M 1610.4,137.87 L 1610.4,144.16 C 1610.4,144.23 1610.5,144.3 1610.5,144.3 L 1612.2,144.3 C 1614.2,144.3 1615.2,143.16 1615.2,141 C 1615.2,138.89 1614.3,137.73 1612.5,137.73 L 1610.5,137.73 C 1610.5,137.73 1610.4,137.79 1610.4,137.87"
   style="fill:#ffffff;fill-rule:nonzero;stroke:none"
   id="path17541" />

<path
   d="M 1621.4,148.86 C 1621.4,148.66 1621.8,147.16 1621.8,146.9 C 1622.9,147.39 1624.1,147.67 1625.1,147.67 C 1627.1,147.67 1627.5,146.54 1627.5,144.85 L 1627.5,143.8 C 1627.5,143.72 1627.4,143.65 1627.4,143.65 L 1626,143.65 C 1623.5,143.65 1620.5,142.88 1620.5,139.2 C 1620.5,136.69 1621.9,135.14 1624.2,135.14 C 1626,135.14 1627.1,136.13 1627.7,136.96 C 1627.8,137.01 1627.8,137.03 1627.9,137.01 C 1627.9,137 1628,136.95 1628,136.9 C 1628,136.9 1628.1,135.7 1628.2,135.5 L 1630.3,135.5 L 1630.3,145.18 C 1630.3,148.22 1628.7,149.77 1625.5,149.77 C 1624.1,149.77 1622.6,149.43 1621.4,148.86 M 1623.2,139.37 C 1623.2,140.99 1624.1,141.89 1625.8,141.89 L 1627.4,141.89 C 1627.4,141.89 1627.5,141.83 1627.5,141.75 L 1627.5,139.01 C 1627.5,138.98 1627.5,138.95 1627.5,138.92 C 1626.8,138.02 1626.1,137.18 1625,137.18 C 1623.9,137.18 1623.2,138 1623.2,139.37"
   style="fill:#ffffff;fill-rule:nonzero;stroke:none"
   id="path17543" />

<path
   d="M 1640.3,149.41 C 1639.8,145.9 1639.1,142.1 1638.2,138.67 C 1638.2,138.61 1638.1,138.56 1638.1,138.56 C 1638,138.56 1637.9,138.6 1637.9,138.67 C 1636.8,142.67 1636,146.09 1635.5,149.41 L 1632.5,149.41 C 1633.5,144.46 1634.9,139.2 1636.4,135.29 C 1636.4,135.28 1636.4,135.26 1636.4,135.24 C 1636.4,135.23 1636.4,135.21 1636.4,135.2 C 1635.4,132.57 1634.9,131.81 1633.9,131.81 L 1632.8,131.81 C 1632.7,131.58 1632.7,129.98 1632.7,129.79 C 1633,129.64 1633.6,129.55 1634.1,129.55 C 1636,129.55 1637.5,130.53 1639.4,135.41 C 1640.7,138.52 1641.9,143.11 1643.1,149.41 L 1640.3,149.41"
   style="fill:#ffffff;fill-rule:nonzero;stroke:none"
   id="path17545" />

<path
   d="M 1644.7,142.36 C 1644.7,137.5 1646.6,135.14 1650.3,135.14 C 1651.8,135.14 1653.3,135.39 1654.8,135.88 C 1654.7,136.08 1654.5,137.7 1654.5,137.97 C 1653.3,137.59 1652.2,137.34 1650.8,137.34 C 1648,137.34 1647.7,139.91 1647.7,141.83 C 1647.7,141.91 1647.7,141.97 1647.8,141.97 L 1655.1,141.97 C 1655.1,142.18 1655.1,143.38 1655.1,143.38 C 1655.1,147.74 1653.6,149.77 1650.3,149.77 C 1646.8,149.77 1644.7,147.07 1644.7,142.36 M 1647.7,143.86 C 1647.7,143.89 1647.6,143.93 1647.6,143.97 C 1647.8,146.45 1648.7,147.81 1650.2,147.81 C 1650.7,147.81 1651.2,147.63 1651.5,147.27 C 1652.1,146.65 1652.4,145.5 1652.4,143.96 C 1652.4,143.88 1652.3,143.82 1652.2,143.82 L 1647.8,143.82 C 1647.7,143.82 1647.7,143.84 1647.7,143.86"
   style="fill:#ffffff;fill-rule:nonzero;stroke:none"
   id="path17547" />

<path
   d="M 1660.8,147.13 C 1660.8,147.07 1660.7,147.05 1660.7,147.06 C 1660.6,147.07 1660.6,147.12 1660.5,147.18 C 1660.5,147.18 1660.3,149.19 1660.3,149.41 L 1658.2,149.41 L 1658.2,135.5 L 1661,135.5 L 1661,144.6 C 1661,144.63 1661,144.65 1661,144.67 C 1662.1,146.41 1662.7,147.17 1663.4,147.17 C 1663.7,147.17 1664,147.1 1664.4,146.97 C 1664.4,147.25 1664.7,149.35 1664.7,149.57 C 1664.3,149.69 1664,149.77 1663.6,149.77 C 1662.5,149.77 1661.9,148.99 1660.8,147.13"
   style="fill:#ffffff;fill-rule:nonzero;stroke:none"
   id="path17549" />

<path
   d="M 1669.9,147.61 C 1669.8,147.57 1669.8,147.54 1669.7,147.56 C 1669.7,147.57 1669.6,147.62 1669.6,147.68 C 1669.6,147.68 1669.4,149.19 1669.4,149.41 L 1667.3,149.41 L 1667.3,135.5 L 1670.1,135.5 L 1670.1,145.26 C 1670.1,145.29 1670.1,145.32 1670.1,145.34 C 1671.2,146.92 1671.9,147.48 1672.8,147.48 C 1674.5,147.48 1674.7,145.64 1674.7,144.04 L 1674.7,135.5 L 1677.5,135.5 L 1677.5,144.65 C 1677.5,147.91 1676.1,149.77 1673.6,149.77 C 1672.1,149.77 1671,149.1 1669.9,147.61"
   style="fill:#ffffff;fill-rule:nonzero;stroke:none"
   id="path17551" />

<path
   d="M 1684.3,154.29 L 1684.3,135.5 L 1692.3,135.5 L 1692.3,137.87 L 1687.4,137.87 C 1687.3,137.87 1687.2,137.93 1687.2,138.01 L 1687.2,154.29 L 1684.3,154.29"
   style="fill:#ffffff;fill-rule:nonzero;stroke:none"
   id="path17553" />

<path
   d="M 1695,154.29 L 1695,135.5 L 1699.7,135.5 C 1703.5,135.5 1705.7,137.59 1705.7,141.09 C 1705.7,143.4 1704.5,145.14 1702.7,145.52 C 1702.7,145.53 1702.6,145.58 1702.6,145.64 C 1702.6,145.65 1702.6,145.65 1702.6,145.66 C 1702.6,145.71 1702.6,145.77 1702.7,145.79 C 1704.1,146.38 1704.8,147.76 1704.8,149.68 C 1704.8,152.7 1703,154.29 1699.5,154.29 L 1695,154.29 z M 1697.9,146.45 L 1697.9,152 C 1697.9,152.08 1697.9,152.14 1698,152.14 L 1699.4,152.14 C 1701,152.14 1701.9,151.11 1701.9,149.24 C 1701.9,147.32 1701.1,146.31 1699.6,146.31 L 1698,146.31 C 1697.9,146.31 1697.9,146.37 1697.9,146.45 M 1697.9,137.84 L 1697.9,144.05 C 1697.9,144.13 1697.9,144.19 1698,144.19 L 1699.7,144.19 C 1701.6,144.19 1702.6,143.06 1702.6,140.93 C 1702.6,138.85 1701.7,137.7 1700,137.7 L 1698,137.7 C 1697.9,137.7 1697.9,137.76 1697.9,137.84"
   style="fill:#ffffff;fill-rule:nonzero;stroke:none"
   id="path17555" />

<path
   d="M 1582.4,154.53 C 1582.7,154.11 1588.7,145.09 1588.7,145.09 C 1588.7,145.07 1588.7,145.04 1588.7,145.01 C 1588.7,144.99 1588.7,144.96 1588.7,144.93 C 1588.7,144.93 1582.7,135.92 1582.4,135.5 L 1588.4,135.5 C 1588.4,135.62 1594.6,144.86 1594.7,145.01 C 1594.6,145.17 1588.4,154.41 1588.4,154.53 L 1582.4,154.53"
   style="fill:#ffffff;fill-rule:nonzero;stroke:none"
   id="path17557" />

<path
   d="M 1561.4,145.01 C 1561.5,144.86 1571.5,129.99 1571.7,129.64 C 1571.9,129.99 1581.8,144.86 1581.9,145.01 C 1581.8,145.17 1571.9,160.04 1571.7,160.38 C 1571.5,160.04 1561.5,145.17 1561.4,145.01"
   style="fill:#ffffff;fill-rule:nonzero;stroke:none"
   id="path17559" />

<path
   d="M 1582.2,135.36 L 1588.4,135.36 L 1594.9,145.01 L 1588.4,154.67 L 1582.2,154.67 L 1588.6,145.01 L 1582.2,135.36 z "
   style="fill:#062e68;fill-rule:nonzero;stroke:none"
   id="path17561" />

<path
   d="M 1582.1,145.01 L 1571.7,129.39 L 1561.3,145.01 L 1571.7,160.64 L 1582.1,145.01 z "
   style="fill:#1d8fc9;fill-rule:nonzero;stroke:none"
   id="path17563" />

<path
   d="M 1612.3,135.36 L 1607.4,135.36 L 1607.4,154.67 L 1612.1,154.67 C 1615.6,154.67 1617.6,153.04 1617.6,149.86 C 1617.6,147.81 1616.7,146.4 1615.3,145.79 C 1617.2,145.4 1618.5,143.63 1618.5,141.17 C 1618.5,137.13 1615.6,135.36 1612.3,135.36 M 1611.9,152.21 L 1610.5,152.21 L 1610.5,146.59 L 1612.2,146.59 C 1613.7,146.59 1614.3,147.75 1614.3,149.41 C 1614.3,151.1 1613.6,152.21 1611.9,152.21 M 1612.2,144.16 L 1610.5,144.16 L 1610.5,137.87 L 1612.5,137.87 C 1614.1,137.87 1615.1,138.95 1615.1,141 C 1615.1,142.94 1614.2,144.16 1612.2,144.16"
   style="fill:#1d8fc9;fill-rule:nonzero;stroke:none"
   id="path17565" />

<path
   d="M 1628,135.36 L 1627.8,136.88 C 1627.1,135.85 1625.9,135 1624.2,135 C 1621.9,135 1620.3,136.49 1620.3,139.2 C 1620.3,142.38 1622.5,143.8 1626,143.8 L 1627.4,143.8 L 1627.4,144.85 C 1627.4,146.67 1626.9,147.53 1625.1,147.53 C 1624,147.53 1622.8,147.23 1621.7,146.7 L 1621.2,148.94 C 1622.5,149.55 1624.1,149.91 1625.5,149.91 C 1629,149.91 1630.4,148.06 1630.4,145.18 L 1630.4,135.36 L 1628,135.36 z M 1627.4,141.75 L 1625.8,141.75 C 1624.2,141.75 1623.4,140.89 1623.4,139.37 C 1623.4,138.15 1623.9,137.32 1625,137.32 C 1626,137.32 1626.7,138.07 1627.4,139.01 L 1627.4,141.75"
   style="fill:#1d8fc9;fill-rule:nonzero;stroke:none"
   id="path17567" />

<path
   d="M 1639.6,135.36 C 1637.7,130.6 1636.1,129.41 1634.1,129.41 C 1633.5,129.41 1632.9,129.52 1632.5,129.68 L 1632.6,131.95 L 1633.9,131.95 C 1634.8,131.95 1635.3,132.62 1636.2,135.24 C 1634.8,139.17 1633.3,144.54 1632.3,149.55 L 1635.6,149.55 C 1636.2,145.7 1637.1,142.16 1638,138.7 L 1638.1,138.7 C 1638.9,142.03 1639.7,145.9 1640.2,149.55 L 1643.2,149.55 C 1642,143.19 1640.8,138.54 1639.6,135.36"
   style="fill:#1d8fc9;fill-rule:nonzero;stroke:none"
   id="path17569" />

<path
   d="M 1655.3,141.83 L 1647.8,141.83 C 1647.8,139.09 1648.6,137.49 1650.8,137.49 C 1652.2,137.49 1653.4,137.76 1654.6,138.15 L 1654.9,135.77 C 1653.6,135.3 1652,135 1650.3,135 C 1646.5,135 1644.6,137.43 1644.6,142.36 C 1644.6,147.03 1646.6,149.91 1650.3,149.91 C 1653.9,149.91 1655.3,147.48 1655.3,143.38 C 1655.3,143.05 1655.3,142.36 1655.3,141.83 M 1650.2,147.67 C 1648.5,147.67 1647.9,145.84 1647.8,143.96 L 1652.2,143.96 C 1652.3,146.26 1651.6,147.67 1650.2,147.67"
   style="fill:#1d8fc9;fill-rule:nonzero;stroke:none"
   id="path17571" />

<path
   d="M 1664.5,146.78 C 1664.1,146.95 1663.7,147.03 1663.4,147.03 C 1662.8,147.03 1662.3,146.37 1661.1,144.6 L 1661.1,135.36 L 1658,135.36 L 1658,149.55 L 1660.4,149.55 L 1660.7,147.2 C 1661.8,149.14 1662.5,149.91 1663.6,149.91 C 1664.1,149.91 1664.5,149.83 1664.9,149.69 L 1664.5,146.78"
   style="fill:#1d8fc9;fill-rule:nonzero;stroke:none"
   id="path17573" />

<path
   d="M 1674.5,135.36 L 1674.5,144.04 C 1674.5,146.12 1674.1,147.34 1672.8,147.34 C 1671.9,147.34 1671.2,146.73 1670.2,145.26 L 1670.2,135.36 L 1667.1,135.36 L 1667.1,149.55 L 1669.5,149.55 L 1669.8,147.7 C 1670.8,149.14 1672,149.91 1673.6,149.91 C 1676.5,149.91 1677.6,147.64 1677.6,144.65 L 1677.6,135.36 L 1674.5,135.36"
   style="fill:#1d8fc9;fill-rule:nonzero;stroke:none"
   id="path17575" />

<path
   d="M 1684.2,135.36 L 1684.2,154.43 L 1687.4,154.43 L 1687.4,138.01 L 1692.5,138.01 L 1692.5,135.36 L 1684.2,135.36 z "
   style="fill:#1d8fc9;fill-rule:nonzero;stroke:none"
   id="path17577" />

<path
   d="M 1699.7,135.36 L 1694.9,135.36 L 1694.9,154.43 L 1699.5,154.43 C 1703,154.43 1705,152.82 1705,149.68 C 1705,147.66 1704.1,146.26 1702.7,145.66 C 1704.5,145.28 1705.8,143.53 1705.8,141.09 C 1705.8,137.1 1703,135.36 1699.7,135.36 M 1699.4,152 L 1698,152 L 1698,146.45 L 1699.6,146.45 C 1701.2,146.45 1701.7,147.6 1701.7,149.24 C 1701.7,150.91 1701,152 1699.4,152 M 1699.7,144.05 L 1698,144.05 L 1698,137.84 L 1700,137.84 C 1701.6,137.84 1702.5,138.91 1702.5,140.93 C 1702.5,142.84 1701.6,144.05 1699.7,144.05"
   style="fill:#1d8fc9;fill-rule:nonzero;stroke:none"
   id="path17579" />

</g>

</g>
  </g>
</svg>
