<svg xmlns="http://www.w3.org/2000/svg" viewBox="0 0 2426.47 753.34"><defs><style>.cls-1{fill:#33348e;fill-rule:evenodd;}</style></defs><g id="Layer_2" data-name="Layer 2"><g id="Layer_1-2" data-name="Layer 1"><path class="cls-1" d="M2106.82.25c59.16,0,70.43,14.68,91.17,76.69L2426.47,753.1H2222.89l-49.62-162.52h-274l-49.4,162.57H1732.41L1962.9.1l143.92.15Zm32.5,480.06h-207l102.8-343.52Zm-1185.9,273H637.11V0H965c153.69,0,207.24,125.28,129.41,240.86l-36.77,54.55C1315.42,429.33,1231.6,753.34,953.42,753.34ZM915.83,331.48l62.82-93.78c15.88-23.48,19.24-38.25,19.24-54.72,0-46-40.49-84.67-87.09-84.67H814.24V652.22h53.5c89.53,0,157.48-48.37,157.48-161.59,0-93.43-43.85-143.29-109.39-159.15ZM316.35,753.34H0V0H327.86C481.53,0,535.11,125.28,457.27,240.86l-36.76,54.55C678.34,429.33,594.52,753.34,316.35,753.34ZM278.73,331.48l62.83-93.78c15.89-23.48,19.25-38.25,19.25-54.72,0-46-40.44-84.67-87-84.67H177.21V652.22h53.47c89.56,0,157.49-48.37,157.49-161.59C388.15,397.2,344.32,347.34,278.73,331.48ZM1701.7,0h118.9L1591.05,753.08,1410.31,753,1164.09.1,1297.15,0c51.37,0,64.87,13.26,91.72,98.54L1531.43,572,1701.7,0Z"/></g></g></svg>