<?xml version="1.0" encoding="utf-8"?>
<!-- Generator: Adobe Illustrator 25.2.3, SVG Export Plug-In . SVG Version: 6.00 Build 0)  -->
<svg version="1.1" id="Layer_1" xmlns="http://www.w3.org/2000/svg" xmlns:xlink="http://www.w3.org/1999/xlink" x="0px" y="0px"
	 viewBox="0 0 2102.8 579.8" style="enable-background:new 0 0 2102.8 579.8;" xml:space="preserve">
<style type="text/css">
	.st0{fill-rule:evenodd;clip-rule:evenodd;fill:#C5D8E2;}
	.st1{fill-rule:evenodd;clip-rule:evenodd;fill:#FFFFFF;}
	.st2{fill-rule:evenodd;clip-rule:evenodd;}
	.st3{opacity:0.2;fill-rule:evenodd;clip-rule:evenodd;fill:#607275;enable-background:new    ;}
	.st4{opacity:0.2;fill-rule:evenodd;clip-rule:evenodd;fill:#FFFFFF;}
</style>
<g id="Layer_2_1_">
	<g id="Layer_1-2">
		<path class="st0" d="M0,579.8h577.5V0H0V579.8z"/>
		<path class="st1" d="M245.3,49.1h281L383.5,287.7l144.9,240.8H245.3L102.6,287.7L245.3,49.1z"/>
		<path class="st2" d="M738.1,15.6h169.5c62.4,0,156.1,20.1,156.1,140.5c0,66.9-37.9,111.5-95.9,122.7v2.2
			c64.7,6.7,111.5,58,111.5,124.9c0,140.5-111.5,160.5-171.7,160.5H738.1V15.6z M834,479.4h46.8c44.6,0,100.3-13.4,100.3-75.8
			c0-73.6-51.3-84.7-100.3-84.7H834V479.4z M834,238.6h40.1c42.4,0,91.4-11.1,91.4-66.9c0-64.7-49-69.1-93.7-69.1H834V238.6z
			 M1547.6,557.5c-35.7,11.1-73.6,17.8-111.5,17.8c-156.1,0-265.3-89.2-265.3-274.3C1170.7,111.5,1271,4.5,1436,4.5
			c31.2,0,73.6,8.9,109.3,24.5l-6.7,93.7c-35.6-24.5-69.1-31.2-104.8-31.2c-100.3,0-162.8,87-162.8,200.7
			c0,111.5,62.4,196.2,165,196.2c37.9,0,82.5-8.9,107-22.3L1547.6,557.5L1547.6,557.5z M1650.1,15.6h98.1l44.6,428.2h2.2
			l200.7-428.2h107l-272,550.8h-116L1650.1,15.6z"/>
		<path class="st3" d="M0,579.8h577.5V0H0V579.8z"/>
		<path class="st4" d="M245.3,49.1h281L383.5,287.7l144.9,240.8H245.3L102.6,287.7L245.3,49.1z"/>
		<path class="st2" d="M738.1,15.6h169.5c62.4,0,156.1,20.1,156.1,140.5c0,66.9-37.9,111.5-95.9,122.7v2.2
			c64.7,6.7,111.5,58,111.5,124.9c0,140.5-111.5,160.5-171.7,160.5H738.1V15.6z M834,479.4h46.8c44.6,0,100.3-13.4,100.3-75.8
			c0-73.6-51.3-84.7-100.3-84.7H834V479.4z M834,238.6h40.1c42.4,0,91.4-11.1,91.4-66.9c0-64.7-49-69.1-93.7-69.1H834V238.6z
			 M1547.6,557.5c-35.7,11.1-73.6,17.8-111.5,17.8c-156.1,0-265.3-89.2-265.3-274.3C1170.7,111.5,1271,4.5,1436,4.5
			c31.2,0,73.6,8.9,109.3,24.5l-6.7,93.7c-35.6-24.5-69.1-31.2-104.8-31.2c-100.3,0-162.8,87-162.8,200.7
			c0,111.5,62.4,196.2,165,196.2c37.9,0,82.5-8.9,107-22.3L1547.6,557.5L1547.6,557.5z M1650.1,15.6h98.1l44.6,428.2h2.2
			l200.7-428.2h107l-272,550.8h-116L1650.1,15.6z"/>
	</g>
</g>
</svg>
