<svg xmlns="http://www.w3.org/2000/svg" viewBox="0 0 600 226.2"><defs><style>.cls-1{fill:#c5552b;}</style></defs><g id="Layer_2" data-name="Layer 2"><g id="layer"><rect y="118.6" width="600" height="2.4"/><path class="cls-1" d="M13.6,175.3H37.8c2.9,0,4.9-.7,4.9-3.2,0-3-2-3.7-4.9-3.7H13.6v6.9Zm0-16H37.5c2.5,0,4-.9,4-3.4s-1.5-3.5-4-3.5H13.6v6.9ZM.1,141.8H39c10.8,0,16,2.9,16,11.6,0,7.5-2.7,9-6.5,10.1v.2c5.9.7,8.1,3.9,8.1,10.5,0,9.7-5.7,11.7-13.4,11.7H.2L.1,141.8Z"/><polygon class="cls-1" points="70.7 141.8 118.8 141.8 118.8 152 84.2 152 84.2 159.1 117 159.1 117 168.2 84.2 168.2 84.2 175.3 119.6 175.3 119.6 185.9 70.7 185.9 70.7 141.8"/><path class="cls-1" d="M147.2,163.5h22.3c3.7,0,5-1.5,5-4.6v-1.5c0-3.9-1.9-4.6-6.2-4.6H147.2v10.7Zm-13.5-21.7h40.7c10.4,0,13.2,5.2,13.2,13.1v2.8c0,5.9-1.3,9.4-7.5,10.8v.1c4,.7,7.4,2.5,7.4,9.7v7.5H174v-5.3c0-4.6-1.3-6.1-5.5-6.1H147.3v11.4H133.8l-.1-44Z"/><polygon class="cls-1" points="202.8 141.8 250.9 141.8 250.9 152 216.3 152 216.3 159.1 249.1 159.1 249.1 168.2 216.3 168.2 216.3 175.3 251.7 175.3 251.7 185.9 202.8 185.9 202.8 141.8"/><polygon class="cls-1" points="265.9 141.8 286.8 141.8 312.1 173.8 312.3 173.8 312.3 141.8 325.8 141.8 325.8 185.9 304.8 185.9 279.5 153.9 279.4 153.9 279.4 185.9 265.9 185.9 265.9 141.8"/><path class="cls-1" d="M354.4,175.3h24.2c2.9,0,4.9-.7,4.9-3.2,0-3-1.9-3.7-4.9-3.7H354.4v6.9Zm0-16h23.9c2.5,0,4-.9,4-3.4s-1.5-3.5-4-3.5H354.4v6.9Zm-13.6-17.5h38.9c10.8,0,16,2.9,16,11.6,0,7.5-2.7,9-6.5,10.1v.2c5.9.7,8.1,3.9,8.1,10.5,0,9.7-5.7,11.7-13.4,11.7h-43l-.1-44.1Z"/><polygon class="cls-1" points="411.4 141.8 459.6 141.8 459.6 152 424.9 152 424.9 159.1 457.8 159.1 457.8 168.2 424.9 168.2 424.9 175.3 460.4 175.3 460.4 185.9 411.4 185.9 411.4 141.8"/><path class="cls-1" d="M488,163.5h22.3c3.7,0,5-1.5,5-4.6v-1.5c0-3.9-1.9-4.6-6.2-4.6H488v10.7Zm-13.5-21.7h40.8c10.4,0,13.2,5.2,13.2,13.1v2.8c0,5.9-1.3,9.4-7.5,10.8v.1c4,.7,7.4,2.5,7.4,9.7v7.5H514.9v-5.3c0-4.6-1.3-6.1-5.5-6.1H488.2v11.4H474.7l-.2-44Z"/><path class="cls-1" d="M542.6,157.3c0-12.9,7.2-15.9,19.4-15.9h20.3c15.3,0,17.5,5.5,17.5,14.1v1.4H586.5c0-4.4-2.5-4.9-6.8-4.9H565c-6.8,0-8.6,1.6-8.6,9.2v5.5c0,7.5,1.8,9.2,8.6,9.2h14.4c3.5,0,7.1-.5,7.1-4.8v-1.3H569.7v-9.1H600v12.5c0,12.6-6.6,13.3-21.8,13.3H561.9c-12.2,0-19.4-3-19.4-15.9l.1-13.3Z"/><polygon points="309 52.1 305.2 48.9 305.2 53.3 309 56.5 309 52.1"/><path d="M314.6,54.3c.1-3-3.8-8.4-3.8-8.4v5.2a34.59,34.59,0,0,1,3.8,3.2Z"/><path d="M309,50.3V43.7c-4.4,1.2-3.8,3.4-3.8,3.4l3.8,3.2Z"/><path d="M303.5,48.5a3.08,3.08,0,0,0-.6-.6c-1-.8-3.2.9-3.2.9l3.8,3.2V48.5Z"/><path d="M315,56.4c-2.8-2.1-4.3-3.1-4.3-3.1v3a18,18,0,0,1,3.9,2.6c1-.1,1-.8.4-2.5Z"/><path d="M305.2,59.9c0,1.3,3.5,3.6,3.5,3V58.5l-3.5-3v4.4Z"/><polygon points="303.5 54.7 300.3 52.1 303.5 59.1 303.5 54.7"/><path d="M309.6,76.2h0a1.85,1.85,0,0,0,.3,1.8,3.75,3.75,0,0,0,2.9,1.2h.1a1.53,1.53,0,0,1,.4,1h-3.7a6,6,0,0,0-2.4,3.1v.1a4.17,4.17,0,0,1-1.2,2.2.76.76,0,0,0-.5.2,6.2,6.2,0,0,1-.2-3.3c.7-1,.7-1.2.5-1.5l-.2-.3h-.4a.85.85,0,0,0-.6.3,8.79,8.79,0,0,0-.6,1,5.06,5.06,0,0,1-1.9,1.9,5.35,5.35,0,0,0-1.8.4,12.91,12.91,0,0,1,1.5-3.7,2.2,2.2,0,0,1,.6-.5h.4a1.48,1.48,0,0,0,.7-.1h0c.5-.1.7-.2.7-.7a.67.67,0,0,0-.7-.6h-.2a3.42,3.42,0,0,0-1.1.1h0c-.6,0-1.3.1-1.8.1.4-.5.8-1,1-1.2a6.9,6.9,0,0,1,2-.4,8.23,8.23,0,0,0,2.6-.6c.4-.2,4-2.5,5.3-11.5a8.05,8.05,0,0,1,3.2,0l-4.9,11Zm1.7-17.3-.8-.3v.9c-.2,13.3-5,16-5,16h0a7.76,7.76,0,0,1-2.1.4,6.79,6.79,0,0,0-2.5.6,9.45,9.45,0,0,0-2.1,2.7l-.7,1.1,1.3-.2c.3,0,.8-.1,1.3-.1-.8,1.3-1.9,4.3-1.6,5.2l.3.7.7-.4a7.63,7.63,0,0,1,2.1-.6h.1a2.64,2.64,0,0,0,1.6-.9,10.93,10.93,0,0,0,.8,3.2l.8,1.8.4-1.9s.1-.4.3-.4c1.3-.2,2-2.3,2.2-3a6.7,6.7,0,0,1,1.6-2.4h4.8l-.1-.7c-.2-2.3-1-2.8-1.7-2.8h-.1a3,3,0,0,1-1.9-.6,1,1,0,0,1-.2-.6L316,64.7v-.1c1.2-3.6-4.5-5.6-4.7-5.7Z"/><path d="M291.5,76.9c1.9-9.9.5-11.6.5-11.6s.9-6.3,0-10.5a47.22,47.22,0,0,1,0-7.7s-.3-.4-.9.3c-2.7-.7-5.7.9-6.8,1.1a7.5,7.5,0,0,1-2,.2,1.2,1.2,0,0,0,.7,1.8c1.5.6,1.8.7,1.8.7l-1.3,1.6a.94.94,0,0,0,.9.6c.6,0,1,.4.3,1.6a7.07,7.07,0,0,1-2.9,2.4,7.38,7.38,0,0,1-2.6.4c-.4.2-.6,0-.6,0V56.2h2.6l-2-4.7h1.3l-1.7-4.1h1l-2.5-5.1-3,5.1h1.5l-1.7,4.1h1.3l-2.3,4.7h3.3c.5,1.6-.9,2.3-.9,2.8-.2.9.9,1.6.9,1.6a19.84,19.84,0,0,1-.1,3.3c-.2.7-1.2.8-1.2.8a1.84,1.84,0,0,0,1.3,1.6v2.9l-.9.9,1,.9-.6.8,1.4,1.2,1.3-1.2-.5-.8.9-.9-.9-.9V66.9c0-.5,3.8-1.6,3.8-1.6s2.4,2.1,1.7,4.2c-.5,1.6-3.8,5.1-3.8,5.1-2.4,3.5-.6,4.5-.1,5.8.4,1-.6,2-1.5,2.6a3.21,3.21,0,0,0-1.6,2.4h6.2a13.49,13.49,0,0,0,0-4.7c0-3.8,3.2-4.1,3.2-4.1.6,1.1.9,1.7,1.4,2.5a8.75,8.75,0,0,1,1.4,3.4,3.36,3.36,0,0,1-1.6,1.4c-1.8.7-1.2,1.4-1.2,1.4h2c6.1.3,5.2-2.5,5.2-2.5a7.14,7.14,0,0,1-1.7-5.9Z"/><polygon points="294.5 8.6 283.7 8.6 285 13.8 294.5 8.6"/><path d="M295.8,0C295,0,284,7.2,284,7.2h23.1S296.9.1,295.6.1Z"/><path d="M321.7,69.4a5.21,5.21,0,0,0-2.3,1.6c-.5-6.1,0-12.8,4.2-15l8.1-5.3.2,10.3c-.5.6-2.8,3.9-10.2,8.4Zm7.1,6.1-2.4,4.2,2.2,6.2a25.84,25.84,0,0,1-7.4-3.8,70.45,70.45,0,0,1-1.6-8.3,3.26,3.26,0,0,1,1-2.3,16.68,16.68,0,0,0,8.2,4ZM296.3,95.4V45.8h0a116.48,116.48,0,0,0,10.6-5.4l14.3.2.2,15.5c-3.8,3.8-3.7,11.7-2.9,17.9a1.48,1.48,0,0,0,.1.7,70.8,70.8,0,0,0,1.3,7l-.1.1h0c-.1.1-10.7,13.6-23.5,13.6ZM271.9,82.2l-.5-.7c1-4.2,4.3-19.7-1.5-25.4l.2-15.5,14.3-.2c6.1,3.4,9.8,5.1,10.7,5.5V95.5h-.2c-11.3-.1-20.9-10.8-23-13.3Zm-7.1-2.5-2.3-4.2c5.7-1.2,8.3-4.3,8.4-4.5l.5-.6-.6-.4c-8.3-4.9-10.9-8.5-11.4-9.2l.2-10.3,8,5.3h0c7.7,4.1,2.9,23.9,2.3,26.1a28.65,28.65,0,0,1-7.4,3.8l2.3-6Zm2.8-25.3L262.5,51c2.4-2.6,4.2-2.9,5.2-2.8l-.1,6.2Zm9.7-18.2q1.65.9,3,1.8l-12.5.2-.1,8.7c-1.3-.1-3.5.4-6.3,3.4l-1.7-1.2.2-7.6c5-7.8,16.3-5.5,17.4-5.3Zm-15.7-8.1a18.29,18.29,0,0,1,3.2-2.8c8,5.1,17.6,3.2,20.6,2.4l.5,2.1-8.5,4.1-8.1-.3c-2.1-.6-7.1-2.7-7.7-5.5Zm15.1-12.9-2.4,3.1,1.3,3.7c-8.6-2.5-11.4,2-11.5,2.2l-.1.1c-.7.5-1.7,1.3-2.5,2V18.1c5.6-7,13-4,15.2-2.9Zm18.9-4.1,11.3,6a2.54,2.54,0,0,1-.2.7l-11.1-4.9-11.3,5.2-.1-.5,11.4-6.5Zm18.3,17.7a24.06,24.06,0,0,0,12.7-3.4,18.29,18.29,0,0,1,3.2,2.8c-.6,2.8-5.6,4.9-7.7,5.5L314,34l-8.7-4.1c.1-.5.2-1.2.4-2.1a45.78,45.78,0,0,0,8.2,1Zm2-6.4,1.3-3.7-2.4-3.1c2.2-1.1,9.5-4.1,15,2.7v8a22,22,0,0,0-2.8-2.2c-.9-1.1-4-3.8-11.1-1.7ZM288.8,20c.3,1.7,1.4,4.7,5.7,7.6V16.8l-.4.1h0l-9.3,3-.2-.6,11-5.1L306.3,19c-.1.3-.1.6-.2.8l-3.7-1.2h0l-5.7-1.9V27.5c4.3-2.9,5.4-5.9,5.7-7.5l3.5,1.1c-.8,3.3-1.7,7.4-1.9,8.9-4.1,1.4-7.2,4.8-8.4,6.3a20.72,20.72,0,0,0-8.4-6.3L285,21.2l3.8-1.2Zm6.8,24.7a175.83,175.83,0,0,1-17.8-9.6h0l8.5-4.1.2.1c3.3,1,6.2,3.9,7.6,5.5-1.3,1.3-1,4.9,1.6,4.9s2.9-3.7,1.3-4.9c1.4-1.6,4.2-4.5,7.7-5.5l.2-.1,8.5,4h-.1a150,150,0,0,1-17.7,9.7Zm28.1,9.7-.1-6.2c1-.1,2.7.3,5.2,2.8l-5.1,3.4Zm7.7-12.9.2,7.6-1.7,1.2c-2.7-2.9-4.9-3.5-6.3-3.4l-.1-8.7L311,38l3-1.8c1.1-.2,12.3-2.6,17.4,5.3Zm1.3-.2v-.2l-.1-.2a13.92,13.92,0,0,0-9.9-6.2c1.3-.4,8.5-2.8,8.5-7.2V17.7h-.1c-7.2-9.2-17.5-3-17.6-2.9l-.6.4,2.8,3.7-2,5.5L315,24c6.3-2.2,9.4-.6,10.6.5-7.8,4.7-17.3,2.6-19.7,2,.6-2.9,1.5-6.7,2.2-9.6l.1-.5L295.5,9.6,282.6,17l2.4,9.5c-2.8.7-12,2.5-19.5-2.2,1-1,4.1-3.1,10.9-.8l1.3.4-2-5.5,2.8-3.6-.6-.4c-.1-.1-10.4-6.3-17.6,2.9l-.1.2v10c0,4.3,7,6.7,8.4,7.2a14.28,14.28,0,0,0-10.1,6.2l-.1.2-.5,20.1.1.2c.1.2,2.2,3.9,11.2,9.4a15.47,15.47,0,0,1-8,3.7l-.9.1,2.9,5.2-2.9,7.9,1.1-.3a25.83,25.83,0,0,0,8.3-3.8c2.1,2.5,12.3,14.2,24.9,14.2H296c12.7,0,22.9-11.7,24.9-14.2a30,30,0,0,0,8.3,3.8l1.1.3-2.9-7.9,2.9-5.2-.9-.1a15,15,0,0,1-8-3.7c9-5.5,11.1-9.2,11.2-9.4l.1-.2V41.3Z"/><polygon points="306.1 13.8 307.4 8.6 296.7 8.6 306.1 13.8"/><path d="M128.7,217.2a5.17,5.17,0,0,1-3.6,1h-2.8v6.7h-2.4v-17h4.5c2.2,0,3.1.2,4,.8a4.56,4.56,0,0,1,2.2,4.1A4.51,4.51,0,0,1,128.7,217.2Zm-1.4-6.6a3.62,3.62,0,0,0-2.8-.8h-2.2v6.5H125a2.61,2.61,0,0,0,2.4-1,3.23,3.23,0,0,0,.7-2.2A3.29,3.29,0,0,0,127.3,210.6Z"/><path d="M146.7,224.9l-1.5-4.8h-5.9l-1.5,4.8h-2.5l5.6-17h3l5.5,17Zm-4.4-14.7h-.2c-.2,1-2,7.1-2.3,7.9h4.8C144.3,217.3,142.6,211.2,142.3,210.2Z"/><path d="M163.7,224.9a21.75,21.75,0,0,0-1.4-2.5,20,20,0,0,0-2.9-4.2,2,2,0,0,0-1.5-.8v7.5h-2.4v-17h4.8a5.76,5.76,0,0,1,4,1.2,4.44,4.44,0,0,1,1.5,3.5c0,2.6-1.7,4.8-4.5,4.7a6.88,6.88,0,0,1,1.5,1.6,15.13,15.13,0,0,1,1.4,2.1c.7,1.2,2.1,3.4,2.5,3.9Zm-2-14.8a5.84,5.84,0,0,0-2.1-.3h-1.8v5.9h1.7a4,4,0,0,0,2.9-.8,3.2,3.2,0,0,0,.8-2.3A2.34,2.34,0,0,0,161.7,210.1Z"/><polygon points="182.9 209.8 178.4 209.8 178.4 224.9 176.1 224.9 176.1 209.8 171.7 209.8 171.7 207.9 183.1 207.9 182.9 209.8"/><path d="M197.6,224.9l-4.5-9a39.13,39.13,0,0,1-2.1-4.7h-.2c.1,1.5.2,3.2.2,4.7l.1,8.9h-2.4v-17h2.8l4.7,9.4a30.37,30.37,0,0,1,1.7,4.1h.1c0-.5-.2-3.2-.2-5.1v-8.3h2.3v17Z"/><polygon points="208.4 224.9 208.4 207.9 217.6 207.9 217.3 209.8 210.7 209.8 210.7 215 216.2 215 216.2 217 210.8 217 210.8 222.8 217.9 222.8 217.9 224.9 208.4 224.9"/><path d="M233,224.9a21.75,21.75,0,0,0-1.4-2.5,20,20,0,0,0-2.9-4.2,2,2,0,0,0-1.5-.8v7.5h-2.4v-17h4.8a5.76,5.76,0,0,1,4,1.2,4.44,4.44,0,0,1,1.5,3.5c0,2.6-1.7,4.8-4.5,4.7a6.88,6.88,0,0,1,1.5,1.6c.3.5.9,1.2,1.4,2.1.7,1.2,2.1,3.4,2.5,3.9Zm-2-14.8a5.84,5.84,0,0,0-2.1-.3h-1.8v5.9h1.7a4.19,4.19,0,0,0,2.9-.8,3.2,3.2,0,0,0,.8-2.3A2.47,2.47,0,0,0,231,210.1Z"/><path d="M247.2,225.2a10.84,10.84,0,0,1-5.5-1.5l.9-1.8a8.56,8.56,0,0,0,4.6,1.4c2.2,0,3.7-1.1,3.7-3,0-1.4-.9-2.4-2.8-2.9l-1.8-.5c-2.6-.7-4-2-4-4.4,0-2.9,2.3-4.9,5.6-4.9a9.39,9.39,0,0,1,5.2,1.6l-1.1,1.7a6.75,6.75,0,0,0-4-1.3c-1.9,0-3.1,1-3.1,2.6,0,1.2.7,1.9,2.5,2.4l2,.6c2.3.7,4.2,2.1,4.2,4.8C253.6,222.3,251.6,225.2,247.2,225.2Z"/><polygon points="269.8 224.9 269.8 216.8 263.3 216.8 263.3 224.9 261 224.9 261 207.9 263.3 207.9 263.3 214.8 269.8 214.8 269.8 207.9 272.2 207.9 272.2 224.9 269.8 224.9"/><rect x="280.5" y="207.9" width="2.4" height="17"/><path d="M299.9,217.2a5.17,5.17,0,0,1-3.6,1h-2.8v6.7h-2.4v-17h4.5c2.2,0,3.1.2,4,.8a4.65,4.65,0,0,1,2.3,4.1A4.79,4.79,0,0,1,299.9,217.2Zm-1.4-6.6a3.62,3.62,0,0,0-2.8-.8h-2.2v6.5h2.7a2.61,2.61,0,0,0,2.4-1,3.23,3.23,0,0,0,.7-2.2A3.29,3.29,0,0,0,298.5,210.6Z"/><path d="M322.9,225.2a10.58,10.58,0,0,1-5.5-1.5l.9-1.8a8.56,8.56,0,0,0,4.6,1.4c2.2,0,3.7-1.1,3.7-3,0-1.4-.9-2.4-2.8-2.9l-1.8-.5c-2.6-.7-4-2-4-4.4,0-2.9,2.3-4.9,5.6-4.9a9.39,9.39,0,0,1,5.2,1.6l-1.1,1.7a6.75,6.75,0,0,0-4-1.3c-1.9,0-3.1,1-3.1,2.6,0,1.2.7,1.9,2.5,2.4l2,.6c2.3.7,4.1,2.1,4.1,4.8C329.3,222.3,327.3,225.2,322.9,225.2Z"/><rect x="336.7" y="207.9" width="2.4" height="17"/><path d="M356.1,224.9l-4.5-9a39.13,39.13,0,0,1-2.1-4.7h-.2c.1,1.5.2,3.2.2,4.7l.1,8.9h-2.4v-17H350l4.7,9.4a30.37,30.37,0,0,1,1.7,4.1h.1c0-.5-.2-3.2-.2-5.1v-8.3h2.3v17Z"/><path d="M373.3,225.1a6.59,6.59,0,0,1-5.3-2.5,9.86,9.86,0,0,1-1.9-6.1,11.3,11.3,0,0,1,1.1-5.1,6.93,6.93,0,0,1,6.1-3.9,7.22,7.22,0,0,1,4.2,1.3l-1.2,1.6a4.72,4.72,0,0,0-3-1,4.18,4.18,0,0,0-3.8,2.4,9.49,9.49,0,0,0-.8,4.6,10.17,10.17,0,0,0,.6,4,4.37,4.37,0,0,0,4.2,2.8,4.69,4.69,0,0,0,3.1-1.1l1.2,1.6A7.31,7.31,0,0,1,373.3,225.1Z"/><polygon points="385.1 224.9 385.1 207.9 394.3 207.9 394 209.8 387.5 209.8 387.5 215 393 215 393 217 387.5 217 387.5 222.8 394.6 222.8 394.6 224.9 385.1 224.9"/><path d="M412.5,224.9v-1.8h2.8V211.4a13.22,13.22,0,0,1-1.8,1.1c-.8.4-2,.9-2,.9l-.5-1.2,4.8-3.4h1.7v14.4h2.4V225Z"/><path d="M435.8,224.7a9.19,9.19,0,0,1-4.1,1,5.24,5.24,0,0,1-1.8-.2l-.4-1.7a4.64,4.64,0,0,0,1.9.4c2.9,0,5.1-1.9,5.1-4.3,0-2.1-1.5-3-3.4-3a8.29,8.29,0,0,0-3.2.6l.8-8.6h7.6l-.4,1.9h-5.2l-.4,4.4c.4,0,1-.1,1.6-.1,2.9,0,5.1,1.7,5.1,4.7A5.81,5.81,0,0,1,435.8,224.7Z"/><path d="M453.9,222.6a12.33,12.33,0,0,1-3.9,2.7,11.33,11.33,0,0,1-2.8.9l-1.2-1.4a8.08,8.08,0,0,0,2.2-.7,10.69,10.69,0,0,0,5.2-4.4,8.1,8.1,0,0,0,.6-1.3,4.79,4.79,0,0,1-2.8.8,4.94,4.94,0,0,1-5-5.2,5.49,5.49,0,0,1,5.7-5.6c3.5,0,5.4,2.9,5.4,6.2A11.31,11.31,0,0,1,453.9,222.6Zm-2-12.5c-1.8,0-3,1.5-3,3.8,0,2.1,1.1,3.5,2.9,3.5a4.36,4.36,0,0,0,2.9-1.2,6.48,6.48,0,0,0,.2-1.9C454.9,211.7,453.7,210.1,451.9,210.1Z"/><path d="M469.5,225.2c-4.3,0-5.7-5.2-5.7-8.6,0-4.6,2.5-8.3,5.7-8.3,4.3,0,5.7,4.9,5.7,8.4C475.3,221.8,472.9,225.2,469.5,225.2Zm2.8-12.4c-.5-1.8-1.5-2.7-2.7-2.7-1,0-1.8.8-2.4,2.1a10.65,10.65,0,0,0-.7,4.4,20.91,20.91,0,0,0,.4,4.1c.5,1.8,1.6,2.8,2.7,2.8s2-.9,2.6-2.3a13.33,13.33,0,0,0,.6-4.4A20.69,20.69,0,0,0,472.3,212.8Z"/></g></g></svg>