<?xml version="1.0" encoding="UTF-8"?>
<svg xmlns="http://www.w3.org/2000/svg" xmlns:xlink="http://www.w3.org/1999/xlink" width="472.33pt" height="125.44pt" viewBox="0 0 472.33 125.44" version="1.1">
<defs>
<clipPath id="clip1">
  <path d="M 380 109 L 392 109 L 392 125.441406 L 380 125.441406 Z M 380 109 "/>
</clipPath>
<clipPath id="clip2">
  <path d="M 330 109 L 337 109 L 337 125.441406 L 330 125.441406 Z M 330 109 "/>
</clipPath>
<clipPath id="clip3">
  <path d="M 285 109 L 298 109 L 298 125.441406 L 285 125.441406 Z M 285 109 "/>
</clipPath>
<clipPath id="clip4">
  <path d="M 268 109 L 272 109 L 272 125.441406 L 268 125.441406 Z M 268 109 "/>
</clipPath>
<clipPath id="clip5">
  <path d="M 0 91 L 472.328125 91 L 472.328125 93 L 0 93 Z M 0 91 "/>
</clipPath>
<clipPath id="clip6">
  <path d="M 242 109 L 253 109 L 253 125.441406 L 242 125.441406 Z M 242 109 "/>
</clipPath>
<clipPath id="clip7">
  <path d="M 216 109 L 228 109 L 228 125.441406 L 216 125.441406 Z M 216 109 "/>
</clipPath>
<clipPath id="clip8">
  <path d="M 173 109 L 185 109 L 185 125.441406 L 173 125.441406 Z M 173 109 "/>
</clipPath>
<clipPath id="clip9">
  <path d="M 122 109 L 136 109 L 136 125.441406 L 122 125.441406 Z M 122 109 "/>
</clipPath>
<clipPath id="clip10">
  <path d="M 104 109 L 108 109 L 108 125.441406 L 104 125.441406 Z M 104 109 "/>
</clipPath>
<clipPath id="clip11">
  <path d="M 405 109 L 417 109 L 417 125.441406 L 405 125.441406 Z M 405 109 "/>
</clipPath>
<clipPath id="clip12">
  <path d="M 353 109 L 365 109 L 365 125.441406 L 353 125.441406 Z M 353 109 "/>
</clipPath>
<clipPath id="clip13">
  <path d="M 148 109 L 162 109 L 162 125.441406 L 148 125.441406 Z M 148 109 "/>
</clipPath>
<clipPath id="clip14">
  <path d="M 77 109 L 90 109 L 90 125.441406 L 77 125.441406 Z M 77 109 "/>
</clipPath>
<clipPath id="clip15">
  <path d="M 51 109 L 63 109 L 63 125.441406 L 51 125.441406 Z M 51 109 "/>
</clipPath>
</defs>
<g id="surface1">
<path style=" stroke:none;fill-rule:nonzero;fill:rgb(1.176453%,36.470032%,49.411011%);fill-opacity:1;" d="M 471.773438 62.140625 L 450.582031 62.140625 L 450.582031 60.207031 C 452.710938 60.207031 453.976563 60.222656 454.839844 59.816406 C 455.710938 59.414063 455.808594 59.042969 455.808594 58.269531 C 455.808594 57.882813 455.699219 57.304688 455.03125 56.332031 C 454.371094 55.359375 453.871094 54.785156 452.90625 53.621094 L 440.179688 38.910156 L 437.664063 41.039063 L 437.664063 53.816406 C 437.664063 56.527344 438.050781 58.074219 439.019531 58.851563 C 439.796875 59.429688 441.539063 60.011719 444.246094 60.207031 L 444.246094 62.140625 L 424.796875 62.140625 L 424.796875 60.207031 C 427.699219 60.011719 429.296875 59.695313 430.214844 58.65625 C 431.128906 57.613281 431.378906 55.945313 431.378906 53.042969 L 431.378906 22.261719 C 431.378906 19.554688 430.988281 18.003906 430.214844 17.230469 C 429.441406 16.457031 427.503906 15.875 424.796875 15.683594 L 424.796875 13.941406 L 444.441406 13.941406 L 444.441406 15.683594 C 441.539063 15.875 439.796875 16.265625 439.019531 17.039063 C 438.050781 18.003906 437.664063 19.554688 437.664063 22.261719 L 437.664063 36.644531 C 439.878906 34.738281 444.738281 30.179688 447.484375 27.488281 C 453.863281 21.242188 455.804688 19.136719 455.957031 17.792969 C 456.09375 16.613281 455.648438 16.285156 454.878906 16.070313 C 454.105469 15.855469 452.359375 15.683594 450.8125 15.683594 L 450.8125 13.941406 L 469.78125 13.941406 L 469.78125 15.683594 C 467.460938 15.875 465.433594 15.984375 463.78125 16.84375 C 461.707031 17.921875 460.742188 18.980469 458.421875 21.300781 L 444.914063 34.359375 L 460.355469 52.460938 C 463.898438 56.421875 465.578125 57.882813 466.742188 58.65625 C 467.902344 59.429688 469.648438 60.011719 471.773438 60.207031 L 471.773438 62.140625 "/>
<path style=" stroke:none;fill-rule:nonzero;fill:rgb(1.176453%,36.470032%,49.411011%);fill-opacity:1;" d="M 413.855469 15.683594 L 413.855469 13.941406 L 396.820313 13.941406 L 396.820313 15.683594 C 399.53125 15.875 401.273438 16.457031 402.046875 17.230469 C 403.207031 18.390625 403.785156 21.101563 403.785156 24.972656 L 403.785156 48.976563 L 376.128906 13.941406 L 364.351563 13.941406 L 364.351563 15.683594 C 365.703125 15.683594 366.769531 15.792969 367.847656 16.261719 C 368.925781 16.726563 369.425781 17.148438 370.394531 18.503906 L 371.320313 19.746094 L 371.320313 50.914063 C 371.320313 54.785156 370.933594 57.300781 370.160156 58.269531 C 369.191406 59.429688 367.253906 60.011719 364.351563 60.398438 L 364.351563 62.140625 L 381.386719 62.140625 L 381.386719 60.207031 C 379.550781 60.070313 377.957031 59.960938 376.351563 58.65625 C 374.753906 57.347656 374.609375 54.976563 374.609375 50.914063 L 374.609375 23.039063 L 405.722656 62.914063 L 406.886719 62.914063 L 406.886719 24.972656 C 406.886719 21.296875 407.164063 19.230469 408.433594 17.8125 C 409.703125 16.390625 411.144531 16.070313 413.855469 15.683594 "/>
<g clip-path="url(#clip1)" clip-rule="nonzero">
<path style=" stroke:none;fill-rule:nonzero;fill:rgb(56.861877%,0%,15.686035%);fill-opacity:1;" d="M 391.074219 119.632813 C 391.074219 116.921875 389.332031 114.210938 386.429688 114.210938 C 385.269531 114.210938 384.105469 114.601563 383.332031 115.375 L 383.332031 112.085938 L 389.722656 112.085938 L 389.722656 109.375 L 380.816406 109.375 L 380.621094 117.890625 L 383.332031 118.472656 C 383.527344 117.503906 384.496094 116.921875 385.460938 116.921875 C 387.203125 116.921875 387.976563 118.472656 387.976563 120.019531 C 387.976563 121.566406 387.007813 122.925781 385.269531 122.925781 C 384.105469 122.925781 383.332031 122.148438 382.945313 120.988281 L 380.234375 122.148438 C 381.007813 124.277344 383.332031 125.441406 385.460938 125.441406 C 388.945313 125.441406 391.074219 122.730469 391.074219 119.632813 "/>
</g>
<g clip-path="url(#clip2)" clip-rule="nonzero">
<path style=" stroke:none;fill-rule:nonzero;fill:rgb(56.861877%,0%,15.686035%);fill-opacity:1;" d="M 336.390625 109.375 L 334.257813 109.375 L 330.777344 110.730469 L 330.777344 112.472656 L 333.292969 112.472656 L 333.292969 125.246094 L 336.390625 125.246094 L 336.390625 109.375 "/>
</g>
<path style=" stroke:none;fill-rule:nonzero;fill:rgb(56.861877%,0%,15.686035%);fill-opacity:1;" d="M 230.886719 21.683594 L 208.820313 0.00390625 L 187.332031 21.683594 Z M 230.886719 21.683594 "/>
<path style=" stroke:none;fill-rule:nonzero;fill:rgb(1.176453%,36.470032%,49.411011%);fill-opacity:1;" d="M 244.050781 34.652344 L 233.40625 24.199219 L 206.496094 24.199219 L 196.046875 34.652344 L 244.050781 34.652344 "/>
<g clip-path="url(#clip3)" clip-rule="nonzero">
<path style=" stroke:none;fill-rule:nonzero;fill:rgb(56.861877%,0%,15.686035%);fill-opacity:1;" d="M 297.09375 112.085938 L 297.09375 109.375 L 285.867188 109.375 L 285.867188 112.085938 L 289.929688 112.085938 L 289.929688 125.246094 L 293.027344 125.246094 L 293.027344 112.085938 L 297.09375 112.085938 "/>
</g>
<path style=" stroke:none;fill-rule:nonzero;fill:rgb(56.861877%,0%,15.686035%);fill-opacity:1;" d="M 221.207031 37.167969 L 173.394531 37.167969 L 184.042969 47.621094 L 210.757813 47.621094 L 221.207031 37.167969 "/>
<g clip-path="url(#clip4)" clip-rule="nonzero">
<path style=" stroke:none;fill-rule:nonzero;fill:rgb(56.861877%,0%,15.686035%);fill-opacity:1;" d="M 271.15625 125.246094 L 271.15625 109.375 L 268.058594 109.375 L 268.058594 125.246094 L 271.15625 125.246094 "/>
</g>
<path style=" stroke:none;fill-rule:nonzero;fill:rgb(1.176453%,36.470032%,49.411011%);fill-opacity:1;" d="M 229.726563 50.140625 L 186.558594 50.140625 L 208.628906 72.011719 Z M 229.726563 50.140625 "/>
<g clip-path="url(#clip5)" clip-rule="nonzero">
<path style=" stroke:none;fill-rule:nonzero;fill:rgb(56.861877%,0%,15.686035%);fill-opacity:1;" d="M 472.328125 92.921875 L 472.328125 91.234375 L 0 91.234375 L 0 92.921875 L 472.328125 92.921875 "/>
</g>
<g clip-path="url(#clip6)" clip-rule="nonzero">
<path style=" stroke:none;fill-rule:nonzero;fill:rgb(56.861877%,0%,15.686035%);fill-opacity:1;" d="M 252.570313 125.246094 L 252.570313 122.535156 L 245.605469 122.535156 L 245.605469 118.472656 L 251.023438 118.472656 L 251.023438 115.957031 L 245.605469 115.957031 L 245.605469 112.085938 L 252.179688 112.085938 L 252.179688 109.375 L 242.507813 109.375 L 242.507813 125.246094 L 252.570313 125.246094 "/>
</g>
<g clip-path="url(#clip7)" clip-rule="nonzero">
<path style=" stroke:none;fill-rule:nonzero;fill:rgb(56.861877%,0%,15.686035%);fill-opacity:1;" d="M 227.210938 120.601563 C 227.210938 114.792969 219.664063 116.730469 219.664063 113.632813 C 219.664063 112.664063 220.355469 111.816406 221.597656 111.789063 C 222.949219 111.757813 223.710938 112.4375 223.988281 113.929688 L 226.632813 113.632813 C 226.585938 111.167969 224.503906 109.179688 221.792969 109.179688 C 219.082031 109.179688 216.566406 111.308594 216.566406 114.019531 C 216.566406 119.4375 224.117188 117.699219 224.117188 120.796875 C 224.117188 122.148438 222.726563 122.84375 221.566406 122.84375 C 220.019531 122.84375 219.164063 121.90625 218.78125 120.550781 L 216.179688 120.988281 C 216.566406 123.890625 218.695313 125.441406 221.792969 125.441406 C 225.664063 125.441406 227.210938 122.535156 227.210938 120.601563 "/>
</g>
<path style=" stroke:none;fill-rule:nonzero;fill:rgb(1.176453%,36.470032%,49.411011%);fill-opacity:1;" d="M 151.613281 24.394531 L 151.222656 13.941406 L 115.214844 13.941406 L 115.214844 15.683594 C 117.925781 15.875 119.667969 16.457031 120.441406 17.230469 C 121.21875 18.003906 121.605469 19.554688 121.605469 22.261719 L 121.605469 52.847656 C 121.605469 55.945313 121.441406 57.738281 120.636719 58.65625 C 119.832031 59.574219 118.121094 59.816406 115.214844 60.207031 L 115.214844 62.140625 L 135.066406 62.140625 L 135.066406 60.207031 C 132.164063 60.011719 130.847656 59.652344 129.648438 58.851563 C 128.445313 58.046875 128.484375 56.332031 128.484375 53.621094 L 128.484375 38.332031 L 136.898438 38.332031 C 139.996094 38.332031 141.933594 38.71875 142.707031 39.683594 C 143.675781 40.652344 144.257813 42.394531 144.835938 45.296875 L 146.578125 45.296875 L 146.578125 28.457031 L 144.835938 28.457031 C 144.449219 31.167969 143.675781 33.105469 142.898438 34.070313 C 141.933594 35.039063 139.996094 35.425781 136.898438 35.425781 L 128.484375 35.425781 L 128.484375 19.164063 C 128.484375 18.199219 128.523438 17.660156 128.871094 17.230469 C 129.222656 16.804688 129.648438 16.648438 130.613281 16.648438 L 138.640625 16.648438 C 142.707031 16.648438 145.417969 17.230469 146.773438 18.003906 C 148.128906 18.972656 149.09375 21.101563 149.480469 24.394531 L 151.613281 24.394531 "/>
<g clip-path="url(#clip8)" clip-rule="nonzero">
<path style=" stroke:none;fill-rule:nonzero;fill:rgb(56.861877%,0%,15.686035%);fill-opacity:1;" d="M 184.820313 112.085938 L 184.820313 109.375 L 173.398438 109.375 L 173.398438 112.085938 L 177.464844 112.085938 L 177.464844 125.246094 L 180.753906 125.246094 L 180.753906 112.085938 L 184.820313 112.085938 "/>
</g>
<path style=" stroke:none;fill-rule:nonzero;fill:rgb(1.176453%,36.470032%,49.411011%);fill-opacity:1;" d="M 100.390625 62.140625 L 100.390625 60.207031 C 97.679688 60.011719 96.105469 59.417969 95.164063 58.65625 C 94.222656 57.894531 94.003906 56.332031 94.003906 53.621094 L 94.003906 22.261719 C 94.003906 19.554688 94.390625 18.003906 95.164063 17.230469 C 95.9375 16.457031 97.679688 15.875 100.390625 15.683594 L 100.390625 13.941406 L 80.867188 13.941406 L 80.867188 15.683594 C 83.578125 15.875 85.320313 16.457031 86.09375 17.230469 C 86.867188 18.003906 87.253906 19.554688 87.253906 22.261719 L 87.253906 36.007813 L 66.207031 36.007813 L 66.207031 22.261719 C 66.207031 19.554688 66.785156 18.003906 67.5625 17.230469 C 68.335938 16.457031 70.078125 15.875 72.789063 15.683594 L 72.789063 13.941406 L 52.996094 13.941406 L 52.996094 15.683594 C 55.707031 15.875 57.449219 16.457031 58.222656 17.230469 C 58.996094 18.003906 59.382813 19.554688 59.382813 22.261719 L 59.382813 52.847656 C 59.382813 55.945313 59.347656 57.609375 58.414063 58.65625 C 57.480469 59.703125 55.898438 60.011719 52.996094 60.207031 L 52.996094 62.140625 L 72.789063 62.140625 L 72.789063 60.207031 C 70.078125 60.011719 68.703125 59.71875 67.5625 58.65625 C 66.417969 57.59375 66.207031 56.332031 66.207031 53.621094 L 66.207031 39.300781 L 87.253906 39.300781 L 87.253906 52.847656 C 87.253906 55.945313 87.058594 57.882813 86.285156 58.65625 C 85.511719 59.429688 83.769531 59.816406 80.867188 60.207031 L 80.867188 62.140625 L 100.390625 62.140625 "/>
<g clip-path="url(#clip9)" clip-rule="nonzero">
<path style=" stroke:none;fill-rule:nonzero;fill:rgb(56.861877%,0%,15.686035%);fill-opacity:1;" d="M 135.476563 109.375 L 132.203125 109.375 L 128.933594 121.179688 L 125.863281 109.375 L 122.386719 109.375 L 127.5 125.246094 L 130.566406 125.246094 L 135.476563 109.375 "/>
</g>
<g clip-path="url(#clip10)" clip-rule="nonzero">
<path style=" stroke:none;fill-rule:nonzero;fill:rgb(56.861877%,0%,15.686035%);fill-opacity:1;" d="M 107.476563 125.246094 L 107.476563 109.375 L 104.183594 109.375 L 104.183594 125.246094 L 107.476563 125.246094 "/>
</g>
<path style=" stroke:none;fill-rule:nonzero;fill:rgb(1.176453%,36.470032%,49.411011%);fill-opacity:1;" d="M 352.976563 58.851563 C 352.246094 58.269531 351.339844 57.105469 350.25 54.398438 L 333.191406 13.164063 L 331.921875 13.164063 L 317.765625 48.785156 C 315.589844 54.203125 314.496094 57.105469 313.589844 58.269531 C 312.679688 59.429688 311.050781 60.207031 309.238281 60.398438 L 309.238281 62.140625 L 322.847656 62.140625 L 322.847656 60.207031 C 321.546875 60.097656 320.359375 60.101563 319.265625 59.496094 C 318.660156 59.160156 318.183594 58.585938 318.09375 57.71875 C 317.992188 56.78125 318.308594 55.753906 318.671875 54.785156 C 319.035156 53.621094 320.125 51.105469 321.757813 46.265625 L 339.726563 46.265625 C 339.726563 46.265625 341.539063 51.105469 342.628906 54.011719 C 342.808594 54.589844 343.488281 56.300781 343.851563 57.507813 C 344.175781 58.578125 343.765625 59.03125 342.808594 59.429688 C 341.855469 59.832031 340.996094 60.011719 339 60.207031 L 339 62.140625 L 356.421875 62.140625 L 356.421875 60.207031 C 354.789063 60.011719 353.699219 59.429688 352.976563 58.851563 Z M 323.027344 43.363281 L 330.832031 23.425781 L 338.636719 43.363281 Z M 323.027344 43.363281 "/>
<g clip-path="url(#clip11)" clip-rule="nonzero">
<path style=" stroke:none;fill-rule:nonzero;fill:rgb(56.861877%,0%,15.686035%);fill-opacity:1;" d="M 414.785156 119.382813 L 414.785156 109.375 L 411.011719 109.375 C 411.011719 109.375 408.945313 112.753906 408.082031 114.277344 C 407.226563 115.796875 405.410156 119.574219 405.410156 119.574219 L 405.410156 121.898438 L 411.59375 121.898438 L 411.59375 125.246094 L 414.785156 125.246094 L 414.785156 121.898438 L 416.722656 121.898438 L 416.722656 119.382813 Z M 411.730469 112.363281 L 411.730469 119.382813 L 408.308594 119.382813 C 408.308594 119.382813 408.910156 117.90625 410.027344 115.628906 C 410.648438 114.347656 411.730469 112.363281 411.730469 112.363281 "/>
</g>
<g clip-path="url(#clip12)" clip-rule="nonzero">
<path style=" stroke:none;fill-rule:nonzero;fill:rgb(56.861877%,0%,15.686035%);fill-opacity:1;" d="M 361.847656 116.921875 C 363.007813 115.957031 363.972656 114.988281 363.972656 113.4375 C 363.972656 110.730469 361.460938 109.179688 358.941406 109.179688 C 356.425781 109.179688 354.101563 110.921875 354.101563 113.632813 C 354.101563 115.183594 355.070313 116.339844 356.230469 116.921875 C 354.679688 117.699219 353.519531 119.246094 353.519531 120.988281 C 353.519531 123.117188 355.265625 125.441406 358.941406 125.441406 C 363.199219 125.441406 364.554688 122.535156 364.554688 120.796875 C 364.554688 119.050781 363.199219 117.890625 361.847656 116.921875 Z M 358.941406 111.695313 C 360.105469 111.695313 361.074219 112.472656 361.074219 113.4375 C 361.074219 114.601563 360.339844 115.355469 359.371094 115.9375 C 358.402344 115.355469 357.003906 114.601563 357.003906 113.4375 C 357.003906 112.472656 358.167969 111.695313 358.941406 111.695313 Z M 358.941406 122.925781 C 357.777344 122.925781 356.703125 121.953125 356.617188 120.988281 C 356.492188 119.492188 357.777344 118.472656 358.941406 118.085938 C 360.105469 118.472656 361.460938 119.4375 361.460938 120.796875 C 361.460938 122.148438 360.105469 122.925781 358.941406 122.925781 "/>
</g>
<g clip-path="url(#clip13)" clip-rule="nonzero">
<path style=" stroke:none;fill-rule:nonzero;fill:rgb(56.861877%,0%,15.686035%);fill-opacity:1;" d="M 156.824219 109.375 L 152.640625 109.375 L 148.050781 125.246094 L 151.128906 125.246094 L 152.128906 121.179688 L 156.917969 121.179688 L 158.113281 125.246094 L 161.410156 125.246094 Z M 152.726563 118.664063 L 154.570313 111.757813 L 156.316406 118.664063 Z M 152.726563 118.664063 "/>
</g>
<path style=" stroke:none;fill-rule:nonzero;fill:rgb(1.176453%,36.470032%,49.411011%);fill-opacity:1;" d="M 36.199219 40.847656 C 34.238281 38.910156 31.503906 37.554688 28.210938 36.78125 C 30.921875 36.007813 32.457031 35.234375 33.8125 34.265625 C 36.136719 32.523438 37.492188 29.8125 37.492188 26.332031 C 37.492188 21.875 36.023438 19.25 32.265625 16.84375 C 28.507813 14.4375 24.535156 13.941406 18.726563 13.941406 L 0.0898438 13.941406 L 0.0898438 15.683594 C 2.992188 15.875 4.929688 16.265625 5.703125 17.039063 C 6.671875 17.8125 7.058594 19.554688 7.058594 22.261719 L 7.058594 53.621094 C 7.058594 56.332031 6.671875 58.074219 5.703125 58.851563 C 4.929688 59.625 2.992188 60.011719 0.0898438 60.207031 L 0.0898438 62.140625 L 22.210938 62.140625 C 26.277344 62.140625 29.570313 61.558594 32.277344 60.398438 C 37.699219 58.269531 39.679688 54.398438 39.679688 48.785156 C 39.679688 45.296875 38.144531 42.769531 36.199219 40.847656 Z M 13.746094 19.164063 C 13.746094 18.003906 13.988281 17.429688 14.441406 17.097656 C 14.984375 16.703125 15.679688 16.648438 17.230469 16.648438 C 21.101563 16.648438 23.179688 17.039063 25.117188 17.8125 C 28.601563 19.359375 30.34375 22.261719 30.34375 26.714844 C 30.34375 30.394531 28.792969 32.910156 25.890625 34.265625 C 24.148438 35.039063 22.210938 35.425781 19.695313 35.425781 L 13.746094 35.621094 Z M 28.210938 57.300781 C 25.695313 58.65625 22.597656 59.429688 18.726563 59.429688 C 16.210938 59.429688 15.679688 59.238281 14.90625 58.851563 C 14.132813 58.460938 13.746094 57.6875 13.746094 56.527344 L 13.746094 38.332031 C 14.519531 38.332031 14.90625 38.332031 15.101563 38.332031 L 17.230469 38.332031 C 21.878906 38.332031 24.542969 38.9375 27.4375 40.652344 C 30.335938 42.367188 31.890625 44.914063 31.890625 48.976563 C 31.890625 53.042969 30.730469 55.753906 28.210938 57.300781 "/>
<path style=" stroke:none;fill-rule:nonzero;fill:rgb(1.176453%,36.470032%,49.411011%);fill-opacity:1;" d="M 299.261719 40.847656 C 297.300781 38.910156 294.570313 37.554688 291.277344 36.78125 C 293.988281 36.007813 295.527344 35.234375 296.878906 34.265625 C 299.203125 32.523438 300.558594 29.8125 300.558594 26.332031 C 300.558594 21.875 298.816406 18.585938 295.328125 16.84375 C 291.847656 14.90625 287.601563 13.941406 281.792969 13.941406 L 263.15625 13.941406 L 263.15625 15.683594 C 266.0625 15.875 267.996094 16.265625 268.765625 17.039063 C 269.734375 17.8125 270.121094 19.554688 270.121094 22.261719 L 270.121094 53.621094 C 270.121094 56.332031 269.734375 58.074219 268.765625 58.851563 C 267.996094 59.625 266.0625 60.011719 263.15625 60.207031 L 263.15625 62.140625 L 285.277344 62.140625 C 289.339844 62.140625 292.636719 61.558594 295.34375 60.398438 C 300.761719 58.269531 302.746094 54.398438 302.746094 48.785156 C 302.746094 45.296875 301.210938 42.769531 299.261719 40.847656 Z M 276.8125 19.164063 C 276.8125 18.003906 277.027344 17.425781 277.480469 17.0625 C 277.957031 16.675781 278.75 16.648438 280.296875 16.648438 C 284.167969 16.648438 286.242188 17.039063 288.179688 17.8125 C 291.664063 19.359375 293.410156 22.261719 293.410156 26.714844 C 293.410156 30.394531 291.859375 32.910156 288.957031 34.265625 C 287.214844 35.039063 285.277344 35.425781 282.761719 35.425781 L 276.8125 35.621094 Z M 291.277344 57.300781 C 288.761719 58.65625 285.664063 59.429688 281.792969 59.429688 C 279.277344 59.429688 278.75 59.238281 277.976563 58.851563 C 277.199219 58.460938 276.8125 57.6875 276.8125 56.527344 L 276.8125 38.332031 C 277.585938 38.332031 277.976563 38.332031 278.167969 38.332031 L 280.296875 38.332031 C 284.941406 38.332031 287.609375 38.9375 290.507813 40.652344 C 293.402344 42.367188 294.957031 44.914063 294.957031 48.976563 C 294.957031 53.042969 293.796875 55.753906 291.277344 57.300781 "/>
<g clip-path="url(#clip14)" clip-rule="nonzero">
<path style=" stroke:none;fill-rule:nonzero;fill:rgb(56.861877%,0%,15.686035%);fill-opacity:1;" d="M 85.742188 118.859375 C 87.484375 118.085938 88.644531 115.957031 88.644531 114.210938 C 88.644531 112.277344 87.289063 109.375 83.613281 109.375 L 77.417969 109.375 L 77.417969 125.246094 L 80.515625 125.246094 L 80.515625 119.4375 L 83.03125 119.4375 L 85.933594 125.246094 L 89.613281 125.246094 Z M 82.066406 116.730469 L 80.515625 116.730469 L 80.515625 112.085938 L 81.675781 112.085938 C 83.613281 112.085938 85.546875 112.085938 85.546875 114.019531 C 85.546875 116.921875 83.804688 116.730469 82.066406 116.730469 "/>
</g>
<g clip-path="url(#clip15)" clip-rule="nonzero">
<path style=" stroke:none;fill-rule:nonzero;fill:rgb(56.861877%,0%,15.686035%);fill-opacity:1;" d="M 57.671875 109.375 L 51.671875 109.375 L 51.671875 125.246094 L 54.769531 125.246094 L 54.769531 119.632813 L 56.898438 119.632813 C 61.542969 119.632813 62.898438 116.535156 62.898438 114.210938 C 62.898438 111.890625 61.351563 109.375 57.671875 109.375 Z M 55.351563 116.921875 L 54.769531 116.921875 L 54.769531 112.085938 L 55.351563 112.085938 C 57.09375 112.085938 59.609375 111.890625 59.609375 114.210938 C 59.609375 116.730469 57.09375 116.921875 55.351563 116.921875 "/>
</g>
</g>
</svg>
