<svg xmlns="http://www.w3.org/2000/svg" viewBox="0 0 2426.47 921.58"><defs><style>.cls-1{fill:#37a094;}.cls-1,.cls-2{fill-rule:evenodd;}</style></defs><g id="Layer_2" data-name="Layer 2"><g id="Layer_1-2" data-name="Layer 1"><path class="cls-1" d="M823.85,184c-75,43.91-98.06,47.35-178.94,96.1,47.05-51.34,63.49-72.95,93-116C662.78,168.09,554,177,476,194.29c67.88-36,202.07-76.45,272.89-85.88C732.48,85.82,599.66,13.61,566.49,0c105.14,8.14,233.78,47.16,296,85.55,25.14-7.56,50.25-8.17,95.69-12.14-11.55,20-11.73,31.59-56.67,61.11,12.45,33.15-17.15,215.69-41.49,264.26-1.07-76.46-7.89-173-36.14-214.75ZM276.44,838.73c-43.22-15.92-74.23-34.5-108.14-66.32,10.2-28,21.82-50.18,40.93-78.11-35.19,5-60.62,8.84-90.75,14.77C93.81,666,82.94,624.79,70.37,567.44c-6.79,60.72-9.26,104.21-.53,152.74C42.26,727.73,22.65,734.52,0,744.68c31.66,19.64,57.42,34.82,93.23,51.25,18.91,40.88,38.67,68.78,70.64,100.06-7.61-26.7-9.36-48.23-6.64-76.2,40,11.66,73.9,17.46,119.21,18.94ZM388.26,231.55c-13.6,17.39-29,49.76-33.12,64.85,110.53,15.25,199.65,71.93,199.65,71.93-97.27-17.13-148-15-184.11-11.86-36,3.56-43.32,7.89-43.32,7.89C301.27,421,285.75,519.58,285.75,519.63c-17.68-42.38-43.23-127.42-43.23-127.49C193.7,418.4,81.49,524,81.4,524c61.73-123.75,124.26-180.42,124.33-180.42-21.56-21.54-78-32.35-119.27-34.21,21.5-8.84,76.57-19.19,118.85-21,42.21-1.34,67.74,1.26,67.81,1.26,37.92-29.9,95.1-55.06,115.14-58.16ZM505.55,762.14c-19.68,26.32-36.28,47.32-58.05,71.6-37.29,10.07-66.94,13.9-103.18,14.11A244.38,244.38,0,0,0,411.27,871c-23.1,21.18-42.89,36.31-65.41,50.56,37.81-9.12,87.84-25.25,124.8-46.86,19.13.53,37.31-.69,50.57-3-3.2-11.53-5.6-19.77-8.41-34.55,35-27.08,60.44-51.45,89.16-80.71-30.78,21.51-57.54,37.77-92.89,54.57q-2.5-24.37-3.54-48.85Z"/><path class="cls-2" d="M456.63,522.06c1.49,16.16,2.51,56.47,2.51,71.25,0,13.56-.19,59-2.75,78.65l-.31,1.6,88.9,0c43.43,0,89.76-11.05,89.76-42,0-19.4-17.52-33.77-50.44-41.67,24.15-5.12,40.61-18.52,40.61-34,0-25.17-36.38-34.83-70.35-35.4l-98-.11Zm68.66,15.55c37.1.13,50.88,6.25,50.88,22.42a15.3,15.3,0,0,1-4.93,11.35c-7.12,6.76-21.28,10.24-38.83,9.57h-.87l-10.25,21.53h10.38c20.45-.58,38.2,4.63,47.3,13.53,4.23,4.13,6.33,8.77,6.33,13.83,0,17.07-18.63,25.76-55.16,25.76-6.17,0-16.08,0-22.45-.35-1.32-22.38-1.42-52.9-1.42-61.94,0-10.63.6-34.39,1.47-54.71a128.64,128.64,0,0,1,17.55-1Zm314.35-17.15H796.58L798.41,559c.75,19.2,1.54,38.76,3.15,57.73-2.93-5.8-5.4-9-18.26-24.21-.42-.56-45.2-55.93-60.79-71.6l-.46-.48H671.78l.08,1.52c1.49,16.14,2.53,56.47,2.53,71.33,0,13.51-.2,59-2.8,78.63l-.2,1.54H716l-.09-1.44c-2.62-37.55-2.62-75.18-2.62-111.54v-.1c1.53,4.33,3.63,8.36,10.65,16.69.77.91,77.44,90.52,81.37,95.86l.37.53H841.6l-.19-1.54c-2.69-19.66-2.86-65.12-2.86-78.63,0-14.86,1.07-55.3,2.51-71.33l.21-1.52Zm52,1.5c1.43,16.23,2.52,56.5,2.52,71.35,0,13.51-.19,59-2.87,78.59l-.15,1.57h53.2l-.16-1.57c-1.9-14-2.54-40.88-2.75-61.61,2.17.11,9.78.4,9.78.4l7.44.28c70.16,0,104.23-15.07,104.23-46.14,0-35.4-47.76-43.61-87.8-44.38H891.46Zm65.18,17c24.91-.38,42.47,3.72,50.9,12.06a18.84,18.84,0,0,1,5.67,13.85c0,22.22-31,26.8-57,26.8l-10.51-.23s-2.63-.26-4.24-.48c-.19-5.08-.26-11.73-.26-19.36,0-9.77.13-20.94.65-31.68q7.35-.79,14.75-1Zm207.69-17c1.55,16.23,2.57,56.5,2.57,71.35,0,13.51-.18,59-2.77,78.59l-.22,1.57h53.21l-.25-1.57c-1.8-14-2.49-40.88-2.71-61.61l9.69.4,7.53.28c70.14,0,104.23-15.07,104.23-46.14,0-35.4-47.75-43.61-87.84-44.38h-83.53l.09,1.51Zm65.23,17c24.9-.38,42.45,3.72,50.84,12.06a18.73,18.73,0,0,1,5.77,13.85c0,22.22-31,26.8-57.06,26.8l-10.48-.23s-2.61-.26-4.22-.48c-.17-5.08-.26-11.83-.26-19.38,0-9.81.17-20.92.65-31.66,3.23-.4,9-.8,14.76-1Zm177.37-18.37h-.85l-.4.86c-9.91,21.71-73.59,133-83.52,150l-1.22,2.15h45.66l.3-.93c4-10.39,9.09-22.27,15.09-35l37.77-.46,31.06.3s5.48.13,6.79.13c8.26,16.49,14.32,28.95,17,35.11l.32.88h52.87l-85.16-153h-35.71Zm13,45.07c4.23,7.23,15.15,27.69,27.48,51.83l-4.07.13-23.41.26s-24.22-.32-28-.43Q1405.42,591.21,1420,565.62ZM1549,522c1.42,16.14,2.59,56.48,2.59,71.33,0,13.51-.3,59-2.92,78.59l-.18,1.59h53.2l-.16-1.54c-2.71-19.73-2.86-65.12-2.86-78.62,0-10.64.61-34.4,1.46-53.45,4.81-.43,9.64-.71,14.46-.86,24.85-.42,42.43,3.73,50.77,12a18.51,18.51,0,0,1,5.85,13.8c0,17.68-20.82,26.6-40.08,27.43a69.41,69.41,0,0,1-11.35-.45l-3.64-.51,2.38,2.79c18.6,22.06,47,60.52,58.87,78.85l.48.64h57l-1.69-2.33c-2-2.46-39.34-46.25-55.18-65,0,0-.61-.69-1-1.17,28.92-7,43.19-20.17,43.19-40.27,0-35.37-47.83-43.62-87.87-44.28l-83.51-.1.16,1.5Zm261.55-1.57h-51l.19,1.52c1.46,16.19,2.47,56.53,2.47,71.36,0,13.42-.15,58.92-2.79,78.56l-.18,1.62h53.23l-.27-1.62c-2.58-19.64-2.79-65.12-2.79-78.56,0-14.85,1.09-55.28,2.53-71.36l.13-1.52Zm49.76,1.65c1.46,16.13,2.55,56.44,2.55,71.25,0,13.56-.18,59-2.79,78.65l-.23,1.6,88.84,0c43.4,0,89.86-11.05,89.86-42,0-19.4-17.63-33.77-50.56-41.67,24.14-5.12,40.61-18.52,40.61-34,0-25.17-36.33-34.83-70.35-35.4l-98-.11ZM1929,537.61c37.16.13,51,6.25,51,22.42a15.1,15.1,0,0,1-5,11.35c-7,6.76-21.18,10.24-38.75,9.57h-.91L1925,602.48h10.39c20.47-.58,38.15,4.63,47.28,13.53,4.2,4.13,6.3,8.77,6.3,13.83,0,17.07-18.49,25.76-55.09,25.76-6.22,0-16.17,0-22.47-.35-1.32-22.38-1.35-52.9-1.35-61.94,0-10.76.51-34.39,1.52-54.71a124.48,124.48,0,0,1,17.37-1Zm242-17.2h-35.82l-.35.81c-10.53,23.09-77.92,140.43-83.51,150.11l-1.22,2.12h45.67l.32-1q6.88-17.81,15.07-35c1.62,0,37.67-.48,37.67-.48l31.1.38s5.44.1,6.83.1c8.26,16.42,14.32,28.91,17,35.09l.41.9h52.81L2171.74,520.4h-.8Zm-22,45.08c4.26,7.23,15.1,27.7,27.49,51.78l-4,.13-23.53.32-27.94-.45Q2134.36,591.05,2149,565.49Zm121.19-5.36c0,26.87,33.84,37.79,63.74,47.44,23.2,7.47,47.09,15.3,47.09,28.07,0,3.92-1.17,7-3.77,9.45-5.43,5.27-16.88,7.5-34.84,6.81-17.54-.74-37.69-5.24-59.88-13.53l-9.38-3.47,0,5.92v27.51l6.08,1.07,3.75.61c11.16,2.2,32.42,6.16,53.85,6.16,56.13,0,89.64-17.76,89.64-47.45,0-27.56-34.6-38.63-65.12-48.34-22.51-7.22-45.82-14.59-45.82-26.39,0-3.37,0-13.63,28.83-13.63,21.61,0,42.74,7,54.11,10.79l11.05,3.51-.15-5.71V521.13l-10.87-1.55c-10.82-1.67-28.89-4.46-47.65-4.46C2302.59,515.13,2270.16,533.23,2270.16,560.13Z"/></g></g></svg>