<?xml version="1.0" encoding="utf-8"?>
<!-- Generator: Adobe Illustrator 25.2.3, SVG Export Plug-In . SVG Version: 6.00 Build 0)  -->
<svg version="1.1" id="Layer_1" xmlns="http://www.w3.org/2000/svg" xmlns:xlink="http://www.w3.org/1999/xlink" x="0px" y="0px"
	 viewBox="0 0 2279.4 1015" style="enable-background:new 0 0 2279.4 1015;" xml:space="preserve">
<style type="text/css">
	.st0{fill-rule:evenodd;clip-rule:evenodd;fill:#900D35;enable-background:new    ;}
	.st1{fill-rule:evenodd;clip-rule:evenodd;fill:#ECB73A;}
	.st2{fill-rule:evenodd;clip-rule:evenodd;fill:#FFFFFF;}
</style>
<g id="Layer_2_1_">
	<g id="Layer_1-2">
		<path class="st0" d="M0,0v1015h2279.4V0H0z"/>
		<path class="st1" d="M417.6,125c-15.4,0-31.3-0.6-48.6-1.7l-1.4-0.1v13l1.3,0.1c31.6,1.6,31.6,3.2,31.6,29v160.2
			c0,25.8,0,27.3-31.6,29l-1.3,0.1v13l1.4-0.1c16.2-1.1,32.4-1.7,48.6-1.7c15,0,30.8,0.5,49.6,1.7l1.4,0.1v-13l-1.2-0.1
			c-31.6-1.6-31.6-3.2-31.6-29V165.2c0-25.8,0-27.4,31.6-29l1.2-0.1v-13l-1.4,0.1C448.5,124.4,432.7,125,417.6,125z M620.3,228.9
			c25.7-7,50.5-26.2,50.5-56c0-32.1-22.2-49.7-62.4-49.7c-22,1.2-40.7,1.7-58.8,1.7c-19.6-0.1-39.1-0.7-58.7-1.7l-1.3-0.1v13
			l1.2,0.1c23.6,0.6,29.1,1.8,29.1,29.8v165.5c0,13.1-2.2,19.4-15.6,22.9l-1,0.3v12.8l1.4-0.1c12.5-1.1,25-1.7,37.6-1.7
			c11.1,0,23.3,0.5,37.2,1.7c28.8,2.4,56.9-6.9,77.2-25.5c16.7-15.4,25.8-35.2,25.8-56C682.6,242,643.9,231.3,620.3,228.9
			L620.3,228.9z M644.4,291.7c0,35.6-23.2,58.6-59.2,58.6c-12-0.3-21.5-1.2-29.8-2.9V240.2h21.8C623,240.2,644.4,256.5,644.4,291.7z
			 M578.6,224.8c-7.8,0.1-15.5-0.4-23.2-1.3v-55.8c-0.1-8.2,0.4-16.4,1.6-24.6c8.8-2.9,19-3.5,26.2-3.5c35.2,0,50.8,12.4,50.8,40.2
			C634,218.4,599.3,224.6,578.6,224.8L578.6,224.8z M922.4,330.2l-1,0.6c-20.8,13.9-45.5,21.6-69.4,21.6
			c-67.7,0-113.1-46.4-113.1-115.5c0-60.8,38.2-101.7,95.1-101.7c25.7,0,42.3,6.4,55.1,12.6c15.4,7.6,15.3,13.6,15.1,26.8l0.1,13.5
			l1.3-0.1h11.2l0.2-1.4c2-16.9,4.1-34.3,7.6-51.5l0.1-1.1l-1.2-0.3c-27-7.8-58.8-15.7-90.1-15.7C766.6,118,699,161.4,699,244.4
			c0,88.5,71,128.2,141.3,128.2c21,0,56.2-7.8,78.7-20.6l0.4-0.2l7.4-16.8L922.4,330.2z M344.8,330.8
			c-20.9,13.9-45.5,21.6-69.4,21.6c-67.6,0-113.1-46.4-113.1-115.5c0-60.8,38.2-101.7,95.1-101.7c25.7,0,42.2,6.4,55,12.6
			c15.5,7.6,15.3,13.6,15,26.8l0.1,13.5l1.4-0.1h11.2l0.1-1.1c2-16.9,4.2-34.5,7.6-51.7l0.3-1.1l-1.2-0.3
			c-27-7.8-58.8-15.7-90.2-15.7c-66.8,0-134.4,43.4-134.4,126.3c0,88.5,71,128.2,141.3,128.2c21,0,56.2-7.8,78.8-20.6l0.4-0.2
			l7.4-16.8l-4.4-4.9L344.8,330.8L344.8,330.8z"/>
		<path class="st2" d="M2244,381.6c-454,17.7-893.5,61.8-1290.7,130.1c-347.3,59.8-658.1,137.2-918,228v82.9
			c517-221.3,1304.6-375.8,2208.7-415V381.6z"/>
		<path class="st1" d="M2244,325.6c-846.4,26-1611.5,124.1-2208.7,270.9V710c259.5-89.9,568.6-166.5,913.2-225.8
			c398.7-68.6,839.8-112.9,1295.5-130.5V325.6L2244,325.6z"/>
	</g>
</g>
</svg>
