<svg xmlns="http://www.w3.org/2000/svg" viewBox="0 0 2215.68 576.99"><defs><style>.cls-1{fill:#1c4882;}.cls-1,.cls-2{fill-rule:evenodd;}.cls-2{fill:#cc2131;}</style></defs><g id="Layer_2" data-name="Layer 2"><g id="Layer_1-2" data-name="Layer 1"><path class="cls-1" d="M272.55,464.75l-1.61,1.58c-25.81,26.29-55.69,40.23-86.46,40.23-64.22,0-110.86-48.21-110.86-114.72s46.64-114.61,110.86-114.61c30.77,0,60.65,14,86.46,40.31l1.61,1.62,41.31-50-1.11-1.35c-34.33-40.61-75.57-60.35-126.26-60.35s-97.35,17.12-130.85,48C19.21,288.91,0,336.05,0,391.86s19.21,103.07,55.64,136.5c33.5,31,80,48,130.85,48,50.69,0,91.93-19.74,126.26-60.36l1.11-1.26-41.31-50Zm83.06,104.79h73V213.25h-73Zm358.92-77.45c-19.51,11.85-37.61,17.83-53.92,17.83-23.57,0-34.25-12.45-34.25-40.18V280.67h74.37v-67.1H626.36V102.69L554.83,141v72.58H493.12v67.1h61.71V481.81c0,54.76,32.45,92.19,80.95,93.22,32.88.63,52.71-9.17,64.74-16.36l.74-.49,17.55-68.71-4.28,2.62Zm60.41,77.45H848V213.25H774.94Z"/><path class="cls-2" d="M890.56,150.77C823.88,56.33,713.16,0,600.5,0S377.11,56.34,310.55,150.77l-3.43,4.85h84l.9-1c57.17-58.93,131.78-90.14,208.5-90.14s151.29,31.21,208.55,90.14l1,1h83.89l-3.36-4.85Z"/><path class="cls-1" d="M987.38,297.93l-1,1.31V483.55l.71,1.13c23,35.55,60.47,56.82,100.27,56.82,61.54,0,92.75-51.87,92.75-154.11,0-91.39-34.55-143.73-94.8-143.73-36.55,0-69.5,18.25-97.94,54.27ZM2215.68,568.3v1.24h-44.1c-2.5-5.06-92.38-195.38-92.38-195.38l-67.11,94.07V569.55h-41.65V101.49c3.65-2.09,31.82-18.25,41.65-23.79V417.56l22.78-35.35c-.08.11,102.11-147.81,115.18-166.67h45.6c-9.7,13-90,123.55-90,123.55s99.63,207.78,110,229.21ZM1385.4,577h-17.67c-35.88-2.08-100.49-18.73-100.49-111.45,0-82.37,68-111.61,131.67-111.61,32,0,63.6,7.36,86.5,20.23l6.89,3.78v-50.8c0-56.34-27.51-84.88-81.92-84.88-33.54,0-63.81,8.42-94.79,25.94-2.79-6.29-12.41-27.6-15.07-33.62,32.42-17.13,72.47-26.69,113.28-26.69,80.85,0,120.17,36.93,120.17,113V569.54H1492.3V517.91l-8.08,9c-28.47,31.35-60.81,47.88-98.82,50.12Zm-286.29,0h-16.48c-34.47-2.13-62.64-17.1-88.15-46.62l-8.09-9.45v48.62H944.82V101.48c3.52-2.09,31.8-18.25,41.57-23.79v189.4l8-8.84c30.71-33.89,64.66-50.36,103.71-50.36,78.14,0,123,65.11,123,178.75C1221.13,498.54,1173.48,572.21,1099.11,577ZM1308,462.1c0,53,27.43,82.07,77.26,82.07,42.42,0,80.08-20,106.2-56.47l.8-1.24V408.85L1490,407.5c-26.6-15.16-53.78-21.3-93.83-21.3-55.09,0-88.1,28.39-88.1,75.9Zm361.84-204.39c21.48-32.1,55.15-49.82,94.57-49.82,78.53,0,120.17,50.09,120.17,144.89V569.54h-41.77V361.75c0-80.63-28-118.1-88.64-118.1-58.09,0-92.78,44.19-92.78,118.1V569.54h-41.62v-354h41.62v54.88l8.45-12.71Z"/></g></g></svg>