<svg xmlns="http://www.w3.org/2000/svg" xmlns:xlink="http://www.w3.org/1999/xlink" viewBox="0 0 599.8 66.7"><defs><style>.cls-1{fill:none;}.cls-2{fill:#fff;}.cls-3{clip-path:url(#clip-path);}.cls-4{fill:url(#radial-gradient);}.cls-5{clip-path:url(#clip-path-2);}.cls-6{fill:url(#radial-gradient-2);}.cls-7{clip-path:url(#clip-path-3);}.cls-8{fill:url(#radial-gradient-3);}.cls-9{clip-path:url(#clip-path-4);}.cls-10{fill:url(#radial-gradient-4);}</style><clipPath id="clip-path" transform="translate(0 -0.2)"><path class="cls-1" d="M567,.2c-1.6,0-6.6,0-12.3,5.8l.2.2a27.27,27.27,0,0,1,5.3-4A14,14,0,0,1,565.9.4c1.3-.1,5.5-.1,10.3-.1h.1l-.1-.2H567Z"/></clipPath><radialGradient id="radial-gradient" cx="-650.74" cy="296.3" r="1" gradientTransform="translate(46348.5 -17531.65) scale(70.33 59.37)" gradientUnits="userSpaceOnUse"><stop offset="0" stop-color="#ffdf4f"/><stop offset="0.17" stop-color="#ffcf31"/><stop offset="0.34" stop-color="#fec319"/><stop offset="0.44" stop-color="#febe10"/><stop offset="0.6" stop-color="#fcba11"/><stop offset="0.76" stop-color="#f6ae14"/><stop offset="0.9" stop-color="#ed9d19"/><stop offset="1" stop-color="#e0861a"/></radialGradient><clipPath id="clip-path-2" transform="translate(0 -0.2)"><path class="cls-1" d="M533.5.2h0L515.6,26.4,510,34.6l-.6.9-.1.1h0l17,24.9v-.1c-.4-.6-.6-1-.8-1.3a10.36,10.36,0,0,1-1-5.1c.3-4.8,3.3-9.6,4.8-11.8,3.6-5.2,10.5-15.4,10.5-15.4s6.9-10.1,10.5-15.4c1.5-2.2,4.9-6.8,9.7-9.5A16.36,16.36,0,0,1,565.7.1C567,0,571.2,0,576,0H533.5Z"/></clipPath><radialGradient id="radial-gradient-2" cx="-650.75" cy="296.29" r="1" gradientTransform="translate(46364.77 -17603.09) scale(70.38 59.41)" xlink:href="#radial-gradient"/><clipPath id="clip-path-3" transform="translate(0 -0.2)"><path class="cls-1" d="M514.4,43.3l16.1,23.5H579l19.4-28.3h0a56.4,56.4,0,0,1-3.4,4.7,14.48,14.48,0,0,1-4.7,3.3c-5.1,2.2-11.5,2.4-14.5,2.4h-42c-3,0-9.5-.2-14.5-2.4a13.12,13.12,0,0,1-4.7-3.3c-.7-.8-2.4-3.3-4.5-6.4Zm-5-7.4.6.9Z"/></clipPath><radialGradient id="radial-gradient-3" cx="-650.74" cy="296.29" r="1" gradientTransform="translate(46294.73 -17553.25) scale(70.35 59.39)" xlink:href="#radial-gradient"/><clipPath id="clip-path-4" transform="translate(0 -0.2)"><path class="cls-1" d="M565.7.3A16.36,16.36,0,0,0,560,2.1a21.12,21.12,0,0,0-5.2,4,28.09,28.09,0,0,1,4.4,5.4c3.6,5.2,10.5,15.4,10.5,15.4s6.9,10.1,10.5,15.4c1.5,2.2,4.6,7,4.8,11.8a10.59,10.59,0,0,1-1,5.1c-.5,1-2.5,3.8-4.7,7.2l19.1-27.9V32.8L576.1.2h0c-4.8,0-9.1,0-10.4.1"/></clipPath><radialGradient id="radial-gradient-4" cx="-650.8" cy="296.26" r="1" gradientTransform="translate(46496.32 -17584.77) scale(70.55 59.55)" xlink:href="#radial-gradient"/></defs><g id="Layer_2" data-name="Layer 2"><g id="layer"><path class="cls-2" d="M20.9,55A21.82,21.82,0,0,1,6.6,50,16.89,16.89,0,0,1,.7,37.1,17.07,17.07,0,0,1,6.8,24.2a22.26,22.26,0,0,1,14.7-5.3,21.46,21.46,0,0,1,13.6,4.6l-5,4.4a14.66,14.66,0,0,0-8.8-2.8A11.57,11.57,0,0,0,9.4,36.8a11.78,11.78,0,0,0,3.3,8.4,12.23,12.23,0,0,0,8.8,3.4,14.23,14.23,0,0,0,9.3-3l4.7,4.1C31.7,53.3,26.9,55,20.9,55" transform="translate(0 -0.2)"/><path class="cls-2" d="M61.8,55c-12.3,0-21.2-7.5-21.2-17.8S50.1,19,62.1,19c12.3,0,21.2,7.5,21.2,17.8S73.8,55,61.8,55m.1-30c-7.4,0-12.8,5-12.8,11.9s5.3,12,12.8,12,12.8-5,12.8-11.9a11.54,11.54,0,0,0-3.5-8.5A12.76,12.76,0,0,0,61.9,25" transform="translate(0 -0.2)"/><path class="cls-2" d="M140.1,54.3h-7.9l-1.9-18.7c-.4-3.8-.5-7.7-.5-7.8a.67.67,0,0,0-.7-.6h-.2c-.4,0-.7.2-.7.5,0,0-1,3.9-2.2,7.3l-7,19.3h-7.3l-7-19.2c-1.3-3.5-2.3-7.4-2.3-7.4a.75.75,0,0,0-.7-.5h-.2a.67.67,0,0,0-.7.6s-.1,3.9-.5,7.6L98.4,54.2H91l4-34.7h11.4l6.4,17.4c1.1,2.9,2.2,6.6,2.2,6.6a.74.74,0,0,0,1.4,0s1.1-3.7,2.1-6.6l6.3-17.4H136Z" transform="translate(0 -0.2)"/><path class="cls-2" d="M199.6,54.3h-7.9l-1.9-18.7c-.4-3.8-.5-7.7-.5-7.8a.67.67,0,0,0-.7-.6h-.2c-.4,0-.7.2-.7.5,0,0-1,3.9-2.2,7.3l-7,19.3h-7.3l-7-19.2c-1.3-3.5-2.3-7.4-2.3-7.4a.75.75,0,0,0-.7-.5H161a.67.67,0,0,0-.7.6s-.1,3.9-.5,7.6l-1.9,18.8h-7.4l4-34.7h11.4l6.4,17.4c1.1,2.9,2.2,6.6,2.2,6.6a.74.74,0,0,0,1.4,0s1.1-3.7,2.1-6.6l6.3-17.4h11.2Z" transform="translate(0 -0.2)"/><path class="cls-2" d="M237.5,54.3H211.3V19.6h26v5.6H219.8a.67.67,0,0,0-.7.6v7.6a.67.67,0,0,0,.7.6h14.9v5.5H219.8a.67.67,0,0,0-.7.6V48a.67.67,0,0,0,.7.6h17.7Z" transform="translate(0 -0.2)"/><path class="cls-2" d="M280.3,54.3H271l-8.9-12.8a.71.71,0,0,0-.6-.3h-3a.67.67,0,0,0-.7.6V54.3H250V19.6h12c6.1,0,10.4.9,13.2,2.9a9.18,9.18,0,0,1,3.8,8c0,4.4-2.9,7.7-8.1,9.4-.2.1-.4.2-.4.4a.44.44,0,0,0,.1.5ZM258.5,25a.67.67,0,0,0-.7.6v9.6a.67.67,0,0,0,.7.6h3.8c5.8,0,8.6-1.8,8.6-5.4s-2.8-5.4-8.6-5.4Z" transform="translate(0 -0.2)"/><path class="cls-2" d="M316,54.3H287.8V49.2l17.5-23c.1-.2.2-.4,0-.6a.78.78,0,0,0-.7-.3H288.1V19.7h27.4v5.1L298,47.8c-.1.2-.2.4,0,.6a.91.91,0,0,0,.7.3H316Z" transform="translate(0 -0.2)"/><path class="cls-2" d="M342.7,54.3H327.2V19.6h14c10.1,0,14.8,2.7,14.8,8.6,0,3.6-2.4,6.3-6.6,7.4a.63.63,0,0,0-.5.6v.1a.65.65,0,0,0,.6.6c5.3.6,8.5,3.5,8.5,7.7,0,7.1-8.2,9.7-15.3,9.7m-7-14.8a.67.67,0,0,0-.7.6v8.1a.67.67,0,0,0,.7.6h6.9q7.5,0,7.5-4.8c0-2.1-1.3-4.5-7.5-4.5Zm0-14.5a.67.67,0,0,0-.7.6v7.8a.67.67,0,0,0,.7.6h5.7c3.9,0,6.3-1.8,6.3-4.7s-2.4-4.4-6.6-4.4h-5.4Z" transform="translate(0 -0.2)"/><path class="cls-2" d="M402.6,54.3h-8.4l-2.8-6.9a.67.67,0,0,0-.7-.4H374.1a.84.84,0,0,0-.7.4l-2.8,6.9h-7.8l14.6-34.7H388ZM382.5,25.6a.75.75,0,0,0-.7.5s-.8,2.4-1.8,5.1l-3.8,9.5a.66.66,0,0,0,.1.6.71.71,0,0,0,.6.3H388a.71.71,0,0,0,.6-.3.66.66,0,0,0,.1-.6l-3.8-9.6c-1-2.6-1.8-5-1.8-5a.56.56,0,0,0-.6-.5" transform="translate(0 -0.2)"/><path class="cls-2" d="M444,54.3h-7L422.8,36.6c-2.2-2.8-4.2-5.7-4.2-5.7a.71.71,0,0,0-.6-.3h-.2a.63.63,0,0,0-.5.6s.2,3.3.2,6.5V54.2h-7.1V19.5h7.7l13.6,16.8c2.2,2.8,4.2,5.7,4.2,5.7a.71.71,0,0,0,.6.3h.2a.63.63,0,0,0,.5-.6s-.2-3.3-.2-6.5V19.5h7.1V54.3Z" transform="translate(0 -0.2)"/><path class="cls-2" d="M488,54.3h-9.6L465,37.7a.71.71,0,0,0-.6-.3h-.2a.63.63,0,0,0-.5.6V54.2h-7.8V19.5h7.8V35.1a.63.63,0,0,0,.5.6h.2a.71.71,0,0,0,.6-.3l12.6-15.9h8.9L473.2,35.2a.48.48,0,0,0,0,.7Z" transform="translate(0 -0.2)"/><path class="cls-2" d="M578.8,66.5h-48L509.7,35.7h0v-.1l.6-.9L533.7.5h42.1l24,35.1-.1.1h0l-9.3,13.6L579,66.2h0Zm-24-60.7a.37.37,0,0,0-.3.1,43.52,43.52,0,0,0-4.5,5.5L539.5,26.8,529,42.1a40,40,0,0,0-3.4,6v.3c.1.1.2.1.3.2a57,57,0,0,0,7.9.5h42a57,57,0,0,0,7.9-.5c.1,0,.2-.1.3-.2a.19.19,0,0,0,0-.3,32.59,32.59,0,0,0-3.4-6L570,26.8,559.5,11.4A42.75,42.75,0,0,0,555,5.9c0-.1-.1-.1-.2-.1" transform="translate(0 -0.2)"/><path d="M20.9,55.6c6.6,0,11.7-2,15.7-5.8l-5.8-5a13.06,13.06,0,0,1-9.3,3.3c-6.8,0-11.3-4.8-11.3-11.2A10.85,10.85,0,0,1,21.4,25.8a14,14,0,0,1,8.8,3l6-5.3a21.67,21.67,0,0,0-14.6-5.3C9.6,18.2,0,26.6,0,37-.1,48,9.3,55.6,20.9,55.6" transform="translate(0 -0.2)"/><path d="M61.9,48.2c-7.3,0-12.1-4.9-12.1-11.3,0-6.1,4.6-11.3,12.1-11.3,7.3,0,12.1,4.9,12.1,11.3,0,6.1-4.6,11.3-12.1,11.3m-.1,7.4c12.7,0,22.3-8.4,22.3-18.8s-9-18.5-22-18.5c-12.7,0-22.3,8.4-22.3,18.8s9,18.5,22,18.5" transform="translate(0 -0.2)"/><path d="M119.5,54.9l7.2-19.8a64.19,64.19,0,0,0,2.2-7.3h.2s.1,3.9.5,7.8l1.9,19.3h9.4l-4.2-36H124.3l-6.5,17.9c-1,2.9-2.2,6.6-2.2,6.6s-1.1-3.7-2.2-6.7l-6.5-17.8H94.3l-4.2,36H99l1.9-19.4c.4-3.8.5-7.7.5-7.7h.2s1,3.9,2.3,7.5l7.2,19.6Z" transform="translate(0 -0.2)"/><path d="M179,54.9l7.2-19.8a64.19,64.19,0,0,0,2.2-7.3h.2s.1,3.9.5,7.8L191,54.9h9.4l-4.2-36H183.8l-6.5,17.9c-1,2.9-2.2,6.6-2.2,6.6s-1.1-3.7-2.2-6.7l-6.5-17.8H153.8l-4.2,36h8.9l1.9-19.4c.4-3.8.5-7.7.5-7.7h.2s1,3.9,2.3,7.5l7.2,19.6Z" transform="translate(0 -0.2)"/><polygon points="210.6 54.7 238.3 54.7 238.3 47.8 219.8 47.8 219.8 39.9 235.5 39.9 235.5 33.2 219.8 33.2 219.8 25.6 238 25.6 238 18.7 210.6 18.7 210.6 54.7"/><path d="M270.2,30.4c0,3.4-2.6,4.8-7.8,4.8h-3.8V25.6h3.8c4.9,0,7.8,1.3,7.8,4.8m11.4,24.5L271.1,40.4c5.5-1.8,8.6-5.3,8.6-10,0-7.3-4.9-11.5-17.7-11.5H249.2v36h9.3V41.8h3l9.1,13.1Z" transform="translate(0 -0.2)"/><polygon points="287.1 54.7 316.8 54.7 316.8 47.8 298.7 47.8 316.4 24.6 316.4 18.7 287.5 18.7 287.5 25.6 304.7 25.6 287.1 48.8 287.1 54.7"/><path d="M335.7,40.1h6.9c4.1,0,6.8,1.1,6.8,3.9s-2.1,4.2-6.8,4.2h-6.9Zm0-14.5h5.4c3,0,5.9.8,5.9,3.8s-2.6,4-5.5,4h-5.7V25.6Zm-9.3,29.3h16.3c7.6,0,16.1-2.9,16.1-10.4,0-4.7-3.5-7.8-9.1-8.4V36c4.4-1.1,7.1-4,7.1-8,0-7.8-8.1-9.2-15.6-9.2H326.4Z" transform="translate(0 -0.2)"/><path d="M371.2,54.9l3-7.3h16.6l3,7.3h10l-15.2-36H377l-15.2,36ZM388,40.8H376.8l3.8-9.5c1-2.7,1.8-5.1,1.8-5.1s.8,2.4,1.8,5.1Z" transform="translate(0 -0.2)"/><path d="M409.5,54.9h8.6V37.8c0-3.2-.2-6.5-.2-6.5s2,2.9,4.2,5.7l14.5,17.9h8.2v-36h-8.6V35.2c0,3.2.2,6.5.2,6.5s-2-2.9-4.2-5.7L418.4,18.9h-8.9v36Z" transform="translate(0 -0.2)"/><polygon points="455 18.7 455 54.7 464.3 54.7 464.3 37.9 478 54.7 489.4 54.7 473.7 35.4 487.9 18.7 477.2 18.7 464.3 34.9 464.3 18.7 455 18.7"/><g class="cls-3"><rect class="cls-4" x="554.7" width="21.5" height="6.1"/></g><g class="cls-5"><rect class="cls-6" x="509.2" width="66.9" height="60.4"/></g><g class="cls-7"><rect class="cls-8" x="509.4" y="35.7" width="89" height="31"/></g><g class="cls-9"><rect class="cls-10" x="554.8" width="43.6" height="66.2"/></g></g></g></svg>