<svg xmlns="http://www.w3.org/2000/svg" viewBox="0 0 2498.83 556"><defs><style>.cls-1{fill:#003662;}.cls-2{fill:none;}</style></defs><g id="Layer_2" data-name="Layer 2"><g id="Layer_1-2" data-name="Layer 1"><path class="cls-1" d="M1106.31,340.46H941.57v37.42l5.12-.54.12-.61c1.11-5.53,11-16.12,23.21-16.12h36.79l0,192h35.94l-.21-191.85h37.64c12.43,0,20.58,6.82,22,13.23l.16.7,5.22-.16-.36-34.06ZM37.5,327.59l.61.6-.61-.6A135.63,135.63,0,0,0,0,420.82c0,38.36,15.47,73.24,43.58,98.2,26.85,23.85,62.75,37,101.1,37,20.08,0,59.47-3.42,97.47-26.3l1.47-.89,4.53-54-7.1-.92-1.05,2.2c-27.9,58.35-71.83,58.35-88.37,58.35C77.55,534.42,43.8,473,43.8,415.88c0-55.22,33.43-110.95,108.09-110.95,22.9,0,64.54,7.5,86.2,57.58l1.2,2.77,7-2.14-4.55-56.3-1.86-.8c-34.79-15.18-62.86-21.93-91-21.93-45.46,0-84,15-111.36,43.48Zm246.06,12.85h-.88l.06,4.9.45.23c3,1.61,6.37,9.77,6.37,18.92V552.6h35.29l-.14-96.66,15.44.39c13.86.78,19.33,10,26.27,21.59l.86,1.44,4.44,7.49c7.54,12.72,17.88,30.19,28.62,46.13,7.72,11.47,17.36,18.06,29.46,20.15,8.64,1.5,25.88.92,32.37-1.07l7.78-2,2.94-.76L462.16,546c-4.32-1.32-11.13-4.31-20.28-14.89-5.68-6.54-14.85-21.18-28.73-43.34l-13.76-21.9-.27-.39c-3.68-5.37-9.83-14.09-20.18-19.63,19.87-6.5,39.39-24.61,39.39-51.59a47.6,47.6,0,0,0-15.11-34.79c-13.32-12.63-34.06-19-61.67-19l-58,0Zm60.38,19.12c36.2,1.53,37.24,32.14,37.24,35.61,0,30.8-22.75,41.73-42.22,41.73l-14.15-.3V359.89A156.54,156.54,0,0,1,343.94,359.56Zm300.73-19.12h-1l.66,5.26.41.2c3.08,1.53,6,9.13,6,15.63l-.21,191.06H711c39.93,0,73-12.43,95.57-35.92a107,107,0,0,0,29.52-73.48c0-16.42-5.54-41.24-21.09-61.58-20.85-27.31-53.91-41.16-98.28-41.16Zm41.82,20.36,18.93.05c5,.07,17.76.38,26.7,1.73C791.54,371.58,798,422,798,443.2c0,17.4-3.1,42.16-17.88,61.32-14.49,18.81-37.21,28.33-67.55,28.33-7.23,0-16.23,0-26-.47V360.8Zm222.69-20.36H867.72l.14,5.13.47.24c3.82,1.9,6.29,8.79,6.29,17.56V552.58H910l0-212.16-.87,0Zm712.83,0h-41.72l.42,4.77.43.22c3.76,1.88,6.29,9.08,6.29,17.94V552.58h35.39l0-212.16-.86,0Zm-1023.08,0H480.33l.67,5,.4.2c3.24,1.6,6.59,9.1,6.59,18.86l0,188.11H606.43L615,515l-4.77-1.71-1.35,2.09c-9.8,15.41-19.75,17.46-54.11,17.46a281.38,281.38,0,0,1-31.67-1.52V444.73h59.92V425.61H523.14v-66l48.58.55c10.95,0,23,10.48,24,16.8l.13.74,4.85-.12-1-37.18h-.86Zm1516.3,0H1997l.24,5.42.47.21c3.18,1.61,6.58,8.6,6.58,18.4l0,188.11h118.45l8.62-37.63-5.34-1.66-1.32,2.07c-9.8,15.41-19.65,17.46-53.55,17.46a281.05,281.05,0,0,1-31.66-1.52V444.73h59.92V425.61h-59.92v-66l48.58.55c13.41,0,23.48,10.22,23.48,16.85v.92l5.52-.37-.95-37.14-.88,0ZM1209.4,300.77c-12.48,9-27.42,25.47-27.71,53.15v.82c0,34,21.69,51.92,56.64,69.65l-.12-.35c.9.74,3.94,2.31,13.43,7.15,29.19,14.65,50.27,25.24,50.27,55,0,10.22-3.87,25-14.68,35.67-9,8.92-21.11,13.36-36,13.2-44.55-.46-60.32-39.51-65-56.31l-.81-2.9-7.49,1.24,2.07,55.45,1.62.92c14.21,8.27,38,22.1,72.09,22.45,24.14.24,48.62-9.59,65.48-26.29,14.82-14.66,22.64-33.24,22.64-53.73,0-45-32.22-61.86-66.38-79.73l-6.41-3.37c-35-17.57-51.44-28.26-51.21-50.31.16-15,11.44-38.66,41.06-38.36,34.44.34,53.47,26.27,57.35,42.5l.7,2.94,7.42-.95-2.53-48-1.38-.94c-20.4-13.75-46-15.46-56-15.56-20-.2-40,5.85-55,16.62Zm469.73,93.32c-.29,29.39,17.35,44.28,45.93,58.78l10.79,5.48c22.5,11.31,37.38,18.77,37.38,39.9,0,3.69-.76,16.48-10.57,26.21-6.81,6.74-16.25,10.09-28,10-33.75-.33-46.13-26.58-50.52-42.19l-.83-2.92-7.16,1.19,1.66,44.68,1.63.92c11.24,6.55,30.06,17.48,57.12,17.77A74.24,74.24,0,0,0,1788.59,533a59.12,59.12,0,0,0,18-42.82c0-37.15-25.71-50.6-52.91-64.86l-4.81-2.53c-29.22-14.67-39.42-21.26-39.25-37.64.11-11.51,8.72-28.5,32-28.27,28.43.28,40.84,20.85,43.45,31.7l.69,2.95,7.16-.92-2-38.82-1.39-.92c-16.23-10.94-36.53-12.31-44.52-12.37-31.65-.34-65.47,19.06-65.85,55.63Zm158.85,0c-.29,29.38,17.35,44.28,45.94,58.79l10.77,5.47c22.52,11.31,37.39,18.78,37.39,39.9,0,3.69-.78,16.48-10.58,26.21-6.8,6.74-16.25,10.09-28,10-33.73-.33-46.13-26.58-50.52-42.19l-.84-2.92L1835,490.5l1.67,44.67,1.62.93c11.25,6.55,30.08,17.48,57.12,17.77A74.18,74.18,0,0,0,1947.43,533a59.09,59.09,0,0,0,18-42.82c0-37.15-25.69-50.6-52.91-64.86l-4.8-2.53c-29.23-14.67-39.43-21.26-39.27-37.64a28.81,28.81,0,0,1,8.55-19.83c5.71-5.63,13.83-8.55,23.45-8.44,28.44.28,40.83,20.85,43.41,31.71l.73,2.94,7.14-.92-2-38.82-1.4-.92c-16.23-10.94-36.54-12.31-44.5-12.37-31.65-.34-65.48,19.06-65.86,55.63Zm-304-53.83-27.88.19.45,4.77.43.21c1.4.7,6,4,6,17.43l.17,120.59c0,23.36-8.57,51.22-49.39,51.22-38.55,0-46.46-23.06-46.46-57.69l0-136.53h-44.1l.32,4.72.42.23c2.82,1.49,7.58,7.09,7.58,18.55V477c0,70.22,46.15,78.34,80.88,78.34,17,0,72.29-5.14,72.29-71.34l.16-143.72Zm885.67-60.42a435,435,0,0,1,79.17,34.75C2430.69,202,2308.79,79.44,2189.18,0,2220,30.52,2270.05,97.71,2283,169.76c49,34.91,95.24,72.06,136.63,110.08Zm-.08,0c-58.45-18.81-108.27-19.75-145.25-15.94,13-30.5,14.33-62.67,8.73-94-90.52-64.48-190.28-121.47-286.2-162.15,70.39,47.66,148,185.14,180.55,332.62,69.37-20.55,176.23-34.72,314,11.63-21.66-24.18-45.77-48.36-71.79-72.21Z"/><path class="cls-2" d="M2283,169.76c5.65,31.33,4.32,63.55-8.7,94.1,37-3.81,86.85-2.86,145.34,16-41.4-38-87.64-75.17-136.64-110.08Z"/></g></g></svg>