<svg xmlns="http://www.w3.org/2000/svg" viewBox="0 0 365.06 39.8"><defs><style>.cls-1{fill:#43494d;}.cls-2{fill:#277656;}</style></defs><g id="Layer_2" data-name="Layer 2"><g id="Layer_1-2" data-name="Layer 1"><path class="cls-1" d="M38.36,25.6l6.2-3.3,4.6,9.6h-6.9a2.24,2.24,0,0,1-1.9-1.2,29.76,29.76,0,0,0-2-5.1"/><rect class="cls-1" x="0.56" y="34.9" width="50.2" height="4.5"/><path class="cls-1" d="M41.86,15.8,36.66,4.3h-7.5L18.56,24.1s5.2-.2,8.5-2.7c.8-.5,3-6.4,5.2-10.6.2-.5.3,0,.3,0l3.2,8.1a101.9,101.9,0,0,1-12.6,5.7c-6.9,2-15.3,3.2-18.3.5C2.06,22.6,8.56,12,21,9.7a8.66,8.66,0,0,1,3.2-.3s-1-3.9-1.5-4.4a3.32,3.32,0,0,0-3.2-1.2C16.76,4,5.36,7,.86,16.5c-2.5,5.4,1,11.1,3.2,12.6.7.5,7.4,6.4,22.3.6a161.24,161.24,0,0,0,28-14.8v-6c.1,0-5.7,3.3-12.5,6.9"/><path class="cls-2" d="M54.46,6.5s-7.9,4.5-9.7,5.2-2.4-.2-2.5-.5A24.65,24.65,0,0,1,41,7.9a8.63,8.63,0,0,0,1.5-.2c1.2-.3,12.1-6.4,12.1-6.4V6.5"/><path class="cls-2" d="M83.76,5.3V9.1C80,7.8,74,6.4,70.76,10a6.75,6.75,0,0,0-.9,6.7c1.1,2.7,4,3.6,6.7,3.7a21.11,21.11,0,0,0,7.1-1.1V23c-5.2,1.7-12.6,2.4-16.9-1.8a9.74,9.74,0,0,1-2.9-6.2,14,14,0,0,1,.4-4.1l.3-.9.1-.3c2.5-4.5,7.4-6.1,12.4-5.8a26.46,26.46,0,0,1,6.7,1.4"/><path class="cls-2" d="M130.06,7.8h-14V20.4h14.7l-1.5,3.5h-18.1V4.5h17.7l1.2,3.3"/><path class="cls-2" d="M127.46,12.4c-.8,1.1-1.3,2.6-2.8,3l-1.2.1h-7.1c.6-.9,1.1-1.8,1.7-2.7a2.9,2.9,0,0,1,2.4-.7h7.1l-.1.3"/><path class="cls-2" d="M99.36,4.3c2.8.1,5.9.7,7.1,3.5a6,6,0,0,1-.3,5.5c-.8,1.2-3.4,2.2-3.4,2.2l5.3,8.3h-5.6L98,16.9l-.2-.1h-4.7s1-2.5,2.1-3.3c2.3-.4,5.9.5,6.5-2.6a2.28,2.28,0,0,0-.9-2.2c-1.1-.8-2.5-.6-3.9-.7h-5V23.8h-5.1V4.3h12.6"/><polyline class="cls-2" points="121.26 0 118.76 3.6 122.46 3.6 125.96 0 121.26 0"/><path class="cls-2" d="M147,8.9c-2.4-1.3-5.3-1-8.2-1V20.4c4,0,8.7.5,10.4-3.6a6.9,6.9,0,0,0-.6-6.4A3.86,3.86,0,0,0,147,8.9m7.2,1.1c1.5,3.3,1,7.8-1.4,10.4-2.5,2.8-5.9,3.4-9.5,3.4h-9.4V4.3h5.8c5.6,0,12-.1,14.5,5.7"/><rect class="cls-2" x="158.86" y="4.3" width="5.2" height="19.5"/><path class="cls-2" d="M187.06,4.3a13.9,13.9,0,0,1-1.2,2.8c-.4.5-1.1.5-1.7.6h-5V23.8h-5V7.7h-7.6s1-2.3,1.5-3.4h19"/><path class="cls-2" d="M208.86,4.3c.8,1.8,9.2,19.5,9.2,19.5h-5.5l-7.2-16c-.6,1.1-3.6,8.1-3.6,8.1h6.8c-.7,1.3-1.2,3.3-3,3.5h-5.5c-.7,1.4-1.4,3-2.1,4.4h-5.1l9.3-19.5h6.7"/><path class="cls-2" d="M239.06,5.3V9.1c-3.9-1.1-9.2-2.3-13,0a6.54,6.54,0,0,0-2.4,6.9,5.75,5.75,0,0,0,2.4,3.5c2.7,1.8,6.4,1.3,9.5.7V16h-6.2a7.81,7.81,0,0,1,1.4-2.9,2.57,2.57,0,0,1,1.2-.5h8.2V22.9c-5.7,1.4-13.6,2.7-18.7-1-2.9-2.4-3.8-5.8-3.4-9.4.4-3.3,3.4-6.4,6.5-7.4,4.6-1.6,10.1-1.2,14.5.2"/><path class="cls-2" d="M257.06,4.3c2.8.1,5.9.7,7.1,3.5a6,6,0,0,1-.3,5.5c-.8,1.2-3.4,2.2-3.4,2.2l5.3,8.3h-5.6l-4.5-6.9-.2-.1h-4.7s1-2.5,2.1-3.3c2.3-.4,6,.5,6.5-2.6a2.28,2.28,0,0,0-.9-2.2c-1.1-.8-2.5-.6-3.9-.7h-5V23.8h-5.1V4.3h12.6"/><rect class="cls-2" x="269.26" y="4.3" width="5.2" height="19.5"/><path class="cls-2" d="M297.86,5.3V9.1c-3.8-1.3-9.8-2.7-13,.9a6.75,6.75,0,0,0-.9,6.7c1.1,2.7,4,3.6,6.7,3.7a20.72,20.72,0,0,0,7.1-1.1V23c-5.2,1.7-12.6,2.4-16.8-1.8a9.74,9.74,0,0,1-2.9-6.2,14,14,0,0,1,.4-4.1,3.55,3.55,0,0,1,.4-.9l.1-.3c2.5-4.5,7.4-6.1,12.4-5.8a27.85,27.85,0,0,1,6.5,1.4"/><path class="cls-2" d="M364.36,7.8h-14V20.4h14.7l-1.5,3.5h-18.1V4.5h17.8l1.1,3.3"/><path class="cls-2" d="M361.76,12.4c-.8,1.1-1.3,2.6-2.8,3l-1.2.1h-7.1c.6-.9,1.1-1.8,1.7-2.7a2.9,2.9,0,0,1,2.4-.7h7.1l-.1.3"/><path class="cls-2" d="M332.06,20.3h11.3l-1.6,3.5h-14.9V4.3h5.2v16"/><path class="cls-2" d="M314.46,7.8a7.34,7.34,0,0,0-7.4,1.2,7.83,7.83,0,0,0-1.5,7.9,6.26,6.26,0,0,0,4.4,3.8,6.94,6.94,0,0,0,6.9-2.2,8,8,0,0,0,.3-8.4,6,6,0,0,0-2.7-2.3m8.1,1.8a10.39,10.39,0,0,1-1.1,10.6c-3.1,3.8-8,4.4-12.7,3.9-3.4-.6-7.1-2.5-8.4-6a10.21,10.21,0,0,1,1.1-10c3.2-4,8.3-4.7,13.2-4,3.2.6,6.5,2.3,7.9,5.5"/><path class="cls-1" d="M71.46,39.7c-3.6,0-6.3-2-6.3-5.3s2.9-5.3,6.2-5.3a13.55,13.55,0,0,1,4.1.7V32a9.37,9.37,0,0,0-3.6-.8c-2.2,0-3.8,1.3-3.8,3.2s1.5,3.3,4,3.3a21.49,21.49,0,0,0,3.4-.5V39a10.88,10.88,0,0,1-4,.7"/><path class="cls-1" d="M79.36,34.4a3.46,3.46,0,0,0,3.5,3.7,3.42,3.42,0,0,0,3.3-3.7,3.4,3.4,0,1,0-6.8,0m-2.9.1c0-3.2,2.4-5.3,6.4-5.3,3.4,0,6.2,2,6.2,5.4,0,2.7-2,5.2-6.2,5.2s-6.4-2.6-6.4-5.3"/><path class="cls-1" d="M94.06,35.7a9.14,9.14,0,0,1,.7-1.4,1.05,1.05,0,0,1,1-.4,8.64,8.64,0,0,0,1.5-.1c1-.2,1.3-.7,1.3-1.4,0-1.5-2.1-1.4-3.5-1.4h-1.6v8.5h-2.7V29.3h6.4c2.7,0,4.1,1.2,4.1,3.1a2.65,2.65,0,0,1-2.2,2.6l2.8,4.4h-3l-2.4-3.7h-2.4"/><path class="cls-1" d="M106.86,35.8c.2-.4.6-1.1.8-1.5s.5-.3,1.1-.3a7.6,7.6,0,0,0,1.4-.1c1-.2,1.3-.7,1.3-1.4,0-1.5-2.1-1.4-3.4-1.4h-1.6v8.4h-2.7V29.3h6.4c2.7.1,4.1,1.3,4.1,3.2a3.8,3.8,0,0,1-3,3.2,22.62,22.62,0,0,1-4.4.1"/><path class="cls-1" d="M117.86,34.4a3.46,3.46,0,0,0,3.5,3.7,3.36,3.36,0,0,0,3.3-3.7,3.29,3.29,0,0,0-3.3-3.4,3.34,3.34,0,0,0-3.5,3.4m-2.8.1c0-3.2,2.4-5.3,6.4-5.3,3.4,0,6.2,2,6.2,5.4,0,2.7-2,5.2-6.2,5.2s-6.4-2.6-6.4-5.3"/><path class="cls-1" d="M132.56,35.7a9.14,9.14,0,0,1,.7-1.4,1.05,1.05,0,0,1,1-.4,8.64,8.64,0,0,0,1.5-.1c1-.2,1.3-.7,1.3-1.4,0-1.5-2.1-1.4-3.4-1.4h-1.6v8.5h-2.7V29.3h6.4c2.7,0,4.1,1.2,4.1,3.1a2.65,2.65,0,0,1-2.2,2.6l2.8,4.4h-3l-2.4-3.7h-2.5"/><path class="cls-1" d="M151,39.5l-3.6-8.3-2,4.3H149c-.7,1.7-1.2,1.8-2.2,1.8h-2.2l-1,2.3h-2.7l4.9-10.2h3.5L154,39.6h-3"/><path class="cls-1" d="M156.76,31h-4l.9-1.8h10a5.11,5.11,0,0,1-.7,1.4c-.3.5-1.1.5-1.8.5h-1.8v8.4h-2.7V31"/><path class="cls-1" d="M168.46,34.2c.5-.8.6-.7,2.5-.7h2.8l-.9,1.2a1.17,1.17,0,0,1-1.1.5h-3.9l.6-1Zm-3.4-5h9.4l.7,1.8h-7.4v6.6h7.7l-.8,1.8h-9.5V29.2"/><rect class="cls-1" x="194.36" y="29.2" width="2.7" height="10.2"/><polyline class="cls-1" points="199.96 29.2 203.26 29.2 207.86 36.2 207.86 29.2 210.16 29.2 210.16 39.5 207.26 39.5 202.16 32 202.16 39.5 199.96 39.5 199.96 29.2"/><polyline class="cls-1" points="211.66 29.2 214.66 29.2 217.86 36.8 221.16 29.2 223.86 29.2 219.16 39.5 216.26 39.5 211.66 29.2"/><path class="cls-1" d="M228.76,34.2c.5-.8.6-.7,2.5-.7h2.8l-.9,1.2a1.17,1.17,0,0,1-1.1.5h-3.9l.6-1Zm-3.4-5h9.4l.7,1.8h-7.4v6.6h7.7l-.8,1.8h-9.5V29.2"/><path class="cls-1" d="M240.56,37.8c1.3.1,3.3,0,3.3-1,0-1.5-2.7-1.3-3.6-1.4-1.1-.2-3.3-.8-3.3-3s2.6-3.2,4.9-3.2a10.21,10.21,0,0,1,4,.9V32a14.29,14.29,0,0,0-4.4-.9c-.8,0-1.9.3-1.9,1,0,1.5,3.5,1.2,4.8,1.5a2.81,2.81,0,0,1,2.2,2.7c0,2.2-2.1,3.2-4.4,3.4a14.46,14.46,0,0,1-4.7-.7l-.3-2a14,14,0,0,0,3.4.8"/><path class="cls-1" d="M250.66,31h-3.9l.9-1.8h10a5.11,5.11,0,0,1-.7,1.4c-.3.5-1.1.5-1.8.5h-1.8v8.4h-2.7V31"/><polyline class="cls-1" points="258.66 29.2 262.36 29.2 265.26 36.2 268.16 29.2 271.76 29.2 271.76 39.5 269.46 39.5 269.46 31.7 266.26 39.5 264.26 39.5 260.86 31.9 260.86 39.5 258.66 39.5 258.66 29.2"/><path class="cls-1" d="M278.06,34.2c.5-.8.6-.7,2.5-.7h2.8l-.9,1.2a1.17,1.17,0,0,1-1.1.5h-3.9l.6-1Zm-3.4-5h9.4l.7,1.8h-7.4v6.6h7.7l-.8,1.8h-9.5V29.2"/><polyline class="cls-1" points="286.66 29.2 289.96 29.2 294.66 36.2 294.66 29.2 296.96 29.2 296.96 39.5 293.96 39.5 288.86 32 288.86 39.5 286.66 39.5 286.66 29.2"/><path class="cls-1" d="M301.76,31h-3.9l.9-1.8h10a5.11,5.11,0,0,1-.7,1.4c-.3.5-1.1.5-1.8.5h-1.8v8.4h-2.7V31"/><path class="cls-1" d="M321,37.7c1,0,2.2-.4,2.2-1.4s-1.2-1.4-2.2-1.4h-2.5c.4-1.1.9-1.6,1.6-1.6h.8c.8,0,1.7-.5,1.7-1.2,0-.9-1.1-1.3-2.1-1.3h-2.9v6.9Zm-5.9-8.5h6.5c3.7,0,4.5,3.6,2.3,4.6a2.53,2.53,0,0,1,1.9,2.6c0,1.7-1.5,3-3.8,3h-6.9V29.2"/><path class="cls-1" d="M336.46,39.5l-3.6-8.3-2,4.3h3.6c-.7,1.7-1.2,1.8-2.2,1.8h-2.2l-1,2.3h-2.7l4.9-10.2h3.4l4.7,10.2h-2.9"/><polyline class="cls-1" points="340.46 29.2 343.76 29.2 348.36 36.2 348.36 29.2 350.66 29.2 350.66 39.5 347.76 39.5 342.66 32 342.66 39.5 340.46 39.5 340.46 29.2"/><polyline class="cls-1" points="357.86 35 356.26 36.1 356.26 39.5 353.56 39.5 353.56 29.2 356.26 29.2 356.26 33.6 361.36 29.2 364.46 29.2 359.86 33.4 364.46 39.5 361.36 39.5 357.86 35"/><path class="cls-1" d="M183.16,32.5a1.84,1.84,0,0,0,.9-1.4.82.82,0,0,0-.9-.8.79.79,0,0,0-.8.8,2.25,2.25,0,0,0,.8,1.4m-.6,2.7a1.74,1.74,0,0,0-.9,1.4,1.32,1.32,0,0,0,1.3,1.3,1.61,1.61,0,0,0,1.1-.5Zm3,.6a2.3,2.3,0,0,0,.4-1.4h2.1a4.77,4.77,0,0,1-1.2,3.1l1.4,1.9h-2.6l-.5-.6a4.52,4.52,0,0,1-2.6.9,2.86,2.86,0,0,1-3.2-2.9c0-1.5.8-2.2,2-3.1a4.78,4.78,0,0,1-1-2.3c0-1.6,1.3-2.5,2.9-2.5s2.8.8,2.8,2.4c0,1.3-.9,2-1.8,2.8l1.3,1.7"/></g></g></svg>