<?xml version="1.0" encoding="UTF-8"?>
<svg xmlns="http://www.w3.org/2000/svg" xmlns:xlink="http://www.w3.org/1999/xlink" width="774.24pt" height="97.97pt" viewBox="0 0 774.24 97.97" version="1.1">
<defs>
<clipPath id="clip1">
  <path d="M 220 0 L 319 0 L 319 97.96875 L 220 97.96875 Z M 220 0 "/>
</clipPath>
<clipPath id="clip2">
  <path d="M 734 15 L 774.238281 15 L 774.238281 75 L 734 75 Z M 734 15 "/>
</clipPath>
</defs>
<g id="surface1">
<path style=" stroke:none;fill-rule:nonzero;fill:rgb(0%,33.332825%,64.704895%);fill-opacity:1;" d="M 40.695313 74.8125 L 24.496094 74.8125 C 15.359375 74.8125 8.789063 72.140625 4.773438 66.816406 C 1.589844 62.523438 0 56.257813 0 48.027344 C 0 30.238281 8.164063 21.34375 24.496094 21.34375 L 40.695313 21.34375 C 40.695313 25.152344 40.382813 27.367188 39.761719 27.984375 C 39.210938 28.609375 37.167969 28.925781 33.636719 28.925781 L 24.496094 28.925781 C 18.753906 28.925781 15.191406 29.128906 13.804688 29.542969 C 11.730469 30.097656 10.417969 31.691406 9.863281 34.320313 C 9.511719 36.257813 9.339844 40.820313 9.339844 48.027344 C 9.339844 54.179688 10.308594 58.71875 12.246094 61.621094 C 14.601563 65.292969 18.6875 67.128906 24.496094 67.128906 L 33.117188 67.128906 C 36.921875 67.128906 39.136719 67.441406 39.761719 68.066406 C 40.382813 68.6875 40.695313 70.9375 40.695313 74.8125 "/>
<path style=" stroke:none;fill-rule:nonzero;fill:rgb(0%,33.332825%,64.704895%);fill-opacity:1;" d="M 70.074219 31.828125 C 70.074219 35.703125 69.832031 37.949219 69.347656 38.582031 C 68.933594 39.128906 67.304688 39.40625 64.46875 39.40625 C 60.941406 39.40625 58.757813 40.136719 57.925781 41.585938 C 57.304688 42.765625 56.992188 45.914063 56.992188 51.039063 L 56.992188 74.601563 C 52.566406 74.601563 49.96875 74.292969 49.203125 73.667969 C 48.511719 73.042969 48.171875 70.898438 48.171875 67.230469 L 48.171875 32.039063 C 51.5625 32.039063 53.535156 32.28125 54.085938 32.757813 C 54.640625 33.246094 54.914063 34.976563 54.914063 37.949219 C 57.066406 33.519531 62.117188 31.480469 70.074219 31.828125 "/>
<path style=" stroke:none;fill-rule:evenodd;fill:rgb(0%,33.332825%,64.704895%);fill-opacity:1;" d="M 111.5 49.789063 C 111.5 53.320313 111.121094 55.394531 110.355469 56.015625 C 109.59375 56.570313 106.933594 56.851563 102.363281 56.851563 L 80.148438 56.851563 C 80.148438 60.101563 81.148438 62.699219 83.160156 64.632813 C 85.234375 66.570313 88.171875 67.546875 91.984375 67.546875 L 101.324219 67.546875 C 104.785156 67.546875 106.792969 67.855469 107.347656 68.472656 C 107.972656 69.03125 108.28125 71.105469 108.28125 74.707031 L 92.292969 74.707031 C 78.242188 74.707031 71.21875 67.546875 71.21875 53.21875 C 71.21875 38.746094 78.308594 31.519531 92.503906 31.519531 C 98.660156 31.519531 103.441406 33.28125 106.832031 36.8125 C 109.941406 40.0625 111.5 44.394531 111.5 49.789063 Z M 102.363281 49.789063 C 102.433594 49.648438 102.433594 49.585938 102.363281 49.585938 C 102.503906 42.105469 98.9375 38.367188 91.667969 38.367188 C 85.996094 38.367188 82.636719 38.851563 81.601563 39.824219 C 80.628906 40.792969 80.148438 44.117188 80.148438 49.789063 L 102.363281 49.789063 "/>
<path style=" stroke:none;fill-rule:evenodd;fill:rgb(0%,33.332825%,64.704895%);fill-opacity:1;" d="M 157.386719 74.601563 C 153.996094 74.601563 152.023438 74.363281 151.46875 73.878906 C 150.914063 73.320313 150.636719 71.519531 150.636719 68.472656 C 148.285156 72.90625 142.851563 75.121094 134.339844 75.121094 C 122.226563 75.121094 116.167969 67.820313 116.167969 53.21875 C 116.167969 38.609375 122.191406 31.308594 134.238281 31.308594 C 141.433594 31.308594 146.238281 33.246094 148.667969 37.125 L 148.667969 15.839844 C 153.027344 15.839844 155.554688 16.152344 156.246094 16.773438 C 157.007813 17.398438 157.386719 19.578125 157.386719 23.316406 Z M 148.769531 53.21875 C 148.769531 48.507813 148.039063 45.082031 146.589844 42.9375 C 144.789063 40.167969 141.570313 38.789063 136.9375 38.789063 C 131.050781 38.789063 127.628906 39.40625 126.65625 40.65625 C 125.6875 41.828125 125.203125 46.015625 125.203125 53.21875 C 125.203125 57.992188 125.933594 61.484375 127.382813 63.699219 C 129.183594 66.398438 132.328125 67.746094 136.832031 67.746094 C 142.78125 67.746094 146.238281 67.164063 147.214844 65.988281 C 148.253906 64.742188 148.769531 60.484375 148.769531 53.21875 "/>
<path style=" stroke:none;fill-rule:evenodd;fill:rgb(0%,33.332825%,64.704895%);fill-opacity:1;" d="M 174.933594 74.601563 C 170.503906 74.601563 167.90625 74.292969 167.144531 73.667969 C 166.453125 73.042969 166.105469 70.828125 166.105469 67.023438 L 166.105469 32.039063 C 170.53125 32.039063 173.101563 32.347656 173.789063 32.972656 C 174.550781 33.519531 174.933594 35.632813 174.933594 39.304688 Z M 174.933594 29.335938 C 170.503906 29.335938 167.90625 29.023438 167.144531 28.40625 C 166.453125 27.78125 166.105469 25.566406 166.105469 21.757813 L 166.105469 18.847656 C 170.886719 18.847656 173.441406 18.957031 173.789063 19.164063 C 174.550781 19.578125 174.933594 21.519531 174.933594 24.976563 L 174.933594 29.335938 "/>
<path style=" stroke:none;fill-rule:nonzero;fill:rgb(0%,33.332825%,64.704895%);fill-opacity:1;" d="M 205.765625 32.039063 C 205.765625 35.632813 205.457031 37.75 204.832031 38.367188 C 204.28125 38.992188 202.203125 39.304688 198.601563 39.304688 L 194.449219 39.304688 L 194.449219 62.351563 C 194.449219 65.742188 195.835938 67.441406 198.601563 67.441406 C 201.992188 67.441406 203.964844 67.746094 204.519531 68.371094 C 205.074219 68.996094 205.351563 71.179688 205.351563 74.914063 C 203.964844 74.980469 202.6875 75.015625 201.507813 75.015625 C 195.835938 75.015625 191.714844 74.050781 189.15625 72.113281 C 186.660156 70.105469 185.417969 66.851563 185.417969 62.351563 L 185.417969 39.40625 L 179.710938 39.40625 L 179.8125 34.113281 C 182.859375 34.113281 184.554688 33.902344 184.898438 33.492188 C 185.242188 33.078125 185.417969 31.554688 185.417969 28.925781 L 185.417969 21.34375 L 194.242188 21.34375 L 194.242188 32.039063 L 205.765625 32.039063 "/>
<g clip-path="url(#clip1)" clip-rule="nonzero">
<path style=" stroke:none;fill-rule:nonzero;fill:rgb(100%,100%,100%);fill-opacity:1;" d="M 318.4375 48.980469 C 318.4375 76.039063 296.503906 97.96875 269.449219 97.96875 C 242.398438 97.96875 220.464844 76.039063 220.464844 48.980469 C 220.464844 21.933594 242.398438 0 269.449219 0 C 296.503906 0 318.4375 21.933594 318.4375 48.980469 "/>
</g>
<path style=" stroke:none;fill-rule:nonzero;fill:rgb(93.72406%,24.313354%,25.881958%);fill-opacity:1;" d="M 246.96875 48.980469 L 269.449219 71.460938 L 291.929688 48.980469 L 269.449219 26.503906 Z M 223.933594 48.980469 C 223.933594 23.84375 244.3125 3.464844 269.449219 3.464844 C 294.59375 3.464844 314.976563 23.84375 314.976563 48.980469 C 314.976563 74.128906 294.59375 94.503906 269.449219 94.503906 C 244.3125 94.503906 223.933594 74.128906 223.933594 48.980469 "/>
<path style=" stroke:none;fill-rule:evenodd;fill:rgb(93.72406%,24.313354%,25.881958%);fill-opacity:1;" d="M 634.710938 59.128906 C 634.710938 69.515625 627.652344 74.707031 613.53125 74.707031 L 601.070313 74.707031 C 596.78125 74.707031 594.257813 74.394531 593.496094 73.769531 C 592.800781 73.152344 592.457031 70.96875 592.457031 67.230469 L 592.457031 29.023438 C 592.457031 25.21875 592.800781 23 593.496094 22.378906 C 594.257813 21.757813 596.78125 21.445313 601.070313 21.445313 L 613.222656 21.445313 C 626.4375 21.445313 633.046875 26.085938 633.046875 35.355469 C 633.046875 41.585938 630.695313 45.253906 625.992188 46.367188 C 628.6875 47.125 630.867188 48.789063 632.53125 51.34375 C 633.980469 53.632813 634.710938 56.226563 634.710938 59.128906 Z M 624.121094 36.605469 C 624.121094 31.554688 620.589844 29.023438 613.53125 29.023438 L 601.589844 29.023438 L 601.589844 44.078125 L 614.050781 44.078125 C 619.105469 44.078125 622.046875 43.769531 622.878906 43.144531 C 623.703125 42.523438 624.121094 40.34375 624.121094 36.605469 Z M 625.363281 59.027344 C 625.363281 53.773438 621.597656 51.140625 614.050781 51.140625 L 601.589844 51.140625 L 601.589844 67.230469 L 613.839844 67.230469 C 619.589844 67.230469 622.941406 66.886719 623.914063 66.191406 C 624.878906 65.5 625.363281 63.117188 625.363281 59.027344 "/>
<path style=" stroke:none;fill-rule:evenodd;fill:rgb(93.72406%,24.313354%,25.881958%);fill-opacity:1;" d="M 679.769531 74.601563 C 676.445313 74.601563 674.503906 74.328125 673.957031 73.769531 C 673.402344 73.21875 673.125 71.347656 673.125 68.167969 C 672.015625 70.035156 670.109375 71.589844 667.414063 72.839844 C 664.296875 74.292969 660.699219 75.015625 656.617188 75.015625 C 651.765625 75.015625 647.855469 73.976563 644.882813 71.902344 C 641.632813 69.621094 640.003906 66.367188 640.003906 62.144531 C 640.003906 57.925781 641.390625 54.5625 644.15625 52.074219 C 647.199219 49.371094 651.703125 48.027344 657.652344 48.027344 L 671.046875 48.027344 C 671.046875 44.914063 670.109375 42.695313 668.242188 41.378906 C 666.445313 40.0625 663.503906 39.40625 659.417969 39.40625 L 650.695313 39.40625 C 647.445313 39.40625 645.539063 39.128906 644.984375 38.582031 C 644.4375 37.949219 644.15625 35.84375 644.15625 32.242188 L 659.109375 32.242188 C 667.066406 32.242188 672.605469 33.875 675.71875 37.125 C 678.414063 39.824219 679.769531 44.25 679.769531 50.414063 Z M 671.046875 56.335938 L 671.046875 54.980469 L 659.003906 54.980469 C 654.089844 54.980469 651.214844 55.296875 650.390625 55.914063 C 649.554688 56.472656 649.140625 58.507813 649.140625 62.042969 C 649.140625 66.125 652.328125 68.167969 658.691406 68.167969 C 664.851563 68.167969 668.449219 67.683594 669.492188 66.710938 C 670.527344 65.667969 671.046875 62.214844 671.046875 56.335938 "/>
<path style=" stroke:none;fill-rule:nonzero;fill:rgb(93.72406%,24.313354%,25.881958%);fill-opacity:1;" d="M 726.382813 74.601563 C 721.949219 74.601563 719.355469 74.292969 718.597656 73.667969 C 717.902344 73.042969 717.554688 70.863281 717.554688 67.128906 L 717.554688 50.929688 C 717.554688 46.710938 716.972656 43.769531 715.792969 42.105469 C 714.269531 39.964844 711.398438 38.886719 707.175781 38.886719 C 701.714844 38.886719 698.488281 39.40625 697.519531 40.445313 C 696.617188 41.417969 696.171875 44.914063 696.171875 50.929688 L 696.171875 74.601563 C 691.738281 74.601563 689.144531 74.292969 688.382813 73.667969 C 687.691406 73.042969 687.34375 70.863281 687.34375 67.128906 L 687.34375 32.136719 C 690.738281 32.136719 692.710938 32.378906 693.265625 32.867188 C 693.816406 33.355469 694.09375 35.078125 694.09375 38.058594 C 696.3125 33.695313 701.503906 31.519531 709.667969 31.519531 C 716.175781 31.519531 720.710938 33.355469 723.265625 37.019531 C 725.34375 40.0625 726.382813 44.945313 726.382813 51.660156 L 726.382813 74.601563 "/>
<g clip-path="url(#clip2)" clip-rule="nonzero">
<path style=" stroke:none;fill-rule:evenodd;fill:rgb(93.72406%,24.313354%,25.881958%);fill-opacity:1;" d="M 774.242188 74.601563 C 768.496094 74.601563 765.039063 74.460938 763.859375 74.1875 C 762.410156 73.839844 760.816406 72.699219 759.085938 70.765625 L 745.585938 55.5 C 744.480469 54.257813 743.921875 53.21875 743.921875 52.386719 C 743.921875 51.554688 744.480469 50.515625 745.585938 49.269531 L 760.644531 31.933594 L 772.585938 31.933594 L 752.132813 52.179688 Z M 743.203125 74.601563 C 738.769531 74.601563 736.175781 74.292969 735.414063 73.667969 C 734.722656 73.042969 734.378906 70.863281 734.378906 67.128906 L 734.378906 15.839844 C 738.804688 15.839844 741.367188 16.152344 742.054688 16.773438 C 742.820313 17.324219 743.203125 19.441406 743.203125 23.109375 L 743.203125 74.601563 "/>
</g>
<path style=" stroke:none;fill-rule:nonzero;fill:rgb(0%,33.332825%,64.704895%);fill-opacity:1;" d="M 369.421875 74.601563 L 341.488281 74.601563 C 336.988281 74.601563 334.359375 74.292969 333.601563 73.667969 C 332.835938 73.042969 332.453125 70.828125 332.453125 67.023438 L 332.453125 29.023438 C 332.453125 25.21875 332.835938 23 333.601563 22.378906 C 334.359375 21.757813 336.988281 21.445313 341.488281 21.445313 L 361.9375 21.445313 C 365.675781 21.445313 367.859375 21.757813 368.480469 22.378906 C 369.101563 23 369.421875 25.21875 369.421875 29.023438 L 341.488281 29.023438 L 341.488281 43.769531 L 359.449219 43.769531 C 363.117188 43.769531 365.265625 44.078125 365.882813 44.699219 C 366.507813 45.328125 366.820313 47.472656 366.820313 51.140625 L 341.488281 51.140625 L 341.488281 67.023438 L 361.316406 67.023438 C 365.402344 67.023438 367.753906 67.335938 368.378906 67.957031 C 369.070313 68.585938 369.421875 70.796875 369.421875 74.601563 "/>
<path style=" stroke:none;fill-rule:nonzero;fill:rgb(0%,33.332825%,64.704895%);fill-opacity:1;" d="M 415.199219 74.601563 C 411.808594 74.601563 409.835938 74.363281 409.28125 73.878906 C 408.726563 73.320313 408.449219 71.519531 408.449219 68.472656 C 406.164063 72.90625 400.976563 75.121094 392.878906 75.121094 C 386.300781 75.121094 381.734375 73.320313 379.175781 69.722656 C 377.097656 66.75 376.058594 61.9375 376.058594 55.296875 L 376.058594 32.039063 C 380.417969 32.039063 382.949219 32.347656 383.636719 32.972656 C 384.402344 33.597656 384.78125 35.84375 384.78125 39.71875 L 384.78125 56.015625 C 384.78125 60.167969 385.40625 63.042969 386.648438 64.632813 C 388.171875 66.644531 391.078125 67.648438 395.367188 67.648438 C 400.835938 67.648438 404.023438 67.164063 404.925781 66.191406 C 405.824219 65.152344 406.269531 61.621094 406.269531 55.605469 L 406.269531 32.039063 C 410.699219 32.039063 413.265625 32.347656 413.953125 32.972656 C 414.714844 33.597656 415.09375 35.84375 415.09375 39.71875 L 415.199219 74.601563 "/>
<path style=" stroke:none;fill-rule:nonzero;fill:rgb(0%,33.332825%,64.704895%);fill-opacity:1;" d="M 445.722656 31.828125 C 445.722656 35.703125 445.480469 37.949219 444.992188 38.582031 C 444.582031 39.128906 442.949219 39.40625 440.113281 39.40625 C 436.585938 39.40625 434.40625 40.136719 433.570313 41.585938 C 432.949219 42.765625 432.640625 45.914063 432.640625 51.039063 L 432.640625 74.601563 C 428.214844 74.601563 425.617188 74.292969 424.851563 73.667969 C 424.160156 73.042969 423.8125 70.898438 423.8125 67.230469 L 423.8125 32.039063 C 427.203125 32.039063 429.179688 32.28125 429.734375 32.757813 C 430.289063 33.246094 430.5625 34.976563 430.5625 37.949219 C 432.710938 33.519531 437.761719 31.480469 445.722656 31.828125 "/>
<path style=" stroke:none;fill-rule:evenodd;fill:rgb(0%,33.332825%,64.704895%);fill-opacity:1;" d="M 488.910156 53.320313 C 488.910156 67.855469 481.851563 75.121094 467.730469 75.121094 C 453.746094 75.121094 446.761719 67.855469 446.761719 53.320313 C 446.761719 38.851563 453.789063 31.621094 467.835938 31.621094 C 481.886719 31.621094 488.910156 38.851563 488.910156 53.320313 Z M 479.882813 53.320313 C 479.882813 48.75 479.121094 45.359375 477.597656 43.144531 C 475.726563 40.304688 472.476563 38.886719 467.835938 38.886719 C 461.8125 38.886719 458.285156 39.507813 457.246094 40.757813 C 456.277344 41.9375 455.789063 46.121094 455.789063 53.320313 C 455.789063 63.011719 459.773438 67.855469 467.730469 67.855469 C 473.824219 67.855469 477.351563 67.269531 478.320313 66.09375 C 479.363281 64.839844 479.882813 60.585938 479.882813 53.320313 "/>
<path style=" stroke:none;fill-rule:evenodd;fill:rgb(0%,33.332825%,64.704895%);fill-opacity:1;" d="M 537.085938 53.421875 C 537.085938 68.027344 531.097656 75.328125 519.125 75.328125 C 511.925781 75.328125 507.109375 73.394531 504.6875 69.515625 L 504.6875 91.003906 C 500.335938 91.003906 497.769531 90.695313 497.003906 90.070313 C 496.3125 89.519531 495.96875 87.40625 495.96875 83.738281 L 495.96875 32.039063 C 499.296875 32.039063 501.230469 32.316406 501.78125 32.867188 C 502.339844 33.355469 502.617188 35.113281 502.617188 38.164063 C 505.175781 33.730469 510.605469 31.519531 518.917969 31.519531 C 531.023438 31.519531 537.085938 38.820313 537.085938 53.421875 Z M 528.152344 53.421875 C 528.152344 48.644531 527.425781 45.117188 525.972656 42.835938 C 524.105469 40.136719 520.957031 38.789063 516.527344 38.789063 C 510.578125 38.789063 507.078125 39.40625 506.042969 40.65625 C 505.070313 41.898438 504.589844 46.15625 504.589844 53.421875 C 504.589844 58.203125 505.28125 61.660156 506.664063 63.800781 C 508.460938 66.570313 511.679688 67.957031 516.320313 67.957031 C 522.273438 67.957031 525.730469 67.371094 526.703125 66.191406 C 527.667969 64.949219 528.152344 60.691406 528.152344 53.421875 "/>
<path style=" stroke:none;fill-rule:evenodd;fill:rgb(0%,33.332825%,64.704895%);fill-opacity:1;" d="M 582.863281 49.789063 C 582.863281 53.320313 582.484375 55.394531 581.71875 56.015625 C 580.960938 56.570313 578.300781 56.851563 573.734375 56.851563 L 551.515625 56.851563 C 551.515625 60.101563 552.519531 62.699219 554.523438 64.632813 C 556.601563 66.570313 559.542969 67.546875 563.347656 67.546875 L 572.691406 67.546875 C 576.152344 67.546875 578.160156 67.855469 578.714844 68.472656 C 579.339844 69.03125 579.644531 71.105469 579.644531 74.707031 L 563.65625 74.707031 C 549.609375 74.707031 542.585938 67.546875 542.585938 53.21875 C 542.585938 38.746094 549.683594 31.519531 563.867188 31.519531 C 570.027344 31.519531 574.804688 33.28125 578.191406 36.8125 C 581.308594 40.0625 582.863281 44.394531 582.863281 49.789063 Z M 573.734375 49.789063 C 573.800781 49.648438 573.800781 49.585938 573.734375 49.585938 C 573.867188 42.105469 570.304688 38.367188 563.039063 38.367188 C 557.363281 38.367188 554.007813 38.851563 552.96875 39.824219 C 551.996094 40.792969 551.515625 44.117188 551.515625 49.789063 L 573.734375 49.789063 "/>
</g>
</svg>
