<?xml version="1.0" encoding="utf-8"?>
<!-- Generator: Adobe Illustrator 25.2.3, SVG Export Plug-In . SVG Version: 6.00 Build 0)  -->
<svg version="1.1" id="Layer_1" xmlns="http://www.w3.org/2000/svg" xmlns:xlink="http://www.w3.org/1999/xlink" x="0px" y="0px"
	 viewBox="0 0 600 88.5" style="enable-background:new 0 0 600 88.5;" xml:space="preserve">
<style type="text/css">
	.st0{fill:#003F63;enable-background:new    ;}
	.st1{fill:#FFFFFF;}
	.st2{fill:#003F63;}
</style>
<g id="Layer_2_1_">
	<g id="layer">
		<g id="Page-1">
			<g id="Topbar">
				<g id="Logo">
					<polygon id="Fill-2" class="st0" points="0,0 375.9,0 375.9,88.5 0,88.5 					"/>
					<path id="Fill-4" class="st1" d="M129.8,50.3c0,8.7-4.7,13-15.4,13H97.5V30.7h16.3c13,0,16,6.2,16,12.9V50.3z M136.7,50v-5.6
						c0-17.8-14.3-18.5-24-18.5H90.5v42.2h24.2C133.6,68.1,136.7,58.1,136.7,50z"/>
					<path id="Fill-5" class="st1" d="M174.3,57.7c0,2.5-0.2,4.7-3,5.7c-1.7,0.6-4.1,0.8-8.1,0.8s-6.4-0.4-7.8-1.3
						c-1-0.6-1.4-1.5-1.4-3.6c0-2.5,0.6-4,1.9-4.6s2.8-0.7,7.7-0.7h10.7L174.3,57.7L174.3,57.7z M180.8,68.1V51.6
						c0.1-2.3,0-4.6-0.3-6.9c-0.2-1.5-1-2.9-2.3-3.8c-3.1-2.4-10.8-2.5-14.7-2.5c-2.9,0-10.7,0.3-13.6,2.7c-0.9,0.7-1.3,1.8-1.2,2.9
						c0,0.8,0.1,1.8,0.2,3.1h6.4c0.1-0.8,0.3-2.6,1-3.3s2.3-1.1,6.7-1.1c5,0,8.5,0.2,9.9,0.9s1.3,2.3,1.3,3.6v2.9h-14.7
						c-4,0-8.5,0.1-11,3.4c-1.1,1.7-1.7,3.7-1.6,5.7c0,7,4.4,9.3,15.7,9.3c5.9,0,9.7-0.9,12.1-2.9l0.6,2.4L180.8,68.1L180.8,68.1z"
						/>
					<path id="Fill-6" class="st1" d="M220.1,68.1V52c0-5.6-0.3-6.8-1.6-7.8s-3.9-1.5-7.8-1.5c-3.5,0-7,0.4-10.4,1.3v24.1h-6.6V38.6
						h5.8l0.5,2.1c1.1-0.7,2.3-1.2,3.6-1.6c2.8-0.7,5.6-1,8.5-0.9c3.3-0.1,6.7,0.5,9.8,1.7c2.2,0.9,3.8,2.8,4.2,5.1
						c0.4,2,0.6,4.1,0.5,6.2v16.9H220.1"/>
					<path id="Fill-7" class="st1" d="M268.1,66.3c-3,1.5-7.8,2.1-14.2,2.1c-3.7,0.1-7.3-0.2-10.9-1c-3-0.7-4.5-2.1-4.7-4.6
						c-0.1-1.4,0-2.7,0.2-4.1h6.2c0.2,1.5,0.2,2,0.3,2.3c0.3,1.4,0.1,2.2,1.8,2.7c2.5,0.6,5,0.8,7.5,0.7c4.2,0,7-0.4,8.9-1.3
						c1.4-0.6,2-1.6,2-3.7c0-2.3-0.5-3.3-3-3.7c-0.8-0.1-1.6-0.1-2.3-0.2c-1.4-0.1-2.8-0.1-4.2-0.1c-1.1,0-2.3-0.1-3.8-0.1
						c-6.4-0.3-13.3-0.6-13.3-8c0-6.7,4.2-9,15.7-9c2.9,0,6.5,0.2,8.7,0.4c2,0.2,4,0.7,5.8,1.5c1.5,0.8,2,2.2,2,4.5
						c0,0.8,0,1.5-0.1,2.3h-6.3l-0.3-1.3c-0.3-1.6-0.5-1.9-1-2.3c-0.9-0.7-3.7-1-7.6-1s-6.2,0.2-8,0.8s-2.4,1.6-2.4,3.7
						c-0.1,1.1,0.3,2.3,1.2,3c1.7,1,10.6,0.9,13.6,1c2.5-0.1,4.9,0.3,7.3,1c3.3,1.1,4.6,3.2,4.6,7.5C271.9,62.8,270.8,65,268.1,66.3
						"/>
					<polyline id="Fill-8" class="st1" points="308,68.1 292.4,54.1 290.1,54.1 290.1,68.1 283.6,68.1 283.6,25.9 290.1,25.9 
						290.1,49.9 292.4,49.9 305.3,38.6 312.9,38.6 297.9,51.6 316.6,68.1 308,68.1 					"/>
					<path id="Fill-9" class="st1" d="M348.8,50.4H328c0.3-3.7,1-5.3,2.5-6.4s4.3-1.6,8.4-1.6c5.6,0,8.3,1.2,9.3,3.7
						C348.6,47.5,348.8,48.9,348.8,50.4z M354.7,58.9h-6.4c-0.2,0.9-0.3,3.2-1.2,4c-1,1-2.9,1.4-8.2,1.4c-5.1,0-8-0.7-9.4-2.1
						c-1.1-1.1-1.7-3.3-1.7-6.8v-0.8h27.1c0.1-1.5,0.1-1.8,0.1-3c0-4.9-0.7-7.6-2.9-9.7c-2.5-2.5-7.2-3.7-13.7-3.7
						c-8.3,0-13.4,1.8-15.6,5.9c-1.4,3.1-2,6.4-1.9,9.8c0,6.4,1.8,10.5,5.6,12.5c2.4,1.3,6.5,2,11.8,2c4,0.1,8-0.3,11.8-1.3
						c3.8-1.1,4.7-3.2,4.7-4.9C354.9,61.1,354.9,60,354.7,58.9L354.7,58.9z"/>
					<path id="Fill-10" class="st2" d="M440.3,36.6c0,6.2-3.6,7.5-11,7.5H413V30.7h17.2C436.7,30.7,440.3,31.2,440.3,36.6
						L440.3,36.6z M448.9,56.2c0-5.2-3-9.1-10.3-10.1V46c5.6-1.5,8.7-4.3,8.7-8.8c0-7.4-3.7-11.2-14.2-11.2h-27v42.2h28.1
						C443.6,68.1,448.9,63.9,448.9,56.2L448.9,56.2z M441.9,56.7c0,6-4.3,6.6-11.1,6.6H413V48.8h18.7
						C439.7,48.8,441.9,51.3,441.9,56.7L441.9,56.7z"/>
					<path id="Fill-11" class="st2" d="M484.1,57.7c0,2.5-0.2,4.7-3,5.7c-1.7,0.6-4.1,0.8-8.1,0.8s-6.4-0.4-7.8-1.3
						c-1-0.6-1.4-1.5-1.4-3.6c0-2.5,0.6-4,1.9-4.6s2.8-0.7,7.7-0.7h10.7L484.1,57.7L484.1,57.7z M490.7,68.1V51.6
						c0.1-2.3,0-4.6-0.3-6.9c-0.2-1.5-1-2.9-2.3-3.8c-3.1-2.4-10.8-2.5-14.7-2.5c-2.9,0-10.7,0.3-13.6,2.7c-0.9,0.7-1.3,1.8-1.2,2.9
						c0,0.8,0.1,1.8,0.2,3.1h6.4c0.1-0.8,0.3-2.6,1-3.3s2.3-1.1,6.7-1.1c5,0,8.5,0.2,9.9,0.9s1.3,2.3,1.3,3.6v2.9h-14.7
						c-4,0-8.5,0.1-11,3.4c-1.1,1.7-1.7,3.7-1.6,5.7c0,7,4.4,9.3,15.7,9.3c5.9,0,9.7-0.9,12.1-2.9l0.6,2.4L490.7,68.1L490.7,68.1z"
						/>
					<path id="Fill-12" class="st2" d="M528.4,68.1V52c0-5.6-0.3-6.8-1.6-7.8s-3.9-1.5-7.8-1.5c-3.5,0-7,0.4-10.4,1.3v24.1h-6.5
						V38.6h5.8l0.5,2.1c1.1-0.7,2.3-1.2,3.6-1.6c2.8-0.7,5.6-1,8.5-0.9c3.3-0.1,6.7,0.5,9.8,1.7c2.2,0.9,3.8,2.8,4.2,5.1
						c0.4,2,0.6,4.1,0.5,6.2v16.9H528.4"/>
					<polyline id="Fill-13" class="st2" points="570.5,68.1 554.9,54.1 552.6,54.1 552.6,68.1 546.1,68.1 546.1,25.9 552.6,25.9 
						552.6,49.9 554.9,49.9 567.8,38.6 575.4,38.6 560.4,51.6 579.1,68.1 570.5,68.1 					"/>
				</g>
			</g>
		</g>
	</g>
</g>
</svg>
