<?xml version="1.0" encoding="utf-8"?>
<!-- Generator: Adobe Illustrator 25.2.3, SVG Export Plug-In . SVG Version: 6.00 Build 0)  -->
<svg version="1.1" id="Layer_1" xmlns="http://www.w3.org/2000/svg" xmlns:xlink="http://www.w3.org/1999/xlink" x="0px" y="0px"
	 viewBox="0 0 2279.4 1191.3" style="enable-background:new 0 0 2279.4 1191.3;" xml:space="preserve">
<style type="text/css">
	.st0{fill-rule:evenodd;clip-rule:evenodd;fill:#2B55A2;enable-background:new    ;}
	.st1{fill-rule:evenodd;clip-rule:evenodd;fill:#FFFFFF;}
</style>
<g id="Layer_2_1_">
	<g id="Layer_1-2">
		<path class="st0" d="M701.3,1071h15.2c16.1,0,33.2,3.2,33.2,24.2c0,18.7-18.2,22.4-33.2,22.4h-15.2V1071z M701.3,1007.4h12.4
			c14.8,0,31.1,1.4,31.1,20c0,16.6-16.8,19.6-30.4,19.6h-13.2L701.3,1007.4L701.3,1007.4z M669.1,1142.9h56.2
			c20.3,0,56.7-6,56.7-46.5c0-19.8-15-34.6-36.9-36.6v-0.5c19.1-3.4,32-16.8,32-35.9c0-35.3-31.1-41.2-51.8-41.2H669L669.1,1142.9
			L669.1,1142.9z M847.8,1057c10.4-7.8,23.5-12.9,36.6-12.9c18.2,0,26.7,6.5,26.7,25.6h-17c-12.9,0-28.1,1.2-39.9,6.9
			s-20.3,16.1-20.3,33.8c0,22.6,20.5,35.3,41.5,35.3c14,0,29.5-7.4,36.6-20.5h0.5c0.2,3.7,0.2,11.5,1.4,17.7h27.2
			c-0.7-9.2-1.2-17.5-1.4-26.5c-0.3-9.9-0.5-19.8-0.5-29.7v-15.2c0-35-15-50-51.2-50c-14.2,0.2-28.2,3.3-41.2,9L847.8,1057
			L847.8,1057z M863.5,1108.6c0-18.2,20.5-20.5,34.3-20.5h13.4c0,9.2-1.4,17.8-6.4,24.4c-5.1,6.8-13.1,10.8-21.7,10.6
			C872,1123.1,863.5,1118.7,863.5,1108.6L863.5,1108.6z M1004.3,1142.9h30.9v-58.1c0-15.2,4.8-39.4,27.2-39.4
			c19.8,0,20.1,19.6,20.1,34.1v63.4h30.9V1068c0-26.7-12.2-46.5-40.3-46.5c-16.1,0-29.3,5.3-38.9,18.9h-0.5v-16.1h-29.3
			L1004.3,1142.9L1004.3,1142.9z M1257.8,1191.3h30.9v-167.1h-29.5v16.8h-0.4c-7.4-12.2-18.7-19.6-36.2-19.6
			c-37.1,0-50.5,29-50.5,61.7c0,32.5,13.4,62.4,50.5,62.4c13.1,0,24-3.2,34.8-16.4h0.5L1257.8,1191.3L1257.8,1191.3z M1229.8,1045.5
			c19.8,0,27.7,21.2,27.7,37.8c0,16.8-6.7,38.5-27.2,38.5c-20.3,0-26-22.1-26-38.5C1204.3,1067.3,1209.8,1045.4,1229.8,1045.5
			L1229.8,1045.5z M1464,1024.2h-30.9v58.1c0,15.2-4.8,39.4-27.2,39.4c-19.8,0-20.1-19.6-20.1-34.1v-63.4H1355v74.9
			c0,26.7,12.2,46.5,40.3,46.5c16.1,0,29.5-7.4,38.9-18.9h0.5v16.1h29.3L1464,1024.2L1464,1024.2z M1552.2,1071.9
			c1.4-15.9,10.1-27.9,27.4-27.9s24.2,12.9,25.1,27.9H1552.2z M1625.5,1111.1c-11.5,6.5-24.4,12-39.4,12c-19.2,0-32.5-10.8-33.9-30
			h82c0-41.5-12.4-71.7-56.4-71.7c-36.9,0-55.1,28.3-55.1,62.7c0,38.9,22.8,61.5,62,61.5c16.6,0,29.5-3.2,40.8-9.4V1111.1
			L1625.5,1111.1z M86.4,0H2193c47.7,0,86.4,38.6,86.4,86.3l0,0v693.5c0,47.7-38.7,86.4-86.4,86.3H86.4C38.7,866.2,0,827.6,0,779.8
			V86.3C0,38.6,38.7,0,86.4,0z"/>
		<path class="st1" d="M408.4,313.5h141.1c77.3,0,129.5,39.4,129.5,117.9c0,73.1-40.5,121.3-130.9,121.3H408.4V313.5L408.4,313.5z
			 M1273,399.9c76.5-69.9,244.7-222.5,310.1-271l7.9,9.4c-54.1,60.8-223,216.1-299.6,286.2l91.3,121.3v6.7h-147l-41-54.4
			c-42.5,38.2-82,74.1-108.7,93.9l-7.4-8.9c22.1-24.9,61.6-61.9,103.7-101.5l-19.8-26.5c-76.3,69.8-221.9,202.9-287.3,251.4
			l-7.9-9.4c54.2-60.9,200.4-196.7,276.7-266.5L1060.9,320v-6.8h146.9l30.6,40.7c69.6-61.8,145.6-129.9,189-162.2l7.9,9.4
			c-36.2,40.6-112.3,110.7-180.5,174.7L1273,399.9z"/>
		<path class="st1" d="M1487.6,313.5v239.2h69V313.5H1487.6z M1841.6,552.8h74.4l-107.6-239.3l-51.1,0.1l-117.7,239.1h43l24.9-51.5
			h112.3L1841.6,552.8L1841.6,552.8z M836.8,519.2v-71.8h112.5v-33.6H836.8v-69.5h130.9l-3.3-30.8H767.8v239.1h198.6l5.6-33.4H836.8
			z"/>
		<path class="st0" d="M1278.8,523l-138-183.2h47.5l138,183.2H1278.8z M1722.4,470.4l45-93l39.4,93H1722.4z M477.6,523.2h53.2
			c46.5,0,81.3-30.8,81.3-90.2c0-57.1-28.3-93.1-82-93.1h-52.4L477.6,523.2L477.6,523.2z"/>
	</g>
</g>
</svg>
