<?xml version="1.0" encoding="utf-8"?>
<!-- Generator: Adobe Illustrator 25.2.3, SVG Export Plug-In . SVG Version: 6.00 Build 0)  -->
<svg version="1.1" id="Layer_1" xmlns="http://www.w3.org/2000/svg" xmlns:xlink="http://www.w3.org/1999/xlink" x="0px" y="0px"
	 viewBox="0 0 600 307" style="enable-background:new 0 0 600 307;" xml:space="preserve">
<style type="text/css">
	.st0{fill:#007684;enable-background:new    ;}
	.st1{fill:#FFFFFF;}
</style>
<g id="Layer_2_1_">
	<g id="layer">
		<rect y="0.1" class="st0" width="600" height="306.9"/>
		<path class="st1" d="M468.8,222.5H424v-65.4h51.1c22.3,0,37.8,12.5,37.8,30.4C512.9,196.2,512.9,222.5,468.8,222.5 M424,84.5h38.1
			c13.4,0,23.4,2.3,29.8,6.7c4.1,2.9,9.6,8.5,9.6,22.7c0,25.5-20.1,27.5-26.2,27.5H424V84.5z M523.4,210.8
			c3.2-7.4,4.8-15.4,4.7-23.4c0.1-13.1-5.8-25.6-16-33.9c-2.8-2.2-5.7-4.2-8.9-5.8l-0.9-0.4l0.7-0.6c6.1-5.4,13.4-15.4,13.4-32.8
			c0-15.9-5.5-27.9-16.3-35.5c-9.2-6.5-21.8-9.6-38.7-9.6h-48.6c-2.8,0-5.1,2.3-5.1,5.1v159.2c0,2.8,2.3,5.1,5.1,5.1h55.5
			c17.5,0,31.5-3.7,41.6-11.1C515.7,222.9,520.3,217.3,523.4,210.8"/>
		<path class="st1" d="M364.8,239.1l2.3-0.6c1.6-0.9,2.6-2.7,2.5-4.5V0h-15.7v202.4l-104.4-133c-0.9-1.3-2.4-2-3.9-2l-2.3,0.6
			c-1.6,0.9-2.6,2.7-2.5,4.5V307h15.7V104.1l104.4,133C361.8,238.3,363.3,239.1,364.8,239.1"/>
		<path class="st1" d="M133.6,222.5H98.2v-138h35.5c13,0,31.3,3.4,44.4,19.4c14.1,17.3,15.2,43.1,15.2,50.6c0,11.2-2,32.4-15.2,48.6
			C164.9,219.1,146.7,222.5,133.6,222.5 M189.6,213c16.3-19.9,18.7-45.2,18.7-58.5c0-11.3-1.8-39.8-18.7-60.5
			c-7.1-8.7-16.3-15.5-26.8-19.7c-9.5-3.7-19.6-5.6-29.8-5.5H86.9c-2.8,0-5.1,2.3-5.2,5.1v159.2c0,2.8,2.3,5.1,5.1,5.1h46.1
			c10.2,0.1,20.3-1.8,29.8-5.5C173.2,228.6,182.5,221.8,189.6,213"/>
	</g>
</g>
</svg>
