<?xml version="1.0" encoding="utf-8"?>
<!-- Generator: Adobe Illustrator 25.2.3, SVG Export Plug-In . SVG Version: 6.00 Build 0)  -->
<svg version="1.1" id="Layer_1" xmlns="http://www.w3.org/2000/svg" xmlns:xlink="http://www.w3.org/1999/xlink" x="0px" y="0px"
	 viewBox="0 0 600 79.1" style="enable-background:new 0 0 600 79.1;" xml:space="preserve">
<style type="text/css">
	.st0{fill:#0066B3;}
	.st1{fill:#FFFFFF;}
	.st2{fill:#FF6600;enable-background:new    ;}
	.st3{fill:#0066B3;enable-background:new    ;}
</style>
<g id="Layer_2_1_">
	<g id="layer">
		<path class="st0" d="M171.9,13.3v52.9h8.6c13.1,0,25.6-9.8,25.6-26.5s-12.5-26.5-25.6-26.5L171.9,13.3L171.9,13.3z M156.3,78.2V1
			h21.2c23.7,0,44.9,8.1,44.9,38.7s-21,38.8-44.9,38.8L156.3,78.2z"/>
		<polygon class="st0" points="226.5,78.2 226.5,65.7 263,13.3 227.9,13.3 227.9,1.1 279.7,1.1 279.7,13.6 243,66 280.6,66 
			280.6,78.2 		"/>
		<path class="st0" d="M311,78.2V1h27c10,0,25.1,2.8,25.1,19.8c0,9.2-6.1,15.6-15.6,17.3c10.6,1.1,17.8,8.4,17.8,17.8
			c0,19.5-17.6,22.3-27.3,22.3H311z M326.6,13.3v19h6.4c6.7,0,14.8-1.4,14.8-9.5c0-8.9-7.8-9.8-15-9.8L326.6,13.3L326.6,13.3z
			 M326.6,43.7V66h7.2c7.2,0,16.2-1.7,16.2-10.9c0-10-8.4-11.7-16.2-11.7L326.6,43.7L326.6,43.7z"/>
		<path class="st0" d="M368.9,78.2L399.3,1h17.6l30.4,77.2H430l-6.7-17.8h-31.5l-6.7,17.8H368.9z M418.8,48.4l-11.1-32l-11.4,32
			H418.8z"/>
		<polygon class="st0" points="454.8,78.2 454.8,1.1 474,1.1 503.8,58.7 503.8,1.1 518.6,1.1 518.6,78.2 499.6,78.2 469.5,20.6 
			469.5,78.2 		"/>
		<polygon class="st0" points="535.9,78.2 535.9,1.1 551.7,1.1 551.7,34.2 579.6,1.1 598.6,1.1 566.8,37.6 600,78.2 579.6,78.2 
			551.7,42.3 551.7,78.2 		"/>
		<rect y="0.2" class="st1" width="117.6" height="78.9"/>
		<path class="st2" d="M117.6,79.1V65.2H72.7c-1.1,6.4-2.2,11.7-2.8,13.9H117.6z"/>
		<polygon class="st2" points="0,65.4 0,79.1 47,79.1 44,65.4 		"/>
		<path class="st3" d="M23.1,32.5l-3.3-14.2h29.3l9.8,42.1L65,33.1c3.1-12,4.2-14.8,21.2-14.8h12.3c0,0-2.5,11.1-5.6,23.1
			c-1.1,4.5-11.4,3.9-10.9-0.3c0-0.6,0.6-3.6,0.8-5.9c0.6-3.3-3.3-3.6-3.9-0.6c-0.6,2.2-2.8,13.9-4.7,24.8H118V0H0v59.4h42.6
			l-6.1-26.8L23.1,32.5z"/>
	</g>
</g>
</svg>
