<svg xmlns="http://www.w3.org/2000/svg" viewBox="0 0 500 245.5"><defs><style>.cls-1{fill:#00577a;}.cls-2{fill:#bdcf00;}</style></defs><g id="Layer_2" data-name="Layer 2"><g id="svg1925"><g id="layer1"><path id="path1435" class="cls-1" d="M77.87,60.28l1.78-10.06H36.29v0a10.38,10.38,0,0,0-9.77,8.16L9.79,153.31h0c-.85,4.59,2.15,8.33,6.76,8.35H63.89l1.77-10H25L32.52,109h33l1.73-9.87H34.24l6.87-38.87Z"/><path id="path1437" class="cls-1" d="M99.23,163.31C80.12,163.31,69.05,146.14,74,118c5-28.68,22.07-45.19,41.51-45.19,10.68,0,15.92,3.41,18.26,5.83l-4.86,8.26c-2.25-2-5.74-4.2-12.22-4.2-15.88,0-24.58,14.4-28.17,34.81-3.7,20.9,1.22,35.32,15.31,35.32a25.59,25.59,0,0,0,14-4.21l2,8.9c-3.94,3.08-10.91,5.83-20.64,5.83"/><path id="path1439" class="cls-1" d="M173.73,81.84c-16.68,0-23.22,18.63-26.34,36.28s-2.64,35.32,13.71,35.32c16.69,0,22.9-17.84,26-35.32s3.33-36.28-13.34-36.28m-14.36,81.47c-23.82,0-30.73-19.6-26.22-45.19,4.59-26.08,18.52-45.35,42-45.35,24,0,30.77,19.27,26.16,45.35-4.51,25.59-18.32,45.19-42,45.19"/><path id="path1441" class="cls-1" d="M333.52,112.13c-22.5,2.74-36.45,7.43-39.56,25.1-2.23,12.63,4.61,17.81,17.59,17.81,5.48,0,11-.95,14.93-2.9ZM309,163.31c-22.67,0-31.46-9.87-28.66-25.76,4.08-23.17,27-30,54.53-32.71l.94-5.35c2.37-13.44-5-17.32-16.23-17.32-8.41,0-16.74,3.07-22,5.5l-1.93-8.42a64.92,64.92,0,0,1,27.87-6.48c16.21,0,29.24,7,25.47,28.33L339,157.15c-7.29,3.74-17.94,6.16-30.08,6.16"/><path id="path1443" class="cls-1" d="M399.14,161.68,410.19,99c1.44-8.11-.4-17-15.29-17-8.11,0-12.21,1.11-17.06,3.06l-13.53,76.61H350.08l14.58-82.76c8.45-3.72,19.07-6.15,33-6.15,24.31,0,29.06,13.44,26.87,25.91l-11.11,63Z"/><path id="path1445" class="cls-2" d="M486,181.75H4.79l.45-2.87H486.43Z"/><path id="path1447" class="cls-1" d="M263.64,117c-3.9,22-13.67,37.11-31.64,37.11-4.55,0-9-.49-11.95-2.12l11.8-66.9a29.58,29.58,0,0,1,14.85-3.39c16.51,0,20.31,16.21,16.94,35.3m-11.9-43.73a39.44,39.44,0,0,0-18.53,4l7.52-42.57L225,43.81,205,157.15c4.59,3.41,13.17,6.16,25,6.16,25.91,0,43-18.79,47.93-46.82,4.65-26.4-6.16-43.24-26.24-43.24"/><path id="path1449" class="cls-1" d="M500,74.39H485.11l-38.24,40.48h-.32l9.74-55.16C466,5.07,407-6.46,345.46,3c-41.83,6.42-78.8,23.09-78.8,23.09S314.92,9.18,357.39,6.76c53.61-3,95.63,5.08,83.37,61.88L424.35,161.7h13.93l7.94-45h.33l25.42,45h16.21l-28.41-46.51Z"/><path id="path1451" class="cls-1" d="M12.67,210.3,6.56,245H1.46L7.58,210.3H0l.61-3.43H20.86l-.61,3.43Z"/><path id="path1453" class="cls-1" d="M36.5,245l3.71-21.14c.55-3.09-.28-5.87-5-5.87a11.88,11.88,0,0,0-6.08,1.48L24.59,245H19.72l7.68-43.44h4.85l-2.66,15.17a16.48,16.48,0,0,1,7.17-1.83c7.6,0,9.1,4.57,8.37,8.78L41.37,245Z"/><path id="path1455" class="cls-1" d="M62.88,217.72c-4.33,0-8.15,3.49-9.47,11.57l14.67-2.17c1.18-6.76-1-9.4-5.2-9.4m-9.75,14.17c-.65,6.74,1.93,10.08,7.29,10.08a16.59,16.59,0,0,0,7.66-1.73l.71,3.21a20.42,20.42,0,0,1-9.38,2.05c-7.8,0-12.41-4.94-10.55-15.56,1.81-10.13,7.7-15.37,14.73-15.37s10.64,4.65,8.77,14.6Z"/><path id="path1457" class="cls-1" d="M109.24,209.37a12.62,12.62,0,0,0-4.44.71L102,226l1.63.16c7.9.8,11.45-2.88,12.45-8.4s-1-8.41-6.83-8.41m-6.11,19.92-1.68-.16L98.64,245h-5l6.44-36.54A22,22,0,0,1,110,206.3c9,0,12.16,4.83,11,11.52s-6.8,12.59-17.85,11.47"/><path id="path1459" class="cls-1" d="M138.92,228c-7.68,1-12.45,2.54-13.51,8.57-.77,4.31,1.59,6.1,6,6.1a12.27,12.27,0,0,0,5.1-1Zm-8.39,17.49c-7.74,0-10.74-3.39-9.79-8.82,1.4-7.9,9.22-10.21,18.62-11.17l.33-1.82c.81-4.59-1.73-5.91-5.55-5.91a18.94,18.94,0,0,0-7.51,1.86l-.67-2.88a22.54,22.54,0,0,1,9.52-2.19c5.55,0,10,2.37,8.7,9.69l-3.37,19.13a22.93,22.93,0,0,1-10.28,2.11"/><path id="path1461" class="cls-1" d="M163.94,245l3.78-21.43c.48-2.76-.15-5.8-5.24-5.8a13.62,13.62,0,0,0-5.83,1.05L152,245h-4.88l5-28.27a27.29,27.29,0,0,1,11.27-2.11c8.31,0,9.93,4.59,9.18,8.85L168.81,245Z"/><path id="path1463" class="cls-1" d="M211.52,216.05a24.7,24.7,0,0,1-.28-4.59h-.12a34.55,34.55,0,0,1-2,4.59l-7.09,14.46h11.35Zm3.76,28.9-1.58-11.41H200.64L194.93,245h-4.65l19.6-38.08h4.55L220.54,245Z"/><path id="path1465" class="cls-1" d="M236.06,218.14,231.35,245h-4.9l4.73-26.81h-3.45l.55-3h3.43l.75-4.21c1-5.87,5.24-9.69,11.72-9.4l-.53,3.09c-3,.16-5.48,1.56-6.23,5.76l-.83,4.76h5.19l-.52,3Z"/><path id="path1467" class="cls-1" d="M258.32,218.32a9.08,9.08,0,0,0-6.89.55L246.82,245H242l5-28.23c3.21-1.48,6.16-2.27,13.2-2.11Z"/><path id="path1469" class="cls-1" d="M268.82,209.37a2.27,2.27,0,0,1-2.42-2.66,3.46,3.46,0,0,1,3.35-2.72,2.28,2.28,0,0,1,2.36,2.72,3.47,3.47,0,0,1-3.29,2.66M260.1,245l5.26-29.83h4.88L265,245Z"/><path id="path1471" class="cls-1" d="M282.59,245.5c-6.54,0-10.32-5.87-8.61-15.5,1.7-9.81,7.53-15.43,14.17-15.43,3.66,0,5.44,1.15,6.24,2l-1.67,2.8a5.91,5.91,0,0,0-4.16-1.42c-5.45,0-8.41,4.93-9.65,11.9-1.24,7.13.43,12.06,5.24,12.06a9,9,0,0,0,4.81-1.42l.67,3a11.71,11.71,0,0,1-7,2"/><path id="path1473" class="cls-1" d="M312.77,228c-7.68,1-12.45,2.54-13.51,8.57-.77,4.31,1.56,6.1,6,6.1a12.23,12.23,0,0,0,5.12-1Zm-8.39,17.49c-7.74,0-10.77-3.39-9.79-8.82,1.38-7.9,9.22-10.21,18.62-11.17l.33-1.82c.81-4.59-1.73-5.91-5.55-5.91a18.76,18.76,0,0,0-7.51,1.86l-.67-2.88a22.46,22.46,0,0,1,9.52-2.19c5.55,0,10,2.37,8.72,9.69l-3.39,19.13a22.93,22.93,0,0,1-10.28,2.11"/><path id="path1475" class="cls-1" d="M337.81,245l3.76-21.43c.48-2.76-.15-5.8-5.22-5.8a13.66,13.66,0,0,0-5.85,1.05L325.89,245H321l5-28.27a27.36,27.36,0,0,1,11.27-2.11c8.31,0,9.93,4.59,9.18,8.85L342.66,245Z"/><path id="path1477" class="cls-1" d="M383.48,209.25a15.2,15.2,0,0,0-5.17.83l-2.4,13.55h2.48c7.86,0,11-2.42,11.82-7.4.85-4.67-1.53-7-6.73-7M378,226.18h-2.56l-2.66,15.18a12.16,12.16,0,0,0,5.2.87c5,0,9.22-2,10.2-7.54,1-5.91-1.95-8.5-10.18-8.5m-.38,19.31c-4.31,0-7.82-.77-10-2.11l6.16-35a23.53,23.53,0,0,1,10.27-2.11c8.37,0,12.13,4,11.15,9.53a11.05,11.05,0,0,1-8.95,8.87l0,.11c3.41.67,8.14,4,7.13,9.85-1.38,7.63-7.86,10.84-15.72,10.84"/><path id="path1479" class="cls-1" d="M415.57,228c-7.67,1-12.45,2.54-13.52,8.57-.75,4.31,1.58,6.1,6,6.1a12.37,12.37,0,0,0,5.12-1Zm-8.38,17.49c-7.76,0-10.77-3.39-9.81-8.82,1.42-7.9,9.22-10.21,18.64-11.17l.3-1.82c.82-4.59-1.7-5.91-5.52-5.91a18.91,18.91,0,0,0-7.53,1.86l-.65-2.88a22.4,22.4,0,0,1,9.5-2.19c5.55,0,10,2.37,8.71,9.69l-3.37,19.13a23,23,0,0,1-10.27,2.11"/><path id="path1481" class="cls-1" d="M441.2,245,445,223.52c.47-2.76-.14-5.8-5.24-5.8a13.78,13.78,0,0,0-5.85,1.05L429.3,245h-4.87l5-28.27a27.34,27.34,0,0,1,11.28-2.11c8.28,0,9.91,4.59,9.18,8.85L446.06,245Z"/><path id="path1483" class="cls-1" d="M469.25,245l-8.67-15.37h-.14L457.74,245H453l7.66-43.44h4.75L460.56,229h.1l13.1-13.85h5.06l-13.73,13.95L474.8,245Z"/></g></g></g></svg>