<svg xmlns="http://www.w3.org/2000/svg" xmlns:xlink="http://www.w3.org/1999/xlink" viewBox="0 0 2499.86 893"><defs><style>.cls-1{fill:none;}.cls-2{clip-path:url(#clip-path);}.cls-3{fill:#fff;fill-opacity:0;}.cls-3,.cls-4,.cls-5{fill-rule:evenodd;}.cls-4{fill:#33348e;}.cls-5{fill:#cc2229;}</style><clipPath id="clip-path" transform="translate(356.93 196.37)"><rect class="cls-1" width="1785.54" height="514.63"/></clipPath></defs><g id="Layer_2" data-name="Layer 2"><g id="Layer_1-2" data-name="Layer 1"><g class="cls-2"><path class="cls-3" d="M-356.93-196.37H2142.93v893H-356.93Z" transform="translate(356.93 196.37)"/><path class="cls-4" d="M249,107.5H61.68C16.32,107.5,0,129.72,0,167.82v263.5c0,38.55,15.42,59.85,60.32,59.85H249V405H97.52V343.77H234.93V258H97.52V191.83H249V107.5Zm1117.5,0H1179.18c-45.8,0-61.68,22.22-61.68,60.32v263.5c0,38.55,15.42,59.85,59.87,59.85h189.12V405H1215V343.77h137.42V258H1215V191.83h151.48ZM849.9,166l-55.78,52.62c-19-22.68-41.26-37.2-72.1-39.46-18.14-1.36-43.09,10.42-41.73,29.48,1.82,30.38,48.08,30.84,100.24,49.42,52.16,19.06,85.27,52.62,84.36,112-4.08,90.72-58.5,124.71-145.58,130.15-63.49,2.27-113.38-27.21-155.1-76.63l65.3-52.16c18.6,26.77,44.44,46.26,86.63,51.7,32.21.46,46.27-10.88,49-31.3,3.63-25.86-41.73-39-98.87-53.06-35.38-7.72-87.52-57.6-85.72-108.4-.44-73,45.82-129.26,136.52-126.09,68.9-.89,102,19.51,132.84,61.69Z" transform="translate(356.93 196.37)"/><path class="cls-4" d="M851.72,107.5h256.71v94.78H1035V491.17H924.74V202.28h-73Z" transform="translate(356.93 196.37)"/><path class="cls-5" d="M1501.18,110.66h228.58c26.32,0,48.52,21.78,48.52,48.54v39.46H1535.64v13.16h242.64V335.18c0,26.74-22.2,48.51-48.52,48.51H1501.18a48.59,48.59,0,0,1-48.53-48.51V298.44H1698V285.28H1452.65V159.2A48.6,48.6,0,0,1,1501.18,110.66ZM1616.82,0c28.12,0,50.8,23.14,50.8,51.26A50.69,50.69,0,0,1,1617,102h-.2c-28.1,0-51.24-22.66-51.24-50.78A51.5,51.5,0,0,1,1616.82,0Z" transform="translate(356.93 196.37)"/><path class="cls-4" d="M1703.9,493.91V409.1h26.3v27.2L1752,409.1h31.3l-30.4,39.45,32.66,45.36H1753.8l-23.6-34v34Zm-86.62,0V409.1h20.86l29.94,42.64V409.1h22.68v84.81H1669.9L1640,451.28v42.63Zm-95.24,0,30.38-84.81h26.32L1610,493.91h-29.48L1576,477.12h-20.88l-5,16.79Zm38.1-35.84H1571l-5-17.24ZM1454,493.91V409.1h32.2c10.89,0,19,1.82,24.49,5,5.45,3.63,8.17,8.61,8.17,15.41a19.37,19.37,0,0,1-3.18,11.34c-2.26,3.19-5.44,5.44-10,7.26,5.88,1.84,10,4.08,12.7,7.72,3.17,3.62,4.53,8.17,4.53,13.61a21.81,21.81,0,0,1-10,18.14c-5.44,4.08-14.5,6.36-22.66,6.36H1454Zm23.13-19.52h5.9c5,0,8.16-.89,10-1.82a8.45,8.45,0,0,0,3.64-6.8,7.7,7.7,0,0,0-4.08-6.35c-1.82-.89-4.54-1.82-9.52-1.82h-5.9Zm0-34.92h4.54c4.53,0,6.81-.46,8.16-1.36a7.9,7.9,0,0,0,2.72-5.44,6.21,6.21,0,0,0-2.72-5c-1.82-.89-3.63-1.36-7.72-1.36h-5ZM271.67,491.17V107.5H420c81.18,0,145.14,34,145.58,118.36,1.36,46.26-19,79.37-59,100.24l73.92,165.07H470.31L409.55,345.59H370.09V491.17Zm91.6-308.85V261.7h54c63.48,0,58-79.38-.46-79.38Z" transform="translate(356.93 196.37)"/></g></g></g></svg>