<svg xmlns="http://www.w3.org/2000/svg" viewBox="0 0 149.62 42.25"><defs><style>.cls-1{fill:#898989;}</style></defs><g id="Layer_2" data-name="Layer 2"><g id="Master_FTB_Logos" data-name="Master FTB Logos"><path class="cls-1" d="M91.4,15V8.83A8.85,8.85,0,0,0,82.57,0H58.23V15C32.57,16.2,11.19,20.15,0,25.46c13.31-3.26,34.09-5.61,58.23-6.36v1.62a8.85,8.85,0,0,0,8.83,8.82H91.4V19.11c24.14.75,44.91,3.09,58.22,6.36C138.43,20.15,117.06,16.2,91.4,15ZM89.82,28H67a7.25,7.25,0,0,1-7.23-7.23V1.58H82.6a7.25,7.25,0,0,1,7.23,7.23V28Z"/><path class="cls-1" d="M82.53,2.63H60.85v18a6.26,6.26,0,0,0,6.24,6.24H88.78v-18A6.26,6.26,0,0,0,82.53,2.63Zm-18.91,3h8.12l-.07,4.22h-8V5.65Zm.24,11.81s3.33-.55,2.73-3.45a4.58,4.58,0,0,0-3-2.88H69.3a3.86,3.86,0,0,1,2,.8,3.72,3.72,0,0,1,1.41,2,2.73,2.73,0,0,1-.41,2.47,3.29,3.29,0,0,1-2.2,1H63.85ZM71.93,24l5-18.92h1.18L73.11,24H71.92Zm13.39-1.55a3.51,3.51,0,0,1-2.75,1.16H77.4s3.25-.66,2.69-3.37a3.58,3.58,0,0,0-.8-1.53,5.39,5.39,0,0,0-1.8-1.21h0c3.45-.69,2.62-3.3,2.62-3.3a4.11,4.11,0,0,0-2.7-2.68H82.7a3.28,3.28,0,0,1,1.88.67,3.38,3.38,0,0,1,1.31,1.87,2.59,2.59,0,0,1-.51,2.3,3.63,3.63,0,0,1-2.13,1.15,7.32,7.32,0,0,1,1.68,1A3.08,3.08,0,0,1,86,20.34a2.63,2.63,0,0,1-.68,2.16Z"/><path class="cls-1" d="M12.32,37.41c0,1-.93,1.25-2,1.25H7.54v2.62c1,.17,1.4.57,1.4.83v.06H5.66V33.69a1.38,1.38,0,0,1-1-.86h8.62V35.2h-.07a1.36,1.36,0,0,1-.86-1H7.54v3.14h4.78v.07Z"/><path class="cls-1" d="M17.34,42.17h-3.4v-.08a1.18,1.18,0,0,1,.84-.83V35.15a1.18,1.18,0,0,1-.85-.81v-.1h3.4v.1a1.18,1.18,0,0,1-.84.83v6.12a1.18,1.18,0,0,1,.84.83v.05Z"/><path class="cls-1" d="M25,38.13c0,.85-.8,1.21-1.74,1.21H21v2a1.63,1.63,0,0,1,1.31.83v.08h-3v-7a1.17,1.17,0,0,1-.89-.91v-.1H25.8v2.1h-.07a1.18,1.18,0,0,1-.83-.84H21V38h4v.16Z"/><path class="cls-1" d="M34,34.24v2.1h-.08a1.19,1.19,0,0,1-.87-.8H31.11v5.73a1.46,1.46,0,0,1,1.15.83v.08h-4v-.09a1.46,1.46,0,0,1,1.15-.83V35.54H27.33a1.18,1.18,0,0,1-.83.84h-.08V34.24H34Z"/><path class="cls-1" d="M37.12,37.5a10.82,10.82,0,0,1,2.41-.23A12.45,12.45,0,0,1,42,37.5V35.15a1.18,1.18,0,0,1-.84-.81v-.1h3.41v.1a1.18,1.18,0,0,1-.84.83v6.12a1.18,1.18,0,0,1,.84.83v.08H42V39a12.45,12.45,0,0,0-2.44-.23,10.82,10.82,0,0,0-2.41.23v2.32a1.18,1.18,0,0,1,.84.83v.08H35.4v-7a1.19,1.19,0,0,1-.84-.84v-.1H38v.1a1.18,1.18,0,0,1-.84.83v2.35Z"/><path class="cls-1" d="M60.46,32.78v2.37h0a1.38,1.38,0,0,1-.89-1H56.66v7.16a1.36,1.36,0,0,1,1,.86H53.75a1.31,1.31,0,0,1,1-.86V34.12H51.9a1.34,1.34,0,0,1-.86,1h0V32.78h9.42Z"/><path class="cls-1" d="M63.49,37.5a10.82,10.82,0,0,1,2.41-.23,12.45,12.45,0,0,1,2.44.23V35.15a1.18,1.18,0,0,1-.84-.81v-.1h3.4v.1a1.18,1.18,0,0,1-.84.83v6.12a1.18,1.18,0,0,1,.84.83v.08H68.34V39a12.45,12.45,0,0,0-2.44-.23,10.82,10.82,0,0,0-2.41.23v2.32a1.18,1.18,0,0,1,.84.83v.08H61.77v-7a1.19,1.19,0,0,1-.84-.84v-.1h3.41v.1a1.18,1.18,0,0,1-.84.83V37.5Z"/><path class="cls-1" d="M75.46,42.17H72v-.08a1.18,1.18,0,0,1,.84-.83V35.15a1.18,1.18,0,0,1-.84-.81v-.1h3.41v.1a1.18,1.18,0,0,1-.84.83v6.12a1.18,1.18,0,0,1,.84.83v.08Z"/><path class="cls-1" d="M80,42.17H77.45v-7a1.17,1.17,0,0,1-.85-.83v-.1h5.56c1.93,0,3.19.63,3.19,2.35,0,1.33-.84,2-2.17,2.23l1.69,2.44a1.24,1.24,0,0,1,1,.83v.08h-2.4L81.33,39H79.16v2.32a1.18,1.18,0,0,1,.84.83v.08Zm1.91-4.4c1.45,0,1.72-.47,1.72-1.11s-.27-1.12-1.72-1.12H79.16v2.23h2.75Z"/><path class="cls-1" d="M87.61,35.15a1.18,1.18,0,0,1-.85-.81v-.1h5.5a3.63,3.63,0,0,1,3.93,3.31,4,4,0,0,1,0,.69,3.63,3.63,0,0,1-3.23,4,3.18,3.18,0,0,1-.69,0H87.61V35.15Zm4,5.73c1.88,0,2.8-.57,2.8-2.67s-.92-2.67-2.8-2.67H89.32v5.33h2.34Z"/><path class="cls-1" d="M108.88,32.78c2.18,0,3.66.56,3.66,2.37,0,1.13-.77,1.84-2.08,2.11,1.48.27,2.35,1,2.35,2.28,0,1.48-1.28,2.64-3.53,2.64H103.2V33.69a1.38,1.38,0,0,1-1-.86h6.69Zm-.2,3.75c1.14,0,2-.26,2-1.24s-.84-1-2-1h-3.6v2.28h3.6Zm0,4.13c1.6,0,2.2-.45,2.2-1.3S110.29,38,108.7,38H105v2.64h3.64Z"/><path class="cls-1" d="M123.88,35.15a1.17,1.17,0,0,1-.88-.81v-.1h2.44l5.23,5.38V35.15a1.18,1.18,0,0,1-.84-.83v-.08h3.25v.1a1.16,1.16,0,0,1-.84.83v6.12a1.18,1.18,0,0,1,.84.83v.08h-2.26l-5.41-5.56V41.3a1.18,1.18,0,0,1,.84.83v.08h-2.41v-7Z"/><path class="cls-1" d="M140.22,35a1,1,0,0,1-.39-.69v-.08h3.27v.1a1.05,1.05,0,0,1-.89.81l-2.86,2.41,3.18,3.72a1.24,1.24,0,0,1,1,.83v.08h-2.4l-3-3.62-1.25,1v1.75a1.18,1.18,0,0,1,.84.83v.08h-2.56v-7a1.18,1.18,0,0,1-.84-.83v-.16h3.41v.1a1.18,1.18,0,0,1-.84.83V37.9Z"/><path class="cls-1" d="M116.11,42.1v.08H112.8V42.1a1.11,1.11,0,0,1,.93-.83l2.89-6.21a1.06,1.06,0,0,1-.62-.72v-.09h3.78v.09a1.14,1.14,0,0,1-.68.74l3.07,6.21a1.11,1.11,0,0,1,.93.83v.08h-3.66v-.1a1,1,0,0,1,.8-.8l-.47-1a14.11,14.11,0,0,0-4,0l-.44,1a.92.92,0,0,1,.8.83m1.51-6L116.4,38.9a10,10,0,0,1,1.34-.06,12.39,12.39,0,0,1,1.36.07l-1.31-2.79h-.15Z"/></g></g></svg>