<svg xmlns="http://www.w3.org/2000/svg" viewBox="0 0 1925.52 2078.29"><defs><style>.cls-1{fill:#ecb73a;}.cls-1,.cls-2,.cls-3,.cls-4{fill-rule:evenodd;}.cls-2{fill:#1d5a98;}.cls-3{fill:#cf4044;}.cls-4{fill:#1e8f7e;}</style></defs><g id="Layer_2" data-name="Layer 2"><g id="Layer_1-2" data-name="Layer 1"><path class="cls-1" d="M1017.1,1614.2l57.22-66.84-67.19-56.95-59,66.43,69,57.36Zm785-642.8h123.41V854.14H1802.11ZM810.68,541.71l105-93.72L772,284.88l-106.6,96.85Z"/><path class="cls-2" d="M824,1527.42h71.45V1309.88H775.16V1422.1H824ZM658.28,1112.57h237.2V896.82H759.9v83.59H658.28ZM1312.09,1017h183.16V892.15H1312.09V1017Zm155-203.89,168.5-48.56L1585.14,596,1416.31,646.4l50.79,166.66ZM1017.15,650.52h174.62V452.39H1017.15ZM983,371.17h131.46V163.38H983V371.17ZM410.56,934.34l-17.5,5.84c-12.83,4.34-27.66,13.89-36.9,23.75-13.41,14.52-20.52,33.77-20.52,55.65,0,25.24,8.69,45.34,26.83,62.14a102.16,102.16,0,0,0,26.92,17.8,96.52,96.52,0,0,0,40.29,9c22.73,0,48.92-8.64,68.7-22.7a138.74,138.74,0,0,0,27.25-26.07c16.38-20.1,28.93-44.95,34-67.6a126.43,126.43,0,0,0,3.23-28.62c0-24-6.41-43.63-17.91-55.24-10.29-10.34-26.82-16.38-44.63-16.38-12.83,0-24.18,3.13-33.78,9.22a136.71,136.71,0,0,0-13.67,10c-12,9.85-15.42,12-25.77,16.75a141.23,141.23,0,0,1-16.57,6.46Z"/><path class="cls-3" d="M983.59,1411.55h116.25V1213.18H983.59ZM510.32,801.3h132.1V569.58H510.32Z"/><path class="cls-4" d="M984,1063.27h244.09V911.76H984ZM261.77,839.16H417V689.86H261.77ZM1729.08,951.68c1.16-28.83-22.86-52.85-53-52.85a52.92,52.92,0,0,0,0,105.81C1704.53,1004.64,1727.86,981.32,1729.08,951.68ZM1353.91,529.83c1.22-28.9-22.85-53-52.89-53a52.89,52.89,0,0,0-52.91,52.87v.09A52.91,52.91,0,0,0,1301,582.78h0C1329.37,582.78,1352.75,559.36,1353.91,529.83ZM617.72,466.48c1.43-35.09-27.83-64.34-64.35-64.34a64.39,64.39,0,1,0-2.59,128.76c.87,0,1.73,0,2.59,0,34.45,0,62.88-28.41,64.35-64.42Z"/><path class="cls-2" d="M1312.48,1205.6c1.51-38.22-30.33-70.14-70.09-70.14a70.13,70.13,0,0,0,0,140.26h0c37.53,0,68.49-31,70.09-70.12Z"/><path class="cls-4" d="M140.75,817.89c1.58-38.28-30.27-70.08-70.09-70.08A70.07,70.07,0,0,0,.58,817.86v0A70.11,70.11,0,0,0,70.65,888h0C108.25,888,139.14,857.05,140.75,817.89Zm757.61,385c1.17-28.94-22.85-53-52.9-53a52.94,52.94,0,1,0-2.34,105.85q1.17,0,2.34,0C873.76,1255.8,897.13,1232.46,898.36,1202.89ZM736,801.3h159.5V644.7H736Z"/><path class="cls-3" d="M1039.24,813.22H1353V732.44H1039.24ZM914.2,52.9C915.43,24.06,891.36,0,861.3,0a52.91,52.91,0,1,0,0,105.81h0c28.36,0,51.73-23.32,52.9-52.91Z"/><path class="cls-2" d="M81.37,1870.19H216.12l.48,55.65H81.37l-.54,144.93H0l.17-342H228.8l0,55.23h-148ZM303,1898.28c-.53-103.3,76.18-176,183.47-176,105.81,0,175.52,68.73,175,174,.55,107.3-74.68,182-181.5,182-104.26,0-177.47-73.67-176.94-180Zm84.18-17.08c-.48,85.77,44.63,145.46,104.32,145.46,51.1,0,86.25-45.63,85.72-119.37.54-79.2-43.1-135.35-99.29-135.35-53.65,0-91.23,43.66-90.75,109.26ZM936.2,2017.14l-82.48-105.81-.27,159.44h-82.8l.21-342H860.5c65.14,0,83.7,2.58,106.28,16.1,27.56,17,43.1,46.14,42.62,82.18.48,43.14-20,72.24-61.18,89.8l132.38,153.92H1033C983.8,2070.77,973.3,2064.25,936.2,2017.14Zm-82.75-236.7.27,114.34h3c48.13,0,73.53-23,73-61.18.53-36.09-19-53.66-62.67-53.66A133.69,133.69,0,0,0,853.45,1780.44Zm444.86,3.64.48,286.8h-80.63l.15-286.8H1107.16l-.15-55.17h302.51v55.17Zm217.3,286.8.15-342h81.6l-.24,342h-81.51Zm190.39-12.2.54-60.65c38.11,16.08,69.33,23.53,94.93,23.53,30.07,0,47.66-14.51,47.12-34,.54-19.08-7-27.56-60.16-66.7-60.17-44.08-75.21-63.71-74.68-102.83-.53-60.65,45.12-96.21,117.79-96.21,27.08,0,51.62,3.54,80.74,13l-.06,57c-36.09-11-58.1-15.38-75.66-15.38-30.57,0-46.11,11.56-45.63,28.57-.48,45.6,134.86,70.67,134.38,168,.48,63.17-48.61,104.26-120.85,104.26-33.56,0-67.86-6-98.46-18.53Z"/></g></g></svg>