<?xml version="1.0" encoding="utf-8"?>
<!-- Generator: Adobe Illustrator 25.2.3, SVG Export Plug-In . SVG Version: 6.00 Build 0)  -->
<svg version="1.1" id="Layer_1" xmlns="http://www.w3.org/2000/svg" xmlns:xlink="http://www.w3.org/1999/xlink" x="0px" y="0px"
	 viewBox="0 0 2141.1 2141.1" style="enable-background:new 0 0 2141.1 2141.1;" xml:space="preserve">
<style type="text/css">
	.st0{fill-rule:evenodd;clip-rule:evenodd;fill:#7793C0;enable-background:new    ;}
	.st1{fill-rule:evenodd;clip-rule:evenodd;fill:#FFFFFF;}
</style>
<g id="Layer_2_1_">
	<g id="Layer_1-2">
		<path class="st0" d="M0,2141.1h2141.1V0H0V2141.1z"/>
		<path class="st1" d="M1872.6,488.9h-74.2V196.4h69.8v32.7c8.7-19.6,30.5-37.1,58.9-39.3c48-2.2,80.8,26.2,80.8,87.3v211.7h-76.4
			V268.5c0-26.2,0-48-17.5-52.4c-6.5-2.2-17.5,0-26.2,6.5c-10.9,10.9-15.3,24-15.3,45.9L1872.6,488.9L1872.6,488.9z M611.1,216.1
			c-17.5-15.3-39.3-26.2-65.5-26.2s-45.8,10.9-65.5,26.2c-30.6,26.2-50.2,74.2-50.2,126.6c0,54.6,19.6,100.4,50.2,126.6
			c19.6,15.3,39.3,26.2,65.5,26.2s48-10.9,65.5-26.2c32.8-26.2,50.2-72,50.2-126.6C661.4,290.3,643.9,242.3,611.1,216.1L611.1,216.1
			z M582.7,342.7c0,54.6,0,98.2-8.7,120c-6.5,10.9-13.1,17.5-28.4,17.5c-13.1,0-21.8-6.5-26.2-17.5c-10.9-21.8-10.9-65.5-10.9-120
			c0-52.4,0-98.2,10.9-120c4.4-10.9,13.1-17.4,26.2-17.4c15.3,0,21.8,6.5,28.4,17.4C584.9,244.4,582.7,290.3,582.7,342.7z
			 M1372.8,600.2v78.6h-15.3c-8.7-32.7-21.8-61.1-56.8-63.3c-21.8-2.2-41.5,10.9-43.6,30.6s4.4,37.1,43.6,58.9
			c50.2,28.4,89.5,41.5,89.5,100.4c0,63.3-54.6,93.8-100.4,93.8h-87.3V790.1h15.3c10.9,56.7,28.4,91.7,69.9,93.8
			c26.2,0,45.8-15.3,45.8-43.7s-17.5-45.8-59-69.8c-45.8-28.4-74.2-45.8-74.2-85.1c0-52.4,37.1-85.1,96-85.1
			C1316,600.2,1372.8,600.2,1372.8,600.2L1372.8,600.2z M1468.8,488.9V277.2c0-61.1-32.7-89.5-80.8-87.3
			c-32.8,2.2-52.4,24-61.1,41.5c-10.9-30.5-34.9-43.6-69.8-41.5c-28.4,2.2-50.2,19.6-58.9,39.3v-32.7h-67.7V489h74.2V268.5
			c0-21.8,2.2-34.9,15.3-45.9c8.7-6.5,17.5-8.7,24-6.5c17.5,4.4,17.5,26.2,17.5,52.4v220.4h74.2V266.3c0-19.7,4.4-32.8,15.3-43.7
			c8.7-6.5,17.5-8.7,24-6.5c17.5,4.4,19.6,26.2,19.6,52.4v220.4H1468.8z M711.5,135.3h76.4v353.6h-76.4V135.3z M1058.5,488.9V135.3
			h-76.4v82.9c-6.5-15.3-21.8-26.2-43.6-26.2c-54.6,0-98.2,56.7-100.4,144c-2.2,58.9,17.5,157.1,93.8,157.1
			c30.5,0,48-17.5,54.6-32.7v28.4L1058.5,488.9L1058.5,488.9z M969,220.4c15.3,21.8,15.3,74.2,15.3,115.7
			c0,43.6,2.2,100.4-15.3,124.4c-6.5,8.7-13.1,13.1-24,13.1c-15.3,0-24-17.5-28.4-45.8c-2.2-26.2-2.2-58.9-2.2-93.9
			c0-58.9,4.4-124.4,32.7-124.4C958.1,209.5,962.5,213.9,969,220.4z M1695.8,205.2c19.7,10.9,32.7,28.4,32.7,67.7V489h-72v-32.7
			c-8.7,24-32.7,39.3-65.5,39.3c-26.2,0-72-13.1-72-80.8c0-63.3,41.5-76.4,87.3-96c41.5-17.5,45.8-19.6,45.8-37.1v-48
			c0-19.6-10.9-28.4-32.7-28.4c-8.7,2.2-24,6.5-24,17.5c-2.2,13.1,13.1,13.1,15.3,32.7c2.2,30.6-21.8,41.5-43.6,39.3
			c-15.3,0-32.8-8.7-34.9-32.7c-2.2-39.3,41.5-72,102.6-72C1663.2,190,1680.6,196.5,1695.8,205.2L1695.8,205.2z M1652.2,314.3
			l-24,15.3c-24,15.3-28.4,34.9-30.5,56.7c-2.2,17.5-2.2,32.7,0,58.9c2.2,24,17.5,28.4,30.5,24c15.3-6.5,24-34.9,24-65.5V314.3z
			 M615.5,613.3c19.7,13.1,30.5,28.4,30.5,67.7v218.2h-69.8v-32.7c-8.7,21.8-32.7,37.1-65.5,37.1c-28.4,0-72-10.9-72-78.6
			c0-63.3,41.5-76.4,85.1-96s48-21.8,48-37.1v-48c0-21.8-10.9-30.5-32.7-28.4c-8.7,0-24,4.4-24,15.3c-2.2,15.2,13.1,15.2,15.2,34.9
			c2.2,28.4-21.8,39.3-43.6,39.3c-15.3-2.2-32.7-10.9-34.9-35c-2.2-37.1,41.5-69.8,102.6-69.8C582.7,600.2,600.2,604.5,615.5,613.3
			L615.5,613.3z M571.8,722.4l-24,15.3c-24,15.3-28.4,34.9-30.6,56.7c-2.2,17.5-2.2,34.9,0,58.9c0,26.2,15.3,30.6,28.4,24
			c17.5-6.5,26.2-32.7,26.2-65.5L571.8,722.4L571.8,722.4z M1143.7,687.5c0-61.1-32.8-91.7-80.8-87.3c-24,2.2-43.7,13.1-54.6,28.4
			v-85.1h-74.2v200.8c0,74.2-52.4,144-104.8,141.9c-37.1,0-45.8-28.4-50.2-58.9c-6.5-43.7-6.5-93.8-2.2-148.4
			c4.4-34.9,13.1-63.3,39.3-63.3c19.6,0,21.8,13.1,13.1,21.8c-8.7,10.9-21.8,21.8-15.3,45.8c6.5,26.2,48,30.5,67.7,10.9
			c15.3-17.5,13.1-45.8,2.2-63.3c-13.1-21.8-34.9-30.5-67.6-30.5c-41.5,0-120,37.1-120,155c0,126.6,80.8,148.4,126.6,148.4
			c52.4,0,98.2-45.8,111.3-82.9v78.6h74.2V678.8c0-21.8,4.4-34.9,15.3-45.8c8.7-6.5,19.6-8.7,26.2-6.5c17.5,4.4,17.5,26.2,17.5,52.4
			v220.5h76.4L1143.7,687.5L1143.7,687.5z M379.8,128.8v124.4h-15.3c-13.1-61.1-41.5-107-80.8-109.2c-26.2-2.2-41.5,13.1-54.6,34.9
			c-13.1,26.2-19.6,80.8-19.6,146.2c0,61.1,2.2,107,8.7,139.7c4.4,15.3,15.3,39.3,43.7,39.3c15.3,0,26.2-4.4,32.7-13.1
			c10.9-13.1,13.1-39.3,13.1-56.7v-58.9c0-21.8-6.5-34.9-17.5-41.5c-8.7-4.4-21.8-4.4-28.4-6.5v-15.3H384v312.1h-15.3
			c-6.5-24-10.9-41.5-21.8-61.1s-30.5-41.5-63.3-41.5c-34.9-2.2-61.1,19.7-61.1,52.4c0,43.7,26.2,54.6,74.2,80.8
			c45.8,26.2,104.8,48,104.8,124.4c0,74.2-63.3,120-135.3,120H150.6V748.6h15.3c19.6,113.5,67.7,133.1,100.4,133.1
			c41.5,0,61.1-26.2,61.1-63.3c-2.2-48-34.9-65.5-80.8-89.5c-65.5-37.1-96-54.6-96-115.7c2.2-52.4,43.7-85.1,89.5-98.2
			c-96-10.9-124.4-98.2-122.2-192.1c0-93.9,54.6-194.2,161.5-194.2L379.8,128.8L379.8,128.8z"/>
	</g>
</g>
</svg>
