<svg xmlns="http://www.w3.org/2000/svg" viewBox="0 0 599.9 64"><defs><style>.cls-1{fill:#005fa0;}</style></defs><g id="Layer_2" data-name="Layer 2"><g id="layer"><path class="cls-1" d="M13.8.1v24H39.1V.1H52.9V62.7H39.1v-27H13.8v27H0V.1Zm48.1,24a15.71,15.71,0,0,1,4.9-4.7,20.67,20.67,0,0,1,6.7-2.5,38.08,38.08,0,0,1,7.5-.7,53.37,53.37,0,0,1,6.9.5,21.68,21.68,0,0,1,6.4,1.9A11.9,11.9,0,0,1,99,22.5a11.19,11.19,0,0,1,1.8,6.6V58.6a16.66,16.66,0,0,0,.5,4.2h-12c-.3-1-.2-1-.4-1.8s-.1-1.8-.2-2.6a16.46,16.46,0,0,1-7,4.3,28.55,28.55,0,0,1-8.2,1.2,22.33,22.33,0,0,1-6-.8,12,12,0,0,1-4.9-2.5,11.44,11.44,0,0,1-3.3-4.2,14.12,14.12,0,0,1-1.2-6.1,13.47,13.47,0,0,1,1.4-6.4,11.4,11.4,0,0,1,3.5-4,15.62,15.62,0,0,1,4.9-2.2,50.54,50.54,0,0,1,5.6-1.2c1.9-.3,3.7-.5,5.5-.7a30,30,0,0,0,4.8-.8,10.17,10.17,0,0,0,3.3-1.5,3.33,3.33,0,0,0,1.1-2.9,6.08,6.08,0,0,0-.7-3.2,4.24,4.24,0,0,0-1.7-1.8,9.23,9.23,0,0,0-2.5-.9,30.28,30.28,0,0,0-3.1-.2,9.29,9.29,0,0,0-5.8,1.6c-1.4,1.1-2.2,2.8-2.4,5.3H59.5a16.56,16.56,0,0,1,2.4-7.3ZM86.4,41.6a18.24,18.24,0,0,1-2.5.7,27,27,0,0,1-2.8.4c-1,.1-2,.3-3,.4a28.64,28.64,0,0,0-2.8.7A9,9,0,0,0,72.9,45a4.94,4.94,0,0,0-1.6,1.9,6.24,6.24,0,0,0-.6,2.9,6.09,6.09,0,0,0,.6,2.8A4.24,4.24,0,0,0,73,54.4a8.54,8.54,0,0,0,2.4.9,13.58,13.58,0,0,0,2.9.3A11.5,11.5,0,0,0,84,54.4a9.28,9.28,0,0,0,3-2.9A11.18,11.18,0,0,0,88.2,48c.1-1.2.2-2.1.2-2.8V40.6A5.36,5.36,0,0,1,86.4,41.6ZM371.5,24.1a15.71,15.71,0,0,1,4.9-4.7,20.67,20.67,0,0,1,6.7-2.5,38.08,38.08,0,0,1,7.5-.7,53.37,53.37,0,0,1,6.9.5,21.68,21.68,0,0,1,6.4,1.9,11.9,11.9,0,0,1,4.7,3.9,11.19,11.19,0,0,1,1.8,6.6V58.6a16.66,16.66,0,0,0,.5,4.2h-12c-.3-1-.2-1-.4-1.8s-.1-1.8-.2-2.6a16.46,16.46,0,0,1-7,4.3,28.55,28.55,0,0,1-8.2,1.2,22.33,22.33,0,0,1-6-.8,12,12,0,0,1-4.9-2.5,11.44,11.44,0,0,1-3.3-4.2,14.12,14.12,0,0,1-1.2-6.1,13.47,13.47,0,0,1,1.4-6.4,11.4,11.4,0,0,1,3.5-4,15.62,15.62,0,0,1,4.9-2.2,50.54,50.54,0,0,1,5.6-1.2c1.9-.3,3.7-.5,5.5-.7a30,30,0,0,0,4.8-.8,10.17,10.17,0,0,0,3.3-1.5,3.23,3.23,0,0,0,1.1-2.9,6.08,6.08,0,0,0-.7-3.2,4.24,4.24,0,0,0-1.7-1.8,9.23,9.23,0,0,0-2.5-.9,30.28,30.28,0,0,0-3.1-.2,9.29,9.29,0,0,0-5.8,1.6c-1.4,1.1-2.2,2.8-2.4,5.3H369.1a16.56,16.56,0,0,1,2.4-7.3ZM396,41.6a18.24,18.24,0,0,1-2.5.7,27,27,0,0,1-2.8.4c-1,.1-2,.3-3,.4a28.64,28.64,0,0,0-2.8.7,9,9,0,0,0-2.4,1.2,4.94,4.94,0,0,0-1.6,1.9,6.24,6.24,0,0,0-.6,2.9,6.09,6.09,0,0,0,.6,2.8,4.24,4.24,0,0,0,1.7,1.8,8.54,8.54,0,0,0,2.4.9,13.58,13.58,0,0,0,2.9.3,11.5,11.5,0,0,0,5.7-1.2,9.28,9.28,0,0,0,3-2.9,11.18,11.18,0,0,0,1.2-3.5c.1-1.2.2-2.1.2-2.8V40.6A5.36,5.36,0,0,1,396,41.6ZM119.3,17.4v5.2h.3a15.4,15.4,0,0,1,5.9-4.9,18.63,18.63,0,0,1,7.9-1.6,21.2,21.2,0,0,1,8.2,1.4,12.12,12.12,0,0,1,5,3.8,15.16,15.16,0,0,1,2.6,5.9,36.71,36.71,0,0,1,.7,7.7V62.8H137.6V37.2q0-5.55-1.8-8.4c-1.2-1.8-3.3-2.8-6.2-2.8-3.4,0-5.9,1-7.4,3s-2.3,5.3-2.3,10V62.8H107.5V17.5C107.5,17.4,119.3,17.4,119.3,17.4Zm309.6,0v5.2h.3a15.4,15.4,0,0,1,5.9-4.9,18.63,18.63,0,0,1,7.9-1.6,21.2,21.2,0,0,1,8.2,1.4,12.12,12.12,0,0,1,5,3.8,15.16,15.16,0,0,1,2.6,5.9,36.71,36.71,0,0,1,.7,7.7V62.8H447V37.2q0-5.55-1.8-8.4C444,27,441.9,26,439,26c-3.4,0-5.9,1-7.4,3s-2.3,5.3-2.3,10V62.8H416.9V17.5C417.1,17.4,428.9,17.4,428.9,17.4Zm140.4,0v5.2h.3a15.4,15.4,0,0,1,5.9-4.9,18.63,18.63,0,0,1,7.9-1.6,21.2,21.2,0,0,1,8.2,1.4,12.12,12.12,0,0,1,5,3.8,15.16,15.16,0,0,1,2.6,5.9,36.71,36.71,0,0,1,.7,7.7V62.8H587.4V37.2q0-5.55-1.8-8.4c-1.2-1.8-3.3-2.8-6.2-2.8-3.4,0-5.9,1-7.4,3s-2.3,5.3-2.3,10V62.8H557.3V17.5h12ZM220.8,51.9q2.85,2.7,8.1,2.7a10.84,10.84,0,0,0,6.5-1.9,8,8,0,0,0,3.3-4h11c-1.8,5.4-4.4,9.3-8.1,11.7a23.93,23.93,0,0,1-13.1,3.5,26.09,26.09,0,0,1-9.6-1.7,19.59,19.59,0,0,1-7.3-4.9,22,22,0,0,1-4.6-7.5,27,27,0,0,1-1.6-9.7,27.13,27.13,0,0,1,1.7-9.5,22.65,22.65,0,0,1,4.7-7.6,22.07,22.07,0,0,1,7.3-5,23.87,23.87,0,0,1,9.4-1.8,21.49,21.49,0,0,1,10.1,2.2,20.7,20.7,0,0,1,7.1,6,25.17,25.17,0,0,1,4,8.6,33.7,33.7,0,0,1,.9,10.1H217.7C217.9,47.1,218.9,50.1,220.8,51.9Zm14-23.9a9,9,0,0,0-6.8-2.5,10.88,10.88,0,0,0-5,1,10.19,10.19,0,0,0-3.2,2.5,11,11,0,0,0-1.7,3.2,19.85,19.85,0,0,0-.6,3h20.4a13.36,13.36,0,0,0-3.1-7.2ZM267.6.1V62.7H255.1V.1Zm17.6,51.4a8.42,8.42,0,0,0,2.2,2.4,10.32,10.32,0,0,0,3,1.4,13.7,13.7,0,0,0,3.6.4,14.07,14.07,0,0,0,2.8-.3,7.42,7.42,0,0,0,2.6-1,5.67,5.67,0,0,0,2-1.8,4.88,4.88,0,0,0,.8-2.8c0-1.9-1.2-3.3-3.7-4.2a73.12,73.12,0,0,0-10.4-2.8c-1.8-.4-3.6-.9-5.3-1.4a19.61,19.61,0,0,1-4.6-2.2,10.41,10.41,0,0,1-3.2-3.4,10,10,0,0,1-1.2-5,14.2,14.2,0,0,1,1.7-7.2,11.88,11.88,0,0,1,4.5-4.4,21.52,21.52,0,0,1,6.3-2.3,41.85,41.85,0,0,1,7.2-.7,32.89,32.89,0,0,1,7.1.7,20,20,0,0,1,6.2,2.4,14.52,14.52,0,0,1,4.5,4.4,15.64,15.64,0,0,1,2.2,7H301.7c-.2-2.4-1.1-4-2.7-4.9a11.83,11.83,0,0,0-5.8-1.3,18.48,18.48,0,0,0-2.3.1,7.09,7.09,0,0,0-2.2.6,4.31,4.31,0,0,0-1.7,1.3,3.23,3.23,0,0,0-.7,2.2,3.42,3.42,0,0,0,1.2,2.7,8.82,8.82,0,0,0,3.2,1.7q1.95.6,4.5,1.2c1.7.4,3.4.7,5.2,1.1a46.08,46.08,0,0,1,5.3,1.5,19.78,19.78,0,0,1,4.6,2.3,12.21,12.21,0,0,1,3.2,3.6,10.66,10.66,0,0,1,1.2,5.3,14.36,14.36,0,0,1-1.8,7.5,15.71,15.71,0,0,1-4.7,4.9,19.4,19.4,0,0,1-6.6,2.6,38.39,38.39,0,0,1-7.6.7,39.45,39.45,0,0,1-7.7-.8,19.94,19.94,0,0,1-6.7-2.6,13.28,13.28,0,0,1-4.8-4.9,15.49,15.49,0,0,1-2.1-7.6h11.8a5.85,5.85,0,0,0,.7,3.6ZM478.7.1V33.7l15.7-16.3h14.7L492,34.1l19,28.7H495.9L483.5,42.6l-4.8,4.6V62.8H466.2V.2h12.5Zm44.7,51.8q2.85,2.7,8.1,2.7a10.84,10.84,0,0,0,6.5-1.9,8,8,0,0,0,3.3-4h11c-1.8,5.4-4.4,9.3-8.1,11.7a23.93,23.93,0,0,1-13.1,3.5,26.09,26.09,0,0,1-9.6-1.7,19.59,19.59,0,0,1-7.3-4.9,22,22,0,0,1-4.6-7.5,27,27,0,0,1-1.6-9.7,27.13,27.13,0,0,1,1.7-9.5,22.65,22.65,0,0,1,4.7-7.6,22.07,22.07,0,0,1,7.3-5,23.87,23.87,0,0,1,9.4-1.8,21.49,21.49,0,0,1,10.1,2.2,20.7,20.7,0,0,1,7.1,6,25.17,25.17,0,0,1,4,8.6,33.7,33.7,0,0,1,.9,10.1H520.5c0,4,1,7,2.9,8.8Zm14-23.9a9,9,0,0,0-6.8-2.5,10.88,10.88,0,0,0-5,1,10.19,10.19,0,0,0-3.2,2.5,11,11,0,0,0-1.7,3.2,19.85,19.85,0,0,0-.6,3h20.2A12,12,0,0,0,537.4,28ZM188.1.1V22H188a12.75,12.75,0,0,0-5.7-4.3,20.43,20.43,0,0,0-16.5.5,20,20,0,0,0-6.3,5.2,24.11,24.11,0,0,0-3.8,7.5,32.29,32.29,0,0,0-1.3,8.8,30.35,30.35,0,0,0,1.3,9.1,23.61,23.61,0,0,0,3.8,7.8,18.67,18.67,0,0,0,6.4,5.4,19.45,19.45,0,0,0,8.9,2,21,21,0,0,0,7.6-1.3,13.42,13.42,0,0,0,6.1-4.6h.2v4.8h11.8V.3H188.1ZM177.2,54.7c-8.2,0-11.7-7.6-11.7-14.7,0-7.5,3-14.7,11.7-14.7s11.4,7.2,11.4,14.6S186,54.7,177.2,54.7ZM319.3.1V62.7h11.8V58h.2a13.42,13.42,0,0,0,6.1,4.6,21,21,0,0,0,7.6,1.3,19.16,19.16,0,0,0,8.9-2,17.63,17.63,0,0,0,6.4-5.4,24.64,24.64,0,0,0,3.8-7.8,34.49,34.49,0,0,0,1.3-9.1,28.86,28.86,0,0,0-1.3-8.8,22.14,22.14,0,0,0-3.8-7.5,19.75,19.75,0,0,0-22.8-5.7,14.38,14.38,0,0,0-5.7,4.3h-.1V0H319.3Zm12,39.8c0-7.4,2.8-14.6,11.4-14.6s11.7,7.2,11.7,14.7c0,7.1-3.5,14.7-11.7,14.7C333.9,54.7,331.3,47.4,331.3,39.9Z"/></g></g></svg>