<svg xmlns="http://www.w3.org/2000/svg" viewBox="0 0 300 62.69"><defs><style>.cls-1{fill:#e30613;}.cls-2{fill:#00456d;}</style></defs><g id="Layer_2" data-name="Layer 2"><g id="svg22"><path id="path4" class="cls-1" d="M286.66,6.69A6.69,6.69,0,1,1,280,0h0a6.66,6.66,0,0,1,6.69,6.62v.07"/><path id="path6" class="cls-1" d="M300,30.72H269.31v-4H300V23.91a6.68,6.68,0,0,0-6.69-6.69H266.62A6.66,6.66,0,0,0,260,23.88V38.59h30.65v4.07H260v2.65A6.65,6.65,0,0,0,266.56,52h26.75A6.69,6.69,0,0,0,300,45.38Z"/><rect id="rect8" class="cls-2" x="235.66" y="2.06" width="3.03" height="60.63"/><path id="path10" class="cls-2" d="M124.12,43.75V36.41c-6.43-.19-9.37,2.12-9.37,5.47a4,4,0,0,0,3.64,4.26l.36,0a7.55,7.55,0,0,0,5.5-2.41M134.75,52H125l-.25-3.12a18.8,18.8,0,0,1-11.16,3.81,9.37,9.37,0,0,1-9.37-9.09c0-8.66,7.22-11.75,20.12-12,0-4.75-.71-7.38-6-7.41a19.06,19.06,0,0,0-9.85,2.88L107.47,21a27.68,27.68,0,0,1,13.66-3.59c8.5,0,13.84,3.12,13.84,11Z"/><path id="path12" class="cls-2" d="M153.75,27V42.66A9.41,9.41,0,0,0,160,45.47c5,0,8.12-4,8.12-10.81s-3.87-10.38-8.28-10.38a8.89,8.89,0,0,0-6.25,2.6m0-25V19.81a14.69,14.69,0,0,1,8.91-2.5c9.78,0,16.53,7.25,16.53,17.57s-6.53,17.84-15.78,17.84a15.82,15.82,0,0,1-9.37-3.13V52H143.09V2Z"/><path id="path14" class="cls-2" d="M203.75,43.75V36.41c-6.41-.22-9.37,2.09-9.37,5.43A4,4,0,0,0,198,46.11l.29,0a7.48,7.48,0,0,0,5.47-2.41M214.41,52H204.5l-.25-3.12a18.51,18.51,0,0,1-11.16,3.81,9.37,9.37,0,0,1-9.37-9.09c0-8.66,7.22-11.75,20.12-12,0-4.75-.71-7.38-5.93-7.41A19.07,19.07,0,0,0,188,27.13L187,21a27.68,27.68,0,0,1,13.66-3.59c8.53,0,13.87,3.12,13.87,11Z"/><path id="path16" class="cls-2" d="M57.66,31.16H71c-.41-4.6-2.85-7.63-6.25-7.63s-6.53,2.91-6.94,7.63M77.34,43.34l2.5,5.22a23.8,23.8,0,0,1-13.9,4.07c-11.44,0-18.75-7.07-18.75-17.41A16.9,16.9,0,0,1,63.06,17.34c.43,0,.86,0,1.28,0,9.38,0,17.07,7.38,16.57,19.75H57.56c.28,5.88,4.38,8.82,10.78,8.88a16.72,16.72,0,0,0,8.88-2.6"/><polygon id="polygon18" class="cls-2" points="0 2.09 0 52.06 11.69 52.06 11.69 31.41 29.44 31.41 29.44 52.06 41.09 52.06 41.09 2.09 29.44 2.09 29.44 22.19 11.69 22.19 11.69 2.09 0 2.09"/><rect id="rect20" class="cls-2" x="87" y="2.06" width="10.66" height="50"/></g></g></svg>