<svg xmlns="http://www.w3.org/2000/svg" viewBox="0 0 995.27 478.78"><defs><style>.cls-1{fill:#1a171b;}</style></defs><g id="Layer_2" data-name="Layer 2"><g id="svg4356"><path id="path4259" class="cls-1" d="M884.87,206.24,927,230.54l-42.17,24.35-42.14-24.35Zm-8.73-63.67v48.61L834,215.55V166.89l42.15-24.32Zm-101.65-.07,42.12,24.35v48.67l-42.12-24.37V142.5Zm50.79-39.35,42.13,24.27-42.13,24.36-42.15-24.36Zm119.16,0,42.16,24.27-42.16,24.36L902.3,127.42ZM816.61,39.4V88.06l-42.12,24.32V63.72Zm136.51,0,42.15,24.32v48.66l-42.15-24.3ZM834,39.38l42.15,24.29v48.66L834,88Zm101.71,0V88l-42.1,24.3V63.67ZM995.27,142.5l-42.14,24.35v48.67l42.15-24.34V142.5Zm-101.67,0,42.1,24.35,0,48.67L893.6,191.15V142.5ZM927,24.33,884.86,48.68,842.73,24.33,884.86,0ZM75.29,320.7c.23,0,.44,0,.72,0a4.52,4.52,0,0,1,.53,0c1.08,0,2.31-.1,3.89-.18,2.91-.18,6.95-.48,13.39-.48,2.94,0,5.68.21,8.32.35,2.19.17,4.32.31,6.3.31,1.44,0,2.22-1.72,2.22-2.38,0-1.88-2.22-2.44-4.72-3.13-4.22-1.12-9.45-2.53-9.45-9.33V223.4c0-6.7,4.24-7.85,7.29-8.72,1.64-.41,3.14-.85,3.14-2.15,0-2-1.58-3-4.87-3-1.32,0-2.51.12-3.91.25a68.32,68.32,0,0,1-7.3.39c-1.24,0-3.46-.12-6-.25-3.37-.17-7.21-.39-10.15-.39-2.21,0-3.18.66-3.18,2.22,0,1.71,1.84,2.25,3.92,2.9,3.44,1,7.79,2.37,7.79,8.78v32.18c0,2-.12,3.17-.52,3.58a.23.23,0,0,1-.23.12H28.7c-1.83,0-1.83,0-1.83-2.28V223.4c0-7.32,4.51-8.52,7.83-9.43,1.8-.5,3.34-.93,3.34-2.36s-1.14-2.11-3.45-2.11-4.87.18-7.28.31-4.77.33-7.2.33c-2.82,0-5.74-.17-8.49-.33S5.91,209.5,3,209.5c-2.43,0-3,1.21-3,2.22,0,1.64,2,2.07,4.27,2.61,3.86.9,9.15,2.17,9.25,9.07V303c0,9.59-4.75,10.88-8.26,11.79-2,.5-3.86,1-3.86,3,0,.69,0,2.86,2.21,2.86.19,0,.35-.05.65-.08C5.33,320.43,8.13,320,17,320c5.54,0,12.42.32,17,.48,2.31.1,4,.18,4.67.18,1.8,0,3-.69,3-1.76,0-2.36-2.63-3-5.66-3.75-4.26-1.09-9.11-2.32-9.11-8.24V268.19c0-1.79.06-2.11,1.35-2.11H82.46a1.36,1.36,0,0,1,.67.1,3.12,3.12,0,0,1,.1,1.73c0,.47,0,1,0,1.5v37.33c0,5.71-3.9,7.11-7,8.2-2.06.74-3.89,1.39-3.89,3.18,0,2.58,2.26,2.58,3,2.58m77.58,1.06c33.24,0,45-17.87,45-33.19,0-23.92-19.34-29.52-36.48-34.48-14.32-4.17-26.62-7.75-26.62-20.58,0-13.59,12.44-19.72,24.8-19.72,14.16,0,24.8,7.24,29.19,19.9.56,1.57,1.69,5,3.79,5a2.15,2.15,0,0,0,1.73-.69,2.67,2.67,0,0,0,.49-2.28l-2.56-18.32-.08-.16c-.76-1.32-3-2-3.62-2.11-1-.68-10.48-6.64-27.84-7l-1.16,0c-16.32,0-33.89,9.31-33.89,29.78,0,22.21,18.87,27.61,35.47,32.42,14.23,4.08,27.66,7.91,27.66,21.39,0,16.52-14.87,24-28.71,24-21.46,0-30.48-16.55-32.15-22.88-.13-.57-.23-1-.33-1.43-.53-2.44-.89-4.16-3.15-4.16a2.21,2.21,0,0,0-1.71.81c-.74.91-.92,2.54-.48,4.7l3.87,20.05c.77,3.37,15.86,9,26.76,9M287,320.7a5.54,5.54,0,0,0,.71,0c.19,0,.42,0,.58,0,1.07,0,2.27-.09,3.85-.17,2.94-.18,7-.48,13.42-.48,3,0,5.7.2,8.32.35,2.23.16,4.34.3,6.27.3,1.48,0,2.25-1.71,2.25-2.38,0-1.88-2.24-2.44-4.75-3.12-4.19-1.12-9.41-2.53-9.41-9.33V223.4c0-6.71,4.22-7.85,7.28-8.73,1.68-.4,3.17-.85,3.17-2.15,0-2-1.61-3-4.91-3a36.45,36.45,0,0,0-3.87.26,72.18,72.18,0,0,1-7.34.39c-1.21,0-3.47-.13-6-.25-3.38-.17-7.22-.4-10.19-.4-2.19,0-3.14.67-3.14,2.22,0,1.71,1.87,2.25,3.93,2.9,3.44,1,7.73,2.38,7.73,8.79v31.86l0,.32c0,2-.1,3.17-.49,3.57a.25.25,0,0,1-.27.13H240.43c-1.78,0-1.78,0-1.78-2.29V223.4c0-7.33,4.51-8.52,7.8-9.44,1.84-.49,3.41-.92,3.41-2.36s-1.2-2.11-3.46-2.11c-2.49,0-4.91.18-7.3.31s-4.78.34-7.21.34c-2.84,0-5.71-.18-8.52-.34s-5.68-.31-8.53-.31c-2.55,0-3.06,1.21-3.06,2.22,0,1.65,2,2.08,4.27,2.61,3.88.91,9.19,2.18,9.27,9.08V303c0,9.59-4.79,10.87-8.29,11.78-2,.51-3.85,1-3.85,3,0,.69,0,2.85,2.21,2.85.16,0,.33,0,.65-.07,1-.15,3.89-.58,12.72-.58,5.53,0,12.43.32,17,.48,2.29.1,3.94.17,4.64.17,1.82,0,3-.68,3-1.75,0-2.36-2.64-3-5.67-3.75-4.29-1.09-9.12-2.32-9.12-8.24V268.19c0-1.79,0-2.11,1.33-2.11h54.23c.27,0,.57,0,.66.1a3.15,3.15,0,0,1,.15,1.72c0,.47-.08,1-.08,1.51v37.33c0,5.7-3.87,7.11-7,8.2-2.1.73-3.89,1.38-3.89,3.17,0,2.58,2.26,2.58,3,2.58M85.52,358.34h28.05V477.1H81.73L32.26,399.75V476H4.18V358.34h32.4l48.94,76.41ZM256,416.68c0,37.25-26.94,62.1-61.93,62.1-34.84,0-61.36-21.6-61.36-61.34,0-37.29,26.75-61.92,61.75-61.92S256,377,256,416.68m-30.12.76c0-22.61-11.85-37.84-31.81-37.84s-31.22,15.07-31.22,37.08c0,22.6,11.62,38,31.8,38,19.72,0,31.23-15.24,31.23-37.26M305.14,476H275.2V358.34h47.24c31.22,0,47.64,14.52,47.64,37.26,0,15.79-8.28,27.84-24.1,33.88L376.07,476H342.4l-23.49-39.55-13.77,1.12V476Zm14.47-61c12.82-1,19.77-6.23,19.77-17.51,0-10.36-7.12-15.46-22.2-15.46H304.6v33.34l15-.37Zm180.51,1.28c0,36.18-23.9,59.7-67,59.7H391V358.34h44.22c41.42,0,64.94,23,64.94,58M470,417.44c0-24.3-12.25-35.22-36.73-35.22H420.92v69.87h13.9c21.63,0,35.22-11.11,35.22-34.65m122.31-3c15,2.84,25.4,12.81,25.4,27.31,0,18.83-10,34.27-47.62,34.27H518.74V358.34h51c35.08,0,44.46,13.34,44.46,30.67,0,13.39-8.28,21.65-21.83,25.4m-8.11-20.5c0-8.67-6-13.19-17.32-13.19H547.76v27.11H565.4c12.45,0,18.84-5.08,18.84-13.92M587.65,440c0-9.95-8.1-13.52-20.73-13.52H547.76v27.1h20.08c13.56,0,19.81-4.32,19.81-13.58m155.83,36H713.74l-8.67-25.1H661.41L653,476H623.21L665,358.34h37.43Zm-60-94.51-15.62,46.11h30.67ZM837,358.34h28.1V477.1H833.24l-49.48-77.35V476h-28V358.34h32.32L837,434.75V358.34Zm82.29,52,39.15-52h34.25l-46.5,57.41L993.78,476H958.06l-38.79-51.76h-.19V476H889.15V358.34h29.93v52Z"/></g></g></svg>