<svg xmlns="http://www.w3.org/2000/svg" viewBox="0 0 2078.3 528.1"><defs><style>.cls-1{fill:#1a3b73;}.cls-1,.cls-2,.cls-3{fill-rule:evenodd;}.cls-2{fill:#fff;}.cls-3{fill:#db812e;}</style></defs><g id="Layer_2" data-name="Layer 2"><g id="Layer_1-2" data-name="Layer 1"><path class="cls-1" d="M12.9,146.19c15.62,0,26.5,3.31,33.25,10.06,7.57,7.55,11,20.05,11,40.48V452c0,35.34-7.41,51.09-51.12,51.09H0V518.8H196.43V503.21l-5.93-.08c-43.29-.52-50.6-16.19-50.6-51.09V196.73c0-20.37,3.38-32.81,10.94-40.36,6.83-6.86,17.91-10.18,33.85-10.18h11.74V130.3H0v15.89ZM641.13,388.58s-3.41-15.94-3.9-24.88V247.09c-.76-68,8.51-101.85-50.94-101.59V130.22H723.05V145.5c-61.23-.25-53.52,33.61-53.88,101.59V519.38l-19.46-.21L354.37,210.1S357.71,226,358.2,235v191c-1.67,69.66,6.95,78.07,51.83,77.26v15.91H267.42V503.17c45,.05,53.78-5.92,53.74-82.94V236.64l-.37-29.87c1.68-38.66-12.6-61.08-56.19-60.71V130.77H395.86Zm495.1-265.78h-15.07l-.72,5.18c-1,7.7-4,20.59-12.84,20.59-2.5,0-8.74-1.18-15.75-4.38-30.53-13.23-70.1-21.39-103.41-21.39-64.82,0-123.6,23.22-165.6,65.4-38.57,38.75-59.67,91.5-59.37,148.5.27,54.6,21.73,99.53,65.67,137.38,44.27,37.87,93.87,54,165.94,54,60,0,94.41-8.63,147.15-36.93l9.23-5V384.27c0-43.42,5.34-50.18,40.66-51.6l5.74-.22V317.32H1025.25v15.13l5.74.22c39.35,1.53,46.77,8.58,46.77,44.48v94.41c-29.18,19.26-50.4,26.58-77.16,26.58-39.59,0-74.83-15.31-101.89-42.34-31.68-31.71-47.14-77.89-47.14-130.08,0-56.23,15-104.19,45.81-135,24.55-24.55,57.16-38.18,94.35-38.18,33.23,0,71.82,14.25,98.29,35.25,21.55,17.64,32.72,34.68,41.14,62.87l1.27,4.26h14.75l-11-132.11Z"/><path class="cls-2" d="M1892.2,517.76c9.6-1.45,19.8-1.23,27.43-8.26a126,126,0,0,0,90.79-20.9,190,190,0,0,0,35.31-37.12c8.62-12.1,15.43-23.37,19.81-36.91a169.05,169.05,0,0,0,7.83-26c9.25-42.08,4.39-89.12-9.3-129.14q-3.74-11-8.48-21.5c-17.09-35.32-40.37-73.44-76.2-95.79-20.16-12.58-38.75-32.05-50.15-52.19-6.19-5.59-12.14-13-20.14-14.31,2.18,3.62,4.6,7.15,5.19,11.39l-.46.6c-8.53.24-15.17-4.26-21-9.7l6.41-5.83c-2.41-1.23-5.21-1.7-7.9-2.32-24.5-2.79-44.65,8.51-66.36,14l-.35,1.21c13.34,5.94,16.13,20.66,23.91,30.59,1.92-2.31,5.19-.62,7.87-.83,3.88.21,7.53,3,11.3,2,.1-3.26-1.72-5.83-2.31-8.73,2.31-1.09,5.07-.13,7.65,0,7,4.11,18.29-.73,22.7,8.73-8,.49-15.55,2.19-23.07,4,.5,3,3.51,5.46,3.27,8.49a76.06,76.06,0,0,0-20.39-5.2l-.35,1.08c9.09,10.69,21.61,17,34.34,20.75,18.34,4.24,34.48-4.49,52.18-1.45,43.47,19.91,80.61,65.44,96.77,108.66q1.18,3.1,2.25,6.32c13.53,39.46,16.09,88,2.56,129.14-7.23,17.12-15.15,33.28-27.89,47.21a97,97,0,0,1-15.91,15.66c-18.24,14.19-40.69,20.44-63.84,14.09-1.46-1-4.38-1.25-3.88-3.78.8-3.38,1.55-6.81,2.21-10.31a256.22,256.22,0,0,0,4.56-61.24l-.07-2.66c-1.27-30.13-7.28-57.21-18.34-83.26-7.1-14.95-15.55-31.26-26.18-45.89-12.67-17.45-28.39-32.52-48.61-40-12.38-3.28-27.69-3.9-37,6.41a25,25,0,0,0-8.49,22.36c-10.44,6.61-22.16,10.19-34.95,11.27-3.14.27-6.33,1.42-9.6,1.37a52.51,52.51,0,0,1-9-.33c-15.38-1.9-30.91-10.19-42.73-19.67-.24-6.31-.61-12.25-.86-18.93-6.78-3.52-12.39-10.2-12.84-18.09l.58-.6a52.54,52.54,0,0,1,10.82,5.2c-1.59-9.47-3.42-18.79-8.13-27.06-4.39-1.82-8.74-3.28-12.87-5.47-4.73-3.12-7.78-8.86-8.48-14.06,4.23,4.13,11.62,2.67,14.92,7-5.72-16.87-5.83-36.17-15.18-51.59-4.73-11.4-17.12-16.62-25.61-25-3.27-4-4.61-9.61-10.56-10.22-4.84-1.22-5.22-6.67-6.06-10.2,3,.38,5.58,2.43,8.11,2.92-7-18.66-13.23-39.45-32.27-51.33l-3.27,2.06a206.44,206.44,0,0,1-22.7,1.83c3.27-4.85,9.09-6.93,13.71-9.12-5.34-4-9.73-5-16.42-6-3.88,3.87-10.89,5.82-15.89,6.91l-.61-.49c-.12-4.36-1.11-9.69,5.45-10.81-6.3-3-16.77-1.8-23.2,0-1.8,4.74-7,9-6.64,14.58-3.75,3.88-6.41,9.11-10.31,11.89-.13-9.35,3.85-17.95,5.55-25.84-5.45,2.06-11,5-16.37,7.52A223,223,0,0,0,1487.5,1.2c-.83-.38-2.66-.73-2.31.85,7.9,5.7,4.84,16.39,5.68,24.5l-5-4.11c-2.41-6.2-9.43-10.68-10.61-17.47-8.29,1.59-13.55,3.76-21.2,7l-1.07.61c5.7,0,10.56,4.48,13.35,9-8.61.46-16.27-2.91-24.77-3.79-.83-.83-1.57-1.83-2.92-1.7-4.23,1.58-7.87,4.62-11.62,7.52-8.37,8.28-16.88,17.38-20.87,28.3,2.79.48,6.3.35,8.36,2-4.6,2.79-8.61,7.53-13.1,10.2-1.59,6.31-1.34,13.5-1.69,20.4-3.55,5.36-8.27,10.06-10.56,16-7.52,24.37-9.47,51.46-8.37,79.11-2.45,2.33-5.6,3.79-7.9,5.61l.26,24.74h.59c1.09-5.2,7.29-8.1,11-11.64H1386c-.61,5.59-1.33,11.16-1.44,16.87l-7,5.82c-7,6.2-1.11,15.54-1.69,23.32.48,2,.83,5.09,2.28,5.58.88-3,3.54-5.21,5.24-7.88,3-.72,5.69-3.17,8.48-3.52a129,129,0,0,1-6.08,17.85,21.9,21.9,0,0,0-3.7,3,8.93,8.93,0,0,0-2.48,4.5c5.48,28.77,14.06,57.14,23.89,84.21-6.66,11.3-10.44,24.59-16,36.25q-1.18,2.44-2.18,5c-5.58,14.11-7.28,29.91-14.21,43.45a51.41,51.41,0,0,0-9-4.73c-13.1-4.37-28.3-1.57-37.87,8.51-8.51-1.59-17.23-.12-23.92,4.37a31.66,31.66,0,0,0-10.61,13,26.24,26.24,0,0,0-1.89,11.55c-5.45,3.75-8.37,9.56-10.19,15.41-2.55,13.11,2.08,26.74,9.6,36.83h605v0Z"/><path class="cls-2" d="M1811.85,244.84c-.1,3.15-2.41,6.69-.35,9.35,2.92-3.28,7.78-3.17,11.67-4.62,10.77-1,21.1,2.43,31.18,4.86-2.55-4-4.25-8.48-7-12.14-5.6-1.45-14.09,2.43-15-5.82-3.39-2.92-8.76-.83-12.25-.62a27.88,27.88,0,0,0-8.16,9ZM1440.9,140l-.18-.12,0,.12ZM1485,247.94l7.28-7.05a1.59,1.59,0,0,1,1.44.63l-.61,13.46c3.52,3.29,7.88,4.38,12.49,4.62.38-3.66,3.17-6.2,4.76-9.36,1.33-2.54.48-6.31,3.14-8.13l.83.86c.88,4,.64,8.49,2.71,12,.24,1.93.59,4.38.83,6.08a30.41,30.41,0,0,0,14.32-3.16c-.23-4.62,1.35-8.39,2-12.64,1.12-1.46-1.32-4.12,1.73-4,1.7,3.63,4.7,7.39,6.4,11.27,7-7.15,10-16.5,11.65-26.2-2-2.82-5.19-2.82-7.65-4.62-20.62-6.69-47.1-8-67,2.3-1.29,8.27.41,17.39,5.63,23.93ZM1292.15,475.7c-.76,9.36,0,18.13.59,27.35,1.94,3,5.47,6.56,9,6.81l.63-6.2c1.44-8.64-3.16-17.78,1.7-25.07a59.78,59.78,0,0,1,9.73,4.37c1.41-8-.64-17.34-8.29-22.2l-13.32,14.94Zm30-13.09c-4.73,14.19-8.26,31.73-2.55,46.65,3.27-2.16,6.66-4.24,9.57-7.27-.59-11.43-2.15-23.62,4.6-33.09,6,1.83,10,7.54,12.26,13.13a22.36,22.36,0,0,0,3.77-18.95c.26-5.33-5.82-4.11-8.74-6.31,1-4.5.86-9.7,5.6-12.24L1332,446C1328.3,451.3,1324.17,456.54,1322.11,462.61Zm30,41.91c.61,1.11,0,3,1.22,3.28,1.83-10.18,10.08-16.8,14.57-25.77,2.18-3,2.05-7.29,5.58-9.6,4.73,0,8.15,3.41,12.76,3.77,1.44,1.09-.74,2.05-.86,3.26-1,8.27-4.12,15.12-3.5,23.6h.83c6.43-6.77,10.79-14.13,15.53-21.9l.83-6.9c1.09-8.26-7.88-13.59-13.71-17l5.21-6.68-7.28-2.56a33.26,33.26,0,0,0-22.11,11.07c-7.37,13.58-8.56,28.92-9.06,45.42Zm32.68-72c2.76.86,5.31-1.45,8.1-.23,11.17,4.11,22.83,8.38,31.21,17.72l9.93,25.36,5-15.65-3.3-8.51c-2.76-6.07-10.41-5.58-15.65-5.82-2.16-2.41.13-5.23.85-7.52,2.56-8.62-8-8.14-12.25-11.64.26-5.22-6.06-3.41-9.6-3.89l-1.19-1.45a2.53,2.53,0,0,0-3.55-.26c-.23-.34-.71-.6-.45-1.21l-2.68.61c-3.77,3.3-6.32,7.52-6.42,12.49Zm7-27.9a7.9,7.9,0,0,0,2.53,4.12c5.5-1.46,10.69-5.19,17-2.92,8.16,7.16,16.65,14.68,26.5,18.58l3.5-.62c2.18.75,4.61.86,6.06,3.28,1.36,3.28-2,5.23-3.14,7.89,5.48,4,3.27,11.18,6.69,16l8.72-11.65c-2-5.11.13-13.83-7.87-14.31a7.71,7.71,0,0,1-4.39-7.07c-5.18-4.73-11.64-6.77-16.87-11.63-4.23-3.41-6.78-8.62-12.26-9.84a45,45,0,0,0-12.23-4.11c-8.15-1.2-8.88,8.49-14.24,12.26Zm11.66-23.91,1.44,2.31c6.08-.37,11.56-3,17.51-2.92,4,2.44,9.22,2.32,13.32,4.37,3.3,4.49,6.81,9.58,11.65,12.63,9.85,1.45,15.3,12,18.69,19.77v-3.76c1.46-5.2-.11-11.29-2-16-2.44-2.44-6-4-8.48-6.2-.51-1.57-.13-2.32.35-3.77-3.78-4-9.36-6.2-14-9.33-6.43-9.36-18.82-6.81-28.65-9.36l-9.82,12.27Zm-.21-89.05c1.09,3.77,2.39,8.51,3.12,12.51,3.4-7.53,10.1-10.9,16.05-17.09-3.42-2.34-7.65-3.41-11.4-4.15v-.22C1408.32,285.33,1404.18,288,1403.22,291.62Zm22.07,39.94,5.44-5.59c5.48-5.57,10-12,10.79-19.16-3.87-2.33-9-.76-12.71.58-1.37,7.91-3.39,15.68-3.52,24.17Zm4,17.11c8.38.49,16.51,2.17,23.33-2.53l6.76-21.86c-2.16-.13-4.36-1.09-6.41-.37-4.47,10-13.5,19.79-23.68,24.76Zm2.48-77.43c5.44,8,14.56,17,23.91,19.55-1.11-10.2-9.83-17.25-14.32-26l-.26-2.92c-3.51-3.41-7.78-5.69-11.42-7.53-.6,5.83,1,11.44,2.09,16.88Zm29.57,78.4c6.46,1.12,13.34,0,19.3-1.84,8.63-2,13.37-11.51,16.29-18.91h-10.82l-11.65,11.4c-4.62,2.44-9,6.1-13.12,9.35Zm-1.3-89.45a70.74,70.74,0,0,0,11.3,26.21l1.44-18.08Zm39.79,47.21c.71-6-1.8-13.1-2.53-19.27-3.64-2.45-8.74-2.21-12.49-4.61C1485,293.1,1492.55,301.22,1499.81,307.4Zm-11.06,61.69a120.77,120.77,0,0,0,22.08-9c4.49-6.41,11.3-12.27,12.26-19.78-5.58,1.58-10.44-.22-15.63,2.32-3.16,5.69-5.12,12.14-11.19,16.26C1495.31,363,1490.82,365.8,1488.75,369.09Zm11.9,14.92,9.1,11.88c4.86,1.59,10.94,1.09,15.17-1.69l-3.29-10.81C1515.22,385.84,1507.59,385.09,1500.65,384Zm15.18-86,3.51,16c8.49-6.92,10.21-17,10-27.68C1524.49,292,1521.63,295.39,1515.83,298.05Zm23.89,28.3a11.84,11.84,0,0,0,2.07,6.32c9.47,3.38,10.44,14.93,19.2,19.28,5.69,2.55,12.23-.61,17.22-2.9-3.75-4.26-8-7.19-11.64-11.67-2.56-1.09-5.13-2.66-5-5.82l-21.85-5.21Zm7.52,57.29c4.15,4.73,9.73,7.16,15.55,8.48-1-1.34.61,0,.86-.83l-7.29-16c-3.62.1-7.39.83-10.79.59a32.42,32.42,0,0,0,1.67,7.76Zm12.89-74.79c-3.42-7.88-4.83-17.47-5.79-26.19-3.65,4.37-7.4,7.16-10.82,11.63-1.57,9,11.24,11.19,16.61,14.56Zm14.8-8.23c4.39,5.69,14,3.75,19.33,2.05-2.56-4.37-10.79-6.91-12.23-11.65a107.35,107.35,0,0,0-5.24-24.15c-4.24,10.31-9.39,22.58-1.86,33.75Zm7.64,25.73c12.14,8.87,24,19.18,41,15.42,1.22-.85,3.27-.75,3.51-2.32-5-3.16-10.31-5.59-15.42-8.48l-5.8-8.51h-2.68c-6.56,2.19-13.61,3-20.65,3.89Zm.26,98.44h.83c7.29-5.81,15.91-7.77,24.53-10.21,2.33.86.85,3.4,2.91,4.4,5.22-2.2,11.56-1.71,16.88-3.53,6.43.25,11.67.37,16.87,3.15,4.13,5.46,11.91,4.87,17.25,8.49l-.85-8.49c-11.28-13.24-28.89-14.2-45.14-14l-.38-1.71a29.15,29.15,0,0,0-11.88,2.57c-5.21.22-10.18,2.78-15.17,4.37-2.33,4.6-4.15,10.16-5.85,14.91Zm9.75-149.18c4.71,6.2,11.75,10.92,19.78,9.35-4.12-4-8.87-8.26-9.12-13.95,1.22-10.8-10.66-11.64-16.48-17.25C1588.68,261.05,1588.45,269.17,1592.58,275.61Zm-1.24,170.67h1.41c6.46-4,15.81-1,22.12-5.22,3.51-1.83,3.74,3,6.18,4.35,6,3.65,6.67,14.57,15,12,10.07,5.22,7.52,17.49,7.9,26.47l9.35-5.83c-.86-4.73,1.8-10.46-1.22-14.57-2.31-5.2-8.61-5.7-11.65-9.94,3.65-6.21-4.6-9.1-6.3-13.6l.48-.61,12.84,1.7c4.41,2.65,6,7.52,7.29,12,10.07,1.69,12.49,13.09,16,20.4,2-5,2.92-10.34,5-15.18.1-4-5.24-4-7.9-5.81-.74-6.2-3.54-12.05-9-15.8-11.16-2.78-21-9-33.25-9l-10.21,3.15c-5.57,1.34-11.53-.36-15.76,3.52-6.31.46-6.82,7.4-8.36,11.9Zm6.41-50,2.3,1.09c5-2.32,10-5,15.2-6.93,8.11-2.29,14.41,6.93,21.24,1.12,2.55-1.83,4.7.83,6.66,2.29,2.92,5.35,9.73,5,14.8,6.44-2.53-6.9-5.68-16.39-14.54-17.5-3.51-1.57-7.65-1.43-11.05-3.52-9.35-10.31-15.41,8.49-25.61,3.88-3.66,4-8.14,7.78-9,13.13Z"/><path class="cls-2" d="M1600.05,455.39c3.88,3.24,7.88,8.86,14,8.1,7.55,3.53,4.38,13.48,8.51,18.69l4.36-3.89-.35-.23.6-.61.26.36c1.2-3.64-.5-10.09-2.55-14.33-2.82-1.92-6.08.13-8.74-1.7-.38-3.88-2.79-5.82-5.58-8.23-1.94-1.47-4.51.48-6.69.35l-3.78,1.49Zm15.2-148c4,6.69,11.76,10.82,18,15.42a28.69,28.69,0,0,0,17.22,1.7,111.2,111.2,0,0,1-14.33-14.21c-1.7-2.42-2-5.45-4.36-7.64C1626,303.77,1619.61,303.67,1615.25,307.4Zm6.68-43.43c5.61,6.9,14.22,4.11,22.09,4.37v-.85l-12.14-10.22c-3.41,1.11-7,4.13-10,6.7ZM1398.49,149.5l7,21.85c-.11-12.39,5.6-22.68,4.38-35.32l5.24-7.77-11.08,3.4C1401.15,137.23,1398.75,142.83,1398.49,149.5Zm4.73-37.88,9.58-5.57V91.83c-4,2.45-6.22,6.56-9.35,9.85Z"/><path class="cls-2" d="M1600.11,133.72c-2.34,3-5.83,3.77-8.75,4.37,5.1-9.35,7.53-22.34,3.51-32.91,2.68-1,5.6-1.43,8.13-2.91l-.24-.23,6.7-5.84c8.84-6.07,5.44-17.6,8.74-26.21-4.39-6.8-5.72-15.06-12-20.78l.38-.22c-5-6.31-14-5.6-20.78-8.75-9-3-15.91,3.15-22.35,7.3-2.78.48-1.09,4.12-4.09,4-1.7,4.49-3.78,9.36-5,14.32-12-1.7-25-.35-34.57,6.44-5.13-3.75-11.3-4.49-17.25-6.19-4.36-.84-9.36.74-12.49-1.71-4.61-5.2-5.61-14.67-13.51-16-2.76-1-3.37-4-3.37-6.69-5.24-.83-9.85-3.25-14.94-4.37-7.76-3.52-13.93,2.07-19.78,5.82-2.55,1.12-5.47,1.46-7.87,3-4.36,6.78-8.51,13.71-11.3,21.22.86,6.18,3.52,11.66,6.7,16.87,2.78,7.89,11.53,14.07,18.92,17.25a71.82,71.82,0,0,0,0,38.48l-.21.13c-.12.12-.25.23-.38.34-1.16,0-2.41.22-3.37-.34h-.15c1.7,11.6,7.17,21.74,16,30.44,3.16,1.12,2.45,4.86,3.77,7.3a5.66,5.66,0,0,1,.61,4.36,95.13,95.13,0,0,0-51,12.74c-3.88,1.94-2.18,7.29-2.56,11.05,10.69-7,22.22-12.26,35-14.56,5.44-.36,11.64-1.69,16.87-.24l.61,10.44c-14.44,7.52-30.22,11.88-42.61,24.27.26,3.74-.48,8.14.61,11.29l11-9c10.66-8.1,21.84-15,34.13-19.53,3.27,3.9,6.69,8,11,10.43a82.74,82.74,0,0,1,23.91-10.43c4.49-2.67,11.62-.25,14.54-5.58l2.08-11.05c-.38-.26-.59-.72-1.22-.6-5.69-3.28-9.47-9-9-15.66a16.7,16.7,0,0,1-6.44,1.7c-1.94-.5-3.77-1-4.63-2.92-.13-2.44-1.32-6.07,1.09-7.9,7.9-4.86,18.1-5.11,28.07-4.36,7.39,1,18.07.59,20.62,9.35-.35,2.55-.13,5.33-2.68,7-2.66,1.46-5.7-.13-8.14-1.2-1.91,5.94-5.18,12.63-11.88,14.55l.86,7c.83,3.17,1.06,8.37,6.06,7.29,11.53,2.79,21.71,8.73,31.81,15.17a78.38,78.38,0,0,0,8.48-10.8c18,6.07,33.49,19.53,48.32,32.05l.61-10.2c-14.09-12.5-29.74-21.36-46-28.3a64,64,0,0,0,1.44-9.94,118.82,118.82,0,0,1,53.53,16.38l-.24-8.73c-16.74-9-35.08-14.93-55.12-15.18a6.21,6.21,0,0,1-.83-3.77c9.73-1.58,16.62-11.65,19-20.4,5-5.69,12.14-11.88,10.44-20.38.24-.68.46-1.42.72-2.16.66-2.12,1.19-4.32.48-6.31Z"/><path class="cls-2" d="M1617,164.92l9.93-3.17,1.09-5.58c2.82-8.14-3.13-14.21-6-20.64l-5,29.39Zm25.1,38.48c4.73,5.2,9.35,13.59,17.73,11-.61-3.5-2.56-6.41-3.78-9.57-2.18-2.57-2.89-9.84-7.27-7.28-3.27-2.19-4.1-5.85-6.19-8.75C1641.62,193.31,1642.21,198.91,1642.08,203.4Zm1.7,35.53c1.85,2.57,2.33,5.85,4.12,8.15,3.29,2.17,8.13,1.83,12.14,1.45,3.64-.83,6,3.17,9.35.85-4.23-2.68-6.78-7.54-10.79-11-4.75-3.77-9.83-.49-14.83.58Zm6.45,56.46c8.37,5,19,9.86,30.2,8.15,1.19-.63,3.27-.5,3.5-2-6.91-2.44-14.16-9.36-21.43-10.8-4-6.2-9.24,1.57-14.33,1.07.12,1.47,1.56,2.57,2.06,3.53Zm25.22,107.17,1.83,3.91c1.82,12.63,9.83,24.27,5.44,38.1,3.65,2.54,4.74,6.78,7,10.18h.61c2.78-10.54.85-21.48-.61-32,1.1-9.6-8.63-15.19-14.32-20.16Zm2.1-124.29c6.3,4.87,16.37,5.36,23.66,2.92-4.61-2.53-9.71-5.33-13.48-8.74l-10.18,5.82Zm29.93,37.28c-.61,5.11,2.79,9.36,6.44,11.89,1.34-3,3.5-5.58,3.74-9a22.09,22.09,0,0,0-8.74-13.47c-.85,3.39-1.81,6.66-1.44,10.55Zm.37,55.33c-.83,5.69,5.47,6.44,8.13,9.59,2.2,2.66-1.44,4.49-1.44,7a33,33,0,0,1,7.27,20.65c1.83-7.39,4.61-14.45,5.61-22.1-.48-5.32-9-4.24-7.65-10.18,2.41-6.07-.48-12-2.08-17.47-.48-.87-1.57-2.57-2.53-2.08-2.23,5-7.68,8.49-7.31,14.56ZM1724.49,342l6.3,12.24c2.79-.34,4.59-3,6.78-5,1.73-5.11-2.79-8.37-4.1-12.5-1.11-2.93,0-6.81-2.07-9.36-1.6-1-3.43-2.53-5.24-2.08L1724.49,342Zm8.13-32.29c5,3,10.66,7.4,13.32,12.73,4.28,12.38,11,23.55,16,35.56,1.83,8.38,3.29,15.85,5.58,24.11.88,2.17.37,6.41,3.77,6.06,1-9.22,2.81-18.08,2.92-27.68-3-4-7-5.69-10.79-8.14v-.83c.48-2.07,2.18-4.51,4.73-4.12,1.09-1.24,4.36-2.43,2.92-4.6-6.33-6.32-5.95-17.2-16-19.16-3.52-1.45-4.39-5.08-4.71-8.48C1745.61,311.19,1738.54,309.83,1732.62,309.72Zm5.8,65.79c6.21,5.69,4,13.95,3.51,21.6-.93,4.61,4.86,1.94,6.69,4.36,3.78,5.59,1.6,13.72.24,19.79,3.29-5,7.06-9.35,9.59-14.81-.13-2.06,2.53-3,2.44-5.57,1.09-3.53-3-1.95-4.71-2.33-1.46-.37-3-1.35-2.58-3.28,3.17-6.07.26-13.36-1-19.41-1.44-5,.61-11.65-1.7-16C1747.05,365.18,1735.5,366.4,1738.42,375.51Zm11.29-86.19c10.82,10.94,18.72,21.91,30.35,32.47.26-4.71-.35-9.11-.61-13.73-1.72-3.25-4.86-5.69-7.52-8.1C1763.32,299.09,1758.83,287.51,1749.71,289.32Zm28.3,57.86a17.76,17.76,0,0,0,1.2,3.15,158.8,158.8,0,0,1,12.51,24.14c-1-9,5.1-20.14-2.92-27.06-1.09-2.91-4.73-1.94-7-1.7l-3.75,1.47Zm29.13,88.66c3.4,1.56,7.76-1.24,11-3.16,3-.74,5.58,1,7.87,2.54,1,1.94,0,3.75.36,5.58,7.28,2.07,14.46,4.73,20.89,9l2-2c.48-5.21-3.62-9-7.52-11.88-2.56-1.48-6.33-.62-8.14-2.94,1.22-1.92,1.22-4.84,1.09-7-4,0-6.56-1.22-9.83-3.15-2-.6-3.88-2.3-5.6,0-6,4.12-6.42,10.18-12.22,13.12Zm8.51-152.76c3-.83,6.19-1.71,8.72-3.87,8.13-7.4,19.9-2.44,29.36-2.56a64,64,0,0,0-6.67-9.35c-3.4-1.35-6.56-2.92-10.44-2.92-8.26-4.84-13.82,3.28-20.14,7.28-1.71,3.3-2.55,8.14-.83,11.42Zm.21,25c0-.33,0-.71.37-.83,1.09,1-.13,3.28,1.7,3.76a68.54,68.54,0,0,0,9-5.81c8.13,0,13-7.88,21-7.88,13.35,2.42,26.6,5.08,38.25,11.65-.83-7.9-7.65-15.05-14.56-18.6-3.88-1.33-6.92.75-9.71,2.93-8.15,5.11-3.87-7.41-9.59-7.65-7.42,2.32-15,4.85-23.31,4.13-4.84,1.81-8.26,6.28-13.71,5.83C1815,299.58,1814.41,304.44,1815.86,308.06Zm5.59,27.1c2.55,2.66,6.78,2.16,10.44,2.66l10.56-4.12c.13-1.94-3.17-2.43-2.46-4.6,3-3.28,6.94-1,10.56-2.33,5.13-.72,10.34-5.81,15.42-2-.13.6.26,1.45-.23,2-1.6,3.78,1.09,6.07,4,7.53,6,1.1,11.53,6.56,17.48,4.11a109,109,0,0,0-3.16-14.32c-5-.85-8.49-5-13.1-6.69-2.08,2-4.74,3.41-7.28,3.17-9.35-2.18-20.54-8-30-2.05-3.39,4.11-9.46,2.92-14.08,4.71a55.46,55.46,0,0,0,1.83,11.93Zm4,72.14c-.74,2.06-2.79,5.48,1,6.44,7.78.25,17.72-3.76,23.81,2.3,2,1.59,1.09,4.85,1,6.92l10.18,8.51c1-5.11,2.79-9.73,2.92-15.2a17,17,0,0,0-6.16-10.18c-6.7,0-10.59-7.83-17.76-6.84-3.75-.85-7,2.47-10.79,2.47-1.7,1.7-2.66,3.77-4.12,5.58Zm2.91-57.21c1.57,3.26,3.4,8.61,6.44,9,7.17-3.15,17.57-5.11,25.61-1.7,2.66.49,2.66,3.52,2.08,5.47,4.1,2.43,9.09,4.35,13.45,7l-1.2-7.27c-.26-7.9-10.2-8.64-10.81-16.42a48,48,0,0,0-25.84-1.44c-2.81,2.55-6.81,2.19-10.21,2.93-.23,1,.35,1.56.48,2.43Zm2.08,39.32c4.73-1.34,7.73-6.56,12.84-7a23.7,23.7,0,0,1,19.56,9.95c2.92,1.94,2.31,6.92,6.05,6.92-1.09-6,.86-11.41.64-17.49-5.12-8.48-17.73-1.95-22.46-11.9l-9,.6c-6.43,1.58-4.73,9.13-5.6,14.22-.75,1.58-2.19,2.78-2.06,4.73Zm44.52,53.1c3.78,7.51,12,13.23,12.87,21.87a39.77,39.77,0,0,0,4.6-7.54c-.13-2.44-2.91-2.44-4-4.36-1.06-3.16.64-6,1.12-8.77a23.64,23.64,0,0,0-9.58-11.4l-5,10.2Zm15-19.18,8.74,11.89c3.75-6,3.75-14.68,2.28-21.87-.83-1.33-2.41-3.5-4.6-2.54C1893,414.22,1892.59,419.43,1889.93,423.33ZM1854.35,91.08c3.14,1.58,6.19,3,9.94,3.28,2.55-1.34,5.85-2.3,9-1.45,4.52,2.92,10-.61,15.15-.38-4.59-4.36-9.8-7-15.15-9.57C1866.49,84.4,1861,89.24,1854.35,91.08Zm47.46,11.41c6.43.6,11,6.29,15.41,11.07,5.47.84,9.59,4.72,12.86,8.72l-2-6.44c-1.46-6.45-5.47-11.43-9.57-16.5-5.83.38-11.57.84-16.65,3.15Z"/><path class="cls-3" d="M1448.85,49.23l3.52.36c9.47,4.73,24.77,7.16,25.61,20.87-9.57,3.77-18.79,8.88-26.44,16.62-5.83-5.94-17.6-2.67-19.54-13.09,1.83-9.84,5.32-22.2,16.85-24.76Zm9.12,61.56c11-1,21.71.59,33.14-.37a14.58,14.58,0,0,1,7,6.43c-.38,13.11-4.38,25.62-5,39.08-5,2.07-9.83,6.2-11.05,11.65-4.49,1.33-8.51,4-12.87,6-1.94-4.12-1.57-10.31,1.83-13.69,4.73-6.7,17-5.11,16-15.67,3.17-5.11.13-11.66.26-17-1.22-4-2.41,1.33-4.35,1.2-3.88.83-7.9,1.08-11.28-.84-2.58-2.7-5.74-4.86-6.45-8.51-3.4-1.7-7.4-4.37-9.1-7.88l1.82-.46Zm13.35,79.13c5.18.73,10.66-1.57,15.17,1-1,1.71-3.51,2.43-5.58,2.92l-8.15,3.77c-3-.74-1.31-5.6-1.44-7.65Zm21.23-101.36c5.21-1.7,10.81-5.2,16.39-3.51-4,4-7.14,9.23-10.18,14.06l-16.64-.34c1.82-4.37,6.42-8,10.43-10.21Zm48.69-4c6.88-1.21,6.53,7.77,12.84,8.13,1.11,1.45,2.68,2.79,2.07,5-3.64,1.45-9,.74-13.12,1.7-5.45-3-1.92-12.51-10.56-11.9-.46-.71-1.44-2.18-.23-2.67,2.67-1,6.18-.61,9-.23Zm-4.39,32.53c3-4.27,7.65-4.62,12-5.48l31.44.61c1.32,1.21-1.22,2.3-1.22,3.76-1.95,1.83-4.74,2.33-6.44,4-4.12.13-3.77,5-6.69,7-4.49,4.49-11,2.44-16.26,1.72-1.83-1.35-3.88-3.17-4.74-5.23l-1.46,1.45c1.85,6.81,1.35,14.33,2.68,21.25l7.53,5c.1,11.18,13.24,8.14,18.94,14.33-1.34,4-4,7.4-6.91,10.8a41,41,0,0,0-15.42-9.35c-.48-6.57-7.63-10.44-11.65-13.72-1.09-11.89-1.35-24-3.26-35.58l1.42-.59ZM1548.28,192h14.56l-1.83,7.65-14.59-6.2C1546.1,192.22,1547.41,191.85,1548.28,192Zm26.21-137.5,10.79-3.42A110.73,110.73,0,0,1,1603,61.74c4.51,8.26,3.74,19.42,1.72,28.64-3.29,3.64-10.44,0-13.1,5.82h-.51c-4-11.4-15.4-21.59-26-26.82,1.7-5.82,3.53-11.52,9.35-14.91Z"/><path class="cls-2" d="M1827.63,516.9h64.75c9.6-1.45,19.78-1.2,27.43-8.27a126,126,0,0,0,90.79-20.86,189.53,189.53,0,0,0,35.32-37.13c8.61-12.09,15.42-23.38,19.8-36.9a169.88,169.88,0,0,0,7.81-26c9.27-42.06,4.41-89.1-9.28-129.14a230.22,230.22,0,0,0-8.5-21.47c-17.1-35.32-40.33-73.43-76.17-95.79a153.13,153.13,0,0,1-50.16-52.19c-6.19-5.6-12.14-13-20.17-14.34,2.21,3.65,4.63,7.15,5.24,11.4l-.5.61c-8.49.25-15.18-4.25-21-9.72l6.43-5.82a35.14,35.14,0,0,0-7.9-2.3c-24.53-2.79-44.68,8.48-66.39,14l-.35,1.2c13.34,5.94,16.13,20.63,23.89,30.6,1.94-2.34,5.24-.62,7.9-.87,3.87.25,7.52,3,11.27,2.08.13-3.27-1.68-5.83-2.29-8.73,2.29-1.12,5.1-.13,7.66,0,7,4.12,18.31-.74,22.69,8.73a129.35,129.35,0,0,0-23.07,4c.48,3,3.51,5.48,3.29,8.51a76.25,76.25,0,0,0-20.41-5.23l-.35,1.08c9.12,10.69,21.61,17,34.34,20.78,18.34,4.24,34.48-4.49,52.18-1.45,43.48,19.9,80.58,65.44,96.74,108.66q1.21,3.1,2.29,6.29c13.52,39.46,16.08,88,2.52,129.14-7.19,17.14-15.14,33.28-27.85,47.22a99.15,99.15,0,0,1-15.92,15.67c-18.23,14.2-40.68,20.42-63.84,14.07-1.44-1-4.38-1.22-3.9-3.75.83-3.38,1.57-6.83,2.23-10.32a256.28,256.28,0,0,0,4.59-61.23c0-.89-.08-1.79-.1-2.68-1.27-30.11-7.28-57.19-18.34-83.25-7.09-15-15.55-31.26-26.17-45.9-12.65-17.46-28.39-32.53-48.61-40.06-12.39-3.28-27.69-3.87-37,6.44a24.93,24.93,0,0,0-8.51,22.34c-10.44,6.64-22.19,10.21-35,11.3-3.14.27-6.33,1.41-9.57,1.38a51.85,51.85,0,0,1-9-.36c-15.41-1.91-30.94-10.16-42.76-19.68-.26-6.27-.61-12.25-.86-18.91-6.78-3.52-12.36-10.22-12.84-18.09l.61-.61a50.24,50.24,0,0,1,10.76,5.23c-1.57-9.47-3.37-18.82-8.1-27.07-4.39-1.83-8.77-3.28-12.89-5.47a20.85,20.85,0,0,1-8.46-14.09c4.23,4.15,11.62,2.69,14.91,7.06-5.69-16.88-5.82-36.17-15.17-51.6-4.73-11.41-17.12-16.61-25.62-25-3.29-4-4.6-9.57-10.55-10.2-4.87-1.2-5.22-6.69-6.06-10.19,3,.35,5.58,2.43,8.13,2.91-7.07-18.71-13.24-39.45-32.29-51.34L1602,23.61a200.07,200.07,0,0,1-22.7,1.83c3.27-4.86,9.09-6.91,13.71-9.12-5.34-4-9.75-5-16.44-6.07-3.86,3.91-10.87,5.83-15.87,6.91l-.58-.46C1560,12.34,1559,7,1565.54,5.89c-6.3-3-16.74-1.83-23.18,0-1.82,4.74-7,9-6.66,14.56-3.75,3.9-6.41,9.1-10.31,11.91-.11-9.35,3.85-18,5.55-25.86-5.48,2.05-11,5-16.34,7.54-8.64-5-17.71-10-26.9-13.71-.89-.38-2.71-.75-2.34.83,7.9,5.69,4.84,16.38,5.68,24.53l-5-4.13c-2.41-6.19-9.43-10.67-10.64-17.5-8.26,1.59-13.52,3.79-21.18,7.06l-1.06.6c5.69,0,10.56,4.48,13.35,9-8.61.5-16.27-2.92-24.75-3.76-.86-.86-1.57-1.83-2.94-1.7-4.23,1.58-7.88,4.61-11.62,7.52-8.37,8.24-16.88,17.37-20.9,28.28,2.82.49,6.33.37,8.38,2.07-4.59,2.79-8.61,7.53-13.1,10.19-1.59,6.31-1.35,13.47-1.72,20.4-3.51,5.33-8.24,10.06-10.54,16-7.52,24.4-9.46,51.47-8.36,79.14-2.45,2.3-5.63,3.78-7.9,5.58l.26,24.76h.58c1.12-5.21,7.29-8.13,11-11.64h1.22c-.58,5.58-1.35,11.16-1.44,16.88l-7,5.82c-7,6.2-1.09,15.53-1.7,23.28.48,2.08.83,5.11,2.31,5.61.83-3,3.51-5.23,5.21-7.9,3-.74,5.7-3.17,8.49-3.52a128.89,128.89,0,0,1-6.09,17.84,22.18,22.18,0,0,0-3.69,3,8.47,8.47,0,0,0-2.45,4.53c5.44,28.75,14,57.14,23.89,84.21-6.7,11.27-10.47,24.58-16,36.25q-1.2,2.44-2.17,5c-5.58,14.11-7.29,29.88-14.22,43.45a47,47,0,0,0-9-4.73c-13.12-4.38-28.3-1.59-37.87,8.48-8.51-1.58-17.22-.13-23.91,4.36a31.85,31.85,0,0,0-10.61,13,25.88,25.88,0,0,0-1.88,11.53c-5.48,3.78-8.38,9.59-10.19,15.41-2.58,13.14,2,26.77,9.58,36.84h540.26v0Z"/><path class="cls-3" d="M2064.25,258.61a230.22,230.22,0,0,0-8.5-21.47c-17.1-35.32-40.33-73.43-76.17-95.79a153.13,153.13,0,0,1-50.16-52.19c-6.19-5.6-12.14-13-20.17-14.34,2.21,3.65,4.63,7.15,5.24,11.4l-.5.61c-8.49.25-15.18-4.25-21-9.72l6.44-5.82a35.14,35.14,0,0,0-7.9-2.3c-24.53-2.79-44.68,8.48-66.39,14l-.35,1.2c13.34,5.94,16.13,20.63,23.89,30.6,1.94-2.34,5.24-.62,7.9-.87,3.87.25,7.52,3,11.27,2.08.13-3.27-1.68-5.83-2.29-8.73,2.29-1.12,5.1-.13,7.66,0,7,4.12,18.31-.74,22.69,8.73a129.19,129.19,0,0,0-23.07,4c.48,3,3.51,5.48,3.29,8.51a76.25,76.25,0,0,0-20.41-5.23l-.35,1.08c9.12,10.69,21.61,17,34.34,20.78,18.34,4.24,34.48-4.49,52.18-1.45,43.48,19.9,80.58,65.44,96.74,108.66q1.21,3.1,2.28,6.29c13.53,39.46,16.09,88,2.53,129.14-7.19,17.14-15.14,33.28-27.85,47.22a99.15,99.15,0,0,1-15.92,15.67c-18.23,14.2-40.68,20.42-63.84,14.07-1.44-1-4.38-1.22-3.9-3.75.83-3.38,1.57-6.83,2.23-10.32a256.28,256.28,0,0,0,4.59-61.23c0-.89-.08-1.79-.1-2.68-1.27-30.11-7.28-57.19-18.34-83.25-7.1-15-15.55-31.26-26.17-45.9-12.65-17.46-28.39-32.53-48.61-40.06-12.39-3.28-27.69-3.87-37,6.44a24.93,24.93,0,0,0-8.51,22.34c-10.44,6.64-22.19,10.21-35,11.3-3.14.27-6.33,1.41-9.57,1.38a51.85,51.85,0,0,1-9-.36c-15.41-1.91-30.94-10.16-42.77-19.68-.25-6.27-.6-12.25-.85-18.91-6.78-3.52-12.36-10.22-12.84-18.09l.61-.61a50.24,50.24,0,0,1,10.76,5.23c-1.57-9.47-3.37-18.82-8.1-27.07-4.39-1.83-8.77-3.28-12.89-5.47a20.85,20.85,0,0,1-8.46-14.09c4.23,4.15,11.62,2.69,14.91,7.06-5.69-16.88-5.82-36.17-15.17-51.6-4.73-11.41-17.12-16.61-25.62-25-3.29-4-4.6-9.57-10.55-10.2-4.87-1.2-5.22-6.69-6.06-10.19,3,.35,5.58,2.43,8.13,2.91-7.07-18.71-13.24-39.45-32.29-51.34L1602,23.61a200.07,200.07,0,0,1-22.7,1.83c3.27-4.86,9.09-6.91,13.71-9.12-5.34-4-9.75-5-16.44-6.07-3.86,3.91-10.87,5.83-15.87,6.91l-.58-.46C1560,12.34,1559,7,1565.54,5.89c-6.3-3-16.74-1.83-23.18,0-1.82,4.74-7,9-6.66,14.56-3.75,3.9-6.41,9.1-10.31,11.91-.11-9.35,3.85-18,5.55-25.86-5.48,2.05-11,5-16.34,7.54-8.64-5-17.71-10-26.9-13.71-.89-.38-2.71-.75-2.34.83,7.9,5.69,4.84,16.38,5.68,24.53l-5-4.13c-2.41-6.19-9.43-10.67-10.64-17.5-8.26,1.59-13.52,3.79-21.18,7.06l-1.06.6c5.69,0,10.56,4.48,13.35,9-8.62.5-16.27-2.92-24.75-3.76-.86-.86-1.57-1.83-2.94-1.7-4.23,1.58-7.88,4.61-11.62,7.52-8.37,8.24-16.88,17.37-20.9,28.28,2.82.49,6.33.37,8.38,2.07-4.59,2.79-8.61,7.53-13.1,10.19-1.6,6.31-1.35,13.47-1.72,20.4-3.51,5.33-8.24,10.06-10.54,16-7.52,24.4-9.46,51.47-8.36,79.14-2.45,2.3-5.63,3.78-7.9,5.58l.26,24.76h.58c1.12-5.21,7.29-8.13,11-11.64h1.22c-.58,5.58-1.35,11.16-1.44,16.88l-7,5.82c-7,6.2-1.09,15.53-1.7,23.28.48,2.08.83,5.11,2.31,5.61.83-3,3.51-5.23,5.21-7.9,3-.74,5.7-3.17,8.49-3.52a128.89,128.89,0,0,1-6.09,17.84,22.18,22.18,0,0,0-3.69,3,8.55,8.55,0,0,0-2.46,4.53c5.45,28.75,14,57.14,23.9,84.21-6.7,11.27-10.47,24.58-16,36.25q-1.2,2.44-2.17,5c-5.58,14.11-7.29,29.88-14.22,43.45a47,47,0,0,0-9-4.73c-13.12-4.38-28.3-1.59-37.87,8.48-8.51-1.58-17.22-.13-23.92,4.36a31.9,31.9,0,0,0-10.6,13,25.88,25.88,0,0,0-1.88,11.53c-5.48,3.78-8.38,9.59-10.19,15.41-2.58,13.14,2,26.77,9.58,36.84h214.48a68.92,68.92,0,0,1-8.29-13.47c-4.61-6.94-1.44-16.75-2-24.77,4.39-8.82,8.82-17.69,13.83-26.31,1-1.73,2-3.44,3.06-5.13l9.83-3.76c5.21,0,9.6-3.76,14.57-2.42,6.69,6.68,6.69-6.67,13.12-7.29,15-2,30-.5,38.46,12.25,0,1.7,2.68,1.7,2.07,3.29-1.94.59-3.77-.61-5.82-.61-9.22-2.31-20-8.16-29.13-2.92-.35,2.16-.81,4.38-1.27,6.56s-.86,4.59-1.07,6.78c6,1.7,11,5.94,15.42,10.55,3-5.94,9.47-8.6,15.18-10.55,5,1.08,10.44,1.21,14.59,4.36,7.65,7.06,3.85,19.08,3.14,28,6.91,3.88,14.56,6.08,21.58,9.83-3.27,2.95-7.6,4.14-11.62,5.61l-11.65-2.33c-1.35-1-3.64-1-4.15-2.65-3.85,4.11-8.58,9.58-11,14.91H1747a87.17,87.17,0,0,0-7.78-13.46c-3.4-7.29-2-17.25-2.41-25l15.52-23.67c8.48-.12,18.09-3.27,27.33-1.7a9.31,9.31,0,0,0,1.32-.71c3.83-2.65,5-8.8,10.69-8,10.18-2.79,18,1.83,25.61,6.43a9.81,9.81,0,0,1-.79,1.59c-3.19,5.13-9.19-.6-13.55,1-1.83,1.94.85,4.24,1.22,6.43,1.57,2.17-1.6,1.92-2.69,2.31a8.33,8.33,0,0,1-7.27-2.31c-.48-.61-.13-1.34-1.09-1.45-2.18,3.62-5.35,6.91-6.19,11,2.79,2.69,6.54,5.35,7.9,8.76,2.79,4-2.21,7-3.16,10.56a1.05,1.05,0,0,1-1.83,0c-2.56-1.46-4.74-5.11-7.53-4.14-2.45,10.8.83,21.61-.63,32.41,4.73,1.12,10.31-.25,15.42,0l2.07-22.81c2.18-14.81,10.92-27.2,21.24-38.51,11.16-7.61,18.34,7.43,26.57,12.65,1.35.25.86,1.71,1.47,2.54-.13,2.44-2.66,3.41-4.36,4.13-5.12,1.81-8.87-3.77-12-7.05-3,3.28-4.35,7.65-7.87,10.21l1.19.35c4,4,7.9,8.26,8.77,13.61-.5,4.83-2.92,9.58-7.29,12a121.33,121.33,0,0,1-8.13-17.5c.13.25-.13.35-.38.61-6.66,1.8-8.45,9.33-9.57,15.42.38,5.94-4.12,8.37-2.92,14.31h86.54c9.6-1.45,19.78-1.21,27.43-8.28a126,126,0,0,0,90.79-20.85,190,190,0,0,0,35.31-37.13c8.62-12.09,15.43-23.39,19.81-36.9a171.13,171.13,0,0,0,7.81-26c9.27-42,4.41-89-9.28-129.07Z"/><path class="cls-2" d="M1812,244c-.13,3.15-2.41,6.66-.35,9.35,3-3.28,7.76-3.17,11.65-4.62,10.82-1,21.13,2.43,31.18,4.86-2.53-4-4.23-8.5-7-12.14-5.6-1.47-14.08,2.43-15-5.85-3.43-2.91-8.75-.84-12.26-.59a27.15,27.15,0,0,0-8.16,9Zm-371-104.83s-.1-.07-.18-.13l0,.13Zm44.14,107.91,7.29-7a1.62,1.62,0,0,1,1.44.6l-.59,13.46c3.5,3.28,7.85,4.37,12.47,4.62.37-3.62,3.16-6.2,4.73-9.35,1.35-2.54.51-6.32,3.16-8.12l.86.84c.83,4,.58,8.51,2.66,12,.26,2,.61,4.37.83,6.09a30.28,30.28,0,0,0,14.33-3.17c-.26-4.6,1.35-8.36,2-12.61,1.12-1.46-1.35-4.13,1.7-4,1.72,3.66,4.73,7.41,6.43,11.3,7-7.16,10-16.51,11.65-26.22-2-2.79-5.19-2.79-7.65-4.61-20.63-6.67-47.07-8-67,2.32-1.31,8.21.39,17.32,5.62,23.89ZM1292.29,474.87c-.73,9.36,0,18.13.61,27.35,1.95,3,5.48,6.56,9,6.78l.59-6.2c1.46-8.61-3.14-17.75,1.72-25a61,61,0,0,1,9.73,4.36c1.44-8-.64-17.36-8.29-22.22l-13.35,15Zm30-13.13c-4.73,14.22-8.26,31.71-2.55,46.68,3.29-2.19,6.66-4.27,9.57-7.28-.58-11.43-2.18-23.6,4.6-33.09,6,1.82,10,7.53,12.26,13.1,4-5.09,5.34-12.14,3.78-18.91.25-5.36-5.83-4.13-8.75-6.32,1-4.49.86-9.69,5.61-12.26l-14.57,1.46C1328.48,450.47,1324.34,455.67,1322.29,461.74Zm30,41.95c.61,1.09,0,3,1.22,3.28,1.82-10.21,10.07-16.8,14.56-25.81,2.18-3,2.08-7.28,5.58-9.56,4.73,0,8.16,3.38,12.76,3.76,1.44,1.09-.74,2.06-.86,3.27-1,8.27-4.12,15.1-3.51,23.6h.83c6.46-6.81,10.82-14.13,15.55-21.9l.83-6.9c1.12-8.26-7.87-13.59-13.71-17l5.21-6.67-7.27-2.56a33.12,33.12,0,0,0-22.11,11.08c-7.4,13.56-8.6,28.91-9.08,45.42Zm32.64-72c2.79.83,5.35-1.45,8.13-.26,11.17,4.14,22.8,8.38,31.21,17.72l9.93,25.38,5-15.67-3.3-8.48c-2.79-6.07-10.44-5.58-15.65-5.82-2.18-2.44.13-5.23.85-7.52,2.53-8.63-8-8.14-12.25-11.66.26-5.2-6.09-3.41-9.6-3.88L1398,420a2.44,2.44,0,0,0-3.51-.26c-.24-.35-.72-.61-.46-1.21l-2.68.6c-3.76,3.28-6.32,7.52-6.45,12.51Zm7-27.91a8,8,0,0,0,2.53,4.11c5.48-1.45,10.72-5.22,17-2.92,8.15,7.16,16.64,14.69,26.47,18.56l3.51-.59c2.18.71,4.61.83,6.06,3.28,1.36,3.28-2,5.2-3.14,7.87,5.47,4,3.3,11.17,6.67,16l8.74-11.64c-2-5.11.13-13.84-7.87-14.32a7.66,7.66,0,0,1-4.39-7.05c-5.19-4.73-11.64-6.79-16.85-11.66-4.28-3.38-6.8-8.59-12.25-9.81a44.61,44.61,0,0,0-12.26-4.11c-8.17-1.25-8.88,8.46-14.23,12.25Zm11.68-23.93,1.44,2.34c6.08-.38,11.53-3,17.45-2.93,4,2.42,9.25,2.29,13.35,4.38,3.29,4.49,6.81,9.57,11.65,12.59,9.85,1.47,15.3,12.05,18.69,19.79v-3.74c1.46-5.23-.13-11.3-2-16.05-2.44-2.41-6-4-8.51-6.16-.48-1.58-.11-2.33.37-3.77-3.77-4-9.35-6.2-14-9.35-6.43-9.35-18.79-6.79-28.65-9.35l-9.79,12.25Zm-.22-89c1.06,3.78,2.38,8.49,3.11,12.51,3.4-7.52,10.1-10.94,16-17.11-3.4-2.31-7.63-3.41-11.4-4.12v-.25C1408.48,284.46,1404.37,287.16,1403.41,290.77Zm22,40,5.48-5.58c5.47-5.6,10-12,10.79-19.18-3.88-2.29-9-.71-12.71.61-1.35,7.87-3.43,15.63-3.56,24.15Zm4,17.12c8.38.47,16.54,2.17,23.33-2.57l6.79-21.82c-2.18-.15-4.39-1.12-6.44-.38-4.49,9.93-13.47,19.78-23.68,24.77Zm2.45-77.44c5.47,8,14.59,17,23.92,19.53-1.09-10.21-9.81-17.24-14.32-26l-.23-2.92a45,45,0,0,0-11.43-7.54C1429.24,259.36,1430.84,264.93,1431.9,270.4Zm29.58,78.4c6.46,1.09,13.38,0,19.33-1.83,8.61-2.07,13.35-11.53,16.26-18.92h-10.81l-11.62,11.4C1470,341.88,1465.65,345.52,1461.48,348.8Zm-1.28-89.44a70.67,70.67,0,0,0,11.3,26.21l1.44-18.09-12.74-8.12Zm39.77,47.2c.76-6.07-1.78-13.13-2.51-19.29-3.64-2.44-8.74-2.19-12.51-4.6.26,9.56,7.75,17.72,15,23.89Zm-11,61.66a121.85,121.85,0,0,0,22.11-9c4.49-6.44,11.27-12.25,12.26-19.78-5.6,1.57-10.44-.26-15.66,2.32-3.16,5.7-5.12,12.14-11.19,16.26C1495.48,362.13,1491,364.94,1488.93,368.22Zm11.91,14.93,9.09,11.89c4.86,1.58,10.94,1.1,15.17-1.67l-3.27-10.81C1515.4,385,1507.75,384.26,1500.84,383.15ZM1516,297.22l3.51,16c8.49-6.9,10.24-17,10-27.66-4.86,5.58-7.68,9-13.5,11.65Zm23.9,28.26a11.76,11.76,0,0,0,2,6.32c9.47,3.41,10.44,14.91,19.2,19.28,5.69,2.57,12.25-.59,17.2-2.91-3.73-4.23-8-7.16-11.63-11.64-2.52-1.09-5.12-2.67-5-5.82l-21.83-5.23Zm7.53,57.32c4.12,4.7,9.7,7.15,15.52,8.48-1-1.34.61,0,.86-.85l-7.28-16c-3.64.13-7.44.87-10.82.64A34.42,34.42,0,0,0,1547.44,382.8ZM1560.31,308c-3.42-7.88-4.81-17.49-5.79-26.21-3.62,4.37-7.4,7.19-10.82,11.64C1542.12,302.42,1555,304.61,1560.31,308Zm14.79-8.27c4.38,5.73,14,3.79,19.33,2.09-2.59-4.37-10.8-6.94-12.24-11.65A104.05,104.05,0,0,0,1577,266C1572.73,276.35,1567.58,288.61,1575.1,299.75Zm7.65,25.73c12.14,8.86,24,19.2,41,15.42,1.22-.83,3.3-.75,3.54-2.31-5-3.15-10.31-5.6-15.42-8.49l-5.82-8.48h-2.66C1596.84,323.78,1589.82,324.65,1582.75,325.48Zm.26,98.44h.86c7.27-5.82,15.89-7.78,24.5-10.18,2.31.86.85,3.4,2.94,4.36,5.19-2.17,11.53-1.7,16.85-3.5,6.43.23,11.67.33,16.87,3.12,4.15,5.48,11.88,4.85,17.25,8.51l-.85-8.51c-11.27-13.23-28.89-14.19-45.14-13.93l-.37-1.7a29.11,29.11,0,0,0-11.91,2.53c-5.19.25-10.18,2.79-15.15,4.37C1586.53,413.61,1584.7,419.21,1583,423.92Zm9.74-149.15c4.71,6.19,11.75,10.93,19.75,9.35-4.09-4-8.84-8.27-9.09-13.95,1.22-10.81-10.66-11.68-16.51-17.25C1588.89,260.19,1588.63,268.34,1592.75,274.77Zm-1.23,170.63H1593c6.41-4,15.78-.95,22.09-5.2,3.51-1.83,3.77,3,6.18,4.37,6,3.62,6.7,14.57,15,12,10.08,5.21,7.52,17.48,7.9,26.45l9.35-5.81c-.86-4.74,1.83-10.45-1.22-14.56-2.31-5.22-8.64-5.69-11.65-9.94,3.65-6.2-4.6-9.14-6.33-13.62l.51-.6,12.86,1.7c4.39,2.67,6,7.52,7.28,12,10.08,1.7,12.49,13.1,16,20.38,2-5,2.89-10.33,5-15.18.13-4-5.21-4-7.87-5.82-.74-6.2-3.54-12-9-15.76-11.17-2.83-21-9-33.26-9L1615.68,430c-5.6,1.34-11.55-.35-15.78,3.51-6.33.49-6.81,7.41-8.38,11.88Zm6.41-50,2.31,1.11c5-2.32,10-5,15.17-6.94,8.13-2.3,14.44,6.94,21.26,1.09,2.53-1.8,4.73.87,6.66,2.32,3,5.33,9.71,5,14.83,6.42-2.56-6.91-5.72-16.38-14.57-17.48-3.51-1.57-7.65-1.44-11-3.52-9.35-10.31-15.42,8.51-25.64,3.91C1603.27,386.31,1598.78,390.08,1597.93,395.41Z"/><path class="cls-2" d="M1600.24,454.51c3.87,3.28,7.89,8.87,14,8.14,7.52,3.5,4.35,13.46,8.48,18.69l4.36-3.89-.38-.26.64-.6.23.35c1.22-3.63-.48-10.06-2.56-14.32-2.78-1.94-6,.13-8.71-1.69-.38-3.91-2.82-5.83-5.6-8.25-1.92-1.48-4.49.46-6.7.33l-3.74,1.5Zm15.17-147.95c4,6.67,11.78,10.8,18,15.42a28.74,28.74,0,0,0,17.25,1.67,113,113,0,0,1-14.33-14.19c-1.7-2.43-2.07-5.47-4.36-7.63C1626.23,302.91,1619.78,302.78,1615.41,306.56Zm6.71-43.42c5.57,6.9,14.18,4.11,22.08,4.35v-.85l-12.14-10.18c-3.41,1.06-7,4.1-9.94,6.68ZM1398.67,148.65l7,21.86c-.13-12.39,5.6-22.71,4.41-35.33l5.19-7.79-11,3.42C1401.33,136.4,1398.89,142,1398.67,148.65Zm4.74-37.86,9.57-5.59V91c-4,2.43-6.19,6.56-9.33,9.82Z"/><path class="cls-2" d="M1600.29,132.87c-2.31,3-5.83,3.77-8.74,4.36,5.09-9.32,7.52-22.33,3.51-32.88,2.66-1,5.58-1.46,8.11-2.91l-.24-.26,6.7-5.82c8.84-6.06,5.44-17.59,8.71-26.21-4.36-6.79-5.69-15.05-12-20.75l.38-.25c-5-6.32-14-5.58-20.78-8.73-9-3-15.91,3.15-22.35,7.28-2.79.49-1.09,4.12-4.12,4-1.7,4.49-3.78,9.36-5,14.34-12-1.72-25-.37-34.58,6.43-5.12-3.77-11.29-4.5-17.25-6.2-4.38-.87-9.32.71-12.49-1.7-4.6-5.2-5.6-14.68-13.5-16-2.79-1-3.37-4-3.37-6.68-5.24-.87-9.86-3.28-14.91-4.37-7.79-3.53-14,2.07-19.81,5.82-2.55,1.08-5.47,1.44-7.87,2.9-4.39,6.81-8.48,13.74-11.3,21.25.86,6.2,3.52,11.65,6.69,16.87,2.79,7.9,11.51,14.09,18.93,17.25a71.36,71.36,0,0,0,0,38.46s-.21.18-.21.13a2.7,2.7,0,0,1-.4.37c-1.14,0-2.39.22-3.35-.37h-.15c1.72,11.59,7.17,21.76,16,30.46,3.16,1.09,2.41,4.87,3.75,7.29a5.76,5.76,0,0,1,.63,4.37,95.29,95.29,0,0,0-51,12.75c-3.88,2-2.18,7.29-2.56,11.05,10.69-7.05,22.22-12.25,35-14.58,5.45-.33,11.65-1.69,16.88-.25l.61,10.46c-14.44,7.52-30.22,11.9-42.58,24.28.23,3.75-.51,8.12.58,11.27l11-9c10.69-8.14,21.84-15.05,34.1-19.54,3.29,3.87,6.69,8,11.08,10.45a81.26,81.26,0,0,1,23.89-10.45c4.51-2.67,11.67-.24,14.59-5.57l2-11.05c-.35-.26-.61-.74-1.22-.63-5.7-3.28-9.47-9-9-15.64a15.82,15.82,0,0,1-6.43,1.68c-1.92-.47-3.75-1-4.61-2.92-.1-2.41-1.35-6.06,1.12-7.87,7.87-4.87,18.09-5.11,28-4.39,7.42,1,18.1.61,20.68,9.35-.38,2.57-.13,5.36-2.71,7.06-2.66,1.45-5.7-.13-8.11-1.23-2,6-5.21,12.63-11.88,14.59l.83,7c.83,3.16,1.06,8.38,6.06,7.27,11.53,2.82,21.73,8.76,31.78,15.16a70.74,70.74,0,0,0,8.51-10.8c18,6.1,33.49,19.57,48.34,32.07l.59-10.2c-14.09-12.51-29.74-21.36-46-28.28a63.83,63.83,0,0,0,1.49-10,119.45,119.45,0,0,1,53.5,16.38l-.26-8.73c-16.75-9-35.06-14.91-55.07-15.16a6,6,0,0,1-.86-3.76c9.7-1.58,16.62-11.65,19-20.4,5-5.7,12.14-11.9,10.44-20.38.21-.71.46-1.45.71-2.19.64-2.13,1.2-4.37.5-6.34Z"/><path class="cls-2" d="M1617.15,164.07l9.93-3.16,1.12-5.57c2.79-8.14-3.17-14.21-6.08-20.66l-5,29.39Zm25.11,38.46c4.73,5.23,9.35,13.59,17.73,11.06-.61-3.53-2.56-6.44-3.78-9.6-2.18-2.55-2.92-9.83-7.27-7.28-3.3-2.18-4.13-5.83-6.22-8.73-.92,4.48-.33,10.06-.46,14.55Zm1.7,35.57c1.83,2.55,2.33,5.83,4.12,8.15,3.3,2.17,8.13,1.8,12.17,1.45,3.62-.87,6,3.14,9.32.83-4.23-2.66-6.78-7.52-10.79-11.06-4.75-3.72-9.83-.45-14.82.63Zm6.43,56.45c8.38,4.95,19,9.82,30.19,8.12,1.22-.6,3.3-.47,3.54-1.93-6.93-2.44-14.18-9.36-21.47-10.81-4-6.18-9.23,1.58-14.32,1.09.1,1.45,1.58,2.54,2.06,3.53Zm25.23,107.17,1.82,3.88c1.83,12.63,9.81,24.26,5.45,38.1,3.65,2.57,4.74,6.81,7,10.21h.61c2.79-10.55.86-21.48-.61-32.05,1.09-9.57-8.61-15.16-14.31-20.14Zm2.07-124.29c6.33,4.86,16.39,5.33,23.66,2.92-4.61-2.55-9.68-5.36-13.45-8.74l-10.21,5.82Zm30,37.25c-.61,5.11,2.79,9.35,6.44,11.92,1.32-3,3.5-5.61,3.75-9a22.39,22.39,0,0,0-8.75-13.48c-.83,3.4-1.81,6.67-1.44,10.55Zm.35,55.37c-.85,5.69,5.45,6.44,8.14,9.59,2.18,2.66-1.47,4.49-1.47,7A32.94,32.94,0,0,1,1722,407.3c1.8-7.4,4.59-14.43,5.57-22.08-.5-5.36-9-4.24-7.65-10.18,2.41-6.08-.51-12-2.07-17.51-.48-.83-1.57-2.53-2.53-2-2.21,5-7.66,8.49-7.31,14.56Zm16.64-28.9,6.31,12.26c2.79-.37,4.6-3,6.78-5,1.7-5.1-2.79-8.37-4.12-12.52-1.09-2.92,0-6.78-2.08-9.33-1.57-1-3.37-2.56-5.19-2.07l-1.7,16.64Zm8.11-32.3c5,3,10.69,7.41,13.37,12.77,4.23,12.37,11,23.51,16,35.55,1.83,8.38,3.29,15.86,5.57,24.08.86,2.21.38,6.43,3.78,6.08,1-9.23,2.79-18.09,2.92-27.69-3-4-7-5.69-10.82-8.11v-.86c.51-2,2.2-4.5,4.76-4.11,1.06-1.22,4.36-2.43,2.92-4.61-6.33-6.31-6-17.17-16-19.13-3.52-1.45-4.36-5.11-4.74-8.48-4.74-4-11.76-5.36-17.74-5.49Zm5.86,65.8c6.16,5.69,4,14,3.5,21.61-.95,4.62,4.87,1.92,6.7,4.37,3.77,5.58,1.57,13.72.26,19.79,3.27-5,7-9.36,9.57-14.84-.11-2.05,2.55-3,2.44-5.59,1.09-3.5-3-1.93-4.74-2.28-1.44-.38-3-1.35-2.53-3.29,3.14-6.07.24-13.35-1-19.41-1.44-5,.61-11.67-1.7-16-3.9,5.36-15.46,6.57-12.52,15.67Zm11.27-86.17c10.82,10.95,18.69,21.91,30.35,32.48.26-4.74-.37-9.11-.58-13.73-1.73-3.28-4.86-5.69-7.58-8.14C1763.5,298.26,1759,286.65,1749.89,288.48Zm28.26,57.83a15.93,15.93,0,0,0,1.25,3.17,159.39,159.39,0,0,1,12.52,24.15c-1-9,5.07-20.15-3-27.07-1.09-2.92-4.71-1.95-7-1.71l-3.78,1.46ZM1807.3,435c3.42,1.58,7.78-1.2,11-3.15,3-.73,5.6,1,7.9,2.57,1,1.92,0,3.75.37,5.58,7.28,2,14.44,4.73,20.87,9l2-2.06c.48-5.21-3.62-9-7.52-11.91-2.56-1.44-6.33-.58-8.13-2.9,1.21-1.95,1.21-4.87,1.09-7.05-4,0-6.57-1.23-9.84-3.15-2-.61-3.9-2.32-5.6,0-6,4.11-6.42,10.2-12.24,13.1Zm8.51-152.73c3-.87,6.21-1.71,8.74-3.9,8.16-7.4,19.91-2.42,29.39-2.53a64.94,64.94,0,0,0-6.7-9.37c-3.39-1.33-6.56-2.91-10.44-2.91-8.26-4.86-13.82,3.28-20.16,7.28-1.7,3.29-2.53,8.15-.83,11.43Zm.22,25c0-.36,0-.75.37-.83,1.09,1-.13,3.28,1.7,3.75a69,69,0,0,0,9-5.82c8.16,0,13-7.89,21-7.89,13.37,2.44,26.6,5.11,38.25,11.64-.86-7.86-7.65-15.05-14.57-18.56-3.9-1.34-6.93.72-9.72,2.91-8.11,5.13-3.88-7.39-9.57-7.65-7.42,2.31-15,4.87-23.31,4.13-4.86,1.83-8.26,6.3-13.71,5.82C1815.2,298.75,1814.61,303.61,1816,307.23Zm5.6,27.07c2.55,2.69,6.78,2.19,10.44,2.69l10.56-4.15c.13-1.91-3.17-2.42-2.42-4.61,2.9-3.28,6.89-1,10.54-2.29,5.09-.74,10.31-5.81,15.42-2.07-.16.61.23,1.46-.26,2.07-1.57,3.76,1.09,6.08,4,7.52,5.95,1.1,11.53,6.57,17.48,4.11a116.29,116.29,0,0,0-3.14-14.31c-5-.85-8.51-5-13.13-6.69-2,1.95-4.73,3.41-7.27,3.15-9.38-2.19-20.55-8-30-2.06-3.4,4.14-9.47,2.92-14.08,4.74a54.5,54.5,0,0,0,1.84,11.9Zm4,72.15c-.72,2.06-2.79,5.46,1,6.44,7.76.23,17.71-3.78,23.79,2.29,2,1.58,1.09,4.86,1,6.94l10.18,8.48c1-5.12,2.81-9.73,2.94-15.17a16.87,16.87,0,0,0-6.18-10.18c-6.69,0-10.56-7.84-17.76-6.86-3.75-.84-7,2.49-10.79,2.49-1.7,1.68-2.68,3.76-4.12,5.57Zm2.9-57.23c1.57,3.28,3.4,8.63,6.44,9,7.17-3.12,17.62-5.08,25.61-1.67,2.66.47,2.66,3.5,2.08,5.45,4.09,2.42,9.09,4.37,13.47,7l-1.22-7.28c-.26-7.9-10.18-8.61-10.81-16.39a48,48,0,0,0-25.84-1.46c-2.81,2.55-6.81,2.21-10.21,2.92-.22,1,.35,1.6.48,2.43Zm2.08,39.33c4.73-1.35,7.75-6.53,12.86-7a23.77,23.77,0,0,1,19.54,10c2.91,1.92,2.3,6.9,6.08,6.9-1.12-5.94.83-11.4.58-17.5-5.07-8.48-17.7-1.92-22.44-11.89l-9,.62c-6.46,1.58-4.73,9.11-5.57,14.22-.77,1.57-2.21,2.77-2.09,4.7Zm44.56,53.1c3.75,7.52,12,13.23,12.84,21.84a37.89,37.89,0,0,0,4.61-7.52c-.13-2.41-2.92-2.41-4-4.37-1.12-3.15.61-5.94,1.09-8.73-1.57-4.5-5.35-8.74-9.6-11.43l-4.93,10.21Zm14.92-19.18,8.71,11.92c3.78-5.95,3.78-14.71,2.31-21.87-.83-1.33-2.41-3.51-4.59-2.54-3.29,3.39-3.77,8.61-6.43,12.49ZM1854.51,90.24c3.16,1.58,6.21,3,10,3.26,2.53-1.33,5.83-2.3,9-1.45,4.51,2.92,10-.61,15.17-.36-4.6-4.36-9.83-7.06-15.17-9.59C1866.65,83.54,1861.2,88.41,1854.51,90.24ZM1902,101.62c6.43.61,11.07,6.32,15.42,11.07,5.45.83,9.57,4.73,12.84,8.73l-2-6.42c-1.44-6.45-5.47-11.43-9.6-16.53-5.8.38-11.52.87-16.61,3.15Z"/><path class="cls-3" d="M1449,48.4l3.54.36c9.46,4.73,24.72,7.16,25.62,20.87-9.6,3.77-18.85,8.86-26.47,16.62-5.83-5.94-17.6-2.67-19.56-13.09,1.83-9.85,5.35-22.22,16.87-24.76Zm9.13,61.55c11-1,21.74.58,33.14-.38a14.38,14.38,0,0,1,7,6.42c-.35,13.13-4.36,25.63-5,39.11-5,2.05-9.85,6.2-11.07,11.65-4.49,1.33-8.51,4-12.87,6.05-1.92-4.11-1.59-10.31,1.83-13.71,4.74-6.66,17-5.11,16-15.66,3.17-5.09.13-11.64.24-17-1.22-4-2.44,1.32-4.39,1.21-3.85.84-7.85,1.09-11.27-.86-2.55-2.67-5.69-4.86-6.43-8.48-3.4-1.71-7.4-4.37-9.09-7.9l1.81-.48Zm13.35,79.12c5.19.75,10.66-1.59,15.17,1-1,1.7-3.54,2.43-5.6,2.92l-8.13,3.75C1469.9,196,1471.6,191.14,1471.5,189.07Zm21.23-101.35c5.21-1.7,10.82-5.2,16.39-3.51-4,4-7.17,9.22-10.18,14.07l-16.64-.37c1.82-4.38,6.42-8,10.43-10.19Zm48.69-4c6.88-1.21,6.53,7.76,12.84,8.1,1.11,1.45,2.68,2.79,2.07,5-3.64,1.45-9,.75-13.1,1.7-5.47-3-1.94-12.49-10.55-11.88-.51-.74-1.47-2.19-.26-2.67,2.66-1,6.21-.61,9-.23Zm-4.39,32.5c3-4.24,7.66-4.61,12-5.45l31.41.58c1.35,1.24-1.19,2.33-1.19,3.78-2,1.83-4.73,2.32-6.43,4-4.13.12-3.78,5-6.7,7.06-4.48,4.5-11.05,2.42-16.26,1.71-1.83-1.36-3.88-3.16-4.73-5.23l-1.47,1.44c1.83,6.81,1.36,14.35,2.68,21.26l7.53,5c.13,11.16,13.24,8.12,18.95,14.31-1.35,4-4,7.4-6.92,10.8a41.43,41.43,0,0,0-15.42-9.35c-.5-6.54-7.65-10.43-11.64-13.7-1.09-11.9-1.33-24-3.27-35.57l1.42-.61Zm11.4,74.91H1563l-1.83,7.64-14.59-6.19C1546.26,191.37,1547.59,191,1548.43,191.14Zm26.24-137.52,10.79-3.41a108.35,108.35,0,0,1,17.71,10.68c4.51,8.24,3.77,19.42,1.72,28.65-3.29,3.61-10.44,0-13.12,5.81h-.48c-4-11.39-15.42-21.61-26-26.81,1.7-5.83,3.53-11.53,9.35-14.92Z"/></g></g></svg>