<svg xmlns="http://www.w3.org/2000/svg" viewBox="0 0 923.08 183.69"><defs><style>.cls-1{fill:#0b1742;}.cls-2{fill:#5e9ad3;}</style></defs><g id="Layer_2" data-name="Layer 2"><g id="Layer_1-2" data-name="Layer 1"><path class="cls-1" d="M191.08,65.54c3.23,0,6.46,1.38,6.46,3.69V176.31c0,2.31-3.23,3.69-6.46,3.69v2.31H222V180c-3.23,0-6.46-1.38-6.46-3.69V69.23c0-2.31,3.23-3.69,6.46-3.69V63.23H191.08Zm394.15,53.08c0-7.39,8.31-11.54,17.08-11.54,13.84,0,22.15,2.3,24.46,12h2.77l-.46-12.46a74.71,74.71,0,0,0-24.93-5.08c-24,0-33.69,12.46-33.69,22.15,0,27.69,47.54,21.23,47.54,41.54,0,6-4.62,12-17.54,12-15.69,0-24-5.08-27.69-15.69l-2.31.46.92,14.77c7.39,3.23,18,6,26.77,6,25.85,0,37.39-12,37.39-23.54,0-26.77-50.31-20.31-50.31-40.61M426.46,105.69c5.08,0,8.31,2.77,6.46,6.93l-23.54,45.69-23.53-46.16c-.93-3.69,2.3-6,6.46-6v-2.3H354.46v2.3c4.62,0,7.85,1.85,11.54,7.85l38.31,69.69L444,112.62c3.23-5.54,7.38-6.47,10.15-6.47v-2.3H426.92v1.84Zm-87.69,70.62V124.15c0-14.77-15.69-23.07-32.31-23.07-13.84,0-26.31,7.84-31.38,12V102c0-1.38-.93-1.85-1.39-1.85-10.15,3.7-14.77,5.54-24.92,8.77v1.85c5.54.46,6.92,3.23,7.38,7.38v58.16c0,2.77-3.23,3.69-6.46,3.69v2.31h31.85V180c-3.23,0-6.46-1.38-6.46-3.69V119.54c4.15-4.16,12.92-8.77,22.15-8.77,18.92,0,23.08,10.15,23.08,19.38v46.16c0,2.31-3.23,3.23-6.46,3.23v2.31h30.92V180c-2.77,0-6-.92-6-3.69m210.46-40.16c0-24.92-22.61-34.61-41.08-34.61-33.23,0-49.38,22.15-49.38,40.15A40.81,40.81,0,0,0,464.31,162a40.12,40.12,0,0,0,17.07,15.69,55,55,0,0,0,24.93,5.54c8.31,0,15.69-.92,22.15-3.23s12.46-6,18.92-11.08v-6a71.88,71.88,0,0,1-17.53,9.23,63.5,63.5,0,0,1-17.08,2.31c-9.23,0-17.54-2.77-24.46-9.23s-9.69-16.61-10.16-24v-4.61h71.08Zm-43.38-29.07c12,0,23.53,6,23.53,22.61H480c1.38-11.54,10.15-22.61,25.85-22.61m315.69,29.07c0-24.92-22.62-34.61-41.08-34.61-33.23,0-49.38,22.15-49.38,40.15A40.71,40.71,0,0,0,736.62,162a40.12,40.12,0,0,0,17.07,15.69,55,55,0,0,0,24.93,5.54c8.3,0,15.69-.92,22.15-3.23s12.46-6,18.92-11.08v-6a71.74,71.74,0,0,1-17.54,9.23,63.37,63.37,0,0,1-17.07,2.31c-9.23,0-17.54-2.77-24.46-9.23s-9.7-16.61-10.16-24v-4.61h71.08Zm-43.39-29.07c12,0,23.54,6,23.54,22.61H752.31c1.38-11.54,10.15-22.61,25.84-22.61m-73.38,69.23c-6.46.46-19.85-1.85-19.85-17.08v-48h30.46v-6.92h-30V89.08H666.46v15.69h-12v6.92h12v47.54c0,16.15,12.92,24,30,24a33.49,33.49,0,0,0,16.16-4.61,36.17,36.17,0,0,0,6-4.16l-.47-2.77c-2.3,1.39-8.3,4.16-13.38,4.62m183.69-69.23c13.39,0,25.85,7.38,30.46,16.15h4.16V108.46a79.28,79.28,0,0,0-33.7-7.84c-36.92,0-51.69,24.46-51.69,41.53a44.43,44.43,0,0,0,1.39,10.62c.46.92.46,1.85.92,2.77a35.22,35.22,0,0,0,6.92,12,39,39,0,0,0,12.46,10.15,47,47,0,0,0,19.39,5.54,37.39,37.39,0,0,0,7.38.46,52.88,52.88,0,0,0,18.47-3.23,54.46,54.46,0,0,0,18-11.08v-6.46a56.13,56.13,0,0,1-14.31,7.85,44.69,44.69,0,0,1-16.62,2.77c-23.07,0-34.15-16.16-34.15-33.23,0-15.69,9.23-33.23,30.92-33.23"/><path class="cls-2" d="M75.23,63.23V0H69.69V13.85c-27.23.92-49.84,18.46-55.38,41.07H29.08c5.07-18.46,21.23-32.3,40.61-33.23v42H0v5.54H12.46C14.31,96,38.77,117.69,69.23,119.08v13.38h5.54V69.23h42a44.78,44.78,0,0,1-34.15,40.62v8.3c26.76-4.15,47.07-24.46,48.92-48.92H144v-6Zm-5.54,47.54a44.81,44.81,0,0,1-42-42h42Zm46.16-55.85h14.77c-5.08-20.77-23.54-36.46-47.08-40.61v8.31a45.71,45.71,0,0,1,32.31,32.3"/></g></g></svg>