<?xml version="1.0" encoding="utf-8"?>
<!-- Generator: Adobe Illustrator 25.2.3, SVG Export Plug-In . SVG Version: 6.00 Build 0)  -->
<svg version="1.1" id="Layer_1" xmlns="http://www.w3.org/2000/svg" xmlns:xlink="http://www.w3.org/1999/xlink" x="0px" y="0px"
	 viewBox="0 0 2279.4 2279.4" style="enable-background:new 0 0 2279.4 2279.4;" xml:space="preserve">
<style type="text/css">
	.st0{fill-rule:evenodd;clip-rule:evenodd;fill:#33348E;enable-background:new    ;}
	.st1{fill-rule:evenodd;clip-rule:evenodd;fill:#FFF22D;}
</style>
<g id="Layer_2_1_">
	<g id="Layer_1-2">
		<path class="st0" d="M417.2,0l1448.4,0.9c227.3,0,414.7,187.3,413.8,415.5v1448.4c0,228.2-187.3,414.7-415.5,414.7l-1449.2-0.9
			C186.5,2277.7,0,2091.3,0,1863.1L1.7,414.7C1.7,186.5,188.2-0.9,417.2,0z"/>
		<path class="st1" d="M1958.4,1039.7h-165.2l-68.1,129.4h115.8L1958.4,1039.7z M2068.2,1250h-160.9v347.4
			c0,106.4-71.5,137.1-124.3,137.1c-50.3,0-105.6-18.8-104.8-111.6V1250h-160.9l-0.9,395.9c0,153.2,87.7,221.4,208.6,221.4
			c84.3,0.9,149.9-35.8,186.5-100.5h1.7v84.3h155L2068.2,1250L2068.2,1250z M1391.3,1409.2c0-149-156.7-175.4-243.5-175.4
			c-125.2,0-255.5,26.4-275,210.3h155.8c5.1-34.9,19.6-83.4,99.6-83.4c41.7,0,106.5,3.4,106.5,69.8c0,34-31.5,44.3-57.1,47.7
			l-144.7,21.3c-103,14.5-179.7,74.9-179.7,192.4c0,124.3,95.4,175.4,186.5,175.4c110.7,0,162.6-50.2,198.4-86.8
			c3.4,33.2,6,41.7,15.3,70.7l138.8-0.9c0-66.4-0.8-115-0.8-115.8L1391.3,1409.2L1391.3,1409.2z M705,1039.7H544.1v209.5h-83.4
			v113.2h82.6v365.3c0,77.5,24.7,130.3,164.3,130.3h21.3c25.5,0,51.1-1.7,75.8-2.6v-120.1c-11.1,0.8-23,2.6-33.2,2.6
			c-65.6,0-67.3-13.6-67.3-49.4l0.8-326.1h100.5v-113.3H705V1039.7z M386.6,1038.8H212.9l-0.9,811.5h173.7L386.6,1038.8z"/>
		<path class="st0" d="M1234.7,1635.7v-77.5c-16.2,12.8-43.4,23-109.9,32.3c-60.4,10.2-109.8,25.5-109.8,91.1
			c0,54.5,44.3,72.4,74.9,72.4C1161.4,1754.1,1234.7,1708.9,1234.7,1635.7L1234.7,1635.7z"/>
	</g>
</g>
</svg>
