<?xml version="1.0" encoding="utf-8"?>
<!-- Generator: Adobe Illustrator 25.2.3, SVG Export Plug-In . SVG Version: 6.00 Build 0)  -->
<svg version="1.1" id="Layer_1" xmlns="http://www.w3.org/2000/svg" xmlns:xlink="http://www.w3.org/1999/xlink" x="0px" y="0px"
	 viewBox="0 0 368.5 368.5" style="enable-background:new 0 0 368.5 368.5;" xml:space="preserve">
<style type="text/css">
	.st0{fill:#004388;enable-background:new    ;}
	.st1{fill:#FFD503;}
	.st2{fill:#FFFFFF;}
	.st3{fill:#004388;}
</style>
<g id="Layer_2_1_">
	<g id="Layer_1-2">
		<g id="surface1">
			<path class="st0" d="M0,184.2l184.3,184.3l184.3-184.3L184.3,0L0,184.2z"/>
			<path class="st1" d="M238.2,129.5c-5,15.1-7.7,23.3-7.9,24.5h-92.5c-3.2-10.6-5.9-18.8-8.1-24.7c-4.9-15-7.4-24.2-7.4-27.6
				c0-8.8,3.4-15.7,10.3-20.6c5.2-3.9,11.6-5.9,18.1-5.9c9.8,0,20.3,3.7,31.3,11v30.6l2.2-1.1l1.8,1.1V86.2
				c11.1-7.3,21.5-11,31.3-11c6.5,0,12.8,2,18.1,5.9c6.9,4.9,10.3,11.8,10.3,20.6C245.8,105.2,243.3,114.5,238.2,129.5"/>
			<path class="st2" d="M288.4,178c-4.2-4.4-10-6.8-16-6.6h-2.2c-2.5,0-3.7,1.5-3.7,4.4v64.9c0,6.4,3.1,9.6,9.2,9.6h3.7v3.3h-42
				v-3.3h3.6c6.4,0,9.6-3.2,9.6-9.6v-64.9c0-2.9-1.4-4.4-4.1-4.4h-1.9c-6-0.1-11.8,2.3-16,6.6c-4.3,4.4-6.6,10.6-6.8,18.4h-3.3
				c-2.9-17.9-13.4-26.9-31.3-26.9c-7.5-0.2-14.7,2.8-19.9,8.1c-7.1,7.4-10.7,18.3-10.7,32.8c0,13.3,2.8,23.5,8.3,30.6
				s13,10.7,22.3,10.7c7.9,0,13.9-1.5,18.1-4.4c1.5-1,2.3-2.7,2.2-4.4V223c0-6.4-3.1-9.6-9.2-9.6h-3.7v-3.3h40.5v3.3h-2.2
				c-6.4,0-9.6,3.2-9.6,9.6v20.6c-9.6,7.9-21.9,11.8-36.9,11.8c-16.7,0-29.6-6.4-38.7-19.2v17.3H78.5v-3.3h4.1
				c5.9,0,8.8-3.3,8.8-9.9v-59.4c0-6.4-2.9-9.6-8.8-9.6h-4.1v-3.7h43.1v3.7h-4.8c-6.4,0-9.6,2.9-9.6,8.8v64.1c0,3.9,2.1,5.9,6.3,5.9
				h7c14,0,21.9-6.5,23.6-19.5c-3.2-6.3-4.8-13.2-4.8-20.3c0-13.3,4.5-24,13.4-32.2c9-8.2,20.2-12.3,33.7-12.4
				c6.1,0,12.2,1,18.1,2.9c7.1,2.5,10.7,3.7,10.7,3.7c2,0,3.1-1.6,3.3-4.8h79.6v28.8h-3.3C294.8,188.6,292.7,182.4,288.4,178"/>
			<path class="st3" d="M231.8,87c-4-3.1-8.9-4.8-14-4.8c-8.1,0-16.2,2.7-24.3,8.1v29.8l7.7,3.7l16.9-8.1l15.1,7.4
				c3.7-9.3,5.5-16.5,5.5-21.4C238.9,96,236.3,90.6,231.8,87"/>
			<path class="st3" d="M150.7,82.2c-5.2-0.1-10.3,1.6-14.4,4.8c-4.3,3.7-6.7,9.1-6.6,14.7c0,4.9,1.7,12,5.2,21.4l15.1-7.4l17.3,8.1
				l7.4-3.7V90.3C166.6,84.9,158.6,82.2,150.7,82.2"/>
			<path class="st3" d="M201.2,131.9l-17-8.1l-17,8.1l-17.2-8.1l-12.5,5.9c2.9,7.9,4.8,13.6,5.5,17.3h82.6c0.5-3.7,2.2-9.5,5.2-17.3
				l-12.5-5.9"/>
			<path class="st1" d="M188.3,78.5h-8.5v-7h-6.3v-8.1h6.3v-7h8.5v7h6.3v8.1h-6.3"/>
		</g>
	</g>
</g>
</svg>
