<svg xmlns="http://www.w3.org/2000/svg" viewBox="0 0 331.63 98.6"><defs><style>.cls-1{fill:#183181;}.cls-2{fill:#ed1a3a;}</style></defs><g id="Layer_2" data-name="Layer 2"><g id="Layer_1-2" data-name="Layer 1"><path class="cls-1" d="M49.49.1c-2.76,7-5.71,14-8.67,21.12l-4.09,9.39-4.18-9.39Q27.81,10.66,23.67.1H.71V1.94a4.66,4.66,0,0,1,4.6,4.69c-.41,4.8-.82,9.7-1.23,14.49L2.55,35.92C1.84,43,1,50,0,57H7.35c.41-7,1-14.08,1.73-21.12l2.25-22.25c3.26,6.74,6.32,13.57,9.38,20.41l.82,1.84Q26.12,46.33,30.41,57h2.24c2.76-7,5.72-14.08,8.78-21.12l1.33-3.06c3-6.84,6-13.68,9.18-20.41l2.35,23.47C55,43,55.61,50,56,57H72.86C71.84,50,71,43,70.31,35.92l-1.53-14.8C68.06,14.08,67.45,7,67,0H49.49ZM125,51.33c1.84-3.57,3.88-7.15,5.92-10.51L151.33,6.73V5.31h-45V15.82h1.73a4.63,4.63,0,0,1,4.39-4.7c1.43,0,2.86-.1,4.18-.1h14.49c-1.83,3.47-3.77,6.94-5.81,10.31L104.8,55.61V57h48.57V50.92c-3.47.3-6.84.41-10.31.41ZM208.16,57h.41c-.3-3.47-.41-7-.41-10.51V33.67h20.11V46.53c0,3.57-.11,7-.41,10.51h15.51c-.31-3.47-.41-7-.41-10.51V15.92c0-3.57.1-7,.41-10.61h-19.7V6.94h.41a4.06,4.06,0,0,1,4.08,4c0,1.63.11,3.37.11,5V28.06H208.16V15.92c0-3.57.11-7,.41-10.61H188.88V6.94h.41a4.12,4.12,0,0,1,4.08,3.88c.1,1.63.1,3.36.1,5V51.73a41.93,41.93,0,0,1-6.22.41,49.32,49.32,0,0,1-6.74-.51c-6.22-1.22-7.14-7-7.14-10.61V15.71c0-3.47.2-6.83.41-10.3h-19.7V7h.41a4.06,4.06,0,0,1,4.08,3.88c.1,1.63.1,3.37.1,5V38.47c0,5.1,1.64,16.33,15.41,18.37a93.45,93.45,0,0,0,13.17.92c7,0,14-.31,20.91-.72M309.59,31.22c0,17.66-15.2,26.54-30.2,26.54s-30.21-9-30.21-26.54S264.39,4.69,279.39,4.69s30.2,8.88,30.2,26.53m-14.79,0c0-9.59-4-20.91-15.51-20.91s-15.51,11.32-15.51,20.91,4,20.92,15.51,20.92S294.8,40.82,294.8,31.22M97.86,15.92c0-3.57.1-7,.41-10.61H78.06V7.14h.41a4.71,4.71,0,0,1,4.69,4.8c0,1.33.11,2.65.11,4V46.53c0,3.57-.11,7-.41,10.51H98.37c-.31-3.47-.41-7-.41-10.51Z"/><path class="cls-2" d="M28.16,85.41a575.81,575.81,0,0,1,126.64-14A600.18,600.18,0,0,1,331.33,97.76a.55.55,0,0,1,.3.51.39.39,0,0,1-.51.3A1222.86,1222.86,0,0,0,28.47,87.14a.89.89,0,0,1-.92-.61,1,1,0,0,1,.61-1.12"/></g></g></svg>