<svg xmlns="http://www.w3.org/2000/svg" viewBox="0 0 2500 586.51"><defs><style>.cls-1{fill:#5a5a5a;}.cls-2{fill:#e60000;}</style></defs><g id="Layer_2" data-name="Layer 2"><g id="Layer_1-2" data-name="Layer 1"><path class="cls-1" d="M1271.26,488.27V234.6l-108.5,165.69h-2.94l-110-162.76V491.2H967.74v-393h90.91l102.64,164.22L1262.46,98.24h88v391.5h-79.18v-1.47Zm312.32,4.4c-104.11,0-165.69-58.66-165.69-171.56V98.24H1500v221.4c0,63.06,33.73,95.31,85,95.31s85-30.79,85-92.38V98.24h80.65V318.18c0,117.3-63,174.49-167.16,174.49m313.78-313.79V261h171.55v82.12H1897.36V489.74h-82.11V98.24H2117.3v82.11h-220v-1.47Zm438.42,315.25c-120.24,0-202.35-85-202.35-199.41v-1.47c0-110,85-200.88,202.35-200.88,70.38,0,111.44,19.07,151,52.79l-54.25,64.52c-29.32-24.93-54.25-39.6-99.71-39.6-61.58,0-110,55.72-110,120.24v2.93c0,71.85,46.92,123.17,115.84,123.17,30.79,0,54.25-7.33,79.18-23.46V341.64h-89.44V259.53H2500V431.09c-39.59,35.18-92.37,63-164.22,63"/><path class="cls-2" d="M532.26,0A299.23,299.23,0,0,0,412,24.92C376.83,8.8,335.78,0,293.25,0,132,0,0,130.49,0,293.25,0,454.54,132,586.51,293.25,586.51a299.07,299.07,0,0,0,120.24-24.93c36.66,16.13,76.24,24.93,120.23,24.93C695,586.51,827,454.54,827,293.25,825.51,130.49,695,0,532.26,0M413.49,558.65c-146.63,0-265.4-118.77-265.4-265.4s118.77-265.4,265.4-265.4,265.4,118.77,265.4,265.4-120.24,265.4-265.4,265.4m121.7-265.4A121.39,121.39,0,0,1,414.1,415h-.61a121.7,121.7,0,1,1,121.7-122.3v.6"/></g></g></svg>