<svg xmlns="http://www.w3.org/2000/svg" viewBox="0 0 2279.41 1013.12"><defs><style>.cls-1{fill:#005944;fill-rule:evenodd;}</style></defs><g id="Layer_2" data-name="Layer 2"><g id="Layer_1-2" data-name="Layer 1"><path class="cls-1" d="M106.83,990.92H104.1c-14,0-25.36-4.65-32.35-12.87-6.65-8.6-10.17-27.27-11-57.69l-3.11-117,.78-.78,184.79,210.5h26.5a54.28,54.28,0,0,0,.79-11.31,105.48,105.48,0,0,0-1.92-19.08L266.27,971a179.64,179.64,0,0,1-2.74-30.41L261.2,817V814.7c0-41.34,4.68-49.12,33.51-53a4.12,4.12,0,0,0,2-.4V743.35H196.09v17.94c18.7.78,27.65,3.89,34.3,11.67,5.48,7,9.36,28.47,10.13,62L243.26,909l-.78.77L95.87,743.35H0v17.94c12.87,1.94,23.77,7.39,38.22,19.12L39.78,782,41.7,929.32V934c0,15.15-.37,22.58-2.32,31.57C35.49,982.33,23,990.9,3.51,990.9H1.15v18.33H106.83V990.92Zm508-247.56H358.7V761.3h3.91c23.77,0,30.79,9.75,30.79,42.5v145c0,32.75-7,42.1-30.79,42.1H358.7v18.32h262L632,943.36H605.1l-2.73,3.12c-14,16.76-23.8,25-38.6,33.13-16.78,9.76-26.13,11.31-56.92,11.31-33.91,0-44.43-9.76-44.43-40.92V878.64h37c20.66,0,29.24.8,36.63,3.9,11.31,4.29,20.3,16,23.77,31.19h25.73V827.56H559.85c-2.69,10.15-4.29,13.27-9.72,19.89-8.58,10.12-20.68,13.28-51.08,13.28H462.42V761.29H517c16,0,25,1.54,34.32,5.47,12.49,5.07,21.07,12.09,35.11,29.61l2.74,3.13h25.72V743.36Zm60.06,0V761.3H678c24.18,0,31.21,9.75,31.21,42.5v145c0,32.75-7,42.1-31.21,42.1h-3.11v18.32H811.76c38.19.38,51.83-1.18,71-6.22,61.61-16,101.36-66.67,101.36-130.23,0-46-21.44-86.94-57.3-109.53a117.55,117.55,0,0,0-32-13.65c-16.76-4.66-30.43-6.23-58.48-6.23H674.92Zm103.3,17.94h10.13l12.86.4c42.47.37,59.26,5.44,77.18,24.55A101,101,0,0,1,902.16,826a187.24,187.24,0,0,1,8.21,56.15c0,50.28-18.34,88.09-48.36,101-9.73,4.28-27.28,7.38-41.32,7.38-31.57,0-42.48-12.09-42.48-46V761.3Zm241.72-17.94V761.3h3.52c23.77,0,30.79,9.75,30.79,42.5v145c0,33.12-6.62,42.1-32,42.1h-1.56v18.32H1179c42.47.38,60.44-3.12,81.08-14,22.62-12.09,37.42-35.08,37.42-58.86,0-35.11-28.83-58.88-81.06-66.67v-.8c21-4.28,28-6.61,41.7-14,19.88-10.91,31.18-29.25,31.18-49.1,0-39.39-36.25-62.4-99-62.4H1019.94Zm103.31,118.92v-101h33.89c19.53,0,26.55,2,37.44,9.75,13.66,10.13,21.05,25.72,21.05,44.44,0,15.2-5.07,26.15-15.2,35.08-10.53,9-19.1,11.71-38.59,11.71Zm0,18.72h37.82c37,0,62.37,23.4,62.37,57.66,0,33.15-22.62,52.67-61.18,52.67-26.55,0-39-13.67-39-43.28V881Zm369.89,28,17.57,44.06c.37,1.18,1.14,3.52,1.91,7,2.37,7.8,2.77,9,2.77,12.06,0,10.95-11.35,18.33-28.1,18.73v18.32h132.15V990.92c-16.74,0-26.14-9.35-37.41-37.81l-83-212.85h-72.53l10.13,22.22-71.76,182.46c-13.63,35-19.86,41.33-45.21,46v18.32h91.62V990.92c-17.92-2.34-26.13-9.35-26.13-23.4,0-5.45,2.34-16,5.48-25.33L1402.29,909h90.85Zm-8.58-23h-73.28L1446,788.2Zm269,104.86h-2.77c-14,0-25.33-4.65-32.34-12.87-6.64-8.6-10.13-27.27-10.92-57.69l-3.12-117,.77-.78L1890,1013.12h26.49a53.61,53.61,0,0,0,.8-11.31,101.17,101.17,0,0,0-2-19.08L1912.92,971a184.53,184.53,0,0,1-2.71-30.41L1907.85,817V814.7c0-41.34,4.71-49.12,33.54-53a4.07,4.07,0,0,0,1.95-.4V743.35H1842.77v17.94c18.69.78,27.69,3.89,34.31,11.67,5.47,7,9.37,28.47,10.12,62L1890,909l-.79.77-146.6-166.45h-95.93v17.94c12.87,1.94,23.82,7.39,38.23,19.12l1.59,1.55,1.92,147.36V934c0,15.15-.4,22.58-2.33,31.57-3.93,16.74-16.4,25.31-35.88,25.31h-2.36v18.33H1753.5V990.92Zm400-229.62h2.74c12.09,0,19.86,5.84,19.86,14.82s-14,26.52-33.54,42.48l-58.07,47.2v-62c0-32.75,7-42.51,31.18-42.51h3.11V743.38H1981.17v17.93h4.33c24.14,0,31.18,9.76,31.18,42.51v145c0,32.75-7,42.1-31.18,42.1h-4.33v18.33H2118V990.93h-2.33c-24.16,0-31.18-9.35-31.18-42.1V885.3L2165.19,980c6.25,7.42,14.29,14,25.46,19.82,10.6,5.54,29.23,9.44,29.23,9.44h59.53V990.94c-14.41-2.33-27.29-11.71-46.38-33.15l-96.29-109.94,65.09-54.57c29.28-24.57,33.56-26.9,59.29-32V743.38H2153.51V761.3ZM861.81,309.45A274.11,274.11,0,1,1,942.1,503.24,272.22,272.22,0,0,1,861.81,309.45Zm-35.39,0A309.46,309.46,0,1,0,917.07,90.63,307.46,307.46,0,0,0,826.42,309.45Z"/><path class="cls-1" d="M1140.41,181.47l91.74-63.17L1330.54,184V435.79l-92.68,62.38-94.12-60.12-98,62.77L941.2,438.28,942,184.79l96.3-66.67,102.08,63.35Zm-98.72-37.1-77.12,52.16,342.95,223.63.69-222.29L1235.91,151V272.83L1041.69,144.37Zm78.25,280.08-74.17-48.75v97.13l74.17-48.38Z"/></g></g></svg>