<svg xmlns="http://www.w3.org/2000/svg" viewBox="0 0 2245.81 391.44"><defs><style>.cls-1{fill-rule:evenodd;}</style></defs><g id="Layer_2" data-name="Layer 2"><g id="Layer_1-2" data-name="Layer 1"><path class="cls-1" d="M0,14.28V377.15H62.86V134.29L255.72,377.15h51.43V14.28H248.58v200l-160-200ZM874.32,251.42,828.6,377.13h58.58L905.76,330l-31.44-78.57Zm170-237.14H968.62L944.33,77.14l34.28,87.15L990,132.86l90,244.29h102.86L1044.33,14.28Zm-4.28,362.87L901.46,14.28H828.6L692.88,377.15H758.6L850,132.86l91.43,244.29ZM528.6,0c-120,0-180,91.44-180,195.73,0,105.7,60,195.71,180,195.71s178.58-90,178.58-195.71C707.18,91.42,648.59,0,528.6,0Zm0,341.43c-45.72,0-88.59-44.28-88.59-145.7S482.88,50,528.6,50c44.27,0,88.57,44.29,88.57,145.73s-44.3,145.7-88.57,145.7ZM1647.21,65.7h40c44.28,0,64.29,27.15,64.29,65.72,0,45.71-25.7,62.87-88.58,67.15l95.73,178.56h98.57l-87.15-160c47.15-15.71,74.31-42.87,74.31-98.58,0-58.57-47.15-104.29-112.88-104.29H1554.36V377.13h92.87V65.7ZM1425.75,252.87c0,54.29-18.57,81.41-70,81.41-52.87,0-70-27.13-70-81.41V14.28h-94.29V252.87c0,97.15,58.59,138.57,151.43,138.57s150-41.41,150-138.57V14.28h-67.16V252.87ZM2012.92,14.28l-145.7,362.87h62.85l40-100h132.86l40,100h102.85L2097.24,14.28Zm-22.85,211.43,45.72-114.29,45.69,114.29Z"/></g></g></svg>