<svg xmlns="http://www.w3.org/2000/svg" viewBox="0 0 2426.49 516.97"><defs><style>.cls-1{fill:#1467a3;fill-rule:evenodd;}</style></defs><g id="Layer_2" data-name="Layer 2"><g id="Layer_1-2" data-name="Layer 1"><path class="cls-1" d="M350.81,384.63c0,77.55,67.08,132.33,162.47,132.33,96,0,163.08-54.8,163.08-132.33,0-78.14-67.08-132.94-163.08-132.94C417.89,251.7,350.81,306.49,350.81,384.63Zm67.08,0c0-46.16,38.15-77.54,95.39-77.54,57.84,0,96,31.38,96,77.54,0,45.55-38.16,76.94-96,76.94-57.24,0-95.39-31.39-95.39-76.94ZM768.68,278.16v-19.7H704.06V510.17h65.23V376c0-22.78,2.46-46.16,33.23-57.23a96.63,96.63,0,0,1,33.23-5.55H845V251.68s-41.23,0-76.3,26.48Zm341-112v112c-25.85-17.23-60.93-26.48-98.47-26.48-96,0-163.08,54.15-163.08,132.33s67.08,132.31,163.08,132.31c37.55,0,71.39-8.61,98.47-24v17.83h64v-344ZM915.15,384.63c0-46.16,38.76-77.54,96-77.54s96,31.38,96,77.54c0,45.55-38.77,76.94-96,76.94s-96-31.39-96-76.94Zm635.72-.6c0,79.39,65.25,132.94,161.87,132.94,39.38,0,75.08-7.39,99.07-24,0,6.17.64,17.23.64,17.23h64V385.88c0-80.64-65.23-134.18-162.45-134.18-96,0-163.12,54.79-163.12,132.33Zm67.08,0c0-45.55,38.78-76.93,96-76.93s96,31.38,96,76.93c0,46.16-38.78,76.94-96,76.94s-96-30.79-96-76.94Zm-90.46,25.23c-8,40.61-35.69,68.92-66.47,85.55-27.69,15.38-58.47,22.16-94.77,22.16-99.71-.63-162.47-60.94-162.47-131.08,0-79.39,68.92-134.78,162.47-134.17,123.69.62,161.24,78.17,164.32,126.17,0,0-238.79,51.69-242.49,52.3,17.25,19.69,43.69,30.78,78.17,30.78,40.61.61,70.16-15.41,84.3-35.08l76.94-16.63ZM1272.1,377.87c8-1.85,167.39-36.3,176-38.14-14.16-18.47-42.45-32.63-81.85-33.23C1311.49,308.34,1274.55,337.24,1272.1,377.87ZM261.56,510.18l62.15.63V200.62H259.1v211.7L63.4,200H0V510.81H64V303.4ZM1998.3,174.78c25.23,91.71,12.31,173.55-23.38,219.71,173.55-56,369.24-243.11,332.93-343.41-20.92-57.85-171.08-65.24-382.79-16.62,31.4,33.23,57.24,82.46,73.24,140.32Z"/><path class="cls-1" d="M2326.93,136c20.92-43.08,25.23-81.24,14.16-113.86C2338,13.54,2333.7,6.77,2328.79,0c58.46,8,110.77,95.39,94.79,193.86-12.94,75.69-41.88,142.16-73.86,181.56-40.61-20.31-126.16-25.22-222.8-9.85-21.53,3.69-38.75,7.39-58.46,12.3C2178,320,2284.48,222.78,2326.93,136Z"/></g></g></svg>