<svg xmlns="http://www.w3.org/2000/svg" viewBox="0 0 2279.42 541.23"><defs><style>.cls-1{fill:#d15238;}.cls-1,.cls-2{fill-rule:evenodd;}.cls-2{fill:#2b2b2d;}</style></defs><g id="Layer_2" data-name="Layer 2"><g id="Layer_1-2" data-name="Layer 1"><path class="cls-1" d="M288.78,153.7c0-84.77-62.41-140.65-143.45-140.65C61.49,13.05,0,78.25,0,162.1S56.82,300.9,140.66,300.9C225.44,300.9,288.78,241.28,288.78,153.7Zm-61.47,4.66c0,60.54-38.2,90.36-82.92,90.36-42.85,0-83.83-30.74-83.83-90.36C60.56,100.61,99.69,68,144.39,68,191.9,68,227.31,100.62,227.31,158.36ZM522.59,191.9c0-75.46-44.71-93.16-76.38-93.16-40,0-56.82,23.29-56.82,23.29V0H332.57V277.58S360.52,300,418.26,300c56.82,0,104.33-39.12,104.33-108Zm-57.75,8.39c0,35.4-20.5,56.82-44.71,56.82a62.21,62.21,0,0,1-30.75-8.38v-81s12.11-18.64,35.39-18.64c18.64,0,40.07,15.82,40.07,51.23Zm266.41,8.38c0-57.75-17.71-110.84-89.43-110.84-59.62,0-93.15,41.92-93.15,97.81C548.67,259,580.35,300,645.54,300c50.3,0,82.91-30.75,82.91-30.75L706.09,232.9s-23.28,21.41-55.9,21.41c-45.64,0-48.43-45.64-48.43-45.64Zm-56.82-37.26H602.71S605.49,138.8,640,138.8c36.33,0,34.46,32.61,34.46,32.61Zm227.29-66.15a61.65,61.65,0,0,0-29.81-7.44C832.78,97.82,824.4,137,824.4,137V103.41H767.58V295.3H824.4V191c0-35.4,20.49-41,35.39-41,15.84,0,26.08,7.46,26.08,7.46l15.85-52.18Zm216.11,86.64c0-75.46-44.72-93.16-76.4-93.16-40.05,0-56.82,23.29-56.82,23.29V0H927.79V277.58S955.73,300,1013.48,300s104.35-39.12,104.35-108Zm-57.76,8.39c0,35.4-19.56,56.82-44.72,56.82a62.19,62.19,0,0,1-30.74-8.38v-81s12.1-18.64,36.33-18.64c18.64,0,39.13,15.82,39.13,51.23Zm246.85,95V164c0-58.69-53.09-66.13-78.24-66.13-53.1,0-82,27-82,27l15.85,41s24.21-22.36,54-22.36c38.2,0,37.27,23.29,37.27,35.39-50.29,0-110.84,8.38-110.84,65.22,0,38.18,27.93,55.89,61.47,55.89s47.52-28.88,49.38-35.39v30.74h53.08ZM1253.83,231c0,21.43-19.56,29.8-33.54,29.8-9.3,0-24.22-2.78-24.22-23.28,0-26.09,37.26-26.09,57.76-26.09V231ZM1537,295.3v-136c0-35.39-24.22-61.47-65.2-61.47-49.38,0-60.54,33.52-60.54,33.52V103.41h-56.82V295.3h56.82V179.79c0-23.3,20.49-34.48,36.32-34.48,30.76,0,33.54,21.43,33.54,42.86V295.28H1537v0Zm241.25,0-73.58-107.12,70.79-84.77h-66.13l-67.06,83.83V0h-56.84V295.3h56.84V191.9l67.06,103.4Z"/><path class="cls-2" d="M866.32,489.06c0-33.54-31.68-33.54-31.68-33.54,16.77-3.72,26.09-17.7,26.09-32.6,0-19.56-14-34.48-36.33-34.48a68.31,68.31,0,0,0-38.2,12.12l10.25,18.65s9.31-7.45,21.42-7.45c11.18,0,16.77,6.52,16.77,15.84,0,13-9.31,20.49-28.88,20.49v20.49a96.86,96.86,0,0,1,10.25-.93c14,0,24.22,7.45,24.22,21.43,0,13-10.24,19.56-22.36,19.56-13,0-25.15-8.38-25.15-8.38l-9.32,20.49s14,10.26,37.26,10.26,45.66-16.8,45.66-41.95ZM1020,446.2c0-29.82-27-32.61-27-32.61s22.36-5.57,22.36-31.66c0-20.49-14.9-32.6-46.57-32.6-26.08,0-43.77,2.79-43.77,2.79V490s15.83,2.79,41,2.79c35.38,0,54-18.65,54-46.59Zm-32.61-56.82c0,11.17-6.52,18.65-22.36,18.65a68.23,68.23,0,0,1-12.11-.93V373.56s3.72-.94,14-.94c13.06,0,20.5,6.53,20.5,16.76Zm4.67,58.7c0,13.05-5.6,23.28-23.29,23.28A63,63,0,0,1,953,469.48V427.59h14.91c17.7,0,24.22,8.38,24.22,20.49ZM1116.89,490V424.8c0-29.82-27-33.54-39.12-33.54-26.08,0-41,13.95-41,13.95l8.38,20.5s11.17-12.12,26.08-12.12c19.56,0,18.64,12.12,18.64,18.65-24.22,0-55,3.73-55,32.61,0,18.62,14,27.94,30.73,27.94s24.22-14.89,24.22-17.71V490Zm-27-31.69c0,10.26-9.31,14.92-15.84,14.92-5.59,0-13-1.88-13-12.12,0-13,18.64-13,28.88-13v10.24ZM1232.39,490V422c0-17.7-13-30.72-33.52-30.72-24.21,0-29.81,16.77-29.81,16.77v-14h-28.89V490h28.89V432.24c0-11.19,10.23-16.77,17.7-16.77,15.84,0,16.77,10.24,16.77,21.4V490Zm120.17,0-37.26-53.13,35.41-42.82h-32.59L1284.58,436V341.88h-28.89V490h28.89V438.75L1318.12,490Zm94.09-42.87c0-28.88-8.38-55.88-43.78-55.88-30.75,0-47.49,20.49-47.49,49.37,0,31.66,16.74,52.15,48.43,52.15,25.15,0,41.92-15.83,41.92-15.83l-11.2-17.71a44.52,44.52,0,0,1-27.93,10.24c-23.28,0-24.22-22.35-24.22-22.35h64.27Zm-27.94-18.61h-36.33s1.86-16.77,18.63-16.77c18.63,0,17.7,16.77,17.7,16.77ZM1556.57,490V422c0-17.7-12.12-30.72-33.52-30.72-24.21,0-29.82,16.77-29.82,16.77v-14H1465.3V490h27.93V432.24c0-11.19,10.24-16.77,17.71-16.77,15.83,0,16.74,10.24,16.74,21.4V490Zm188.17-10.26V424.8h-28v39.12s-6.51,3.72-20.49,3.72c-28.88,0-48.43-14-48.43-46.59,0-31.66,18.65-45.63,42.87-45.63,21.4,0,37.26,12.12,37.26,12.12l8.36-28s-15.83-10.23-45.62-10.23c-34.48,0-73.6,22.35-73.6,72.66,0,53.1,36.33,70.8,76.38,70.8C1725.17,492.79,1744.74,479.74,1744.74,479.74ZM1837,395s-5.6-3.72-14.89-3.72c-19.58,0-24.21,19.56-24.21,19.56V394.05h-28V490h28V437.82c0-17.68,10.23-20.49,18.62-20.49a25.86,25.86,0,0,1,13,3.72Zm102.46,95V394.05h-27.94v55.88c0,12.12-8.37,19.56-18.65,19.56-13.95,0-15.83-10.23-15.83-18.62V394.05h-27.94v65.2c0,20.49,12.11,33.54,30.75,33.54,26.07,0,31.66-20.5,31.66-20.5V490Zm121.11-51.25c0-30.72-16.77-47.49-38.19-47.49-23.31,0-29.82,16.77-29.82,16.77v-14h-27V541.23h27.93v-55s6.51,6.54,20.5,6.54c23.28,0,46.58-21.45,46.58-54.05Zm-28.91,3.73c0,15.83-9.3,28.88-22.34,28.88a21.76,21.76,0,0,1-15.84-6.51V428.52s5.58-11.19,17.7-11.19C2022.34,417.32,2031.62,425.71,2031.62,442.48Zm143.46-3.73c0-30.72-17.68-47.49-38.17-47.49-23.28,0-29.82,16.77-29.82,16.77v-14h-27V541.23H2108v-55s6.51,6.54,20.49,6.54c23.28,0,46.56-21.45,46.56-54.05Zm-28.86,3.73c0,15.83-9.32,28.88-22.37,28.88a21.84,21.84,0,0,1-15.84-6.51V428.52a19.46,19.46,0,0,1,17.71-11.19C2136.91,417.32,2146.22,425.71,2146.22,442.48Zm133.2,4.65c0-28.88-8.38-55.88-44.7-55.88-29.82,0-46.59,20.49-46.59,49.37,0,31.66,15.86,52.15,48.45,52.15,25.14,0,41.9-15.83,41.9-15.83l-11.17-17.71s-12.11,10.24-27.94,10.24c-23.28,0-24.21-22.35-24.21-22.35h64.26Zm-27.93-18.61h-36.33s1.85-16.77,18.62-16.77c18.64,0,17.71,16.77,17.71,16.77Z"/></g></g></svg>