<svg xmlns="http://www.w3.org/2000/svg" viewBox="0 0 2279.41 479.75"><defs><style>.cls-1{fill:#c82e37;fill-rule:evenodd;}</style></defs><g id="Layer_2" data-name="Layer 2"><g id="Layer_1-2" data-name="Layer 1"><path class="cls-1" d="M1701,285.79c0-24.08-14.94-48.21-43.62-53.94v-1.16c23-8,39-29.84,39-52.8,0-39-29.85-59.68-82.63-59.68-31,0-63.13,0-83.78,1.14V359.24c31,0,57.38,1.14,72.3,1.14,74.6,0,98.71-40.17,98.71-74.59Zm-55.1-101c0,21.82-16.08,34.44-49.37,34.44h-18.34V156.09c8,0,17.2-1.15,27.53-1.15,29.85,0,40.18,12.63,40.18,29.84Zm4.6,102.15c0,21.82-16.06,35.59-47.07,35.59-10.34,0-19.51-1.14-25.23-1.14V253.64h20.65c31,0,51.65,9.19,51.65,33.29Zm224.94,72.32c-1.14-13.77-1.14-31-1.14-44.76v-74.6c0-37.88-17.2-60.84-74.6-60.84a223.83,223.83,0,0,0-65.43,10.32l4.6,39c14.92-9.18,36.73-13.77,52.79-13.77,26.39,0,35.56,9.18,35.56,27.54v9.2c-62,0-104.44,23-104.44,65.41,0,28.7,18.36,45.92,51.64,45.92,27.56,0,49.35-13.77,58.55-33.28a243.58,243.58,0,0,0-2.31,29.84h44.78Zm-48.21-73.46c0,20.67-16,42.45-39,42.45-12.62,0-20.67-6.86-20.67-18.34,0-14.94,10.34-28.7,59.69-28.7v4.59Zm247.92,73.46v-124c0-31-12.62-56.24-53.93-56.24-29.84,0-50.51,14.91-62,35.58,2.31-10.33,2.31-24.1,2.31-32.14h-43.62V359.24h45.9V274.3c0-31,19.51-57.39,42.48-57.39,17.2,0,23,11.48,23,29.85V359.24h45.89Zm204.3,0L2211.7,264l63.12-81.48h-57.39L2164.63,256V99.86h-45.9V359.25h45.9V272l56.24,87.25Zm-1488.62-124c0-83.79-51.64-120.52-119.37-120.52-71.15,0-128.54,49.35-128.54,127.39,0,75.77,39,121.67,119.36,121.67,71.16,0,128.55-49.34,128.55-128.54Zm-63.12,4.6c0,53.93-33.28,73.44-62,73.44-41.32,0-59.69-28.68-59.69-75.75,0-49.35,29.84-72.3,60.83-72.3C705.85,165.28,727.67,190.53,727.67,239.89Zm273.16,113.62-6.89-49.35c-12.63,4.59-32.14,8-45.91,8-47.06,0-67.72-26.39-67.72-73.46,0-43.6,23-71.15,65.42-71.15a160.91,160.91,0,0,1,47,6.89L999.67,124c-16-4.59-35.57-5.73-52.79-5.73-86.08,0-132,51.65-132,129.7,0,55.09,26.4,114.78,121.66,114.78a235,235,0,0,0,64.28-9.19Zm228.41-68.86a53.71,53.71,0,0,0-42.48-52.8v-1.16c23-9.18,37.87-29.84,37.87-51.64,0-40.17-33.28-60.83-89.51-60.83-32.14,0-71.16,0-95.27,1.14V359.25c37.87,0,66.58,1.14,82.63,1.14C1198.24,360.39,1229.24,322.52,1229.24,284.65Zm-67.71-97.56c0,18.37-14.94,28.69-43.63,28.69h-17.21V163h24.1c25.24,0,36.74,9.18,36.74,24.11Zm3.42,98.7c0,18.37-14.92,29.84-41.31,29.84-9.19,0-18.37-1.14-23-1.14v-57.4h19.51C1147.75,257.09,1165,266.28,1165,285.79Zm275.47,67.72-6.88-49.35c-12.65,4.59-32.16,8-44.76,8-47.07,0-67.74-26.39-67.74-73.46,0-43.6,23-71.15,64.29-71.15a161,161,0,0,1,47,6.89l6.89-50.51c-16.06-4.59-34.43-5.73-52.79-5.73-86.08,0-132,51.65-132,129.7,0,55.09,26.39,114.78,121.64,114.78C1399.09,362.7,1422.06,359.25,1440.42,353.51ZM146.92,164.13,47.07,97.57C63.14,75.76,82.64,56.25,105.6,41.34l86.08,88.37c-17.22,8-33.29,19.5-44.76,34.42ZM120.5,227.26,6.88,183.64C13.76,156.09,24.1,130.84,39,107.9L141.16,171c-11.46,16.07-18.35,35.58-20.66,56.24ZM257.1,278.9l-122.81-47a123.32,123.32,0,0,1,23-51.65l99.85,63.13V278.9Zm0-41.32-95.26-63.12c11.48-13.78,26.4-24.1,43.62-31l51.64,51.65v42.46ZM13.78,319.07A229.85,229.85,0,0,1,0,239.89c0-16.08,1.14-31,4.59-45.93l115.93,41.33v4.59c0,27.53,9.18,53.93,26.4,74.6h1.14A123.66,123.66,0,0,1,132,253.64c0-4.59,0-9.17,1.15-13.76l124,43.59v35.59H13.78Zm8,21.82c-1.16-4.6-3.45-9.2-5.74-13.78H88.39L101,340.89H207.76L184.81,365H52.8C49.35,352.36,36.73,342,21.82,340.89ZM295,346.61a163.78,163.78,0,0,0,23-16.06,65.87,65.87,0,0,0,12.62-12.62c18.36-21.82,29.84-48.21,29.84-78.05A120.51,120.51,0,0,0,239.9,119.36h0c-13.78,0-27.55,2.3-39,6.89l-83.78-93A245.76,245.76,0,0,1,239.88,0c132-.46,239.41,106.17,239.87,238.19,0,.57,0,1.13,0,1.7,0,132-106.74,239.86-239.87,239.86a237.75,237.75,0,0,1-168.73-70H365l2.3-2.28L57.38,394.81l-2.3-2.28H383.35l1.14-2.31L41.32,374.17,40.17,373H173.32S241,375.31,295,346.61Z"/></g></g></svg>