<?xml version="1.0" encoding="utf-8"?>
<!-- Generator: Adobe Illustrator 25.2.3, SVG Export Plug-In . SVG Version: 6.00 Build 0)  -->
<svg version="1.1" id="Layer_1" xmlns="http://www.w3.org/2000/svg" xmlns:xlink="http://www.w3.org/1999/xlink" x="0px" y="0px"
	 viewBox="0 0 2212.4 609.9" style="enable-background:new 0 0 2212.4 609.9;" xml:space="preserve">
<style type="text/css">
	.st0{fill:none;stroke:#E7C63D;stroke-width:12;stroke-miterlimit:33.89;}
	.st1{fill-rule:evenodd;clip-rule:evenodd;fill:#217CAD;}
	.st2{fill-rule:evenodd;clip-rule:evenodd;fill:#B4282E;}
</style>
<g id="Layer_2_1_">
	<g id="Layer_1-2">
		<path class="st0" d="M14.4,9.9h2186.7v595.8H14.4V9.9z"/>
		<path class="st1" d="M1535.3,326.6c13.6-10.3,30.9-17,48.1-17c23.9,0,35.1,8.5,35.1,33.7h-22.4c-17,0-36.9,1.5-52.3,9.1
			s-26.6,21.3-26.6,44.7c0,29.8,27,46.5,54.5,46.5c18.5,0,38.7-9.7,48.1-27h0.6c0.3,4.8,0.3,15.2,1.8,23.4h35.7
			c-0.9-11.6-1.5-23.3-1.8-34.9c-0.3-11.5-0.6-23.4-0.6-39.2v-20c0-46.2-19.7-65.9-67.2-65.9c-17.3,0-38.4,4.5-54.2,11.8
			L1535.3,326.6L1535.3,326.6z M1555.8,394.7c0-24,26.9-27,45.1-27h17.5c0,12.2-1.8,23.4-8.5,32.2c-6.4,8.5-16,14-28.5,14
			C1567,413.9,1555.8,408.1,1555.8,394.7z M917,362.8c0,45.9,30,82.4,81.4,82.4c51.8,0,81.7-36.5,81.7-82.4
			c0-52.7-35.4-84.6-81.7-84.6C952.4,278.2,917,310.1,917,362.8z M959.4,357.8c0-24.1,12.7-47.9,39-47.9c26.6,0,39.3,23.2,39.3,47.9
			c0,26.9-8.2,55.7-39.3,55.7C967.5,413.5,959.4,384.4,959.4,357.8L959.4,357.8z M1249.9,392.8c0,31,17.5,50.7,49.3,50.7
			c12.1,0,21.5-1.2,30-3.7l-1.2-32.2c-4.2,2.8-11.2,4.3-18.5,4.3c-15.4,0-19.1-12.5-19.1-25.8v-72.9h36v-29.8h-36v-44.4l-40.6,13.1
			v31.3h-30v29.8h30V392.8z M1205.7,285.6c-12.7-2.7-25.1-5.8-44.2-5.8c-31.7,0-61.1,14.9-61.1,48.6c0,56.5,70.5,35.5,70.5,66.2
			c0,15.2-16.3,19.1-26.6,19.1c-13.9,0-27.2-3.9-39.9-10.3l-2.4,33.4c14.8,3.9,30.6,6.7,46,6.7c33,0,65.4-14.6,65.4-51
			c0-56.5-70.5-40.7-70.5-65.6c0-13.3,13-17.3,23.9-17.3c14.9,0,23.9,2.4,36.3,6.7L1205.7,285.6L1205.7,285.6z M1690.4,439.9h40.6
			v-76.5c0-20.1,6.4-52,35.7-52c26,0,26.3,25.8,26.3,45v83.5h40.6v-98.7c0-35.2-16-61.4-53-61.4c-21.2,0-38.4,7-51.2,24.9h-0.6
			v-21.2h-38.4L1690.4,439.9L1690.4,439.9z M1868.4,439.9h40.5V364h0.6l52.1,75.9h51.4l-65.4-86.6l58.1-69.9h-47.9l-48.4,62.6h-0.6
			V212.1h-40.5L1868.4,439.9z M1388.5,361.3c0-21.8,10.5-49.8,36.5-49.8c26.3,0,34.2,28.9,34.2,49.8c0,21.6-8.2,50.7-34.8,50.7
			C1397.5,412,1388.5,383.4,1388.5,361.3z M1349.2,439.9h38v-19.7c10.9,14.8,28.3,23.5,46.7,23.4c46.7,0,66-39.5,66-82.3
			c0-43.1-17.7-81.4-64.3-81.4c-20.6,0-36.6,9.9-47.2,24.5v-92.4h-39.2V439.9L1349.2,439.9z M815.5,261.3h14.9
			c21.8,0,40.3,8.5,40.3,33.1c0,24.6-19.1,31.6-40.3,31.6h-14.9V261.3z M773.1,439.9h42.4v-80.5h17.8c45.4,0,81.4-17.9,81.4-67.5
			c0-50.7-42.1-64.1-88.1-64.1h-53.5V439.9z M386.1,155.3l191-5c-148.1,88.9-198,225.1-210.4,308.9H202.6
			C214.6,367.3,288.8,214.9,386.1,155.3L386.1,155.3z M663.9,276.2c-75.6,47.6-97.7,122.4-102.3,151.1h-49.1
			c8.5-50.4,40-115.5,86.6-149.8C599.5,277.2,663.9,276.2,663.9,276.2L663.9,276.2z"/>
		<path class="st2" d="M517.4,229.2l111.9-3.1C537.4,274.7,491.7,376.9,484,440h-85.1C406.1,388.2,441.3,286.4,517.4,229.2z"/>
	</g>
</g>
</svg>
