<svg xmlns="http://www.w3.org/2000/svg" viewBox="0 0 2163.58 374.09"><defs><style>.cls-1{fill:#e2000e;}.cls-2{fill:#171715;}</style></defs><g id="Layer_2" data-name="Layer 2"><g id="Layer_1-2" data-name="Layer 1"><path class="cls-1" d="M2045,116.37S2070.34.75,2070.71,0h-160c0,.75-33.19,153.29-33.19,154h41c.37,0,25-115.25,25-115.25h77.58s-24.62,115.62-25,116.36h118.23l-15.29,71.24H1981.57c0,.75-23.87,108.53-23.87,108.53h-88.76c0,.38-7.83,38.79-8.21,39.17h130.91c0-.38,23.5-108.91,23.5-108.91h117.48c0-.37,31-147.7,31-148.44H2045Z"/><path class="cls-2" d="M76.46,177.91,93.24,98.46h21.63c23.87,0,35.06,9.7,35.06,32.45,0,29.09-18.27,47-52.21,47Zm-8.95,44H90.26c72.35,0,112.63-35.44,112.63-95.11,0-44.38-31.33-73.1-85-73.1H51.1L0,295.39H51.84Zm217.06,37.66c-20.51,0-36.55-16-29.09-53.33,7.46-36.92,25.36-53.33,45.88-53.33s36.55,16.41,28.72,53.33c-7.46,36.92-25,53.33-45.51,53.33M279.73,301C336,301,374.46,260,383,206.25c8.95-53.71-20.89-94.73-77.21-94.73s-94.73,41-103.31,94.73C193.57,260,223.41,301,279.73,301m193.56-57.81c0,14.55-17.52,16.79-32.44,16.79-18.65,0-39.54-4.85-50.73-8.58l-8.57,40.28a236.56,236.56,0,0,0,55.94,7.09c45.88,0,83.54-17.16,83.54-60.42,0-55.58-66.76-45.88-66.76-70.87,0-11.19,10.82-15.29,27.6-15.29,16,0,38.79,6.34,46.25,8.58l8.58-40.65c-15.29-4.48-33.94-6.72-50.35-6.72-50,0-80.19,22.38-80.19,59.3.37,54.83,67.13,45.88,67.13,70.49m195.07-86.52,8.2-39.17h-55.2l10.82-49.6L578.47,79.81,544.9,232.36c-9.32,43.26,14.55,66.76,57.44,66.76,8.95,0,24.24-1.87,35.06-5.22L646,254.74c-8.58,2.23-19.4,4.47-28.72,4.47-14.92,0-25.36-4.85-21.63-23.12L612.41,157h56Zm50.72,139.11,20.14-93.24H816.8l9.32-45.5h-77.2L760.85,100h81.68L852.6,54.45h-135l-51.1,241.69h52.59ZM864.16,117.48,825.75,295.76h51.1l38.41-178.28Zm7.46-49.6c-1.12,16,10.82,28.72,26.48,28.72,17.53,0,30.21-12.68,31.33-28.72S918.62,39.16,903,39.16c-17.9,0-30.58,12.68-31.33,28.72m91.75,227.88,19.77-91c7.83-36.55,25.74-49.23,44.76-49.23,24.24,0,26.85,17.9,22.37,38.41l-21.63,101.82h51.47l22.75-104.43c11.19-52.21-13-79.44-50.72-79.44-20.89,0-41,8.21-58.18,26.48l4.85-21.26H951.07L912.65,295.39h50.72ZM1212.89,113c-23.87,0-47.74,5.22-55.57,7.83l-9,41.4c11.56-3.36,34.31-9.32,54.45-9.32,26.85,0,36.55,8.2,36.55,22.37a31.81,31.81,0,0,1-.75,8.21l-.74,3.73c-13.06-1.49-25-2.61-31-2.61-51.1,0-92.12,19.77-92.12,66.39,0,30.58,23.87,48.86,54.82,48.86,22,0,40.66-8.58,53-23.13l-4.11,18.65H1264l22.38-102.19a95.37,95.37,0,0,0,2.61-23.13c0-30.21-16.78-57.06-76.08-57.06m-49.61,131.28c0-17.9,15.67-28,42.15-28a194.91,194.91,0,0,1,26.11,1.87l-2.24,10.07c-6,21.25-23.5,35.43-44,35.43-14.55,0-22-7.09-22-19.4m184.62,51.47,19.77-91c7.83-36.55,25.73-49.23,44.76-49.23,24.24,0,26.85,17.9,22.37,38.41l-21.63,101.82h51.47l22.75-104.43c11.19-52.21-13.05-79.44-50.72-79.44-20.89,0-41,8.21-58.18,26.48l4.84-21.26h-47.74l-38.41,178.28h50.72Zm248.77-38.41c-23.5,0-39.16-10.07-39.16-39.16,0-34.32,21.63-62.66,55.57-62.66,10.82,0,23.13,3.35,35.43,7.83l8.58-41c-14.17-4.85-30.58-8.58-47-8.58-56.32,0-104.81,42.15-104.81,106.67,0,53.34,32.83,78.33,79.82,78.33A109.89,109.89,0,0,0,1623.9,292l9.32-42.14c-10.81,4.1-22.75,7.46-36.55,7.46m195.06,36.17,9.33-42.89c-15.67,5.23-31.33,9.7-51.1,9.7-23.12,0-43.26-7.83-44.38-35.43h118.6a136.47,136.47,0,0,0,6.71-41c0-39.53-23.12-72-72.35-72-64.15,0-102.94,52.59-102.94,110.4,0,49.6,33.19,78.69,84.66,78.69,21.26,0,38-3,51.47-7.46m-36.18-143.21c16.79,0,28.35,11.56,28.35,30.58a76.84,76.84,0,0,1-.75,9.32h-73.1c7.83-23.87,23.87-39.9,45.5-39.9"/></g></g></svg>