<svg xmlns="http://www.w3.org/2000/svg" viewBox="0 0 2498.64 453"><defs><style>.cls-1{fill:#283a93;}</style></defs><g id="Layer_2" data-name="Layer 2"><g id="Layer_1-2" data-name="Layer 1"><path class="cls-1" d="M1478.61,292.29C1468,360,1433,395.55,1391,395.55c-26.6,0-41.94-18.66-37.41-47.61l14.69-92c5.72-34.08,26-60.73,62.48-60.73,40.32,0,58.7,27.39,47.89,97.08m-143.9,135.08c5.68,0,19.3,23.92,63.54,23.92,94.26,0,148.16-68.21,162.94-156.14,18.65-108.48-34.09-157.8-100.54-157.8-31.27,0-54.59,2.81-71.63,11.82L1414.65,0h-78.19l-77.77,445.89h58.93s8.59-18.38,17.64-18.38h-.55v-.14Zm833-190.18c12-67.56-13.07-100.49-86.26-100.49-54.5,0-76,24.06-96.39,44.47l2-37.54-72.51.46-5.58,55.65L1867,445.93h79.39L1972,286.1c9.06-55.05,47.16-97.12,82.86-97.12,39.76,0,39.3,22.72,33,57.36l-34.59,199.59H2132l35.69-208.74Zm330.95-99.8h-92.55L2299.78,250.08l-1.53-.33L2340.88.23h-77.22L2185.8,445.89h78.32l8-44.66L2288,303.65c41.38,0,64.66,4.52,82.81,86.77l12.51,55.47h80s-19.9-84.33-32.93-117.26c-13.71-34.63-28.54-57.54-60.4-63.78l128.61-127.46ZM224.08,246.66c57.26-12.52,87-58.84,95-88.95,20.41-82.85-16.4-147.55-122.06-146.4L76,11.18,0,445.89H78.88L110.1,271.27c72.73-2,81.65,15.71,95.27,100.5l12.52,74.12h81.79C290,401,283.84,358.65,275.89,324.66c-8.59-35.84-21.8-63.78-55.83-77.08l4-.92Zm15.84-103.5c-6.79,38.61-36.72,65.72-73.57,65.72H119.84l24-137.3,42.3-.09c50.2,0,60,33,53.76,71.67m356.66,82.12c11.31-65.91-23.88-88.58-94.81-88.58-88.58,0-127.14,42-127.14,42l27.2,46s28.63-33.58,85.76-33.58c31.82,0,32.51,16.26,29.46,33.58l-6.23,39.16C396.7,261,338.28,285.5,325.21,360.36c-10.66,61.33,35.33,90.93,86.92,90.93,26.65,0,48.21-4.06,74.26-26.69,5.13,14.68,14.27,22.53,24.43,24.15,16.44,3.42,44.84-.46,53.34-6.7-.65-9.09,0-32.28,9.65-86.77l22.77-130ZM503,305.36C490.32,395,478.4,404,435.17,404c-29.55,0-40.45-20.22-35.46-46.73,6.88-36.16,34.17-51.86,103.26-51.86m1345.28-80.08c11.36-65.91-23.87-88.58-94.86-88.58-88.53,0-127.13,42-127.13,42l27.29,46s28.59-33.58,85.62-33.58c31.91,0,32.56,16.26,29.56,33.58l-6.24,39.16C1648.33,261,1590,285.5,1576.84,360.36c-10.81,61.33,35.19,90.93,86.82,90.93,26.65,0,48.26-4.06,74.4-26.69,5,14.68,14.13,22.53,24.34,24.15,16.44,3.42,44.84-.46,53.29-6.7-.55-9.09,0-32.28,9.66-86.77l22.9-130Zm-93.65,80.08C1742,395,1730.07,404,1686.8,404c-29.51,0-40.45-20.22-35.51-46.73,6.92-36.16,34.22-51.86,103.31-51.86M755,451.29c94.26,0,148.15-68.21,162.84-156.14,18.7-108.48-34-157.8-100.49-157.8-31.22,0-53.76,2.81-71.35,11.82L771.61,0H693.1L615.28,445.89h59.07s8.5-18.38,17-18.38c5.73-.14,19.35,23.78,63.64,23.78M788,195.21c40.32,0,57.4,27.25,47.89,97.08-9.7,71.35-45.63,103.35-88.21,103.35-26.65,0-42-18.75-36.9-47.7L725.47,256c5.64-34.13,26-60.73,61.89-60.73h.6v-.09Zm163,124.14c12.14-113.52,63.31-183.76,185-183.76,90.29,0,120.21,68.95,108.07,143.07C1224.61,397.17,1178.47,453,1062.65,453c-75,0-119.47-61.15-111.71-133.65m210.63-35.19c5.82-31.41,12-92.37-42.07-92.37-36.3,0-70.2,24.62-85.44,110.89-9.28,52.78.88,95.09,43,95.09,30.76,0,68.31-25.4,84.56-113.61"/></g></g></svg>