<?xml version="1.0" encoding="utf-8"?>
<!-- Generator: Adobe Illustrator 25.2.3, SVG Export Plug-In . SVG Version: 6.00 Build 0)  -->
<svg version="1.1" id="Layer_1" xmlns="http://www.w3.org/2000/svg" xmlns:xlink="http://www.w3.org/1999/xlink" x="0px" y="0px"
	 viewBox="0 0 2426.5 996.1" style="enable-background:new 0 0 2426.5 996.1;" xml:space="preserve">
<style type="text/css">
	.st0{fill-rule:evenodd;clip-rule:evenodd;}
	.st1{fill-rule:evenodd;clip-rule:evenodd;fill:#FFF22D;enable-background:new    ;}
</style>
<g id="Layer_2_1_">
	<g id="Layer_1-2">
		<path class="st0" d="M709,0v709H0V0H709z"/>
		<path class="st1" d="M17.6,17.6h673.8v673.8H17.6V17.6z"/>
		<path class="st0" d="M662.7,226.4l-25.4-23.2L533.4,303.8L504.7,274l1.1-64.1l-25.4,26.5V316l-41.2,41.3l205.1,205l-82.9,84
			L356.2,440.5L151.1,646.3l-82.9-84l205.1-205L232.1,316v-79.6l-25.4-26.5l1.1,64.1l-28.7,29.8L75.2,203.2l-25.4,23.2
			c4.1-108.1,90.1-192,171.2-134.8l106.1,107.2l-24.3,22.1l53.4,53.4l53.4-53.4l-24.3-22.1L491.4,91.6
			C572.5,34.4,658.5,118.3,662.7,226.4L662.7,226.4z M909.2,29.3v239.6h-25.7V3.2h71.4c15.7,0,28.3,1.2,37.8,3.5
			c22.4,5.4,41.2,20.7,51.1,41.5c6.1,12.2,9.3,25.7,9.2,39.4c0,20.6-6.1,38.2-18.3,53.1c-12.2,14.8-27.5,22.9-45.9,24.3l64.2,103.8
			h-31l-78.8-128.1h25.2c16.8,0,30.5-4.9,41-14.8c10.5-9.8,15.8-22.5,15.8-38c0.1-8.8-1.5-17.4-4.9-25.5
			c-3.2-7.7-8.1-14.5-14.3-20.1c-5.4-4.8-11.9-8.3-18.9-10.1c-7.3-2-20.5-3-39.4-3L909.2,29.3z M1253.9,167.3
			c0-21.3-7.6-39.9-22.8-55.8s-32.7-23.8-52.6-23.8c-21.5,0-39.9,7.9-55,23.8s-22.7,35.5-22.7,59c0,22.4,7.5,41.2,22.6,56.6
			s33.2,23.1,54.4,23.1c20.4,0,38.2-8.1,53.4-24.3S1253.9,190.1,1253.9,167.3L1253.9,167.3z M1253.9,237.2
			c-8,11.6-18.9,20.6-32.6,27.2c-13.8,6.6-29,9.9-44.3,9.8c-29.4,0-53.9-10.1-73.5-30.2s-29.4-45-29.4-74.6c0-30,10-55.1,30-75.4
			s45-30.3,75.1-30.3c14.7-0.2,29.2,3,42.5,9.4c12.8,6.2,23.8,15.5,32.1,27.1V68.1h25.2v200.7h-25.2L1253.9,237.2z M1345.9,44.7
			h-25.7V3.2h25.7V44.7z M1320.2,268.9V68.2h25.7v200.7H1320.2z M1423.2,268.9h-25V90.6h-26.8V68.1h25.7v-5.5
			c0-21.2,5.4-37,16.2-47.2c10.7-10.2,27.3-15.3,49.5-15.3h2.4v23.2c-15.4,0.2-26.3,3.3-32.8,9.2s-9.6,15.9-9.6,30.1v5.5h42.3v22.4
			h-42L1423.2,268.9L1423.2,268.9z M1525.8,268.9h-25V90.6H1474V68.1h25.7v-5.5c0-21.2,5.4-37,16.2-47.2
			c10.8-10.2,27.4-15.3,49.6-15.3h2.4v23.2c-15.4,0.2-26.3,3.3-32.8,9.2s-9.6,15.9-9.6,30.1v5.5h42.4v22.4h-42L1525.8,268.9
			L1525.8,268.9z M1789.7,176.8h-181.1c1.5,21.9,9.4,39.5,23.7,53s31.9,20.2,53.2,20.2c14.4,0.2,28.6-3.9,40.7-11.7
			c12.2-8,21.9-19.3,27.9-32.7h29.2c-9.2,22.2-22.2,39.3-38.9,51.1c-16.7,11.8-36.1,17.8-58.1,17.9c-29.2,0-53.9-10.4-74.1-31.2
			s-30.3-45.8-30.3-75c0-30.6,9.9-55.8,29.7-75.7c19.8-19.9,45-29.9,75.8-30c30.2,0,54.8,10.4,73.8,31.1s28.5,47.8,28.6,81.1
			L1789.7,176.8L1789.7,176.8z M1761.3,155c-4.9-22.5-13.8-39.5-26.8-50.9s-30-17.1-50.9-17.1c-19.5,0-35.9,6.1-49.5,18.4
			c-13.5,12.3-21.7,28.8-24.8,49.6H1761.3z M1845.4,44.6h-25.7V3.2h25.7V44.6z M1819.7,268.9V68.2h25.7v200.7H1819.7z M1874.2,205.8
			h26.5v0.8c0,12.5,3.6,22.9,10.8,31.1s16.1,12.3,26.7,12.3c10.1,0,18.4-3.2,25.2-9.5c6.6-6.2,10.2-14.9,10-23.9
			c0-9.6-2.6-17.3-7.9-23.2s-14.9-11.3-28.8-16.4c-22.2-7.9-36.8-16-43.6-24.2s-10.2-19.4-10.2-33.2c-0.3-15.1,5.9-29.6,17-39.9
			c11.3-11,25.2-16.4,41.3-16.4c17.2,0,30.8,4.8,40.8,14.6s15.5,23.4,16.2,40.7h-27.5c-0.6-9.5-3.6-16.9-9-22.1s-12.8-7.8-22.2-7.8
			c-8.4,0-15.4,2.8-21,8.5s-8.4,12.7-8.4,21.1c0,6,1.2,11,3.5,15.1s6.1,7.7,11.5,11c4.9,3,12,6,21.3,8.8s15.5,4.9,18.7,6.2
			c12.5,5.3,21.7,12.5,27.7,21.4c5.9,8.9,8.8,20.2,8.8,33.9c0,17.3-6.1,31.6-18.1,42.9s-27.3,16.9-45.8,16.9
			c-18.9,0-34-6.2-45.5-18.5C1880.8,243.3,1874.8,226.7,1874.2,205.8L1874.2,205.8z M2229.3,176.8h-181.2c1.6,21.9,9.5,39.5,23.7,53
			s31.9,20.2,53.2,20.2c14.4,0.2,28.6-3.9,40.7-11.7c12.2-8,21.9-19.3,27.9-32.7h29.2c-9.2,22.2-22.2,39.3-38.9,51.1
			c-16.7,11.8-36.1,17.8-58.1,17.9c-29.2,0-53.9-10.4-74.1-31.2c-20.2-20.8-30.3-45.8-30.3-75c0-30.6,9.9-55.8,29.6-75.7
			c19.8-19.9,45-29.9,75.8-30c30.2,0,54.8,10.4,73.8,31.1s28.5,47.8,28.6,81.1L2229.3,176.8L2229.3,176.8z M2200.8,155
			c-4.8-22.6-13.8-39.6-26.8-51s-30-17-50.9-17c-19.4,0-35.9,6.1-49.4,18.4s-21.7,28.8-24.8,49.6H2200.8z M2258.8,68.2h24.9V91
			c7.5-8.8,16.9-15.7,27.5-20.2c10.4-4.4,22.3-6.6,35.7-6.6c14.7,0,27.8,2.7,39.3,8.2c11.1,5.1,20.5,13.3,27.3,23.5
			c4.8,7.8,8.2,16.3,10,25.3c2,9.6,3,23.9,3,42.8v104.9h-25.4V156.5c0-23.7-4.5-40.9-13.6-51.6s-23.6-16-43.6-16.1
			c-11.7,0-21.9,2.4-30.8,7c-8.7,4.6-15.9,11.6-20.8,20.2c-3.3,5.8-5.6,12.1-6.7,18.7c-1.3,7-1.9,19.2-1.9,36.6v97.6h-25
			L2258.8,68.2L2258.8,68.2z M856.7,992l37.5-193.8H940c24.9,0,43.3,4.7,55.4,14.2c12.1,9.4,18.1,23.8,18.2,43.1
			c0,17.6-5.8,32.1-17.5,43.4c-11.7,11.4-27.9,18.2-48.7,20.6l39.8,72.5h-22.6l-45.5-88.1h6.2c21.6,0,38.4-4.4,50.5-13.1
			c12.1-8.8,18.2-20.9,18.2-36.4c0.1-5.8-1.1-11.6-3.4-16.9c-2.2-4.9-5.6-9.2-9.9-12.4c-5-3.7-10.8-6.3-16.9-7.4
			c-6.7-1.4-18.4-2.1-35.2-2.1h-18.8l-34,176.4H856.7z M1183.5,992l3.1-13.8c-6.5,5.5-13.7,10-21.6,13.3c-7.2,2.9-14.9,4.5-22.6,4.5
			c-15.8,0-28.6-4.4-38.4-13.3s-14.7-20.5-14.7-34.8c0-5.7,0.4-11.4,1-17.1c0.6-6,1.5-11.9,2.7-17.7l14-67.4h17.7l-15.3,76.2
			c-0.7,3.7-1.3,7.5-1.8,11.2c-0.4,3.4-0.6,6.8-0.6,10.2c0,11.2,3.1,19.9,9.3,26c6.1,6.2,14.8,9.3,25.8,9.3c14.8,0,26.6-4.4,35.4-13
			s15.1-22.2,18.9-40.7l15.9-79.1h17.2L1201.3,992H1183.5z M1299.5,950.4h17.5v0.5c0,8.3,2.2,15.1,6.7,20.3c4.3,5.1,10.8,8,17.5,7.8
			c6.7,0,12.5-2.6,17.4-7.9c4.8-5,7.4-11.7,7.3-18.6c0-9.2-7.4-18.8-22.1-28.6l-0.8-0.5c-12.2-8.2-20.1-15.1-23.8-20.9
			c-3.8-6.1-5.8-13.1-5.6-20.3c0-11.6,3.8-21.4,11.5-29.2s17.2-11.8,28.6-11.8c10.7,0,19.3,3.2,25.9,9.5c6.5,6.3,9.8,14.7,9.8,25.2
			c0,1.6,0,2.9,0,3.7c0,0.7-0.1,1.4-0.2,2.1l-17.2,0.2c0-0.6,0.1-1.2,0.2-1.8c0.1-0.8,0.1-1.4,0.1-1.8c0-6.3-1.7-11.3-5.1-15
			s-7.9-5.5-13.7-5.5c-11.7-0.3-21.5,8.9-21.8,20.7c0,0.4,0,0.8,0,1.1c0,8,7.7,17.3,23,27.8c1.4,1,2.5,1.7,3.2,2.2h0.1
			c17.9,12.3,26.9,25.3,26.9,38.9c0,13.9-4.3,25.3-12.8,34.2s-19.5,13.3-32.8,13.3c-11.5,0-21.1-3.8-28.7-11.5s-11.3-17.4-11.3-29.1
			c0-1.4,0-2.4,0-3.2C1299.2,951.7,1299.3,951,1299.5,950.4L1299.5,950.4z M1464.7,950.4h17.4v0.5c0,8.3,2.2,15.1,6.7,20.3
			c4.3,5.1,10.8,8,17.5,7.8c6.7,0,12.5-2.6,17.4-7.9c4.8-5,7.4-11.7,7.3-18.6c0-9.2-7.4-18.8-22.1-28.6l-0.8-0.5
			c-12.2-8.2-20.1-15.1-23.8-20.9c-3.7-5.7-5.6-12.5-5.6-20.3c0-11.6,3.8-21.4,11.5-29.2s17.2-11.8,28.6-11.8
			c10.7,0,19.3,3.2,25.9,9.5c6.5,6.3,9.8,14.7,9.8,25.2c0,1.6,0,2.9,0,3.7c0,0.7-0.1,1.4-0.2,2.1l-17.2,0.2c0-0.4,0-1,0.1-1.8
			c0.1-0.6,0.1-1.2,0.2-1.8c0-6.3-1.7-11.3-5-15s-8-5.5-13.7-5.5c-5.9-0.2-11.5,2.1-15.6,6.2c-4.1,4.1-6.3,9.8-6.2,15.6
			c0,8,7.7,17.3,23,27.8l3.2,2.2h0.1c17.9,12.3,26.9,25.3,26.9,38.9c0,13.9-4.3,25.3-12.8,34.2s-19.5,13.3-32.8,13.3
			c-11.6,0-21.1-3.8-28.7-11.5s-11.4-17.4-11.3-29.1c0-1.4,0-2.4,0-3.2C1464.4,951.7,1464.5,951,1464.7,950.4L1464.7,950.4z
			 M1661.9,831.2l6.2-33h17.4l-6.2,33H1661.9z M1676.4,845.6L1648.1,992h-17.5l28.6-146.4H1676.4z M1887.4,912.4
			c0-16.3-4.7-29.5-14-39.6c-9.3-10-21.6-15-36.9-15c-14.2,0-28,5-38.8,14.2c-7.5,6.5-13.4,14.6-17.4,23.8
			c-4.2,9.4-6.3,19.6-6.3,29.9c0,15.9,4.8,28.9,14.5,38.7s22.4,14.8,38.1,14.8c17,0,31.4-6.4,43.2-19.2S1887.4,931.3,1887.4,912.4
			L1887.4,912.4z M1890.3,992H1871l2.4-11.2c-7.3,4.7-15.2,8.4-23.5,11c-8.2,2.5-16.7,3.8-25.2,3.7c-20.5,0-37.3-6.6-50.4-19.8
			s-19.7-30.1-19.7-50.7c-0.1-11.4,2.1-22.8,6.3-33.4c4.2-10.4,10.4-19.8,18.3-27.7c7.2-7.2,15.8-12.9,25.3-16.8
			c9.7-3.8,20-5.8,30.4-5.7c14.1,0,26.1,2.6,35.9,7.8c10,5.3,18.2,13.5,23.6,23.5l5.4-27.3h18.5L1890.3,992L1890.3,992z
			 M924.5,570.6l-17.3,100.2h36.7c21.5,0,38.1-4.1,49.8-12.2c11.7-8.2,19-20.7,21.9-37.6s-0.1-29.5-9.2-37.8s-24.1-12.5-45.3-12.5
			L924.5,570.6L924.5,570.6z M944.2,455.9l-15.4,89.4h15.7c25.8,0,44.5-3.6,56-10.7s18.7-18.8,21.5-35c2.6-15.2-0.4-26.3-9.2-33.2
			c-8.8-7-24.1-10.5-46-10.5L944.2,455.9L944.2,455.9z M923.7,430.5h49.5c30.1,0,51.2,5.7,63.3,17.1s16.1,29.1,12,53.2
			c-2.1,12.2-6.2,22.5-12.5,31.2c-6.6,8.9-15.1,16.2-25,21.2c13.3,6,22.6,14.3,27.9,25.1s6.7,23.9,4,39.5
			c-4.7,27-15.5,46.9-32.6,59.5s-41.6,19-73.7,19h-58.8L923.7,430.5z M1061.5,696.2H1034l148.9-265.7h31.4l56.9,265.7h-27.9
			l-17.3-83.4h-118.3L1061.5,696.2z M1220.9,588.9l-27.4-133.4l-72.7,133.4H1220.9z M1473,664.4l37.2-233.9h25.9l-45.8,265.7h-31.4
			l-105.4-234.3L1316,696.2h-25.7l45.8-265.7h31.4L1473,664.4z M1579.8,614.2l-14.1,82H1540l45.8-265.7h25.7L1586,578.1l148.5-147.6
			h31L1636.1,559l81.8,137.2h-32.1L1616,578.5L1579.8,614.2z"/>
	</g>
</g>
</svg>
