<?xml version="1.0" encoding="utf-8"?>
<!-- Generator: Adobe Illustrator 25.2.3, SVG Export Plug-In . SVG Version: 6.00 Build 0)  -->
<svg version="1.1" id="Layer_1" xmlns="http://www.w3.org/2000/svg" xmlns:xlink="http://www.w3.org/1999/xlink" x="0px" y="0px"
	 viewBox="0 0 2169 2499.9" style="enable-background:new 0 0 2169 2499.9;" xml:space="preserve">
<style type="text/css">
	.st0{fill:#3C55A4;enable-background:new    ;}
	.st1{fill:#FDDF00;}
	.st2{fill:#FFFFFF;}
	.st3{fill:#3C55A4;}
</style>
<g id="Layer_2_1_">
	<g id="Layer_1-2">
		<path class="st0" d="M1898.3,2192.4c0,83.6-33.4,130.3-100.3,157.1c-257.3,100.3-561.5,150.4-848.9,150.4
			c-290.8,0-594.9-50.1-848.9-150.4C33.4,2322.7,0,2276,0,2192.4V0h1901.6v2192.4H1898.3z"/>
		<path class="st1" d="M504.6,1336.8C240.6,1173,153.7,1099.5,147,992.6c0-23.4,3.3-60.2,13.4-83.5L137,892.3
			c-20,30.1-33.4,73.5-33.4,110.3c0,63.5,20,110.3,43.4,147.1c36.8,56.8,76.9,93.6,170.4,163.8c103.6,76.9,173.8,167.1,213.9,264
			H548v-106.9c140.4,80.2,264,153.7,324.2,287.4h13.4C862.2,1617.6,785.4,1510.6,504.6,1336.8L504.6,1336.8z M1717.8,1754.6h-16.7
			c0-96.9-90.2-123.7-183.8-123.7h-294.1c10,46.8,13.4,103.6,6.7,157.1h-13.4c-26.7-220.6-150.4-330.9-327.5-447.8v100.3h-13.4
			c-46.8-103.6-147-200.5-244-270.7c-27-17-52.7-36-76.9-56.8v106.9h-13.3c-40.1-106.9-113.6-187.2-220.6-284.1
			C207.2,832.2,160.4,772,133.7,701.8c-16.7-43.4-20-76.9-20-123.7c0-83.5,40.1-160.4,93.6-187.2V431
			c-26.7,33.4-40.1,80.2-40.1,123.7c0,40.1,10,86.9,30.1,127c63.5,123.7,280.7,274,417.8,364.3c427.8,287.4,514.7,337.6,584.9,487.9
			c6.7,16.7,16.7,40.1,23.4,66.8c60.2-10,287.4-43.4,327.5-50.1c6.7,0,23.4-3.3,33.4-3.3c40.1-23.4,70.2-56.8,96.9-93.6l-163.8-13.4
			l-23.4,46.8h-13.4c3.3-16.7,10-33.4,10-50.1l-43.4-3.3v-10l46.8-6.7c9.1-42.8,13.6-86.5,13.4-130.3l-207.2-10v60.2h-13.4l-10-60.2
			l-46.8-3.3V1260l43.4-3.3c-6-49.9-7.1-100.3-3.4-150.5l-120.3-6.7c6.7,10,10,20,16.7,33.4c26.7,73.5,20.1,157.1,10,197.2H1163
			c-3.3-46.8-16.7-100.3-33.4-133.7c-33.4-80.2-106.9-147-233.9-230.6v100.3h-13.3C838.9,932.4,735.2,858.9,581.5,782
			c-127-66.8-167.1-143.7-160.4-267.4l43.4,26.7C474.6,655,564.8,721.9,655,721.9c53.5,0,103.6-6.7,153.7-16.7
			c70.2-13.4,137-26.7,190.5-6.7v-66.8h-43.4c-16.7,13.4-46.8,30.1-93.6,30.1c-50.1,0-147-26.7-147-133.7c0-93.6,76.9-107,140.4-107
			c33.4,0,90.2,0,110.3-3.3c13.4,0,23.4-3.4,33.4-10c6.7-6.7,10-13.4,10-23.4c3.3-10,3.3-23.4,3.3-43.5V274H718.5v117l-110.3-43.4
			v-26.7h53.5V274H461.2v-96.9h-66.8c-36.8,0-76.9,26.7-80.2,73.5s20.1,86.9,66.9,86.9v56.8h-10c-86.9,0-150.4-63.5-150.4-150.4
			s76.7-157,167-157h143.7v96.9h561.5v143.7c0,23.4,0,56.8-3.3,76.9c0,13.4-6.7,43.4-36.8,63.5c-16.7,13.4-43.4,16.7-83.5,20
			c-13.4,0-53.5,0-100.3-3.3c-63.5-3.4-83.5,20-83.5,43.4v13.4C815.6,518,859,501.3,905.8,518c83.6,26.7,107,30.1,153.7-6.7l3.3,10
			c-3.3,6.7-13.4,16.7-26.7,26.7h40.1v220.6l127-76.9h357.6c0,0,150.4,80.2,177.1,90.2c23.4,10,30.1,26.7,33.4,46.8
			c3.3,16.7,0,40.1-10,53.5c-6.7,10-46.8,76.9-66.8,110.3c60.2,66.8,100.3,157.1,100.3,260.7c0,93.6-33.4,210.6-147,300.8
			c50.1,16.7,80.2,43.4,103.6,76.9L1717.8,1754.6L1717.8,1754.6z M922.4,564.8c-50.1-10-76.9-3.3-106.9,23.4
			c13.4,6.7,30.1,10,50.1,10C895.7,594.9,912.4,578.2,922.4,564.8z M892.3,882.3l140.4-83.6c-26.7-13.4-56.8-23.4-93.6-23.4
			c-50.1,0-130.3,20-170.5,26.7C788.7,815.5,852.2,855.6,892.3,882.3L892.3,882.3z M1524,892.3l20-26.7l-30-40.1l3.3-10l83.6,46.8
			l-16.7,56.8c13.4,6.7,26.7,13.4,43.4,26.7l53.5-90.2L1537.3,782h-314.2l-254,153.7c46.8,33.4,93.6,70.2,123.7,106.9
			c66.8-100.2,190.5-163.7,307.5-163.7C1440.4,875.7,1487.2,879,1524,892.3L1524,892.3z M1497.2,1249.9c0-42.9-5.6-85.6-16.7-127
			l-167.1-6.7c-10,50.1-20,100.3-23.4,147L1497.2,1249.9z M1554.1,1126.3c6,39.8,7.2,80.2,3.3,120.3l163.8-10
			c-3.3-37.2-13.5-73.5-30.1-106.9L1554.1,1126.3L1554.1,1126.3z M1470.5,1072.8c-16.7-60.2-36.8-100.3-50.1-120.3h-20.1
			c-10,0-23.4,0-33.4,3.3c-16.7,40.1-30.1,83.6-40.1,127L1470.5,1072.8L1470.5,1072.8z M1517.3,972.5c13.4,33.4,20.1,63.5,26.7,96.9
			l100.3-6.7C1610.9,1022.7,1567.4,989.2,1517.3,972.5L1517.3,972.5z M1701.1,1397c13.4-30.1,20.1-56.8,20.1-90.2l-170.4-10
			c-6.7,46.8-20,90.2-33.4,123.7L1701.1,1397L1701.1,1397z M1276.7,979.2c-56.8,26.7-96.9,60.2-133.7,110.3l117-6.7
			C1266.6,1029.4,1273.3,995.9,1276.7,979.2z"/>
		<path class="st2" d="M1059.4,2008.6c46.8-6.7,93.6-43.4,93.6-100.3c0-50.1-20-106.9-170.4-106.9h-254v3.3c6.7,3.3,20,10,26.7,16.7
			c16.7,16.7,23.4,43.4,23.4,73.5v377.7h210.5c113.6,0,197.2-43.4,197.2-143.7C1189.8,2048.7,1126.3,2011.9,1059.4,2008.6
			L1059.4,2008.6z M952.5,1844.8c53.5,0,90.2,10,90.2,70.2s-50.1,76.9-103.6,76.9h-46.8v-147L952.5,1844.8z M959.2,2229.2h-66.8
			v-193.8h63.5c86.9,0,123.7,26.7,123.7,93.6C1076.1,2202.4,1032.7,2229.2,959.2,2229.2z M544.8,2276h137l-177.1-224
			c70.2-20.1,123.7-56.8,123.7-127c0-80.2-50.1-123.7-177.1-123.7h-264v3.3c10,3.6,19.1,9.3,26.7,16.7
			c20.1,16.7,23.4,46.8,23.4,83.6v367.7h110.3V2062h40.1L544.8,2276z M350.9,1844.8h73.5c60.2,0,93.6,16.7,93.6,83.6
			c0,56.8-43.5,93.6-110.3,93.6h-56.8L350.9,1844.8L350.9,1844.8z M1630.9,1864.8c30.1,16.7,36.8,36.8,36.8,40.1h3.3l23.4-80.2
			c0,0-43.4-30.1-143.7-30.1c-153.7,0-270.7,76.9-270.7,247.3c0,190.5,137,240.6,257.3,240.6c113.6,0,157.1-36.8,157.1-36.8V2189
			c0,0-40.1,36.8-123.7,36.8c-70.2,0-173.8-33.4-177.1-190.5c-3.3-143.7,60.2-193.8,147-193.8
			C1590.7,1844.8,1614.1,1858.1,1630.9,1864.8L1630.9,1864.8z"/>
		<path class="st3" d="M2052,2459.8c-63.5,0-117-53.5-117-120.3s53.5-120.3,117-120.3s117,53.5,117,120.3
			C2169,2409.6,2115.5,2459.8,2052,2459.8z M2052,2245.9c-50.1,0-90.2,43.4-90.2,93.6c0,53.5,40.1,96.9,90.2,96.9
			c50.1,0,90.2-43.4,90.2-96.9C2142.3,2289.3,2102.1,2245.9,2052,2245.9z M2058.7,2276c23.4,0,40.1,16.7,40.1,40.1
			c0,20-13.4,36.8-30.1,36.8l6.7,6.7l33.4,50.1h-30.1c-6.7-10-6.7-13.4-13.4-23.4c-13.4-23.4-16.7-30.1-23.4-33.4h-3.3v56.8h-26.7
			V2276H2058.7z M2035.3,2332.8h10c10,0,16.7,0,20.1-3.3s6.7-6.7,6.7-13.4c0.1-7-3.7-13.5-10-16.7c-3.3,0-10-3.4-13.4-3.4h-10v36.8
			L2035.3,2332.8z"/>
	</g>
</g>
</svg>
