<svg xmlns="http://www.w3.org/2000/svg" viewBox="0 0 2078.26 371.03"><defs><style>.cls-1{fill:#cc2229;fill-rule:evenodd;}</style></defs><g id="Layer_2" data-name="Layer 2"><g id="Layer_1-2" data-name="Layer 1"><path class="cls-1" d="M74.3,184.35c-11.92-18.89-14.5-44-14.5-63.3C59.8,55.41,118.44,0,179.54,0H371l-74.3,75H178.24C130.61,75,73,123.24,74.3,184.35Zm73-53.73c4.92-15.8,20.33-36,34.84-46.61-27.73,0-58.92,13.22-82.73,46.61Zm38.32-37.28c-10.87,9.59-22.79,24.08-28.87,37.28h57.48C208.16,117.42,196.25,102.93,185.64,93.34Zm-91,47C87.52,153.16,84,167.66,82.72,182.16h53.73a121.48,121.48,0,0,1,7.37-41.83Zm58.5,0c-4.78,12.83-7,27.33-8.28,41.83h81.3c-1.29-14.5-3.5-29-8.28-41.83Zm117.43-9.71C247.77,97.23,216.57,84,189.25,84c14.12,10.62,28.62,30.81,34.7,46.61Zm-43.11,9.71c4.92,12.83,7.11,27.33,7.11,41.83h53.73c-.91-14.5-4.52-29-11.9-41.83Zm-128,100.34c23.82,34.83,55,46.74,82.74,46.74-14.52-11-29.92-31.21-34.84-46.74ZM185.64,279c10.61-9.57,22.52-25.13,28.61-38.32H156.77c6.08,13.19,18,28.75,28.87,38.32Zm-41.83-46.61c-4.77-14.49-7.37-28.75-7.37-41.83H82.71c1.3,14.11,4.8,28.63,11.9,41.83Zm74.06,0c4.78-13.2,7-27.72,8.28-41.83h-81.3c1.29,14.11,3.5,28.63,8.28,41.83Zm6.08,8.29c-6.08,15.52-20.58,35.74-34.7,46.74,27.32,0,58.52-11.91,81.31-46.74Zm52.44-8.29a98.6,98.6,0,0,0,11.9-41.83H234.56a130.77,130.77,0,0,1-7.11,41.83Zm20.31-46.73c1.31,63.43-56,111.33-104,111.33H74.3L0,371H191.47c61.12,0,119.74-55,119.74-120.64,0-19.29-2.32-44.43-14.5-63.46v-1.28Zm559.75,101.5c-49.77,0-85.38-29.87-85.38-76.62,0-46.19,36.91-76.92,85.38-76.92s85.35,30.54,85.35,76.92C941.81,257.28,905.89,287.15,856.45,287.15Zm850.63-150V284.06h-49.62l-.77-14.79h-1.06c-5.53,4.94-17,18-49,18-35.49,0-66.6-30.83-66.6-76.84,0-42.65,27.59-76.71,69.87-76.71,28.75,0,40.48,12.67,44.89,16.72h1.34l.48-13.3Zm-383.09.07V284.14h-49.62l-.77-14.82h-1.06c-5.5,5-17,18.06-49,18.06-35.48,0-66.57-30.85-66.57-76.8,0-42.69,27.56-76.75,69.84-76.75,28.75,0,40.5,12.69,44.91,16.72h1.33l.5-13.3Zm-241.11.11h51.22v147h-51.22v-147ZM1357,284V76.88h51v71h.56c3.59-2.25,20.12-14.09,44.36-14.09,39.71,0,68.89,31.91,68.89,74.16,0,52.77-32.37,79.37-69.23,79.37-27.86,0-42-13-45.53-16.75h-.8l-.74,13.45ZM856.45,250.39c20.75,0,32.95-18.18,32.95-39.86,0-22-11.62-40.19-32.95-40.19-22.31,0-33,18.2-33,40.19C823.48,232.21,835.71,250.39,856.45,250.39Zm201.66-6.29c-2.5.69-9.4,2.46-14.12,2.46-10.36,0-21.67-4.84-21.67-22.81V174.12h32.13V137.18h-32.13V89.88H971.21v47.3H948.87v36.94h22.34v58.1c0,32,14.84,54.85,52.64,54.85a151.1,151.1,0,0,0,28-2.79l6.3-40.18ZM477.05,278.68c14.28,4.33,36,8.31,59,8.31,43.6,0,87.12-15.44,87.12-63.33,0-65.7-90.6-56.61-90.6-82.8,0-13.41,13.93-16.29,27.59-16.29,18.91,0,42.88,9.08,48.2,11.25l4.11-45.25c-13.22-4.5-33.3-7-52.14-7-43.05,0-85.54,16.79-85.54,59.44,0,64.56,90.36,51.08,90.36,84.95,0,13-13,18-29.61,18-22.8,0-44.24-11.43-53.51-15.55l-5,48.32Zm1117.1-69.56c0,24.3,13.58,39.47,31.13,39.47,15.91,0,31.39-14.89,31.39-37.47,0-22.76-13.74-38.34-31.39-38.34C1607,172.8,1594.15,189.11,1594.15,209.12Zm-383.06.08c0,24.29,13.55,39.47,31.1,39.47,15.92,0,31.41-14.89,31.41-37.47,0-22.75-13.73-38.33-31.41-38.33C1223.93,172.89,1211.09,189.19,1211.09,209.2ZM758,139.52a121.94,121.94,0,0,0-36.44-5.89c-46,0-80.53,28.8-80.53,76.79,0,43.59,31,76.78,78.48,76.78A122.32,122.32,0,0,0,758,280.8L755.55,238c-3.93,1.77-14.13,7.62-25.87,7.62C709.07,245.58,694,231,694,210.42c0-21.58,16.12-35.47,36.28-35.47,11.36,0,21.49,5.29,25.28,7.16L758,139.52ZM1924.8,284.15h51v-68h.56l45.24,68h56.71l-54.61-77.87,53.24-68.83h-56.64l-44,60.55h-.55V77.05h-51v207.1Zm-184.66,0h49.7V208.26c0-17.79,11.78-30,26.87-30,17.2,0,27,11.18,27,30v75.87h49.7V195.7c0-33.29-21.43-61.79-60.75-61.79-26.26,0-40,14.27-46.18,19.9h-1l-.51-16.27h-44.78V284.13ZM1108.53,62.94a28.7,28.7,0,1,0,28.67,28.72A28.83,28.83,0,0,0,1108.53,62.94Zm360.36,147.64c0-19.67-11.22-37.11-30.73-37.11-17.17,0-31,14.66-31,37.11,0,21.73,11.32,37.21,31,37.21C1455.92,247.79,1468.89,233,1468.89,210.58Z"/></g></g></svg>