<svg xmlns="http://www.w3.org/2000/svg" viewBox="0 0 2279.41 1002.76"><defs><style>.cls-1{fill-rule:evenodd;}</style></defs><g id="Layer_2" data-name="Layer 2"><g id="Layer_1-2" data-name="Layer 1"><path class="cls-1" d="M620.64,256.22S510.2,148,322.47,148C139.14,148,39.75,258.42,39.75,366.64c0,77.31,42,165.65,190,205.42,55.21,13.24,106,24.29,163.44,37.54,53,13.25,75.1,35.35,70.69,61.87-8.83,35.34-64.06,48.59-125.9,48.59-53,0-117.06-11-207.62-92.76L0,724.46c37.55,44.18,161.24,139.16,342.35,139.16S660.41,784.1,660.41,631.71c0-110.46-77.3-156.82-187.75-190-72.89-19.87-121.48-33.12-174.49-46.38-46.39-13.24-72.89-35.34-66.26-66.25,6.63-28.71,48.6-42,90.56-42s117,11,174.48,61.84ZM1404.74,159V315.85h-355.6V424.07H1301V576.48H1049.14V686.93h364.42V843.72H854.77V159ZM713.4,0h44.19V1002.76H713.4Zm773.06,0h42V1002.76h-42Zm141.36,843.72V159h402c114.84,0,209.85,68.46,209.85,174.48,0,83.94-53,132.52-99.4,150.2a9.69,9.69,0,0,1-6.64,2.21h6.64c81.72,26.51,139.15,83.94,139.15,174.5,0,112.63-95,183.31-212,183.31H1627.82v0ZM1820,302.6V421.87h154.6c35.37,0,64.06-28.72,64.06-59.65,0-33.13-28.7-59.64-64.06-59.64H1820Zm187.74,388.73a61.86,61.86,0,1,0,0-123.71H1820V691.31h187.74v0Z"/></g></g></svg>