<svg xmlns="http://www.w3.org/2000/svg" viewBox="0 0 2426.47 843.26"><defs><style>.cls-1{fill:#b01e24;}.cls-1,.cls-2{fill-rule:evenodd;}</style></defs><g id="Layer_2" data-name="Layer 2"><g id="Layer_1-2" data-name="Layer 1"><path class="cls-1" d="M256.89,444.08H2154.38V410.71H256.3Z"/><path class="cls-2" d="M696.4,297.88V263.3l1.5.3h4l8.48-.91,8.79-1.52,9.11-2.73,8.79-4.25,8.8-5.46,7.88-6.36,7.28-7,6.38-8.19,5.46-8.49,4.55-9.71,3.63-9.41,3.34-10,2.12-10.31L788,167.13l.3-11.83-.3-12.44-1.83-11.51-2.42-11.54-3-10.9-4.24-10-4.55-10-5.46-9.1-6.07-8.5L754,63.41l-6.68-7L740,49.75,732.45,44,724,39.14l-10-4.25-9.41-2.13-8.19-1.2V0l9.41.31,12.14.91,12.14,1.83,12.43,1.81,12.43,3,12.44,3.33,11.53,4.26L790.71,21l10.91,6.36,10.62,7.58L822,43.38l7.88,8.8,7.58,9.4,6.07,9.7,5.76,11.23,4.55,11.22,3.94,12.44,2.73,12.74,1.82,13.64.6,13-.6,13.34L861.08,172,859,184.73l-3.33,13.05-4.56,12.42L845,222.64l-7.58,10.92-8.5,10.61-8.18,9.4-9.7,8.5-10.63,7.57-11.22,6.68-12.42,6.07-12.44,5.15-12.73,3.64-12.44,3-12.74,2.13-13.95.59-7.59.6-6.67.3h-1.8v0Zm494.09-65.2-6.07,3.94-10.32,4.85-22.74,10.92-17.58,6.37-23.66,4.85L1088,264.83l-19.71-2.72-19.12-5.76-15.16-8.5-12.44-9.71L1010,226.92l-11.83-15.16L990,196.89,983.94,182l-4.55-15.77L977,148.06V132.29l1.82-13.95,3.94-14.87,5.76-13,8.19-12.14,8.8-10.32,12.14-10.31,13-8.49,12.73-5.76,15.77-4.55L1074,36.43l16.07-.3L1105.53,38l14.27,3.64,12.42,4.85,8.19,4.86,3.64,2.73,3.33,2.43L1145,8.24l-8.19-1.83-20.62-3-25.78-1.2-24,.9L1040.93,5.5l-23.35,4.55-22.75,6.68-20,9.11-15.77,9.09L944.78,46.46,932.66,58.9,921.14,75l-7.89,15.16-5.76,16.38-4.24,19.1-2.73,20.33.61,15.77,2.42,15.46L907.81,192l5.46,13.35,7.57,14.25L929.63,233l10,11.82,11.24,10.61,11.53,9.72,15.46,10,14.86,8.18,19.12,6.67,17.58,4.55,18.81,2.43,18.49.91h17.9l19.42-1.21,20.62-2.42,20.92-3.34,17.29-4.86,6.06-1.52,4.86-1.82,16.71-50Zm35.17,59.14h120.42l-5.47-3.64-5.14-4.86-4.56-6.36-3.62-7.29-1.83-6.07-1.52-7-.61-6.37V43.71l.3-3.34.91-6.66,2.12-6.67,2.42-6.38,4.25-5.46L1337.9,10l4.83-2.72,2.13-1.83h-119.2L1229,7.61l4.57,3.34,5.13,4.86,4,5.76,2.44,6.68,1.52,6.66.9,5.76.89,6.37-.59,3.33V253l-.61,6.67-2.13,7.59-2.43,6.67-4,6.37-4.54,5.46-4.25,3.64-2.44,1.82-1.8.62Zm160.15,0h203.83l18.79-57.33-5.13,3.95-10.92,5.75-12.44,4.87-15.18,5.15-13.34,3.63-13.05,1.83-13.66.91-13.63-.91-13.66-3-8.79-2.42-3.35-1.83-2.12-2.13-.91-1.52-.91-1.82v-1.52l-.3-4.55-.61-82.8v-.91l.61-1.52.91-1.22.91-1.2.91-.3,2.73-1.52,3.62-.91h10l9.4.91,9.09,2.13,7.28,2.72,6.08,2.44,5.75,3.63,2.73,2.43,1.22.61-.61-46.72h-61.28l-.3-75.23.3-1.81V40.35l.91-.91.61-1.22.91-.3,3-.9,39.42.29,8.5.61,7.88,1.22,7.27,2.13,6.38,3.33,5.14,3.65,3.64,5.15,1.22,3-.29-51H1385.77l3.64,2.44,5.16,5.15,3.93,5.15,3.35,6.07,2.74,7,1.51,6.07.91,7.58v4.25l.88,199.28v3.94l-.88,7.29-1.22,7.27-2.73,6.37-3.35,6.67-4.54,5.16-5.16,4.25-2.13,1.52-2.07.91Zm312.1,0H1815.6l-2.13-1.52-4.54-2.73-3.64-3.95-3.65-4.25-3-5.15-1.82-5.46-2.44-5.76-.91-6.37-.61-6.68V246l.61-197.76V46.44l.61-3.64.3-1.52,1.51-.9,1.22-.91,1.2-.61h1.83l5.16-.61h22.43l6.36.61,6.38.61,5.75,2.12,5.16,2.43,5.13,3,3.65,4,3.35,4.24,1.21,2.42,1.22,2.13.61,3.33L1884.12,5.5h-239l-17,50.05,2.73-2.44,4.87-3.94,4.83-2.73,5.17-3,4.54-2.13,4.86-1.81,5.45-.61,5.77-.61,45.79-.3h2.13l.61.3,2.74,1.22.91,1.2.58.91.61,1.21.3,2.72v.91l-.3,201.1v3.33l-.61,5.77-1.22,5.46-1.49,5.76-2.13,5.15-2.73,4.55-2.74,4.24-3,3.33-3.62,3.65-2.43,1.52-1.82,1.54Zm225.08,0H2126.5l19.1-57.33-5.45,3.95-10.61,5.75-12.43,4.87-15.18,5.15-13.65,3.63-13.05,1.83-13.32.91-14-.91-13.34-3-9.1-2.42-3-1.83-2.44-2.13-.61-1.52-.91-1.82v-1.52l-.29-4.55-.91-82.8.91-2.44.6-1.22.91-1.21.91-.3,2.74-1.51,3.95-.91h9.7l9.71.91,8.79,2.12,7.57,2.73,5.78,2.44,6.05,3.63,2.44,2.42,1.22.61-.3-46.71h-61.58l-.27-75.23.27-1.81V40.34l.91-.91.91-1.22.9-.3,3-.91,39.44.3,8.48.61,7.88,1.22,7.27,2.13,6.08,3.33,5.17,3.64,3.62,5.15,1.51,3-.61-51H1923l3.32,2.44,5.47,5.15,4,5.15,3.32,6.07,2.44,7,1.83,6.07.6,7.59v4.24l.91,199.28v4l-.91,7.29-1.21,7.27-2.44,6.37-3.65,6.67-4.54,5.16-4.86,4.25-2.1,1.52-2.14.92ZM277.53,280.9l5.15,2.74,5.15,1.51,10.92,4,12.14,3,12.43,2.13,11.22,1.21,13.65.91H360l11.85-.61,11.53-1.22L397,292.71l10.31-1.81,10.92-2.72,9.41-3.34,10-4.25,9.71-5.45,8.48-6.38,9.11-7.87,7.59-7.89,7.27-9.7L485.3,233l4.26-10.31,2.42-10,.3-11.53-1.52-10.61-3-11.22-4.85-10-5.76-8.2-7-7.89-8.48-7.28-9.11-6.37-10.61-5.46-12.73-5.76-11.83-5.15-14.86-6.07-13.65-5.77-12.42-4.85L367,102.27l-7-3.65-6.36-4.24-5.46-5.46-3.34-5.76-2.72-5.77-.91-6.67,1.22-6.36,3-5.76,3.95-5.15,4.86-5.15,7.28-4.55,6.68-3L376.47,38l9.41-2.13L396.49,35l8.79.3,9.4,1.22,8.48,1.82,8.5,3,6.67,3.33L445,48.3l6.36,4.85,3.34,2.44,4.24,3L457.43,11.3l-7-2.13L438.31,5.84,425.58,4,412.23,2.49l-12.74-.91H385.54l-11.83.61L361.57,3.4,351,4.92,341,7.64l-10.61,3L320,14l-10.3,4.55-10.92,5.76-7.57,6.07-7,7-6.37,8.49-5.16,8.81-3.65,8.79L267,73.77l-.91,9.42.3,11.22,2.43,11.83,3,9.09,4.85,9.4,5.46,7.89,6.37,7,9.4,8.19,8.8,6.38,9.1,4.85,10.92,5.76,14,5.76,12.42,4.85,11.23,5.15,10.31,4.55,9.72,4.24,7.57,4.25,6.37,4,5.45,3.33,4.25,3.64,3.34,3.95,1.81,4.24,1.52,4.85.3,5.16-.3,5.46L412.85,233l-2.12,5.15-3.65,4.26-4.55,3.64-6.11,3.31-7.29,3-8.18,3-9.72,2.13-10.61,1.22h-10l-10-.91L330.31,256l-10-2.43-9.4-2.42-8.8-3.34-8.18-3.33-8.52-3.66-7.57-4.24-7.29-4.55-6.07-4.85-2.73-2.44-3-2.13,18.82,58.25ZM696.4,0V31.59h-.61l-9.72.3-10.31,1.82-9.1,2.42-8.81,4.24-8.48,5.15L641.78,51l-6.66,6.67-6.37,7.29L622.07,74l-5.15,8.81-4.24,9.7-3.33,10.61-2.44,10.92L605.39,125l-.91,11.83.3,12.12L606,160.48l1.81,11.21,3.35,11.22,3.33,10.62,4.55,10,6.06,10,6.08,9.41,6.37,8.5,7.58,7.88,8.18,7.29,8.2,5.76,8.79,4.26,9.42,3.94,9.4,1.52,3.94.9,3.35.3v34.58l-5.46-.3h-6.07l-14-1.2L657,294.56l-12.74-2.73-12.14-3.94-12.14-4.55-12.11-6.07L596.3,270.9l-9.7-6.68-9.11-7.57-9.71-10-7.58-9.41-7.29-10.31-6-10.63-5.15-10.92-3.34-10-3-11.82-2.12-12.74-1.82-12.13V145.33l.61-12.74,2.13-12.74,2.44-13,3.94-12.13,4.85-11.83,6.07-10.92,6.37-10.31,7.88-10.31,8.8-9.09,9.71-8.5,9.7-6.66,10-6.38,10.32-5.15,10.92-4.26,11.21-3L648.2,5.53,659.12,3.4l12.13-1.82L682.47.38,694,.06h2.4V0ZM1725.52,731.91V696.14h28.2l-27.59-71.89-.61,1.52V549.33h47.32L1872,798l1.22,3.32,1.83,3.35,3.65,7.87,4.83,6.69,4.26,5.17,5.45,5.13,6.69,4.26,4.54,1.51H1788.3l2.73-1.51,3.35-3.35,2.44-2.13.61-2.44.88-2.41.91-4.86v-4.57l-1.2-4.22-1.82-5.17-29.45-72.8h-41.23v0Zm221.1,103.45h198.06L2165,785l-4.84,2.43-10.31,4.23-11.53,3.65-11.22,3-12.43,3-14.27,1.52h-14.57l-17.88-.61-13.66-1.83-5.14-.88-4.56-.61V590.86l.3-6.69,1.83-7.27,2.12-6.06,2.42-4.87,3.34-4.86,4-5.13,4.23-3.65,1.82-1.52,2.13-1.49H1946.61l3.64,2.1,4.86,4.26,3.62,4.56,2.74,3.93,2.74,5.16,2.43,6.36,1.83,6.69.61,7,.61,5.74V792l-.61,3.34-.61,6.06-1.83,5.47-1.82,5.48-2.44,5.13-2.71,4.57-2.74,4.23-3.64,4.25-4.87,3.35-1.8,1.53Zm256.61,0h203.82l19.42-57-6.08,4.23-10,5.16-12.73,5.14L2382.21,798,2368.86,802l-13.34,1.52-13.35.91-13.66-.91-13.63-3-8.51-2.41-3.32-1.83-2.73-1.83-1.22-3.64-.91-3.62v-2.74l-.3-82.2.3-2.74.91-1.22L2300,697l.9-.61,3.35-1.22,3.62-.61h9.4l9.7.61,8.82,2.1,7.58,2.74,5.74,2.44,6.09,3.95,2.43,1.83,1.5.91-.59-46.72h-61.28l-.3-75.23.3-3,.61-.91.91-1.19,1.22-.61,2.43-.61,40,.3,8.18.3,8.49,1.49,7,2.13,5.77,3.34,5.45,4,3.34,4.84,1.52,3V549.3h-179l3.64,2.41,5.75,5.16,3.64,4.84,3.35,6.69,2.41,6.36,1.52,6.38.91,7.57.3,4.26.29,198.95v4.26l-.29,7.27-1.83,7-2.42,7-3.34,6.08-4.57,5.75-4.83,4.25-2.13.91-2.41,1ZM296,687.63H204.43l4.25,2.74,5.15,4.56,4.55,5.14,4.25,6.68,2.72,7,1.52,9.1.3,6.69-.61,64.29-.91,4-1.83,3.35-3.63,2.41-6.37,3-15.47,2.73H179.24l-17.9-2.73-17.28-6.08-13-6.06L119.18,785l-11.83-11.22-9.1-13.35-7.59-15.17L84.6,729.81l-3.33-15.47-2.13-16.09-.3-15.44,1.82-15.48,3.94-14.86,5.15-14.24,6.37-12.44,8.18-12.14,10.92-10.92L128,593l14.25-7.6L158,580.89l15.78-3,16.07-.91,16.08.91,16.37,3,15.17,4.54,11.22,5.16,9.4,6.36,3.34,3,3.94,3.65-.91-48.85L257.16,553,235.62,549l-22.14-3.64L191,544.16H165l-22.14,2.13-19.71,3.62-21.23,6.69-20.62,8.79L64,575.39,48.83,586.64,34.58,600.9,21.84,617l-9.4,18.19-7,18.49L1.22,673.39,0,694.92l1.83,21.84,3.33,18.79,5.76,16.09,9.11,17,10.31,14.57,11.82,13.66,13.65,11.22L71.28,819,88,828.38l16.68,6.08,16.07,4.23,15.47,2.44L164.09,843l31.55.3,33.06-1.52,25.17-3,18.81-3.32L284.21,832l5.16-2.44,3.63-3,2.13-2.43.9-3.33.32-2.12-.33-131Zm1429.5-138.28v76.43L1697,696.15h28.52v35.77h-42.17l-31.84,76.15-.91,2.44-1.2,5.13v4.26l.89,4.23,1.51,3.64,3.35,4.25,2.13,1.83,2.12,1.52H1557.47l3-1.52,5.16-3,5.14-4,4.86-4.54,4.25-5.47,3.93-5.75,3.35-6.38,1.52-3.34,90.38-220.49.91-2.74.91-2.43,1.22-4.84V566l-.61-4.25-1.83-4.23-2.13-3.34-3.34-3.35-3.62-1.49Zm-1391.28,286H538.06l19.11-57-5.46,4.23-10.61,5.16-12.44,5.14L513.5,798,499.85,802l-13.34,1.52-13.66.9-13.34-.9-13.35-3L437.37,798l-3.34-1.8-2.12-1.83-1.83-3.65-.91-3.61V784.4l-.3-82.2.3-2.74,2.44-2.41,1.83-1.22,3.33-.91,6.37-.3h10l10,1.52,8.19,2.71,6.37,2.44,5.76,3.34,5.46,3.65.91.91V662.47H428.56L428,587.23l.61-3,1.52-2.1,2.12-.91,4.25-.3,41.25.61,7.89.61,8.49,2.1,5.77,2.44,6.06,3.34,4.55,4.87,1.22,2.41,1.21,3V549.36H334.24l3.64,2.41,5.46,5.16,3.94,4.84,3.33,6.7,2.43,6.35,1.22,6.38,1.51,7.58V593l.3,199v4.25l-.3,7.28-1.81,7-2.13,7-3.64,6.08-4.85,5.75-4.56,4.25-2.12.91-2.42.9Zm258.43,0H697l-2.13-.91-3.94-2.74-4.26-4-3.33-4.23L680.61,819l-2.72-4.86L676.37,809l-1.2-5.47-.91-5.75v-6.38l.3-136.48L799.82,805.63l5.77,6.08,5.46,6.06,5.76,4.57,6.07,4.22,5.77,4.26,7,3,6.68,3,7.28,1.83,8.19,1.52,8.49.91,8.81.29h4.24l-.61-246.58v-3.34l.61-5.78.61-6.05,1.82-6.09,2.12-5.13,3-5.16,3.33-5.14,3.34-3.95,4.55-3.35,1.51-1.49H797.12l2.73,2.1,4.55,3.34,3.63,3.65,3.35,4.84,3,5.16,2.12,5.13,1.52,6.09.91,5.45.6,5.77v3.32L819,720.39,677.61,549.33H592.07l2.72,1.5,4,3.34,3.63,3.35,3,4.23,2.43,4.86,2.13,4.25,1.51,4.84,1.22,5.16.91,5.75.6,5.16v3l.29,194.7v8.81l-.9,5.13-1.22,5.47-1.82,5.14-2.44,4.86-2.72,5.14-3,4.25L598.11,832l-3.33,2.44-2.11,1Zm346.37,0h203.52l19.41-57-5.75,4.23-10.32,5.16-12.43,5.14L1118,798,1104.65,802l-13.35,1.52-13.66.9-13.34-.9-14-3-8.18-2.41-3.64-1.83-2.43-1.83-1.21-3.64-.9-3.62v-2.74l-.3-82.2.3-2.74.9-1.22.91-1.19.91-.61,3.33-1.22,3.63-.61h9.41l9.4.61,9.09,2.1,7.59,2.74,5.76,2.44,5.76,3.95,2.72,1.83,1.22.91-.61-46.72h-60.63l-.61-75.23.61-3,.29-.91.61-1.19,1.52-.61,2.43-.61,40,.3,7.89.3,8.5,1.49,7,2.13,6.07,3.34,5.46,4,3.34,4.84,1.2,3V549.3H939l3.64,2.41,5.46,5.16,3.63,4.84,3.65,6.69,2.42,6.36,1.22,6.38,1.22,7.57V593l.6,198.95v4.26l-.6,7.27-1.52,7-2.72,7-3.33,6.08-4.56,5.75-4.55,4.25-2.12.91-2.44,1Zm258.12,0h118.61l-1.83-1.22-3.64-2.44-4-3.35-3.32-3.93-2.44-4.25-2.12-4.57-2.13-5.44-1.52-5.78-1.49-6-.3-5.77-.61-5.45V586.32l.61-1.22v-.9l.3-.91.88-.88.61-.91.91-.3.91-.61,1.51-.61,2.74-.91,4.25-.29h17l7.87.9,10,1.83,8.51,3.93,7.58,4.57,6.38,5.74,4.84,6.09,4,7,3,7,.58,7.58v7.57l-.58,7.6-2.74,7-3.35,7.57-5.13,7-5.77,5.75-7,5.16-7.29,3.64-8.79,3.32-9.7,3-9.41,1.83-7.89.29-3.32.61-2.13.61-1.22.91-.61.91V687l.61,1.83,2.13,3,74.9,102.51,6.69,8.18,5.45,6.38,4.56,5.45,5.14,4.86,4.56,4.84,4.87,3.35,4.83,3,5.78,2.13,6,1.52,5.75.88,3.34.32h76.46l2.41-.32h.91l.3-.58.61-.61v-1.21l-.61-.91-.3-.91-.91-.29-3-2.13-4.25-3.35-5.45-4.23-6.38-5.16-5.74-5.13-6.38-4.87-5.75-6-6.38-6.7-5.14-5.44-88.28-99.2,6.69-.61,9.7-2.12,10-2.71,9.4-3.35,7.88-4.23,7.6-5.16,7.27-7,5.17-7.28,3.61-8.49,2.44-8.18,1.52-8.51.3-9.09-.91-9.09-2.44-9.09-3.32-8.49-5.16-9.11-6.06-7-7-6.69-7.57-5.45-8.48-4.86-10-4.23-9.7-2.74-10.31-2.43L1367,550.88l-10.61-1.22-6.67-.27h-152.9l2.72,1.49,4.26,3,3.33,3.65,3.33,3.93,2.44,4.56,2.12,5.16,2.12,5.45.91,5.77.9,5.75.29,2.74v202l-.29,6.38-.9,5.45-1.83,5.77-1.51,4.84-2.73,4.86-3,4.84-3.34,3.64-4.25,4-1.82,1.52-2.41,1.18Z"/></g></g></svg>