<svg xmlns="http://www.w3.org/2000/svg" viewBox="0 0 2211.26 436.38"><defs><style>.cls-1{fill:#1a3b73;fill-rule:evenodd;}</style></defs><g id="Layer_2" data-name="Layer 2"><g id="Layer_1-2" data-name="Layer 1"><path class="cls-1" d="M139,247.84c-4.45-13.28-18.33-22.25-33.19-22.25H35.69a35.23,35.23,0,0,0,0,70.45l55.12,0-80,80a35.23,35.23,0,0,0,49.81,49.81l81.12-81.11L141.1,401a34.58,34.58,0,0,0,34.8,35.21A35.22,35.22,0,0,0,211.13,401V330.91A35.28,35.28,0,0,0,188,297.8s-36-12.93-49-50Zm109.41,50c-13.28,4.48-22.24,18.34-22.24,33.22v70.09a35.23,35.23,0,0,0,70.44,0l0-55.11,80,80a35.22,35.22,0,0,0,49.81-49.82l-81.11-81.12,56.21.61A34.57,34.57,0,0,0,436.78,261a35.23,35.23,0,0,0-35.22-35.24H331.45a35.21,35.21,0,0,0-33.1,23.17s-12.94,35.94-50,48.95ZM298.7,188.39c4.47,13.29,18.33,22.26,33.2,22.26H402a35.23,35.23,0,0,0,0-70.46l-55.1,0,80-80a35.23,35.23,0,0,0-49.82-49.83h0L296,91.44l.61-56.21A34.58,34.58,0,0,0,261.81,0a35.22,35.22,0,0,0-35.23,35.22h0v70.09a35.21,35.21,0,0,0,23.16,33.11S285.7,151.37,298.7,188.39ZM188.38,139c13.28-4.47,22.26-18.33,22.26-33.21V35.67a35.23,35.23,0,0,0-70.46,0l0,55.12-80-80A35.22,35.22,0,0,0,10.32,60.6h0l81.11,81.11-56.21-.61A34.56,34.56,0,0,0,0,175.87a35.21,35.21,0,0,0,35.21,35.24h70.1A35.25,35.25,0,0,0,138.42,188s12.93-36,50-49ZM549.09,37.88H495.67V4.93H641.72v33H588.3v145.3H549.09V37.88ZM654.4,4.93h35.46V72.09h.75a45.35,45.35,0,0,1,37.7-21.46c37.69,0,47.18,21.21,47.18,53.17v79.39H740v-72.9c0-21.21-6.26-31.7-22.73-31.7-19.22,0-27.45,10.74-27.45,37V183.2H654.4V4.93ZM824.6,127.25c1,22.48,12,32.71,31.7,32.71,14.24,0,25.7-8.75,28-16.74h31.19c-10,30.45-31.19,43.45-60.41,43.45-40.7,0-65.9-28-65.9-67.9,0-38.72,26.71-68.16,65.9-68.16,44,0,65.16,37,62.68,76.64Zm57.67-22.48c-3.25-18-11-27.45-28.2-27.45-22.48,0-29,17.48-29.46,27.45ZM975.33,4.93h96.13c32,0,52.2,22.22,52.2,49.18,0,21-8.51,36.7-28.23,44.69v.5c19.21,5,24.74,23.72,26,41.69.74,11.23.5,32.2,7.49,42.19h-39.2c-4.75-11.24-4.26-28.45-6.24-42.69-2.75-18.71-10-27-29.71-27h-39.2v69.65H975.33V4.93Zm39.21,80.62h42.94c17.49,0,27-7.48,27-25.46,0-17.22-9.48-24.7-27-24.7h-42.94V85.55Zm186.73-34.94c40.68,0,66.89,27,66.89,68.16,0,40.93-26.21,67.9-66.89,67.9-40.46,0-66.68-27-66.68-67.9C1134.59,77.58,1160.81,50.61,1201.27,50.61Zm0,109.36c24.21,0,31.43-20.72,31.43-41.19,0-20.72-7.22-41.45-31.43-41.45-24,0-31.21,20.73-31.21,41.45C1170.06,139.25,1177.27,160,1201.27,160Zm146.49,39.44c-7.76,20.7-20,29.2-44.46,29.2a208.36,208.36,0,0,1-21.71-1.25v-29.2c6.74.49,13.73,1.48,20.72,1.24,12.23-1.24,16.22-14,12.23-24.23L1269.1,54.09h38l29.21,88.36h.5L1365,54.09h36.71l-53.93,145.32ZM1487.51,120c-6,5.24-18.5,5.47-29.46,7.48-11,2.24-21,6-21,19,0,13.24,10.24,16.47,21.71,16.47,27.72,0,28.73-21.95,28.73-29.7V120Zm-81.89-26.24c2-33.19,31.68-43.18,60.67-43.18,25.71,0,56.67,5.74,56.67,36.69v67.17c0,11.74,1.24,23.47,4.51,28.71h-36a54.28,54.28,0,0,1-2.5-12.48c-11.22,11.74-27.69,16-43.42,16-24.48,0-44-12.23-44-38.7,0-29.2,22-36.2,44-39.19,21.71-3.25,41.94-2.5,41.94-17,0-15.23-10.49-17.49-23-17.49-13.47,0-22.21,5.5-23.49,19.47h-35.44ZM1543.16,4.93h35.45V183.18h-35.45Zm139.21,147.79h41.94c15.47,0,29-5,29-23.47,0-18.22-11.5-25.47-28.22-25.47h-42.71v48.94ZM1643.17,4.93h83.9c34,0,56.9,11,56.9,44.18,0,17.49-8.74,29.71-24.19,37.21,21.71,6.24,32.7,23,32.7,45.19,0,36.19-30.73,51.67-62.93,51.67h-86.38V4.93Zm39.2,72.15h39.7c13.73,0,24-6.25,24-21.21,0-17-13-20.47-27-20.47h-36.7V77.08Zm204.92,43c-6,5.24-18.47,5.47-29.46,7.48-11,2.24-21,6-21,19,0,13.24,10.24,16.47,21.71,16.47,27.75,0,28.73-21.95,28.73-29.7V120ZM1805.4,93.79c2-33.19,31.71-43.18,60.67-43.18,25.71,0,56.69,5.74,56.69,36.69v67.17c0,11.74,1.25,23.47,4.49,28.71h-36a52.69,52.69,0,0,1-2.47-12.48c-11.22,11.74-27.72,16-43.45,16-24.48,0-44-12.23-44-38.7,0-29.2,22-36.2,44-39.19,21.73-3.25,41.94-2.5,41.94-17,0-15.23-10.49-17.49-23-17.49-13.47,0-22.21,5.5-23.46,19.47H1805.4Zm137.8-39.68h33.7v18h.76c9-14.47,24.48-21.46,39.44-21.46,37.72,0,47.2,21.21,47.2,53.17v79.39h-35.43v-72.9c0-21.21-6.25-31.7-22.73-31.7-19.24,0-27.48,10.74-27.48,37V183.2h-35.43V54.11ZM2083.69,4.93h35.46v95.62l44.69-46.44h41.92l-48.66,47.43,54.16,81.64h-42.94l-35.46-57.68-13.71,13.24v44.44h-35.46V4.93ZM580.3,291.18c40.7,0,66.9,27,66.9,68.15,0,41-26.21,67.91-66.9,67.91-40.45,0-66.65-26.95-66.65-67.91C513.64,318.14,539.85,291.18,580.3,291.18Zm0,109.36c24.21,0,31.46-20.72,31.46-41.21,0-20.71-7.25-41.44-31.46-41.44-24,0-31.22,20.74-31.22,41.44C549.08,379.82,556.32,400.54,580.3,400.54Zm93.06-82.15H652.13V294.66h21.23v-10c0-22.71,14.23-39.18,43.2-39.18,6.23,0,12.72.77,18.73,1v26.46a110.5,110.5,0,0,0-13-.74c-9.5,0-13.49,4-13.49,14.73v7.73h24.47v23.73H708.82V423.74H673.37V318.39Zm148.7,46.18c0,23.72,18.47,33,39.44,33,13.75,0,34.7-4,34.7-22.23,0-19.21-26.7-22.46-52.91-29.45-26.46-7-53.19-17.21-53.19-50.66,0-36.46,34.45-53.94,66.68-53.94,37.18,0,71.39,16.23,71.39,57.41H890.23c-1.25-21.46-16.49-26.95-35.2-26.95-12.48,0-27,5.24-27,20.22,0,13.76,8.48,15.49,53.18,27,13,3.25,52.94,11.5,52.94,51.94,0,32.7-25.72,57.16-74.16,57.16-39.46,0-76.41-19.47-75.9-63.43h37.94Zm213.67-24.46c-2.25-14.47-11.49-22.23-26.21-22.23-22.71,0-30.21,23-30.21,41.94,0,18.49,7.24,40.7,29.45,40.7,16.48,0,26-10.49,28.21-26.21h34.21c-4.49,34.2-28.21,52.92-62.16,52.92-38.95,0-65.16-27.47-65.16-66.17,0-40.2,24-69.91,65.91-69.91,30.45,0,58.41,16,60.67,48.93h-34.71v0Zm112.83-48.93c40.71,0,66.92,27,66.92,68.15,0,41-26.21,67.91-66.92,67.91-40.44,0-66.65-26.95-66.65-67.91C1081.91,318.14,1108.1,291.18,1148.56,291.18Zm0,109.36c24.21,0,31.46-20.72,31.46-41.21,0-20.71-7.25-41.44-31.46-41.44-24,0-31.21,20.74-31.21,41.44C1117.34,379.82,1124.59,400.54,1148.56,400.54Zm126.52-105.88h26v23.73h-26V382.3c0,12,3,15,15,15a55.32,55.32,0,0,0,11-1V424a134.51,134.51,0,0,1-20.72,1.26c-21.74,0-40.69-5-40.69-30.72V318.4h-21.48V294.68h21.48V256h35.43v38.67Zm39.9-49.18h35.46V423.75H1315Zm136.76,115.1c-6,5.24-18.5,5.5-29.48,7.51-11,2.23-21,6-21,19,0,13.24,10.23,16.48,21.71,16.48,27.72,0,28.73-22,28.73-29.7V360.58Zm-81.89-26.2c2-33.22,31.71-43.2,60.67-43.2,25.71,0,56.66,5.75,56.66,36.7v67.17c0,11.74,1.25,23.48,4.49,28.7h-35.94a51.06,51.06,0,0,1-2.47-12.47c-11.25,11.72-27.72,16-43.45,16-24.48,0-44-12.23-44-38.69,0-29.22,22-36.2,44-39.19,21.71-3.23,41.94-2.48,41.94-17,0-15.23-10.49-17.48-23-17.48-13.5,0-22.24,5.5-23.49,19.48Zm137.8-39.72h33.7v18h.76c9-14.48,24.48-21.47,39.44-21.47,37.69,0,47.2,21.23,47.2,53.18v79.39h-35.46V350.86c0-21.23-6.23-31.7-22.72-31.7-19.2,0-27.46,10.73-27.46,37v67.65h-35.43V294.66ZM1742,407.28h-.48c-8.26,14-22.72,20-39.21,20-38.93,0-57.93-33.45-57.93-69.14,0-34.71,19.24-66.92,57.19-66.92,15.23,0,30.2,6.48,38.46,19.23h.22V245.48h35.46V423.74H1742V407.28Zm-31-89.4c-23.23,0-31.2,20-31.2,41.21,0,20.23,9.24,41.43,31.2,41.43,23.49,0,30.48-20.46,30.48-41.69,0-21-7.51-40.95-30.48-40.95Z"/></g></g></svg>