<svg xmlns="http://www.w3.org/2000/svg" viewBox="0 0 2426.49 909.77"><defs><style>.cls-1,.cls-2{fill-rule:evenodd;}.cls-2{fill:#cc2229;}</style></defs><g id="Layer_2" data-name="Layer 2"><g id="Layer_1-2" data-name="Layer 1"><path class="cls-1" d="M395.25,905.24c-.59-3.34-1.19-6.66-1.67-10q-.49-9.43-.82-18.89c-15.81,0-38.88-12-50.4-17.36-42-28.17-59.92-57.07-67.63-104.85V731.8c7.71-63.74,53.61-112.24,117.2-122.23h1.66V602.2h-33a21.31,21.31,0,0,1-4.16-11.53v-8.31c1.41-6.91,1.41-6.91,4.16-12.39,10.45-.35,20.91-.58,31.37-.8h1.66q-.87-68.65-1.66-137.08c-103.18,82.39-103.18,82.39-104.84,85,20,24.37,28.17,27.69-2.38,45.42-13.91-1-14.28-17.35-24-23.91-1.66.83-3.33,1.67-4.87,2.5,10.23,22.83,15,37.79,18.91,63.6v21.4c-4.05,27.56-6.9,36.25-20,61.21C232.64,717,194.12,747.46,156,747.46q-3.32-.5-6.65-.83h-9.87c-2.19.22-4.37.49-6.54.83-29.73,0-63.49-21.05-85-37.08-7.5,5.48-15,10.92-22.35,16.4C10.93,721.56,0,709.9,0,694.68c5.23-3.93,19.74-12.6,21.05-18.65C9.62,651.76,5.11,638.56,1.66,613.71V593.88C10.93,524.8,53.5,478.21,124.57,471.65h14.87c35.42,3.22,60.5,15.71,90,38.05,3.21-3.32,3.21-3.32,3.21-6.66-25.68-30.43-21.88-25.54,6.66-44.57,4.52,5.7,14.14,22.57,22.23,24,116.38-93.21,116.38-93.21,118.05-95.83-113-92.49-113-92.49-117.22-94.15-5,5.82-9.87,11.65-14.74,17.48,16.75,15.1,16.75,15.1,20.55,16.41-1.77,7.13-11.05,18-18.18,21.52-16.51-14.14-16.51-14.14-20.56-15.68-4.52,5.22-13.9,12.84-13.9,19.84l18.78,15.58c0,5.47-11.89,19.25-17.25,20.68q-27.27-22.29-54.32-44.46v-3.69q28.36-16,56.72-32c-.83-8.67-10.7-12.36-17.25-12.36q-26.91,14.43-53.61,28.89c1.66-11.06,12.6-52.67,18.07-60.27-4-5-4-5-14.86-13.43-9.28,17-15.82,44.94-21.4,64.66-17.24-4.28-46.85-31.38-59.44-46.23L87,249.14c7.6,5.82,14.27,12.49,24.37,16.17,4.75-6.66,11.29-12.84,11.29-20.92q-8.85-7.26-17.72-14.5c0-7.73,10.82-16.64,15.58-22.36,7.13,5.71,14.26,11.55,21.39,17.36,4.76-5.59,14.38-14.14,14.38-21.16-15.33-12-30.56-24-45.77-35.9,3.33-13.91,9.27-29,24.72-32.1q128.2,102.71,256.66,205.55.72-69.36,1.66-138.73H368.85c-.6,9-1.2,18.08-1.66,27.23h-26.4V203.4c-8.31-.37-16.64-.6-24.85-.83-.58,9-1.18,18.08-1.64,27.22H289.56V154.67q32.1,13.19,64.44,26.51c.48-6.9.94-13.79,1.54-20.68H354c-51.23-20.68-51.23-20.68-58.61-24.73,1.54-4.86,50.15-21.52,58.61-24.85h1.54V90.36H354c-61.1,24.72-61.1,24.72-64.44,24.72V40H314.3c.46,9,1.07,18.07,1.64,27.23,8.21-.37,16.54-.59,24.85-.83V40h26.4c.46,9,1.06,18.07,1.66,27.23h23.06c.48-20.69,1.07-41.36,1.66-61.93,9.5-7.37,29.24-6.9,39.59.83q.72,168.32,1.68,336.9Q563,238.85,691.37,134.94c13.67,8.08,24.24,14.38,26.39,32.93q-23,17.87-45.9,35.9c-.58,6.89,9.4,15.68,14.51,22,7.36-5.94,14.74-11.77,22.1-17.59,23.91,32.7,11.78,9.64-5.59,38.16,4.53,5.82,9,11.76,13.56,17.71,11.29,0,15.09-15.57,26-13.8l13.19,19.26c-9.39,7.84-49.45,45.64-58.49,46.6-6.31-22-14.5-43.63-20.92-64.2-5.59,0-10.22,6.19-14.27,9.63-.7,16.17,12.72,45.07,17.83,62.41-22.94-1.66-38-24.72-58.49-29.12-10,7.73-10,7.73-14.15,12.59q29.24,16.23,58.61,32.57v4.16c-52.42,42.09-52.42,42.09-56.95,44.23-5.11-6.06-14.38-14.28-14.86-20.69,15.69-14,15.69-14,19-14.86-5.82-9.87-5.82-9.87-15.68-21.4-5.59,4.63-15.93,15.69-22.36,15.69-5.71-7.25-13.07-13.43-13.67-21.16,5.59-4.52,16.64-10.82,17.83-17.72-5-5.58-10-11.05-14.86-16.52-111.38,90-111.38,90-115.42,95,4.4,5.35,4.4,5.35,116.26,95.83h3.32c6.31-8.08,12.61-16.06,19-24,11.41,4.61,18.07,6.54,24.85,19.61,0,9.5-15.69,17-18.31,28.3,1.66.81,3.33,1.65,5,2.48,27.82-21.38,52.9-33.65,88.21-37.21H702c73.47,6.66,114.48,54.56,123.76,126.38V609.6c-2.51,23.3-7,42.2-17.95,64.18,1.07,9.89,10.1,13.8,18.3,20.47a32.94,32.94,0,0,1-25.09,32.55c-15.33-13.65-15.33-13.65-21-16.87-22.59,16.51-55.27,37.56-84.52,37.56q-3.32-.5-6.65-.83H679c-2.22.21-4.44.49-6.64.83-4.88,0-20.46-2.39-23.08-5-61-19.16-83-55.4-95.69-114.73V603c4.17-27.58,7.25-36.86,19-61.1-1.66-1.19-3.32-2.25-5-3.34-6.42,7.75-12.71,15.57-19,23.43-13.44,1-22.23-10.23-27.22-20.09,6.53-8.34,13.2-16.64,19.85-24.85-103.2-84.16-103.2-84.16-106.39-85q-.9,68.48-1.67,137.08h32.92c8.21,3.19,4.52,26.85,0,33H433.14v7.37h1.67c64.66,6.54,110.79,59.8,118.75,123.87v18.19c-8,58.13-36.61,93.31-90.69,118-8.93,0-19.27,6.66-28.06,6.66-.6,9.63-1.19,19.25-1.67,28.91-8.77,6.49-30.64,5.56-37.89,0Zm229.32-313h8.2c41.14,0,49,69.53,4.16,78.45.83,2,.83,2,23.89,19.86,30.56-6.76,44.1-44.81,37.33-72,.74-.5,1.49-1,2.26-1.41h11.64c22.12-11.43,51.48-20.81,49.81-53.37-7.85-6-15.7-11.91-23.43-17.73-.35,2.15-.59,4.41-.83,6.66-16.29,45.55-68.84,43.17-78.93-4.63,3.7-23,17-43.26,43.4-43.26h10c13.79,0,26.51,8.21,39.59,15.68,41.72,37,54.44,82.5,29.59,135.78-9.87-1.09-13.2-12.62-24.72-14.39-13.07,10.47-15.09,13.3-22.23,28.89,18.08,15.44,18.08,15.44,19.73,18.18-41.61,36.73-91.64,31.39-134.44,3.35-25.93-28.78-39.59-42.45-23.3-80.83,7.37-8.6,15.94-19.18,28.3-19.18ZM306.93,747.46V735.93c3.22-22.95,5.23-33.54,19.84-51.24,27-16.29,37.1-18.77,62.66-.23,6.67,12.59,6.67,12.59,8.2,20.09v11.53c-6.77,32.45-37.56,39.59-63.49,24.85-.58,10.69-1.18,21.4-1.65,32.1h1.65c17.48,13.07,49.7,6.53,67.65-4.89,7-7.12,10.47-12.59,13.2-13.66,16.64,31,50.4,26.63,79.17,19.38V740.93a90.67,90.67,0,0,1-23.05,8.21h-6.53c-17.47,0-26.86-16.64-33.88-28.07-1.43-53.24,34.84-59.69,72.63-35C513.55,703,519,712.29,521.4,732.6v19.86c-3.8,21.63-7.85,30.19-19.73,50.28-16.17,17-42.68,40.53-66.79,40.53-.6-8.79-1.2-17.57-1.68-26.36-16.4-4.76-25.08-6.67-39.83.71,0,5.47.12,10.92.24,16.51v9.14c-45.44,0-85.14-56-86.68-95.81ZM116.36,504.72h9.87c12.36,0,21.87,6.54,32.22,14.87C188.76,564.4,138,609.82,97.7,569.52c-6.29-12.62-6.29-12.62-6.89-16.9-.36-2.26-.59-4.51-.83-6.67-23.89,18-23.89,18-25.56,20.7,7,21.77,24.49,46.36,50.28,49.57v1.68h13.19v-1.68a16.17,16.17,0,0,1,1.79.94c-.94,4.3-1.79,8.69-2.62,13.1v9.85c4.17,16.54,19,49.57,41.26,49.57,7.6-6.3,15.22-12.49,22.83-18.66-18-8.18-26.64-14.27-31-34.23v-9.88c4.4-16.16,15.7-34.71,35.42-34.71h8.33c18.18,0,32,21,35.42,38.06v13.2C220.62,713.12,124,739.38,73.45,688.85c6.29-5.21,12.59-10.46,19-15.68,0-15.57-9.27-24-20.69-31.38C59.3,643.08,56.2,655.34,47,656.17,23.15,603.86,34.2,555.12,78,519.11c12-6.54,24-14.39,38.41-14.39Z"/><path class="cls-2" d="M1158.72,152.63v435q0,73.44,24.08,105.46t80.86,32q65.31,0,96.36-46.61t31-129.47V151.76h-65.3V131.92h147.76v19.84h-58.89V559.4q0,87.58-43.91,142.19t-134.88,54.62q-99.61,0-146.7-51.33t-46.05-159.61V152.63H979.92V131.92h242v20.71ZM1526,131.92h238.77q102.78.93,156.86,33t54.08,97q-1.07,59.33-41.24,93.22T1817.21,405l1.06,4.71q83.52,20.73,128,60.73t44.44,103.12q0,81.93-61,128.53T1769,748.68H1526V728h62.11V152.63H1526V131.92Zm177.75,261.77h53.53q41.74,0,65.86-24.49t24.08-66.84V239.27q0-44.24-22.49-65t-62.08-21.64h-58.9Zm0,334.28h48.18q55.66,1,81.36-24.5T1860,608.38v-65q-1.07-65.89-25.15-97t-73.35-32h-57.81V728Zm351.2-12.75V567.37h30.9q16.54,59.39,52.06,106.47,46.6,61.67,108.7,61.65a36.3,36.3,0,0,0,11.78,0c4.28-.63,8.92-1.24,13.9-1.88q38.56-4.71,61-33t22.49-71.57q0-36.75-18.21-65.91t-72.8-56.49l-88.87-43.32q-51.37-24.48-78.17-65.92T2071,292q-1.08-73.44,43.9-120.53t113.48-47.08c56.75,1.86,117.93,23.41,164.89,46V307.05h-23.55q-5.68-19-12.31-37.66-5.24-15.21-11.22-30.13-21.43-45.19-51.4-69.69t-64.24-24.49q-42.83,0-68,18.84t-25.17,56.49q-1.08,39.56,15,66.86t58.9,47.08l97.43,47.07q55.7,28.24,86.19,77.22t31.6,105.46q0,79.1-47.12,135.6c-31.41,37.66-74.95,62.69-130.63,62.69-41.65,0-163.34-17.83-193.82-47.17Z"/></g></g></svg>