<svg xmlns="http://www.w3.org/2000/svg" viewBox="0 0 2426.46 295.56"><defs><style>.cls-1{fill:#cf4037;}.cls-1,.cls-3{fill-rule:evenodd;}.cls-2{fill:none;stroke:#222c32;stroke-miterlimit:33.89;stroke-width:11.85px;}</style></defs><g id="Layer_2" data-name="Layer 2"><g id="Layer_1-2" data-name="Layer 1"><path class="cls-1" d="M256.22,262.61,184.69,42.7C175.08,9.6,158,0,132.38,0H0C10.67,4.27,17.08,31,17.08,31L81.14,252c7.47,27.74,29.89,42.68,56.59,42.68H277.57C266.89,292.51,256.22,262.61,256.22,262.61Zm210.3,0L538.05,42.7C547.66,9.6,564.74,0,590.36,0H722.74c-10.67,4.27-17.08,31-17.08,31l-64,221c-7.47,27.74-29.89,42.68-56.57,42.68H445.17C455.85,292.51,466.52,262.61,466.52,262.61ZM284,294.63h154.8V1.08H284V294.63Z"/><path class="cls-2" d="M807.07,0V294.63"/><path class="cls-3" d="M1002.07,125.88,972,9.25H988l23.87,92.15,22-92.15h15.92l20.77,90.81,25.71-90.81h13.48L1077,125.88h-16.47L1040,36l-21.52,89.89ZM1178,123.11q-15.62,4.73-26.72,4.73-19,0-30.9-12.56t-11.9-32.61c0-13,3.51-23.62,10.52-31.89a33.63,33.63,0,0,1,26.93-12.47q15.52,0,24,11.08t8.47,31.39l-.08,4.73h-54q3.39,30.51,29.86,30.5c6.48,0,14.38-1.75,23.8-5.21v12.31Zm-53-49.25h37.77Q1162.79,50,1145,50T1125,73.86Zm66.81,49V108.61q15.21,7.55,26.48,7.56a16.91,16.91,0,0,0,11.11-3.63,11.25,11.25,0,0,0,4.43-9q0-8-12.38-13.15l-9.07-3.88q-20.1-8.34-20.09-24,0-11.16,7.9-17.58c5.3-4.27,12.54-6.44,21.72-6.44a99.23,99.23,0,0,1,17.73,2l3.22.64V53.93q-13-3.84-20.7-3.84c-4.53,0-8.16,1-10.84,3a9.24,9.24,0,0,0-4.06,7.89q0,7,11.35,11.82l7.48,3.15c8.43,3.58,14.44,7.34,18,11.32s5.27,8.91,5.27,14.86a22.74,22.74,0,0,1-8.9,18.5q-8.93,7.26-22.79,7.27-10.62,0-25.82-5Zm113.36,3a47,47,0,0,1-12.47,2q-11.81,0-18.41-6.77t-6.62-18.83V52H1257V40.3h10.71V24.77l15.5-1.5v17h22.4V52h-22.4V99.39c0,11.19,4.86,16.78,14.51,16.78a34.56,34.56,0,0,0,7.47-1v10.73Zm12,31.13V40.3h15.52V56.38c6.33-12,15.89-18,28.6-18,10.28,0,18.42,3.78,24.29,11.27s8.9,17.79,8.9,30.81q0,21.3-10,34.32c-6.72,8.68-15.5,13-26.45,13a32.08,32.08,0,0,1-25.28-11.67V157Zm15.52-51.54q12,10.68,22.85,10.7a18.61,18.61,0,0,0,16.54-8.92q5.85-9,5.85-25.18Q1378,52,1358.1,52c-8.69,0-17.12,4.71-25.38,14.1v39.39Zm120,9.52q-14,12.89-26.87,12.87-10.65,0-17.63-6.68a22.18,22.18,0,0,1-7-16.81q0-14.06,11.78-21.55t33.83-7.53h3.65V65c0-9.94-5.16-14.88-15.53-14.88q-12.08,0-26.34,7.56V44.8c10.49-4.26,20.31-6.38,29.56-6.38q14.24,0,21.05,6.51t6.76,20v38.78c0,8.88,2.76,13.3,8.21,13.3a20.3,20.3,0,0,0,3-.31l1.09,8.57a26.32,26.32,0,0,1-11.65,2.53c-7.23,0-11.88-4.28-13.85-12.85Zm-2.28-8.42V84.43l-5-.17c-8.62,0-15.56,1.63-20.85,4.82s-7.9,7.45-7.9,12.75a12.79,12.79,0,0,0,3.93,9.45,13.23,13.23,0,0,0,9.63,3.87c6.44,0,13.19-2.86,20.18-8.58Zm96.47,16.71c-10,3-18.69,4.58-26,4.58A36.74,36.74,0,0,1,1492.11,115q-11.4-12.83-11.43-32.39,0-20.85,11.3-32.51t31.57-11.67a103.19,103.19,0,0,1,22.39,2.77v13c-8.76-2.58-15.94-3.86-21.45-3.86-8,0-14.38,3-19.15,8.95s-7.18,13.9-7.18,23.82q0,14.4,7.4,23.32a24,24,0,0,0,19.37,8.91,50.1,50.1,0,0,0,21.93-5.43v13.4ZM973.24,293.6,1019.5,177h16.38l45.54,116.63h-17.89l-12.69-32.32h-49.33L988.59,293.6Zm33-44.61H1046l-19.91-50.28L1006.21,249Zm135.87,44.61V277.51q-12.39,18-30,18.05-11.19,0-17.81-7.05t-6.61-19.05V208h15.51v56.44c0,6.38.93,11,2.8,13.66s5,4.05,9.34,4.05q14.18,0,26.81-18.67V208h15.52v85.6h-15.52v0Zm33.28-3V276.32q15.21,7.57,26.5,7.55a16.86,16.86,0,0,0,11.1-3.62,11.23,11.23,0,0,0,4.41-9c0-5.32-4.11-9.7-12.38-13.15l-9.06-3.88q-20.09-8.37-20.09-24,0-11.17,7.91-17.6t21.72-6.41a99.85,99.85,0,0,1,17.73,1.94l3.25.67v12.89c-8.67-2.53-15.59-3.83-20.73-3.83-4.51,0-8.14,1-10.84,2.95a9.26,9.26,0,0,0-4.05,7.89c0,4.69,3.79,8.62,11.35,11.83l7.48,3.14q12.67,5.35,18,11.32a21.55,21.55,0,0,1,5.26,14.85A22.77,22.77,0,0,1,1224,288.3q-8.91,7.26-22.79,7.26-10.65,0-25.85-5Zm113.35,3a47.53,47.53,0,0,1-12.46,1.94q-11.8,0-18.42-6.76c-4.41-4.53-6.61-10.79-6.61-18.84V219.68h-10.71V208h10.71V192.48l15.5-1.49v17h22.4v11.67h-22.4V267.1c0,11.19,4.86,16.77,14.51,16.77a33.86,33.86,0,0,0,7.47-1V293.6Zm12,0V208h15.53v16.08q9.24-17.94,26.77-18a32.32,32.32,0,0,1,5,.4V221a23.37,23.37,0,0,0-7.12-1.34c-9.8,0-18,5.82-24.64,17.48v56.44h-15.53v0Zm100-10.9q-14,12.84-26.84,12.84c-7.13,0-13-2.23-17.66-6.66a22.17,22.17,0,0,1-7-16.83q0-14,11.77-21.53t33.84-7.54h3.62V232.66c0-9.93-5.16-14.86-15.52-14.86q-12,0-26.32,7.55V212.48q15.7-6.33,29.56-6.35,14.24,0,21,6.51t6.78,20v38.78q0,13.31,8.19,13.29a21.31,21.31,0,0,0,3-.3l1.12,8.56a26.45,26.45,0,0,1-11.68,2.53Q1403.69,295.54,1400.68,282.7Zm-2.28-8.43V252.16l-5-.18c-8.61,0-15.55,1.62-20.84,4.81s-7.92,7.44-7.92,12.73a12.75,12.75,0,0,0,3.93,9.46,13.28,13.28,0,0,0,9.64,3.88Q1387.9,282.86,1398.4,274.27Zm37.07,19.33V169.16H1451V293.6Zm36.42,0V208h15.52v85.6Zm0-101.13V177h15.52v15.5Zm80.55,90.23q-13.95,12.84-26.85,12.84c-7.12,0-13-2.23-17.65-6.66a22.17,22.17,0,0,1-7-16.83q0-14,11.77-21.53t33.84-7.54h3.62V232.66c0-9.93-5.16-14.86-15.5-14.86q-12.08,0-26.34,7.55V212.48q15.71-6.33,29.56-6.35,14.23,0,21,6.51c4.54,4.33,6.78,11,6.78,20v38.78q0,13.31,8.21,13.29a21.71,21.71,0,0,0,3-.3L1578,293a26.45,26.45,0,0,1-11.68,2.53q-10.82,0-13.85-12.84Zm-2.28-8.43V252.16l-5-.18c-8.61,0-15.55,1.62-20.84,4.81s-7.9,7.44-7.9,12.73a12.75,12.75,0,0,0,3.93,9.46,13.2,13.2,0,0,0,9.62,3.88q9.69,0,20.16-8.59ZM1584.31,212l-3.88-42.79h19.48L1596,212Zm26.52,78.64V276.32q15.2,7.57,26.47,7.55a16.86,16.86,0,0,0,11.12-3.62,11.19,11.19,0,0,0,4.41-9c0-5.32-4.1-9.7-12.36-13.15l-9.07-3.88q-20.1-8.37-20.09-24,0-11.17,7.9-17.6t21.74-6.41a100,100,0,0,1,17.73,1.94l3.21.67v12.89c-8.66-2.53-15.57-3.83-20.72-3.83q-6.78,0-10.85,2.95a9.25,9.25,0,0,0-4,7.89c0,4.69,3.8,8.62,11.35,11.83l7.47,3.14q12.68,5.35,18,11.32a21.55,21.55,0,0,1,5.26,14.85,22.8,22.8,0,0,1-8.92,18.52q-8.9,7.26-22.78,7.26c-7.06,0-15.69-1.68-25.82-5Zm136,3V177H1812v12.36h-48.64v39.09h40.83v12.21h-40.83v53Zm76.76,0V208h15.53v85.6Zm0-101.13V177h15.53v15.5Zm36.44,101.13V208h15.52v16.08q9.24-17.94,26.77-18a32.22,32.22,0,0,1,5,.4V221a23.37,23.37,0,0,0-7.12-1.34c-9.8,0-18,5.82-24.64,17.48v56.44h-15.52v0Zm52.69-3V276.32q15.19,7.57,26.5,7.55a16.84,16.84,0,0,0,11.09-3.62,11.19,11.19,0,0,0,4.41-9c0-5.32-4.1-9.7-12.36-13.15l-9.07-3.88q-20.1-8.37-20.09-24,0-11.17,7.9-17.6t21.74-6.41a100,100,0,0,1,17.73,1.94l3.21.67v12.89c-8.66-2.53-15.57-3.83-20.72-3.83q-6.78,0-10.82,2.95a9.22,9.22,0,0,0-4.07,7.89c0,4.69,3.8,8.62,11.35,11.83l7.49,3.14c8.43,3.57,14.44,7.34,18,11.32a21.55,21.55,0,0,1,5.26,14.85,22.8,22.8,0,0,1-8.92,18.52q-8.89,7.26-22.78,7.26-10.62,0-25.82-5Zm113.36,3a47.66,47.66,0,0,1-12.47,1.94q-11.81,0-18.41-6.76c-4.41-4.53-6.64-10.79-6.64-18.84V219.68h-10.69V208h10.69V192.48L2004.1,191v17h22.37v11.67H2004.1V267.1q0,16.78,14.49,16.77a34,34,0,0,0,7.49-1V293.6Zm72.8,0V177h30.27q17.48,0,26.82,6.62t9.35,19.08a28.05,28.05,0,0,1-6.25,18c-4.12,5.24-10.05,9.32-17.7,12.2q28.58,8.74,28.59,31.62a28.79,28.79,0,0,1-6.27,18.21,26,26,0,0,1-11.61,8.49c-4.51,1.64-10.82,2.45-18.82,2.45Zm16.39-12.39h3.37c12.17,0,20-.74,23.61-2.28q10.21-4.33,10.23-16.08,0-10.38-9.3-17.31c-6.21-4.59-13.95-6.88-23.28-6.88h-4.63v42.55Zm0-53h5.27q13.33,0,20.57-5.68c4.83-3.74,7.27-9.17,7.27-16.13q0-17-26.68-17h-6.43Zm110.83,54.54c-9.33,8.56-18.26,12.84-26.88,12.84q-10.63,0-17.65-6.66a22.28,22.28,0,0,1-7-16.83q0-14,11.77-21.53t33.84-7.54h3.62V232.66c0-9.93-5.14-14.86-15.5-14.86q-12.07,0-26.34,7.55V212.48q15.71-6.33,29.56-6.35,14.23,0,21,6.51t6.75,20v38.78q0,13.31,8.21,13.29a21.43,21.43,0,0,0,3-.3l1.09,8.56a26.41,26.41,0,0,1-11.65,2.53Q2229.09,295.54,2226.12,282.7Zm-2.31-8.43V252.16l-5-.18c-8.61,0-15.55,1.62-20.84,4.81s-7.9,7.44-7.9,12.73A12.75,12.75,0,0,0,2194,279a13.2,13.2,0,0,0,9.62,3.88q9.67,0,20.16-8.59Zm37.05,19.33V208h15.53v16.08q12.32-17.94,30.09-18c7.47,0,13.4,2.33,17.78,7s6.59,11,6.59,19v61.45h-15.53V237.14c0-6.36-.93-10.9-2.78-13.58s-4.95-4.05-9.25-4.05q-14.28,0-26.9,18.65v55.42h-15.53v0Zm90,0V169.16h15.53v80.37L2402.6,208h16.72l-34.69,40,41.83,45.62H2406.6l-40.25-43.91V293.6Z"/></g></g></svg>