<svg xmlns="http://www.w3.org/2000/svg" width="17.077" height="15.667" viewBox="0 0 17.077 15.667"><defs><style>.a{fill:#bb914a;}</style></defs><g transform="translate(-372.445 -2124)"><g transform="translate(-106.939 1641.659)"><path class="a" d="M493.255,483.917v9a1.6,1.6,0,0,0,3.206,0v-9a1.6,1.6,0,0,0-3.206,0"/><path class="a" d="M488.634,487.439v8.993a1.6,1.6,0,0,0,3.2,0v-8.993a1.6,1.6,0,0,0-3.2,0"/><path class="a" d="M484.006,483.917v9a1.606,1.606,0,0,0,3.212,0v-9a1.606,1.606,0,0,0-3.212,0"/><path class="a" d="M479.384,489.108v5.749a1.6,1.6,0,0,0,3.206,0v-5.749a1.6,1.6,0,0,0-3.206,0"/></g></g></svg>