<svg xmlns="http://www.w3.org/2000/svg" xmlns:xlink="http://www.w3.org/1999/xlink" width="52.999" height="52.999" viewBox="0 0 52.999 52.999"><defs><style>.a{fill:url(#a);}</style><linearGradient id="a" x1="0.5" x2="0.5" y2="1" gradientUnits="objectBoundingBox"><stop offset="0" stop-color="#a0762f"/><stop offset="0.158" stop-color="#fdc778"/><stop offset="0.505" stop-color="#ebcb88"/><stop offset="0.854" stop-color="#bb914a"/><stop offset="1" stop-color="#a0762f"/></linearGradient></defs><path class="a" d="M1168.395,192.428a8.109,8.109,0,0,1-1.667.948q-.828.1-1.667.125v-9.658c1.072.015,2.144.077,3.213.163a11.806,11.806,0,0,1,.662-1.513c-1.288-.129-2.584-.217-3.875-.242v-9.559h10.883a35.679,35.679,0,0,1-.291,4.052,12.119,12.119,0,0,1,1.646-.438c.138-1.212.232-2.426.25-3.647v.033h8.351a21.486,21.486,0,0,1-.746,4.823,12.009,12.009,0,0,1,3.991,3.482,26.5,26.5,0,0,0-33.367-34.239,9.654,9.654,0,0,1,2.85,5.827,9.343,9.343,0,0,1,3.166-2.236c.552-.063,1.111-.1,1.671-.125v9.658a47.242,47.242,0,0,1-6.608-.55,10.11,10.11,0,0,1-1.179,1.348,48.467,48.467,0,0,0,7.786.8v9.559h-10.887a37.069,37.069,0,0,1,1.225-8.955,9.729,9.729,0,0,1-1.817.809,38.248,38.248,0,0,0-1.013,8.179v-.033h-8.35a21.564,21.564,0,0,1,2.181-8.651,9.744,9.744,0,0,1-3.783-3.252,26.5,26.5,0,0,0,30.861,38.114,12.076,12.076,0,0,1-3.487-4.816m17.5-21.331h-8.351a38.086,38.086,0,0,0-1.752-10.939,35.526,35.526,0,0,0,5.383-1.8,21.531,21.531,0,0,1,4.72,12.736m-5.843-14.034a34.954,34.954,0,0,1-4.79,1.555,20,20,0,0,0-4.62-7.454,21.7,21.7,0,0,1,9.41,5.9m-15-6.84q.841.03,1.667.125c2.864,1.16,5.342,4.289,7.009,8.608a47.125,47.125,0,0,1-8.676.924Zm0,11.251a48.719,48.719,0,0,0,9.206-1,36.884,36.884,0,0,1,1.677,10.62H1165.06ZM1142.622,172.6l8.35.023a38.218,38.218,0,0,0,1.752,10.918,35.848,35.848,0,0,0-5.394,1.8,21.552,21.552,0,0,1-4.708-12.743m5.8,14.008a34.521,34.521,0,0,1,4.827-1.57,19.974,19.974,0,0,0,4.63,7.518,21.671,21.671,0,0,1-9.457-5.948m15.043,6.888q-.84-.03-1.665-.124c-2.867-1.161-5.341-4.289-7.012-8.609a47.211,47.211,0,0,1,8.677-.925Zm0-11.315a48.991,48.991,0,0,0-9.21,1,37.152,37.152,0,0,1-1.677-10.525v-.031h10.887Z" transform="translate(-1137.763 -145.362)"/><path class="a" d="M1192.748,191.157a10.584,10.584,0,1,0,10.582,10.584,10.586,10.586,0,0,0-10.582-10.584m2.887,14.67a3.37,3.37,0,0,1-2.257,1.032v1.5h-1.252v-1.489a3.281,3.281,0,0,1-3.047-2.859l1.937-.5a1.685,1.685,0,0,0,1.784,1.636,1.383,1.383,0,0,0,1.04-.348,1.188,1.188,0,0,0,.335-.847.925.925,0,0,0-.335-.776,5.945,5.945,0,0,0-1.483-.674,8.58,8.58,0,0,1-1.611-.71,2.654,2.654,0,0,1-.946-.978,2.906,2.906,0,0,1-.364-1.47,3.266,3.266,0,0,1,.649-1.978,2.9,2.9,0,0,1,2.04-1.075v-1.158h1.252v1.158a3.028,3.028,0,0,1,2.72,2.377l-1.727.707c-.339-.97-.856-1.456-1.561-1.456a1.137,1.137,0,0,0-.853.326,1.087,1.087,0,0,0-.32.788.888.888,0,0,0,.307.728,5.332,5.332,0,0,0,1.326.623,11.6,11.6,0,0,1,1.752.772,2.757,2.757,0,0,1,1.016,1,2.886,2.886,0,0,1,.376,1.494,3.156,3.156,0,0,1-.78,2.186" transform="translate(-1151.301 -159.325)"/><path class="a" d="M1150.5,145.362a8.311,8.311,0,1,0,8.311,8.312,8.312,8.312,0,0,0-8.311-8.312m2.266,11.522a2.644,2.644,0,0,1-1.77.807v1.177h-.988V157.7a2.582,2.582,0,0,1-2.391-2.244l1.522-.4a1.324,1.324,0,0,0,1.4,1.287,1.083,1.083,0,0,0,.819-.276.92.92,0,0,0,.26-.664.726.726,0,0,0-.26-.61,4.728,4.728,0,0,0-1.164-.528,6.859,6.859,0,0,1-1.269-.556,2.077,2.077,0,0,1-.74-.769,2.235,2.235,0,0,1-.286-1.155,2.563,2.563,0,0,1,.507-1.555,2.275,2.275,0,0,1,1.6-.842v-.908H1151v.908a2.384,2.384,0,0,1,2.135,1.867l-1.354.556c-.267-.764-.679-1.146-1.229-1.146a.9.9,0,0,0-.668.258.845.845,0,0,0-.254.619.694.694,0,0,0,.244.571,4.358,4.358,0,0,0,1.041.491,9.49,9.49,0,0,1,1.376.6,2.134,2.134,0,0,1,.793.787,2.235,2.235,0,0,1,.3,1.171,2.491,2.491,0,0,1-.612,1.72" transform="translate(-1139.112 -145.362)"/></svg>