<svg xmlns="http://www.w3.org/2000/svg" xmlns:xlink="http://www.w3.org/1999/xlink" width="36.527" height="52.843" viewBox="0 0 36.527 52.843"><defs><style>.a{fill:url(#a);}</style><linearGradient id="a" x1="0.5" x2="0.5" y2="1" gradientUnits="objectBoundingBox"><stop offset="0" stop-color="#a0762f"/><stop offset="0.158" stop-color="#fdc778"/><stop offset="0.505" stop-color="#ebcb88"/><stop offset="0.854" stop-color="#bb914a"/><stop offset="1" stop-color="#a0762f"/></linearGradient></defs><g transform="translate(0)"><path class="a" d="M215.462,478.846a1.67,1.67,0,0,1-1.67,1.67H180.6a1.67,1.67,0,0,1-1.67-1.67h0a1.67,1.67,0,0,1,1.67-1.671h33.187a1.67,1.67,0,0,1,1.67,1.671Z" transform="translate(-178.935 -477.175)"/><path class="a" d="M215.462,532.057a1.671,1.671,0,0,1-1.67,1.671H180.6a1.671,1.671,0,0,1-1.67-1.671h0a1.67,1.67,0,0,1,1.67-1.67h33.187a1.67,1.67,0,0,1,1.67,1.67Z" transform="translate(-178.935 -480.884)"/><path class="a" d="M181.328,481.852v44.323H213.4V481.852Zm16.037,33.43a10.607,10.607,0,1,1,10.607-10.607A10.606,10.606,0,0,1,197.365,515.282Z" transform="translate(-179.101 -477.501)"/><path class="a" d="M201.773,505.272h.036l-3.619-6.07-3.564,6.07h.037a4.307,4.307,0,0,0-1.095,2.84,4.653,4.653,0,0,0,9.3,0A4.311,4.311,0,0,0,201.773,505.272Z" transform="translate(-179.954 -478.711)"/><path class="a" d="M214.992,486.66c0,1.149-1.534,2.08-3.425,2.08H182.907c-1.892,0-3.426-.931-3.426-2.08h0c0-1.148,1.534-2.079,3.426-2.079h28.659c1.891,0,3.425.931,3.425,2.079Z" transform="translate(-178.972 -477.692)"/><path class="a" d="M214.991,525.331c0,1.148-1.534,2.079-3.425,2.079H182.906c-1.892,0-3.426-.931-3.426-2.079h0c0-1.149,1.534-2.079,3.426-2.079h28.659c1.891,0,3.425.93,3.425,2.079Z" transform="translate(-178.972 -480.387)"/><path class="a" d="M186.651,505.932h-6.385c-.434,0-.785.637-.785,1.423s.351,1.424.785,1.424h6.652a10.587,10.587,0,0,1-.289-2.426C186.629,506.211,186.645,506.072,186.651,505.932Z" transform="translate(-178.972 -479.18)"/><path class="a" d="M216.31,505.932h-6.385c.006.14.021.279.021.421a10.587,10.587,0,0,1-.289,2.426h6.653c.434,0,.785-.637.785-1.424S216.745,505.932,216.31,505.932Z" transform="translate(-181.076 -479.18)"/></g></svg>