<svg xmlns="http://www.w3.org/2000/svg" xmlns:xlink="http://www.w3.org/1999/xlink" width="54.206" height="52.518" viewBox="0 0 54.206 52.518"><defs><style>.a{fill:url(#a);}</style><linearGradient id="a" x1="0.247" y1="0.103" x2="0.84" y2="0.863" gradientUnits="objectBoundingBox"><stop offset="0" stop-color="#a0762f"/><stop offset="0.158" stop-color="#fdc778"/><stop offset="0.505" stop-color="#ebcb88"/><stop offset="0.854" stop-color="#bb914a"/><stop offset="1" stop-color="#a0762f"/></linearGradient></defs><path class="a" d="M102.248,683.851l-5.554.838a.036.036,0,0,1-.034-.059,26.248,26.248,0,0,0-25.484-41.626,1.341,1.341,0,0,0-.2.034,26.249,26.249,0,0,0-9.27,3.583l-.014.01-.04.03a.159.159,0,0,0-.038.026l-.03.028-.043.036-.022.024a.509.509,0,0,0-.043.049l-.016.02c-.014.018-.028.034-.04.053l-.018.028-.03.051-.02.04-.02.043-.02.049-.012.04-.014.051-.012.04-.008.047a.481.481,0,0,0-.006.051l0,.04,0,.057,0,.014v17.066a.035.035,0,0,1-.034.034,2.605,2.605,0,0,0-2.435,2.595v10.992a2.607,2.607,0,0,0,2.435,2.6.033.033,0,0,1,.034.034v7.6a.038.038,0,0,1-.059.03,24.483,24.483,0,0,1-2.718-2.346,24.3,24.3,0,0,1-2.085-32,.037.037,0,0,1,.067.02l.468,6.064a.325.325,0,0,0,.35.3l.909-.071a.324.324,0,0,0,.3-.348l-.67-8.677a.324.324,0,0,0-.372-.3l-8.606,1.3a.328.328,0,0,0-.273.372l.136.9a.325.325,0,0,0,.37.273l5.556-.838a.035.035,0,0,1,.034.057,26.26,26.26,0,0,0,34.3,38.408l.045-.03a.973.973,0,0,0,.6-.9v-12.6a.039.039,0,0,1,.036-.036,2.6,2.6,0,0,0,2.479-2.6v-18.23a2.64,2.64,0,0,0-2.641-2.639.037.037,0,0,1-.036-.039v-5.522a.037.037,0,0,1,.059-.032,24.3,24.3,0,0,1,5.434,34.791.038.038,0,0,1-.067-.022L94.39,677.6a.327.327,0,0,0-.35-.3l-.909.071a.326.326,0,0,0-.3.35l.67,8.675a.323.323,0,0,0,.372.3l8.606-1.3a.324.324,0,0,0,.273-.368l-.136-.9a.322.322,0,0,0-.37-.271M63.2,680.775a.039.039,0,0,1,.036-.039,2.6,2.6,0,0,0,2.524-2.6V667.145a2.6,2.6,0,0,0-2.524-2.6.035.035,0,0,1-.036-.034V648.016a.036.036,0,0,1,.02-.03,24.21,24.21,0,0,1,7.007-2.8.04.04,0,0,1,.047.038v9.43a.035.035,0,0,1-.036.034,2.606,2.606,0,0,0-2.479,2.6v16.552a2.6,2.6,0,0,0,2.479,2.6.036.036,0,0,1,.036.036v16.056a.04.04,0,0,1-.047.036,24.3,24.3,0,0,1-7.007-2.809.041.041,0,0,1-.02-.034ZM72.222,692.9V676.472a.035.035,0,0,1,.034-.036,2.6,2.6,0,0,0,2.479-2.6V657.286a2.606,2.606,0,0,0-2.479-2.6.033.033,0,0,1-.034-.034v-9.806a.036.036,0,0,1,.032-.037,24.329,24.329,0,0,1,5.993-.105c.223.022.447.053.67.083a.037.037,0,0,1,.032.036V661.5a.036.036,0,0,1-.036.034,2.6,2.6,0,0,0-2.479,2.6v16.947a2.6,2.6,0,0,0,2.479,2.6.038.038,0,0,1,.036.037v9.217a.037.037,0,0,1-.032.036,24.329,24.329,0,0,1-6.663-.024.036.036,0,0,1-.032-.039m15.259-38.436a.036.036,0,0,1-.034.036,2.6,2.6,0,0,0-2.317,2.587v18.267a2.6,2.6,0,0,0,2.479,2.6.037.037,0,0,1,.034.036V690a.033.033,0,0,1-.018.03,24.176,24.176,0,0,1-6.679,2.575.036.036,0,0,1-.045-.036v-8.855a.036.036,0,0,1,.034-.037,2.606,2.606,0,0,0,2.479-2.6V664.132a2.6,2.6,0,0,0-2.479-2.6.034.034,0,0,1-.034-.034V645.187a.037.037,0,0,1,.045-.036,24.339,24.339,0,0,1,6.515,2.481.039.039,0,0,1,.02.034Z" transform="translate(-48.551 -642.618)"/></svg>