<svg xmlns="http://www.w3.org/2000/svg" xmlns:xlink="http://www.w3.org/1999/xlink" width="67.224" height="52.659" viewBox="0 0 67.224 52.659"><defs><style>.a{fill:url(#a);}</style><linearGradient id="a" x1="0.5" x2="0.5" y2="1" gradientUnits="objectBoundingBox"><stop offset="0" stop-color="#a0762f"/><stop offset="0.158" stop-color="#fdc778"/><stop offset="0.505" stop-color="#ebcb88"/><stop offset="0.854" stop-color="#bb914a"/><stop offset="1" stop-color="#a0762f"/></linearGradient></defs><path class="a" d="M531.671,173.824a3.141,3.141,0,0,1-2.757,1.725H504.247a3.148,3.148,0,0,1-2.755-1.725,3.693,3.693,0,0,1,0-3.447l6.167-11.569a3.136,3.136,0,0,1,2.756-1.721h12.328a3.142,3.142,0,0,1,2.758,1.721l6.167,11.569A3.679,3.679,0,0,1,531.671,173.824Zm6.659-15.608-1.1,5.159-5.164,1.1,5.164,1.1,1.1,5.159,1.1-5.159,5.166-1.1-5.166-1.1Zm-40.036-6.022-1.1,5.157-5.166,1.1,5.166,1.1,1.1,5.16,1.1-5.16,5.164-1.1-5.164-1.1Zm26.286-8.188-1.1,5.159-5.164,1.1,5.164,1.1,1.1,5.162,1.1-5.162,5.164-1.1-5.164-1.1Z" transform="translate(-482.974 -144.006)"/><path class="a" d="M511.06,200.983,504.9,189.414a3.141,3.141,0,0,0-2.755-1.721H489.81a3.139,3.139,0,0,0-2.755,1.721l-6.167,11.569a3.688,3.688,0,0,0,0,3.447,3.143,3.143,0,0,0,2.756,1.725H508.3a3.147,3.147,0,0,0,2.755-1.725A3.7,3.7,0,0,0,511.06,200.983Z" transform="translate(-480.46 -153.496)"/><path class="a" d="M557.3,200.983l-6.167-11.569a3.14,3.14,0,0,0-2.754-1.721H536.046a3.145,3.145,0,0,0-2.756,1.721l-6.164,11.569a3.7,3.7,0,0,0,0,3.447,3.142,3.142,0,0,0,2.754,1.725h24.665a3.149,3.149,0,0,0,2.758-1.725A3.69,3.69,0,0,0,557.3,200.983Z" transform="translate(-490.504 -153.496)"/></svg>